<?xml version="1.0" encoding="UTF-8" standalone="no"?>
<!DOCTYPE svg PUBLIC "-//W3C//DTD SVG 1.1//EN"
 "http://www.w3.org/Graphics/SVG/1.1/DTD/svg11.dtd">
<!-- Generated by graphviz version 2.43.0 (0)
 -->
<!-- Title: hal&#45;driver Pages: 1 -->
<svg width="176pt" height="148pt"
 viewBox="0.00 0.00 176.00 148.00" xmlns="http://www.w3.org/2000/svg" xmlns:xlink="http://www.w3.org/1999/xlink">
<g id="graph0" class="graph" transform="scale(1 1) rotate(0) translate(4 144)">
<title>hal&#45;driver</title>
<polygon fill="white" stroke="transparent" points="-4,4 -4,-144 172,-144 172,4 -4,4"/>
<g id="clust1" class="cluster">
<title>clusterdir_6836b5cc1c1add1f898d40f94de9ef24</title>
<g id="a_clust1"><a xlink:href="dir_6836b5cc1c1add1f898d40f94de9ef24.html" target="_top">
<polygon fill="#eeeeff" stroke="black" points="8,-8 8,-132 160,-132 160,-8 8,-8"/>
</a>
</g>
</g>
<!-- dir_6836b5cc1c1add1f898d40f94de9ef24 -->
<g id="node1" class="node">
<title>dir_6836b5cc1c1add1f898d40f94de9ef24</title>
<text text-anchor="middle" x="120" y="-103.5" font-family="Helvetica,sans-Serif" font-size="10.00">hal&#45;driver</text>
</g>
<!-- dir_e3970647f7a7c5b7d5ad59925ad8fc92 -->
<g id="node2" class="node">
<title>dir_e3970647f7a7c5b7d5ad59925ad8fc92</title>
<g id="a_node2"><a xlink:href="dir_e3970647f7a7c5b7d5ad59925ad8fc92.html" target="_top" xlink:title="Inc">
<polygon fill="white" stroke="black" points="70,-52 16,-52 16,-16 70,-16 70,-52"/>
<text text-anchor="middle" x="43" y="-31.5" font-family="Helvetica,sans-Serif" font-size="10.00">Inc</text>
</a>
</g>
</g>
<!-- dir_636b82598bf774f5bca03dbc2aa81744 -->
<g id="node3" class="node">
<title>dir_636b82598bf774f5bca03dbc2aa81744</title>
<g id="a_node3"><a xlink:href="dir_636b82598bf774f5bca03dbc2aa81744.html" target="_top" xlink:title="Src">
<polygon fill="white" stroke="black" points="70,-124 16,-124 16,-88 70,-88 70,-124"/>
<text text-anchor="middle" x="43" y="-103.5" font-family="Helvetica,sans-Serif" font-size="10.00">Src</text>
</a>
</g>
</g>
<!-- dir_636b82598bf774f5bca03dbc2aa81744&#45;&gt;dir_e3970647f7a7c5b7d5ad59925ad8fc92 -->
<g id="edge1" class="edge">
<title>dir_636b82598bf774f5bca03dbc2aa81744&#45;&gt;dir_e3970647f7a7c5b7d5ad59925ad8fc92</title>
<path fill="none" stroke="black" d="M43,-87.7C43,-79.98 43,-70.71 43,-62.11"/>
<polygon fill="black" stroke="black" points="46.5,-62.1 43,-52.1 39.5,-62.1 46.5,-62.1"/>
<g id="a_edge1&#45;headlabel"><a xlink:href="dir_000002_000001.html" target="_top" xlink:title="80">
<text text-anchor="middle" x="49.34" y="-63.2" font-family="Helvetica,sans-Serif" font-size="10.00">80</text>
</a>
</g>
</g>
</g>
</svg>
