<?xml version="1.0" encoding="UTF-8" standalone="no"?>
<!DOCTYPE svg PUBLIC "-//W3C//DTD SVG 1.1//EN"
 "http://www.w3.org/Graphics/SVG/1.1/DTD/svg11.dtd">
<!-- Generated by graphviz version 2.43.0 (0)
 -->
<!-- Title: WWDG Exported Constants Pages: 1 -->
<svg width="475pt" height="138pt"
 viewBox="0.00 0.00 475.00 138.00" xmlns="http://www.w3.org/2000/svg" xmlns:xlink="http://www.w3.org/1999/xlink">
<g id="graph0" class="graph" transform="scale(1 1) rotate(0) translate(4 134)">
<title>WWDG Exported Constants</title>
<polygon fill="white" stroke="transparent" points="-4,4 -4,-134 471,-134 471,4 -4,4"/>
<!-- Node6 -->
<g id="node1" class="node">
<title>Node6</title>
<g id="a_node1"><a xlink:href="group__WWDG__EWI__Mode.html" target="_top" xlink:title=" ">
<polygon fill="white" stroke="black" points="467,-130 272,-130 272,-111 467,-111 467,-130"/>
<text text-anchor="middle" x="369.5" y="-118" font-family="Helvetica,sans-Serif" font-size="10.00">WWDG Early Wakeup Interrupt Mode</text>
</a>
</g>
</g>
<!-- Node5 -->
<g id="node2" class="node">
<title>Node5</title>
<g id="a_node2"><a xlink:href="group__WWDG__Prescaler.html" target="_top" xlink:title=" ">
<polygon fill="white" stroke="black" points="419,-93 320,-93 320,-74 419,-74 419,-93"/>
<text text-anchor="middle" x="369.5" y="-81" font-family="Helvetica,sans-Serif" font-size="10.00">WWDG Prescaler</text>
</a>
</g>
</g>
<!-- Node2 -->
<g id="node3" class="node">
<title>Node2</title>
<g id="a_node3"><a xlink:href="group__WWDG.html" target="_top" xlink:title=" ">
<polygon fill="white" stroke="black" points="51,-74 0,-74 0,-55 51,-55 51,-74"/>
<text text-anchor="middle" x="25.5" y="-62" font-family="Helvetica,sans-Serif" font-size="10.00">WWDG</text>
</a>
</g>
</g>
<!-- Node1 -->
<g id="node6" class="node">
<title>Node1</title>
<g id="a_node6"><a xlink:title=" ">
<polygon fill="#bfbfbf" stroke="black" points="236,-74 87,-74 87,-55 236,-55 236,-74"/>
<text text-anchor="middle" x="161.5" y="-62" font-family="Helvetica,sans-Serif" font-size="10.00">WWDG Exported Constants</text>
</a>
</g>
</g>
<!-- Node2&#45;&gt;Node1 -->
<g id="edge1" class="edge">
<title>Node2&#45;&gt;Node1</title>
<path fill="none" stroke="black" d="M61.31,-64.5C69.22,-64.5 77.91,-64.5 86.76,-64.5"/>
<polygon fill="black" stroke="black" points="61.08,-61 51.08,-64.5 61.08,-68 61.08,-61"/>
</g>
<!-- Node4 -->
<g id="node4" class="node">
<title>Node4</title>
<g id="a_node4"><a xlink:href="group__WWDG__Flag__definition.html" target="_top" xlink:title="WWDG Flag definition.">
<polygon fill="white" stroke="black" points="431.5,-56 307.5,-56 307.5,-37 431.5,-37 431.5,-56"/>
<text text-anchor="middle" x="369.5" y="-44" font-family="Helvetica,sans-Serif" font-size="10.00">WWDG Flag definition</text>
</a>
</g>
</g>
<!-- Node3 -->
<g id="node5" class="node">
<title>Node3</title>
<g id="a_node5"><a xlink:href="group__WWDG__Interrupt__definition.html" target="_top" xlink:title=" ">
<polygon fill="white" stroke="black" points="442,-19 297,-19 297,0 442,0 442,-19"/>
<text text-anchor="middle" x="369.5" y="-7" font-family="Helvetica,sans-Serif" font-size="10.00">WWDG Interrupt definition</text>
</a>
</g>
</g>
<!-- Node1&#45;&gt;Node6 -->
<g id="edge5" class="edge">
<title>Node1&#45;&gt;Node6</title>
<path fill="none" stroke="black" d="M196.15,-77.65C217.61,-85.66 246.14,-95.64 272,-102.5 284.11,-105.71 297.22,-108.56 309.76,-110.99"/>
<polygon fill="black" stroke="black" points="197.12,-74.27 186.53,-74.01 194.65,-80.82 197.12,-74.27"/>
</g>
<!-- Node1&#45;&gt;Node5 -->
<g id="edge4" class="edge">
<title>Node1&#45;&gt;Node5</title>
<path fill="none" stroke="black" d="M246.52,-72.25C271.51,-74.55 298.06,-77 319.98,-79.02"/>
<polygon fill="black" stroke="black" points="246.57,-68.74 236.29,-71.31 245.93,-75.71 246.57,-68.74"/>
</g>
<!-- Node1&#45;&gt;Node4 -->
<g id="edge3" class="edge">
<title>Node1&#45;&gt;Node4</title>
<path fill="none" stroke="black" d="M246.52,-57.16C266.91,-55.38 288.33,-53.5 307.44,-51.84"/>
<polygon fill="black" stroke="black" points="245.95,-53.7 236.29,-58.05 246.56,-60.67 245.95,-53.7"/>
</g>
<!-- Node1&#45;&gt;Node3 -->
<g id="edge2" class="edge">
<title>Node1&#45;&gt;Node3</title>
<path fill="none" stroke="black" d="M197.03,-51.43C218.39,-43.7 246.52,-34.15 272,-27.5 284.2,-24.32 297.41,-21.47 310.03,-19.03"/>
<polygon fill="black" stroke="black" points="195.6,-48.23 187.42,-54.95 198.01,-54.8 195.6,-48.23"/>
</g>
</g>
</svg>
