<?xml version="1.0" encoding="UTF-8" standalone="no"?>
<!DOCTYPE svg PUBLIC "-//W3C//DTD SVG 1.1//EN"
 "http://www.w3.org/Graphics/SVG/1.1/DTD/svg11.dtd">
<!-- Generated by graphviz version 2.43.0 (0)
 -->
<!-- Title: SMARTCARD Exported constants Pages: 1 -->
<svg width="430pt" height="495pt"
 viewBox="0.00 0.00 430.00 495.00" xmlns="http://www.w3.org/2000/svg" xmlns:xlink="http://www.w3.org/1999/xlink">
<g id="graph0" class="graph" transform="scale(1 1) rotate(0) translate(4 491)">
<title>SMARTCARD Exported constants</title>
<polygon fill="white" stroke="transparent" points="-4,4 -4,-491 426,-491 426,4 -4,4"/>
<!-- Node12 -->
<g id="node1" class="node">
<title>Node12</title>
<g id="a_node1"><a xlink:href="group__SMARTCARD__DMA__Requests.html" target="_top" xlink:title=" ">
<polygon fill="white" stroke="black" points="422,-487 273,-487 273,-468 422,-468 422,-487"/>
<text text-anchor="middle" x="347.5" y="-475" font-family="Helvetica,sans-Serif" font-size="10.00">SMARTCARD DMA requests</text>
</a>
</g>
</g>
<!-- Node11 -->
<g id="node2" class="node">
<title>Node11</title>
<g id="a_node2"><a xlink:href="group__SMARTCARD__NACK__State.html" target="_top" xlink:title=" ">
<polygon fill="white" stroke="black" points="416,-450 279,-450 279,-431 416,-431 416,-450"/>
<text text-anchor="middle" x="347.5" y="-438" font-family="Helvetica,sans-Serif" font-size="10.00">SMARTCARD NACK State</text>
</a>
</g>
</g>
<!-- Node8 -->
<g id="node3" class="node">
<title>Node8</title>
<g id="a_node3"><a xlink:href="group__SMARTCARD__Clock__Polarity.html" target="_top" xlink:title=" ">
<polygon fill="white" stroke="black" points="421.5,-413 273.5,-413 273.5,-394 421.5,-394 421.5,-413"/>
<text text-anchor="middle" x="347.5" y="-401" font-family="Helvetica,sans-Serif" font-size="10.00">SMARTCARD Clock Polarity</text>
</a>
</g>
</g>
<!-- Node9 -->
<g id="node4" class="node">
<title>Node9</title>
<g id="a_node4"><a xlink:href="group__SMARTCARD__Clock__Phase.html" target="_top" xlink:title=" ">
<polygon fill="white" stroke="black" points="417.5,-376 277.5,-376 277.5,-357 417.5,-357 417.5,-376"/>
<text text-anchor="middle" x="347.5" y="-364" font-family="Helvetica,sans-Serif" font-size="10.00">SMARTCARD Clock Phase</text>
</a>
</g>
</g>
<!-- Node14 -->
<g id="node5" class="node">
<title>Node14</title>
<g id="a_node5"><a xlink:href="group__SmartCard__Flags.html" target="_top" xlink:title=" ">
<polygon fill="white" stroke="black" points="401,-339 294,-339 294,-320 401,-320 401,-339"/>
<text text-anchor="middle" x="347.5" y="-327" font-family="Helvetica,sans-Serif" font-size="10.00">SMARTCARD Flags</text>
</a>
</g>
</g>
<!-- Node2 -->
<g id="node6" class="node">
<title>Node2</title>
<g id="a_node6"><a xlink:href="group__SMARTCARD.html" target="_top" xlink:title="HAL SMARTCARD module driver.">
<polygon fill="white" stroke="black" points="77,-259 0,-259 0,-240 77,-240 77,-259"/>
<text text-anchor="middle" x="38.5" y="-247" font-family="Helvetica,sans-Serif" font-size="10.00">SMARTCARD</text>
</a>
</g>
</g>
<!-- Node1 -->
<g id="node12" class="node">
<title>Node1</title>
<g id="a_node12"><a xlink:title=" ">
<polygon fill="#bfbfbf" stroke="black" points="237,-264.5 113,-264.5 113,-234.5 237,-234.5 237,-264.5"/>
<text text-anchor="start" x="121" y="-252.5" font-family="Helvetica,sans-Serif" font-size="10.00">SMARTCARD Exported</text>
<text text-anchor="middle" x="175" y="-241.5" font-family="Helvetica,sans-Serif" font-size="10.00"> constants</text>
</a>
</g>
</g>
<!-- Node2&#45;&gt;Node1 -->
<g id="edge1" class="edge">
<title>Node2&#45;&gt;Node1</title>
<path fill="none" stroke="black" d="M87.46,-249.5C95.67,-249.5 104.29,-249.5 112.79,-249.5"/>
<polygon fill="black" stroke="black" points="87.32,-246 77.32,-249.5 87.32,-253 87.32,-246"/>
</g>
<!-- Node10 -->
<g id="node7" class="node">
<title>Node10</title>
<g id="a_node7"><a xlink:href="group__SMARTCARD__Last__Bit.html" target="_top" xlink:title=" ">
<polygon fill="white" stroke="black" points="406,-302 289,-302 289,-283 406,-283 406,-302"/>
<text text-anchor="middle" x="347.5" y="-290" font-family="Helvetica,sans-Serif" font-size="10.00">SMARTCARD Last Bit</text>
</a>
</g>
</g>
<!-- Node15 -->
<g id="node8" class="node">
<title>Node15</title>
<g id="a_node8"><a xlink:href="group__SmartCard__Interrupt__definition.html" target="_top" xlink:title=" ">
<polygon fill="white" stroke="black" points="411.5,-264.5 283.5,-264.5 283.5,-234.5 411.5,-234.5 411.5,-264.5"/>
<text text-anchor="start" x="291.5" y="-252.5" font-family="Helvetica,sans-Serif" font-size="10.00">SMARTCARD Interrupts</text>
<text text-anchor="middle" x="347.5" y="-241.5" font-family="Helvetica,sans-Serif" font-size="10.00"> Definition</text>
</a>
</g>
</g>
<!-- Node13 -->
<g id="node9" class="node">
<title>Node13</title>
<g id="a_node9"><a xlink:href="group__SMARTCARD__Prescaler.html" target="_top" xlink:title=" ">
<polygon fill="white" stroke="black" points="410,-216 285,-216 285,-197 410,-197 410,-216"/>
<text text-anchor="middle" x="347.5" y="-204" font-family="Helvetica,sans-Serif" font-size="10.00">SMARTCARD Prescaler</text>
</a>
</g>
</g>
<!-- Node5 -->
<g id="node10" class="node">
<title>Node5</title>
<g id="a_node10"><a xlink:href="group__SMARTCARD__Stop__Bits.html" target="_top" xlink:title=" ">
<polygon fill="white" stroke="black" points="413.5,-178.5 281.5,-178.5 281.5,-148.5 413.5,-148.5 413.5,-178.5"/>
<text text-anchor="start" x="289.5" y="-166.5" font-family="Helvetica,sans-Serif" font-size="10.00">SMARTCARD Number of</text>
<text text-anchor="middle" x="347.5" y="-155.5" font-family="Helvetica,sans-Serif" font-size="10.00"> Stop Bits</text>
</a>
</g>
</g>
<!-- Node7 -->
<g id="node11" class="node">
<title>Node7</title>
<g id="a_node11"><a xlink:href="group__SMARTCARD__Mode.html" target="_top" xlink:title=" ">
<polygon fill="white" stroke="black" points="401,-130 294,-130 294,-111 401,-111 401,-130"/>
<text text-anchor="middle" x="347.5" y="-118" font-family="Helvetica,sans-Serif" font-size="10.00">SMARTCARD Mode</text>
</a>
</g>
</g>
<!-- Node1&#45;&gt;Node12 -->
<g id="edge11" class="edge">
<title>Node1&#45;&gt;Node12</title>
<path fill="none" stroke="black" d="M180.3,-274.61C189.24,-318.95 214.16,-411.02 273,-459.5 277.16,-462.93 281.87,-465.71 286.85,-467.98"/>
<polygon fill="black" stroke="black" points="183.71,-273.83 178.4,-264.67 176.84,-275.14 183.71,-273.83"/>
</g>
<!-- Node1&#45;&gt;Node11 -->
<g id="edge10" class="edge">
<title>Node1&#45;&gt;Node11</title>
<path fill="none" stroke="black" d="M182.96,-274.49C194.88,-312.5 222.89,-384.41 273,-422.5 277.5,-425.92 282.56,-428.7 287.86,-430.95"/>
<polygon fill="black" stroke="black" points="186.26,-273.3 180.02,-264.73 179.56,-275.31 186.26,-273.3"/>
</g>
<!-- Node1&#45;&gt;Node8 -->
<g id="edge7" class="edge">
<title>Node1&#45;&gt;Node8</title>
<path fill="none" stroke="black" d="M186.82,-274.11C201.69,-304.99 231.41,-357.31 273,-385.5 278,-388.89 283.58,-391.64 289.36,-393.88"/>
<polygon fill="black" stroke="black" points="189.92,-272.47 182.51,-264.89 183.57,-275.43 189.92,-272.47"/>
</g>
<!-- Node1&#45;&gt;Node9 -->
<g id="edge8" class="edge">
<title>Node1&#45;&gt;Node9</title>
<path fill="none" stroke="black" d="M192.71,-272.95C210.17,-295.7 239.63,-329.49 273,-348.5 279.05,-351.95 285.74,-354.74 292.56,-357"/>
<polygon fill="black" stroke="black" points="195.42,-270.73 186.62,-264.83 189.82,-274.93 195.42,-270.73"/>
</g>
<!-- Node1&#45;&gt;Node14 -->
<g id="edge13" class="edge">
<title>Node1&#45;&gt;Node14</title>
<path fill="none" stroke="black" d="M203.68,-270.68C222.37,-284.09 248.1,-300.84 273,-311.5 280.73,-314.81 289.19,-317.59 297.53,-319.9"/>
<polygon fill="black" stroke="black" points="205.5,-267.68 195.36,-264.61 201.37,-273.33 205.5,-267.68"/>
</g>
<!-- Node1&#45;&gt;Node10 -->
<g id="edge9" class="edge">
<title>Node1&#45;&gt;Node10</title>
<path fill="none" stroke="black" d="M245.45,-267.02C267.09,-272.47 290.13,-278.28 308.74,-282.98"/>
<polygon fill="black" stroke="black" points="246.18,-263.59 235.63,-264.54 244.47,-270.38 246.18,-263.59"/>
</g>
<!-- Node1&#45;&gt;Node15 -->
<g id="edge14" class="edge">
<title>Node1&#45;&gt;Node15</title>
<path fill="none" stroke="black" d="M247.41,-249.5C259.31,-249.5 271.59,-249.5 283.27,-249.5"/>
<polygon fill="black" stroke="black" points="247.07,-246 237.07,-249.5 247.07,-253 247.07,-246"/>
</g>
<!-- Node1&#45;&gt;Node13 -->
<g id="edge12" class="edge">
<title>Node1&#45;&gt;Node13</title>
<path fill="none" stroke="black" d="M245.45,-231.98C267.09,-226.53 290.13,-220.72 308.74,-216.02"/>
<polygon fill="black" stroke="black" points="244.47,-228.62 235.63,-234.46 246.18,-235.41 244.47,-228.62"/>
</g>
<!-- Node1&#45;&gt;Node5 -->
<g id="edge4" class="edge">
<title>Node1&#45;&gt;Node5</title>
<path fill="none" stroke="black" d="M204.68,-228.43C223.42,-215.36 248.83,-198.94 273,-187.5 279.92,-184.23 287.4,-181.22 294.85,-178.53"/>
<polygon fill="black" stroke="black" points="202.45,-225.72 196.31,-234.35 206.49,-231.44 202.45,-225.72"/>
</g>
<!-- Node1&#45;&gt;Node7 -->
<g id="edge6" class="edge">
<title>Node1&#45;&gt;Node7</title>
<path fill="none" stroke="black" d="M190.56,-225.91C207.33,-200.71 237.25,-161.45 273,-139.5 279.4,-135.57 286.6,-132.45 293.92,-129.97"/>
<polygon fill="black" stroke="black" points="187.49,-224.2 184.98,-234.5 193.36,-228.01 187.49,-224.2"/>
</g>
<!-- Node6 -->
<g id="node13" class="node">
<title>Node6</title>
<g id="a_node13"><a xlink:href="group__SMARTCARD__Parity.html" target="_top" xlink:title=" ">
<polygon fill="white" stroke="black" points="401.5,-93 293.5,-93 293.5,-74 401.5,-74 401.5,-93"/>
<text text-anchor="middle" x="347.5" y="-81" font-family="Helvetica,sans-Serif" font-size="10.00">SMARTCARD Parity</text>
</a>
</g>
</g>
<!-- Node1&#45;&gt;Node6 -->
<g id="edge5" class="edge">
<title>Node1&#45;&gt;Node6</title>
<path fill="none" stroke="black" d="M185.39,-224.73C199.32,-191.44 228.67,-132.84 273,-101.5 279.11,-97.18 286.15,-93.89 293.39,-91.38"/>
<polygon fill="black" stroke="black" points="182.07,-223.6 181.57,-234.19 188.56,-226.23 182.07,-223.6"/>
</g>
<!-- Node4 -->
<g id="node14" class="node">
<title>Node4</title>
<g id="a_node14"><a xlink:href="group__SMARTCARD__Word__Length.html" target="_top" xlink:title=" ">
<polygon fill="white" stroke="black" points="418,-56 277,-56 277,-37 418,-37 418,-56"/>
<text text-anchor="middle" x="347.5" y="-44" font-family="Helvetica,sans-Serif" font-size="10.00">SMARTCARD Word Length</text>
</a>
</g>
</g>
<!-- Node1&#45;&gt;Node4 -->
<g id="edge3" class="edge">
<title>Node1&#45;&gt;Node4</title>
<path fill="none" stroke="black" d="M181.98,-224.52C192.91,-184.41 220.04,-105.94 273,-64.5 277.35,-61.1 282.24,-58.33 287.4,-56.08"/>
<polygon fill="black" stroke="black" points="178.56,-223.74 179.43,-234.3 185.34,-225.51 178.56,-223.74"/>
</g>
<!-- Node3 -->
<g id="node15" class="node">
<title>Node3</title>
<g id="a_node15"><a xlink:href="group__SMARTCARD__Error__Code.html" target="_top" xlink:title=" ">
<polygon fill="white" stroke="black" points="413,-19 282,-19 282,0 413,0 413,-19"/>
<text text-anchor="middle" x="347.5" y="-7" font-family="Helvetica,sans-Serif" font-size="10.00">SMARTCARD Error Code</text>
</a>
</g>
</g>
<!-- Node1&#45;&gt;Node3 -->
<g id="edge2" class="edge">
<title>Node1&#45;&gt;Node3</title>
<path fill="none" stroke="black" d="M179.62,-224.3C187.63,-178 211.33,-79.4 273,-27.5 277.02,-24.12 281.58,-21.35 286.41,-19.09"/>
<polygon fill="black" stroke="black" points="176.13,-223.94 177.98,-234.37 183.04,-225.07 176.13,-223.94"/>
</g>
</g>
</svg>
