<?xml version="1.0" encoding="UTF-8" standalone="no"?>
<!DOCTYPE svg PUBLIC "-//W3C//DTD SVG 1.1//EN"
 "http://www.w3.org/Graphics/SVG/1.1/DTD/svg11.dtd">
<!-- Generated by graphviz version 2.43.0 (0)
 -->
<!-- Title: DMAEx Pages: 1 -->
<svg width="414pt" height="101pt"
 viewBox="0.00 0.00 414.00 101.00" xmlns="http://www.w3.org/2000/svg" xmlns:xlink="http://www.w3.org/1999/xlink">
<g id="graph0" class="graph" transform="scale(1 1) rotate(0) translate(4 97)">
<title>DMAEx</title>
<polygon fill="white" stroke="transparent" points="-4,4 -4,-97 410,-97 410,4 -4,4"/>
<!-- Node4 -->
<g id="node1" class="node">
<title>Node4</title>
<g id="a_node1"><a xlink:href="group__DMAEx__Exported__Functions.html" target="_top" xlink:title="DMAEx Exported functions.">
<polygon fill="white" stroke="black" points="406,-93 258,-93 258,-74 406,-74 406,-93"/>
<text text-anchor="middle" x="332" y="-81" font-family="Helvetica,sans-Serif" font-size="10.00">DMAEx Exported Functions</text>
</a>
</g>
</g>
<!-- Node5 -->
<g id="node2" class="node">
<title>Node5</title>
<g id="a_node2"><a xlink:href="group__DMAEx__Private__Functions.html" target="_top" xlink:title="DMAEx Private functions.">
<polygon fill="white" stroke="black" points="401.5,-56 262.5,-56 262.5,-37 401.5,-37 401.5,-56"/>
<text text-anchor="middle" x="332" y="-44" font-family="Helvetica,sans-Serif" font-size="10.00">DMAEx Private Functions</text>
</a>
</g>
</g>
<!-- Node2 -->
<g id="node3" class="node">
<title>Node2</title>
<g id="a_node3"><a xlink:href="group__STM32F4xx__HAL__Driver.html" target="_top" xlink:title=" ">
<polygon fill="white" stroke="black" points="134,-56 0,-56 0,-37 134,-37 134,-56"/>
<text text-anchor="middle" x="67" y="-44" font-family="Helvetica,sans-Serif" font-size="10.00">STM32F4xx_HAL_Driver</text>
</a>
</g>
</g>
<!-- Node1 -->
<g id="node5" class="node">
<title>Node1</title>
<g id="a_node5"><a xlink:title="DMA Extended HAL module driver.">
<polygon fill="#bfbfbf" stroke="black" points="222,-56 170,-56 170,-37 222,-37 222,-56"/>
<text text-anchor="middle" x="196" y="-44" font-family="Helvetica,sans-Serif" font-size="10.00">DMAEx</text>
</a>
</g>
</g>
<!-- Node2&#45;&gt;Node1 -->
<g id="edge1" class="edge">
<title>Node2&#45;&gt;Node1</title>
<path fill="none" stroke="black" d="M144.22,-46.5C153.44,-46.5 162.29,-46.5 169.94,-46.5"/>
<polygon fill="black" stroke="black" points="144.1,-43 134.1,-46.5 144.1,-50 144.1,-43"/>
</g>
<!-- Node3 -->
<g id="node4" class="node">
<title>Node3</title>
<g id="a_node4"><a xlink:href="group__DMAEx__Exported__Types.html" target="_top" xlink:title="DMAEx Exported types.">
<polygon fill="white" stroke="black" points="396.5,-19 267.5,-19 267.5,0 396.5,0 396.5,-19"/>
<text text-anchor="middle" x="332" y="-7" font-family="Helvetica,sans-Serif" font-size="10.00">DMAEx Exported Types</text>
</a>
</g>
</g>
<!-- Node1&#45;&gt;Node4 -->
<g id="edge3" class="edge">
<title>Node1&#45;&gt;Node4</title>
<path fill="none" stroke="black" d="M231.8,-57.74C240.34,-60.38 249.48,-63.12 258,-65.5 268.44,-68.41 279.78,-71.32 290.34,-73.94"/>
<polygon fill="black" stroke="black" points="232.71,-54.35 222.13,-54.7 230.62,-61.03 232.71,-54.35"/>
</g>
<!-- Node1&#45;&gt;Node5 -->
<g id="edge4" class="edge">
<title>Node1&#45;&gt;Node5</title>
<path fill="none" stroke="black" d="M232.22,-46.5C241.54,-46.5 251.93,-46.5 262.37,-46.5"/>
<polygon fill="black" stroke="black" points="232.2,-43 222.2,-46.5 232.2,-50 232.2,-43"/>
</g>
<!-- Node1&#45;&gt;Node3 -->
<g id="edge2" class="edge">
<title>Node1&#45;&gt;Node3</title>
<path fill="none" stroke="black" d="M231.8,-35.26C240.34,-32.62 249.48,-29.88 258,-27.5 268.44,-24.59 279.78,-21.68 290.34,-19.06"/>
<polygon fill="black" stroke="black" points="230.62,-31.97 222.13,-38.3 232.71,-38.65 230.62,-31.97"/>
</g>
</g>
</svg>
