<?xml version="1.0" encoding="UTF-8" standalone="no"?>
<!DOCTYPE svg PUBLIC "-//W3C//DTD SVG 1.1//EN"
 "http://www.w3.org/Graphics/SVG/1.1/DTD/svg11.dtd">
<!-- Generated by graphviz version 2.43.0 (0)
 -->
<!-- Title: WWDG Pages: 1 -->
<svg width="417pt" height="175pt"
 viewBox="0.00 0.00 417.00 175.00" xmlns="http://www.w3.org/2000/svg" xmlns:xlink="http://www.w3.org/1999/xlink">
<g id="graph0" class="graph" transform="scale(1 1) rotate(0) translate(4 171)">
<title>WWDG</title>
<polygon fill="white" stroke="transparent" points="-4,4 -4,-171 413,-171 413,4 -4,4"/>
<!-- Node1 -->
<g id="node1" class="node">
<title>Node1</title>
<g id="a_node1"><a xlink:title=" ">
<polygon fill="#bfbfbf" stroke="black" points="221,-93 170,-93 170,-74 221,-74 221,-93"/>
<text text-anchor="middle" x="195.5" y="-81" font-family="Helvetica,sans-Serif" font-size="10.00">WWDG</text>
</a>
</g>
</g>
<!-- Node3 -->
<g id="node2" class="node">
<title>Node3</title>
<g id="a_node2"><a xlink:href="group__WWDG__Exported__Types.html" target="_top" xlink:title=" ">
<polygon fill="white" stroke="black" points="397,-167 269,-167 269,-148 397,-148 397,-167"/>
<text text-anchor="middle" x="333" y="-155" font-family="Helvetica,sans-Serif" font-size="10.00">WWDG Exported Types</text>
</a>
</g>
</g>
<!-- Node1&#45;&gt;Node3 -->
<g id="edge2" class="edge">
<title>Node1&#45;&gt;Node3</title>
<path fill="none" stroke="black" d="M210.58,-100.6C221.87,-113.19 238.78,-129.75 257,-139.5 263.38,-142.91 270.4,-145.68 277.51,-147.94"/>
<polygon fill="black" stroke="black" points="213.21,-98.28 204.02,-93.01 207.92,-102.86 213.21,-98.28"/>
</g>
<!-- Node5 -->
<g id="node3" class="node">
<title>Node5</title>
<g id="a_node3"><a xlink:href="group__WWDG__Private__Macros.html" target="_top" xlink:title=" ">
<polygon fill="white" stroke="black" points="396.5,-130 269.5,-130 269.5,-111 396.5,-111 396.5,-130"/>
<text text-anchor="middle" x="333" y="-118" font-family="Helvetica,sans-Serif" font-size="10.00">WWDG Private Macros</text>
</a>
</g>
</g>
<!-- Node1&#45;&gt;Node5 -->
<g id="edge4" class="edge">
<title>Node1&#45;&gt;Node5</title>
<path fill="none" stroke="black" d="M230.77,-94.71C239.31,-97.38 248.46,-100.14 257,-102.5 267.58,-105.43 279.08,-108.33 289.82,-110.92"/>
<polygon fill="black" stroke="black" points="231.7,-91.34 221.11,-91.65 229.59,-98.01 231.7,-91.34"/>
</g>
<!-- Node4 -->
<g id="node5" class="node">
<title>Node4</title>
<g id="a_node5"><a xlink:href="group__WWDG__Exported__Constants.html" target="_top" xlink:title=" ">
<polygon fill="white" stroke="black" points="407.5,-93 258.5,-93 258.5,-74 407.5,-74 407.5,-93"/>
<text text-anchor="middle" x="333" y="-81" font-family="Helvetica,sans-Serif" font-size="10.00">WWDG Exported Constants</text>
</a>
</g>
</g>
<!-- Node1&#45;&gt;Node4 -->
<g id="edge3" class="edge">
<title>Node1&#45;&gt;Node4</title>
<path fill="none" stroke="black" d="M231.14,-83.5C239.54,-83.5 248.84,-83.5 258.3,-83.5"/>
<polygon fill="black" stroke="black" points="231.04,-80 221.04,-83.5 231.04,-87 231.04,-80"/>
</g>
<!-- Node6 -->
<g id="node6" class="node">
<title>Node6</title>
<g id="a_node6"><a xlink:href="group__WWDG__Exported__Macros.html" target="_top" xlink:title=" ">
<polygon fill="white" stroke="black" points="401,-56 265,-56 265,-37 401,-37 401,-56"/>
<text text-anchor="middle" x="333" y="-44" font-family="Helvetica,sans-Serif" font-size="10.00">WWDG Exported Macros</text>
</a>
</g>
</g>
<!-- Node1&#45;&gt;Node6 -->
<g id="edge5" class="edge">
<title>Node1&#45;&gt;Node6</title>
<path fill="none" stroke="black" d="M230.77,-72.29C239.31,-69.62 248.46,-66.86 257,-64.5 267.58,-61.57 279.08,-58.67 289.82,-56.08"/>
<polygon fill="black" stroke="black" points="229.59,-68.99 221.11,-75.35 231.7,-75.66 229.59,-68.99"/>
</g>
<!-- Node7 -->
<g id="node7" class="node">
<title>Node7</title>
<g id="a_node7"><a xlink:href="group__WWDG__Exported__Functions.html" target="_top" xlink:title=" ">
<polygon fill="white" stroke="black" points="409,-19 257,-19 257,0 409,0 409,-19"/>
<text text-anchor="middle" x="333" y="-7" font-family="Helvetica,sans-Serif" font-size="10.00">WWDG_Exported_Functions</text>
</a>
</g>
</g>
<!-- Node1&#45;&gt;Node7 -->
<g id="edge6" class="edge">
<title>Node1&#45;&gt;Node7</title>
<path fill="none" stroke="black" d="M210.58,-66.4C221.87,-53.81 238.78,-37.25 257,-27.5 263.38,-24.09 270.4,-21.32 277.51,-19.06"/>
<polygon fill="black" stroke="black" points="207.92,-64.14 204.02,-73.99 213.21,-68.72 207.92,-64.14"/>
</g>
<!-- Node2 -->
<g id="node4" class="node">
<title>Node2</title>
<g id="a_node4"><a xlink:href="group__STM32F4xx__HAL__Driver.html" target="_top" xlink:title=" ">
<polygon fill="white" stroke="black" points="134,-93 0,-93 0,-74 134,-74 134,-93"/>
<text text-anchor="middle" x="67" y="-81" font-family="Helvetica,sans-Serif" font-size="10.00">STM32F4xx_HAL_Driver</text>
</a>
</g>
</g>
<!-- Node2&#45;&gt;Node1 -->
<g id="edge1" class="edge">
<title>Node2&#45;&gt;Node1</title>
<path fill="none" stroke="black" d="M144.24,-83.5C153.38,-83.5 162.14,-83.5 169.72,-83.5"/>
<polygon fill="black" stroke="black" points="144.21,-80 134.21,-83.5 144.21,-87 144.21,-80"/>
</g>
</g>
</svg>
