<?xml version="1.0" encoding="UTF-8" standalone="no"?>
<!DOCTYPE svg PUBLIC "-//W3C//DTD SVG 1.1//EN"
 "http://www.w3.org/Graphics/SVG/1.1/DTD/svg11.dtd">
<!-- Generated by graphviz version 2.43.0 (0)
 -->
<!-- Title: PWR Private Macros Pages: 1 -->
<svg width="382pt" height="38pt"
 viewBox="0.00 0.00 382.00 38.00" xmlns="http://www.w3.org/2000/svg" xmlns:xlink="http://www.w3.org/1999/xlink">
<g id="graph0" class="graph" transform="scale(1 1) rotate(0) translate(4 34)">
<title>PWR Private Macros</title>
<polygon fill="white" stroke="transparent" points="-4,4 -4,-34 378,-34 378,4 -4,4"/>
<!-- Node3 -->
<g id="node1" class="node">
<title>Node3</title>
<g id="a_node1"><a xlink:href="group__PWR__IS__PWR__Definitions.html" target="_top" xlink:title=" ">
<polygon fill="white" stroke="black" points="374,-30 226,-30 226,0 374,0 374,-30"/>
<text text-anchor="start" x="234" y="-18" font-family="Helvetica,sans-Serif" font-size="10.00">PWR Private macros</text>
<text text-anchor="middle" x="300" y="-7" font-family="Helvetica,sans-Serif" font-size="10.00"> to check input parameters</text>
</a>
</g>
</g>
<!-- Node1 -->
<g id="node2" class="node">
<title>Node1</title>
<g id="a_node2"><a xlink:title=" ">
<polygon fill="#bfbfbf" stroke="black" points="190,-24.5 75,-24.5 75,-5.5 190,-5.5 190,-24.5"/>
<text text-anchor="middle" x="132.5" y="-12.5" font-family="Helvetica,sans-Serif" font-size="10.00">PWR Private Macros</text>
</a>
</g>
</g>
<!-- Node1&#45;&gt;Node3 -->
<g id="edge2" class="edge">
<title>Node1&#45;&gt;Node3</title>
<path fill="none" stroke="black" d="M200.51,-15C208.86,-15 217.43,-15 225.86,-15"/>
<polygon fill="black" stroke="black" points="200.46,-11.5 190.46,-15 200.46,-18.5 200.46,-11.5"/>
</g>
<!-- Node2 -->
<g id="node3" class="node">
<title>Node2</title>
<g id="a_node3"><a xlink:href="group__PWR.html" target="_top" xlink:title="PWR HAL module driver.">
<polygon fill="white" stroke="black" points="39,-24.5 0,-24.5 0,-5.5 39,-5.5 39,-24.5"/>
<text text-anchor="middle" x="19.5" y="-12.5" font-family="Helvetica,sans-Serif" font-size="10.00">PWR</text>
</a>
</g>
</g>
<!-- Node2&#45;&gt;Node1 -->
<g id="edge1" class="edge">
<title>Node2&#45;&gt;Node1</title>
<path fill="none" stroke="black" d="M49.22,-15C57.16,-15 66.06,-15 75,-15"/>
<polygon fill="black" stroke="black" points="49.08,-11.5 39.08,-15 49.08,-18.5 49.08,-11.5"/>
</g>
</g>
</svg>
