<?xml version="1.0" encoding="UTF-8" standalone="no"?>
<!DOCTYPE svg PUBLIC "-//W3C//DTD SVG 1.1//EN"
 "http://www.w3.org/Graphics/SVG/1.1/DTD/svg11.dtd">
<!-- Generated by graphviz version 2.43.0 (0)
 -->
<!-- Title: USART Exported Constants Pages: 1 -->
<svg width="429pt" height="434pt"
 viewBox="0.00 0.00 429.00 434.00" xmlns="http://www.w3.org/2000/svg" xmlns:xlink="http://www.w3.org/1999/xlink">
<g id="graph0" class="graph" transform="scale(1 1) rotate(0) translate(4 430)">
<title>USART Exported Constants</title>
<polygon fill="white" stroke="transparent" points="-4,4 -4,-430 425,-430 425,4 -4,4"/>
<!-- Node9 -->
<g id="node1" class="node">
<title>Node9</title>
<g id="a_node1"><a xlink:href="group__USART__Clock__Polarity.html" target="_top" xlink:title=" ">
<polygon fill="white" stroke="black" points="405.5,-426 285.5,-426 285.5,-407 405.5,-407 405.5,-426"/>
<text text-anchor="middle" x="345.5" y="-414" font-family="Helvetica,sans-Serif" font-size="10.00">USART Clock Polarity</text>
</a>
</g>
</g>
<!-- Node7 -->
<g id="node2" class="node">
<title>Node7</title>
<g id="a_node2"><a xlink:href="group__USART__Mode.html" target="_top" xlink:title=" ">
<polygon fill="white" stroke="black" points="385.5,-389 305.5,-389 305.5,-370 385.5,-370 385.5,-389"/>
<text text-anchor="middle" x="345.5" y="-377" font-family="Helvetica,sans-Serif" font-size="10.00">USART Mode</text>
</a>
</g>
</g>
<!-- Node8 -->
<g id="node3" class="node">
<title>Node8</title>
<g id="a_node3"><a xlink:href="group__USART__Clock.html" target="_top" xlink:title=" ">
<polygon fill="white" stroke="black" points="385.5,-352 305.5,-352 305.5,-333 385.5,-333 385.5,-352"/>
<text text-anchor="middle" x="345.5" y="-340" font-family="Helvetica,sans-Serif" font-size="10.00">USART Clock</text>
</a>
</g>
</g>
<!-- Node11 -->
<g id="node4" class="node">
<title>Node11</title>
<g id="a_node4"><a xlink:href="group__USART__Last__Bit.html" target="_top" xlink:title=" ">
<polygon fill="white" stroke="black" points="390,-315 301,-315 301,-296 390,-296 390,-315"/>
<text text-anchor="middle" x="345.5" y="-303" font-family="Helvetica,sans-Serif" font-size="10.00">USART Last Bit</text>
</a>
</g>
</g>
<!-- Node6 -->
<g id="node5" class="node">
<title>Node6</title>
<g id="a_node5"><a xlink:href="group__USART__Parity.html" target="_top" xlink:title=" ">
<polygon fill="white" stroke="black" points="385.5,-278 305.5,-278 305.5,-259 385.5,-259 385.5,-278"/>
<text text-anchor="middle" x="345.5" y="-266" font-family="Helvetica,sans-Serif" font-size="10.00">USART Parity</text>
</a>
</g>
</g>
<!-- Node3 -->
<g id="node6" class="node">
<title>Node3</title>
<g id="a_node6"><a xlink:href="group__USART__Error__Code.html" target="_top" xlink:title="USART Error Code.">
<polygon fill="white" stroke="black" points="397.5,-241 293.5,-241 293.5,-222 397.5,-222 397.5,-241"/>
<text text-anchor="middle" x="345.5" y="-229" font-family="Helvetica,sans-Serif" font-size="10.00">USART Error Code</text>
</a>
</g>
</g>
<!-- Node13 -->
<g id="node7" class="node">
<title>Node13</title>
<g id="a_node7"><a xlink:href="group__USART__Flags.html" target="_top" xlink:title=" ">
<polygon fill="white" stroke="black" points="385,-204 306,-204 306,-185 385,-185 385,-204"/>
<text text-anchor="middle" x="345.5" y="-192" font-family="Helvetica,sans-Serif" font-size="10.00">USART Flags</text>
</a>
</g>
</g>
<!-- Node14 -->
<g id="node8" class="node">
<title>Node14</title>
<g id="a_node8"><a xlink:href="group__USART__Interrupt__definition.html" target="_top" xlink:title=" ">
<polygon fill="white" stroke="black" points="420.5,-167 270.5,-167 270.5,-148 420.5,-148 420.5,-167"/>
<text text-anchor="middle" x="345.5" y="-155" font-family="Helvetica,sans-Serif" font-size="10.00">USART Interrupts Definition</text>
</a>
</g>
</g>
<!-- Node4 -->
<g id="node9" class="node">
<title>Node4</title>
<g id="a_node9"><a xlink:href="group__USART__Word__Length.html" target="_top" xlink:title=" ">
<polygon fill="white" stroke="black" points="402,-130 289,-130 289,-111 402,-111 402,-130"/>
<text text-anchor="middle" x="345.5" y="-118" font-family="Helvetica,sans-Serif" font-size="10.00">USART Word Length</text>
</a>
</g>
</g>
<!-- Node2 -->
<g id="node10" class="node">
<title>Node2</title>
<g id="a_node10"><a xlink:href="group__USART.html" target="_top" xlink:title="HAL USART Synchronous module driver.">
<polygon fill="white" stroke="black" points="50,-222 0,-222 0,-203 50,-203 50,-222"/>
<text text-anchor="middle" x="25" y="-210" font-family="Helvetica,sans-Serif" font-size="10.00">USART</text>
</a>
</g>
</g>
<!-- Node1 -->
<g id="node12" class="node">
<title>Node1</title>
<g id="a_node12"><a xlink:title=" ">
<polygon fill="#bfbfbf" stroke="black" points="234,-222 86,-222 86,-203 234,-203 234,-222"/>
<text text-anchor="middle" x="160" y="-210" font-family="Helvetica,sans-Serif" font-size="10.00">USART Exported Constants</text>
</a>
</g>
</g>
<!-- Node2&#45;&gt;Node1 -->
<g id="edge1" class="edge">
<title>Node2&#45;&gt;Node1</title>
<path fill="none" stroke="black" d="M60.32,-212.5C68.23,-212.5 76.94,-212.5 85.81,-212.5"/>
<polygon fill="black" stroke="black" points="60.09,-209 50.09,-212.5 60.09,-216 60.09,-209"/>
</g>
<!-- Node12 -->
<g id="node11" class="node">
<title>Node12</title>
<g id="a_node11"><a xlink:href="group__USART__NACK__State.html" target="_top" xlink:title=" ">
<polygon fill="white" stroke="black" points="400,-93 291,-93 291,-74 400,-74 400,-93"/>
<text text-anchor="middle" x="345.5" y="-81" font-family="Helvetica,sans-Serif" font-size="10.00">USART NACK State</text>
</a>
</g>
</g>
<!-- Node1&#45;&gt;Node9 -->
<g id="edge8" class="edge">
<title>Node1&#45;&gt;Node9</title>
<path fill="none" stroke="black" d="M166.68,-231.87C178.91,-270.04 211.48,-355.03 270,-398.5 274.59,-401.91 279.75,-404.69 285.14,-406.94"/>
<polygon fill="black" stroke="black" points="169.94,-230.55 163.65,-222.02 163.25,-232.61 169.94,-230.55"/>
</g>
<!-- Node1&#45;&gt;Node7 -->
<g id="edge6" class="edge">
<title>Node1&#45;&gt;Node7</title>
<path fill="none" stroke="black" d="M169.45,-231.54C184.7,-263.6 219.95,-328.12 270,-361.5 280.41,-368.44 293.21,-372.71 305.26,-375.34"/>
<polygon fill="black" stroke="black" points="172.58,-229.96 165.21,-222.35 166.22,-232.9 172.58,-229.96"/>
</g>
<!-- Node1&#45;&gt;Node8 -->
<g id="edge7" class="edge">
<title>Node1&#45;&gt;Node8</title>
<path fill="none" stroke="black" d="M173.19,-230.27C191.32,-255.27 227.8,-300.45 270,-324.5 280.75,-330.63 293.52,-334.68 305.43,-337.35"/>
<polygon fill="black" stroke="black" points="176.01,-228.18 167.37,-222.05 170.3,-232.23 176.01,-228.18"/>
</g>
<!-- Node1&#45;&gt;Node11 -->
<g id="edge10" class="edge">
<title>Node1&#45;&gt;Node11</title>
<path fill="none" stroke="black" d="M179.65,-228.54C200.39,-245.57 235.53,-272.11 270,-287.5 279.6,-291.79 290.37,-295.14 300.67,-297.73"/>
<polygon fill="black" stroke="black" points="181.86,-225.82 171.94,-222.09 177.37,-231.19 181.86,-225.82"/>
</g>
<!-- Node1&#45;&gt;Node6 -->
<g id="edge5" class="edge">
<title>Node1&#45;&gt;Node6</title>
<path fill="none" stroke="black" d="M195.89,-225.64C217.14,-233.41 244.94,-243.12 270,-250.5 281.36,-253.84 293.83,-257.04 305.26,-259.78"/>
<polygon fill="black" stroke="black" points="196.91,-222.29 186.32,-222.12 194.49,-228.86 196.91,-222.29"/>
</g>
<!-- Node1&#45;&gt;Node3 -->
<g id="edge2" class="edge">
<title>Node1&#45;&gt;Node3</title>
<path fill="none" stroke="black" d="M244.4,-221.13C261.12,-222.87 278.21,-224.64 293.44,-226.21"/>
<polygon fill="black" stroke="black" points="244.36,-217.61 234.05,-220.06 243.64,-224.58 244.36,-217.61"/>
</g>
<!-- Node1&#45;&gt;Node13 -->
<g id="edge12" class="edge">
<title>Node1&#45;&gt;Node13</title>
<path fill="none" stroke="black" d="M244.22,-204.34C265.77,-202.22 287.95,-200.05 305.95,-198.28"/>
<polygon fill="black" stroke="black" points="243.66,-200.87 234.05,-205.33 244.35,-207.84 243.66,-200.87"/>
</g>
<!-- Node1&#45;&gt;Node14 -->
<g id="edge13" class="edge">
<title>Node1&#45;&gt;Node14</title>
<path fill="none" stroke="black" d="M196.76,-199.45C217.91,-191.96 245.31,-182.66 270,-175.5 280.35,-172.5 291.61,-169.6 302.17,-167.03"/>
<polygon fill="black" stroke="black" points="195.46,-196.2 187.22,-202.86 197.81,-202.79 195.46,-196.2"/>
</g>
<!-- Node1&#45;&gt;Node4 -->
<g id="edge3" class="edge">
<title>Node1&#45;&gt;Node4</title>
<path fill="none" stroke="black" d="M180.02,-196.42C200.84,-179.62 235.81,-153.64 270,-138.5 277.54,-135.16 285.8,-132.38 293.99,-130.09"/>
<polygon fill="black" stroke="black" points="177.77,-193.74 172.27,-202.79 182.22,-199.15 177.77,-193.74"/>
</g>
<!-- Node1&#45;&gt;Node12 -->
<g id="edge11" class="edge">
<title>Node1&#45;&gt;Node12</title>
<path fill="none" stroke="black" d="M173.5,-194.52C191.77,-169.68 228.15,-125.23 270,-101.5 276.37,-97.89 283.44,-95 290.61,-92.69"/>
<polygon fill="black" stroke="black" points="170.61,-192.55 167.62,-202.71 176.3,-196.63 170.61,-192.55"/>
</g>
<!-- Node5 -->
<g id="node13" class="node">
<title>Node5</title>
<g id="a_node13"><a xlink:href="group__USART__Stop__Bits.html" target="_top" xlink:title=" ">
<polygon fill="white" stroke="black" points="421,-56 270,-56 270,-37 421,-37 421,-56"/>
<text text-anchor="middle" x="345.5" y="-44" font-family="Helvetica,sans-Serif" font-size="10.00">USART Number of Stop Bits</text>
</a>
</g>
</g>
<!-- Node1&#45;&gt;Node5 -->
<g id="edge4" class="edge">
<title>Node1&#45;&gt;Node5</title>
<path fill="none" stroke="black" d="M169.49,-193.59C184.79,-161.74 220.12,-97.65 270,-64.5 275.1,-61.11 280.77,-58.36 286.64,-56.13"/>
<polygon fill="black" stroke="black" points="166.28,-192.17 165.23,-202.72 172.63,-195.13 166.28,-192.17"/>
</g>
<!-- Node10 -->
<g id="node14" class="node">
<title>Node10</title>
<g id="a_node14"><a xlink:href="group__USART__Clock__Phase.html" target="_top" xlink:title=" ">
<polygon fill="white" stroke="black" points="401.5,-19 289.5,-19 289.5,0 401.5,0 401.5,-19"/>
<text text-anchor="middle" x="345.5" y="-7" font-family="Helvetica,sans-Serif" font-size="10.00">USART Clock Phase</text>
</a>
</g>
</g>
<!-- Node1&#45;&gt;Node10 -->
<g id="edge9" class="edge">
<title>Node1&#45;&gt;Node10</title>
<path fill="none" stroke="black" d="M166.88,-192.7C179.3,-154.48 211.93,-70.53 270,-27.5 275.77,-23.22 282.43,-19.95 289.33,-17.44"/>
<polygon fill="black" stroke="black" points="163.43,-192.01 163.79,-202.6 170.12,-194.09 163.43,-192.01"/>
</g>
</g>
</svg>
