<?xml version="1.0" encoding="UTF-8" standalone="no"?>
<!DOCTYPE svg PUBLIC "-//W3C//DTD SVG 1.1//EN"
 "http://www.w3.org/Graphics/SVG/1.1/DTD/svg11.dtd">
<!-- Generated by graphviz version 2.43.0 (0)
 -->
<!-- Title: ADC Exported Macros Pages: 1 -->
<svg width="216pt" height="64pt"
 viewBox="0.00 0.00 216.00 64.00" xmlns="http://www.w3.org/2000/svg" xmlns:xlink="http://www.w3.org/1999/xlink">
<g id="graph0" class="graph" transform="scale(1 1) rotate(0) translate(4 60)">
<title>ADC Exported Macros</title>
<polygon fill="white" stroke="transparent" points="-4,4 -4,-60 212,-60 212,4 -4,4"/>
<!-- Node3 -->
<g id="node1" class="node">
<title>Node3</title>
<g id="a_node1"><a xlink:href="group__ADCEx.html" target="_top" xlink:title="ADC Extended driver modules.">
<polygon fill="white" stroke="black" points="50,-56 0,-56 0,-37 50,-37 50,-56"/>
<text text-anchor="middle" x="25" y="-44" font-family="Helvetica,sans-Serif" font-size="10.00">ADCEx</text>
</a>
</g>
</g>
<!-- Node1 -->
<g id="node2" class="node">
<title>Node1</title>
<g id="a_node2"><a xlink:title=" ">
<polygon fill="#bfbfbf" stroke="black" points="208,-37 86,-37 86,-18 208,-18 208,-37"/>
<text text-anchor="middle" x="147" y="-25" font-family="Helvetica,sans-Serif" font-size="10.00">ADC Exported Macros</text>
</a>
</g>
</g>
<!-- Node3&#45;&gt;Node1 -->
<g id="edge2" class="edge">
<title>Node3&#45;&gt;Node1</title>
<path fill="none" stroke="black" d="M60.22,-41.08C68.16,-39.83 76.83,-38.45 85.52,-37.08"/>
<polygon fill="black" stroke="black" points="59.61,-37.63 50.28,-42.66 60.71,-44.55 59.61,-37.63"/>
</g>
<!-- Node2 -->
<g id="node3" class="node">
<title>Node2</title>
<g id="a_node3"><a xlink:href="group__ADC.html" target="_top" xlink:title="ADC driver modules.">
<polygon fill="white" stroke="black" points="44,-19 6,-19 6,0 44,0 44,-19"/>
<text text-anchor="middle" x="25" y="-7" font-family="Helvetica,sans-Serif" font-size="10.00">ADC</text>
</a>
</g>
</g>
<!-- Node2&#45;&gt;Node1 -->
<g id="edge1" class="edge">
<title>Node2&#45;&gt;Node1</title>
<path fill="none" stroke="black" d="M54.27,-13.74C63.81,-15.17 74.84,-16.83 85.88,-18.48"/>
<polygon fill="black" stroke="black" points="54.63,-10.26 44.23,-12.23 53.6,-17.18 54.63,-10.26"/>
</g>
</g>
</svg>
