<?xml version="1.0" encoding="UTF-8" standalone="no"?>
<!DOCTYPE svg PUBLIC "-//W3C//DTD SVG 1.1//EN"
 "http://www.w3.org/Graphics/SVG/1.1/DTD/svg11.dtd">
<!-- Generated by graphviz version 2.43.0 (0)
 -->
<!-- Title: HAL_Init Pages: 1 -->
<svg width="425pt" height="123pt"
 viewBox="0.00 0.00 425.00 123.00" xmlns="http://www.w3.org/2000/svg" xmlns:xlink="http://www.w3.org/1999/xlink">
<g id="graph0" class="graph" transform="scale(1 1) rotate(0) translate(4 119)">
<title>HAL_Init</title>
<polygon fill="white" stroke="transparent" points="-4,4 -4,-119 421,-119 421,4 -4,4"/>
<!-- Node1 -->
<g id="node1" class="node">
<title>Node1</title>
<g id="a_node1"><a xlink:title="This function is used to initialize the HAL Library; it must be the first instruction to be executed ...">
<polygon fill="#bfbfbf" stroke="black" points="0,-38.5 0,-57.5 57,-57.5 57,-38.5 0,-38.5"/>
<text text-anchor="middle" x="28.5" y="-45.5" font-family="Helvetica,sans-Serif" font-size="10.00">HAL_Init</text>
</a>
</g>
</g>
<!-- Node2 -->
<g id="node2" class="node">
<title>Node2</title>
<g id="a_node2"><a xlink:href="group__HAL__Exported__Functions__Group1.html#ga879cdb21ef051eb81ec51c18147397d5" target="_top" xlink:title="This function configures the source of the time base. The time source is configured to have 1ms time ...">
<polygon fill="white" stroke="black" points="137.5,-76.5 137.5,-95.5 214.5,-95.5 214.5,-76.5 137.5,-76.5"/>
<text text-anchor="middle" x="176" y="-83.5" font-family="Helvetica,sans-Serif" font-size="10.00">HAL_InitTick</text>
</a>
</g>
</g>
<!-- Node1&#45;&gt;Node2 -->
<g id="edge1" class="edge">
<title>Node1&#45;&gt;Node2</title>
<path fill="none" stroke="midnightblue" d="M57.21,-56.7C68.3,-60.08 81.21,-63.87 93,-67 104.14,-69.95 116.21,-72.89 127.56,-75.54"/>
<polygon fill="midnightblue" stroke="midnightblue" points="126.79,-78.96 137.32,-77.79 128.36,-72.14 126.79,-78.96"/>
</g>
<!-- Node5 -->
<g id="node5" class="node">
<title>Node5</title>
<g id="a_node5"><a xlink:href="group__HAL__Exported__Functions__Group1.html#gae4fb8e66865c87d0ebab74a726a6891f" target="_top" xlink:title="Initialize the MSP.">
<polygon fill="white" stroke="black" points="137.5,-38.5 137.5,-57.5 214.5,-57.5 214.5,-38.5 137.5,-38.5"/>
<text text-anchor="middle" x="176" y="-45.5" font-family="Helvetica,sans-Serif" font-size="10.00">HAL_MspInit</text>
</a>
</g>
</g>
<!-- Node1&#45;&gt;Node5 -->
<g id="edge4" class="edge">
<title>Node1&#45;&gt;Node5</title>
<path fill="none" stroke="midnightblue" d="M57.21,-48C77.03,-48 104.21,-48 127.47,-48"/>
<polygon fill="midnightblue" stroke="midnightblue" points="127.5,-51.5 137.5,-48 127.5,-44.5 127.5,-51.5"/>
</g>
<!-- Node6 -->
<g id="node6" class="node">
<title>Node6</title>
<g id="a_node6"><a xlink:href="group__CORTEX__Exported__Functions__Group1.html#gad9be53e08b1498adea006e5e037f238f" target="_top" xlink:title=" ">
<polygon fill="white" stroke="black" points="93,-0.5 93,-19.5 259,-19.5 259,-0.5 93,-0.5"/>
<text text-anchor="middle" x="176" y="-7.5" font-family="Helvetica,sans-Serif" font-size="10.00">HAL_NVIC_SetPriorityGrouping</text>
</a>
</g>
</g>
<!-- Node1&#45;&gt;Node6 -->
<g id="edge5" class="edge">
<title>Node1&#45;&gt;Node6</title>
<path fill="none" stroke="midnightblue" d="M57.21,-39.3C68.3,-35.92 81.21,-32.13 93,-29 102.23,-26.55 112.08,-24.12 121.64,-21.85"/>
<polygon fill="midnightblue" stroke="midnightblue" points="122.53,-25.24 131.47,-19.55 120.93,-18.42 122.53,-25.24"/>
</g>
<!-- Node3 -->
<g id="node3" class="node">
<title>Node3</title>
<g id="a_node3"><a xlink:href="group__CORTEX__Exported__Functions__Group1.html#ga8581a82025a4780efd00876a66e3e91b" target="_top" xlink:title=" ">
<polygon fill="white" stroke="black" points="295,-95.5 295,-114.5 417,-114.5 417,-95.5 295,-95.5"/>
<text text-anchor="middle" x="356" y="-102.5" font-family="Helvetica,sans-Serif" font-size="10.00">HAL_NVIC_SetPriority</text>
</a>
</g>
</g>
<!-- Node2&#45;&gt;Node3 -->
<g id="edge2" class="edge">
<title>Node2&#45;&gt;Node3</title>
<path fill="none" stroke="midnightblue" d="M214.75,-90.03C235.11,-92.2 260.9,-94.96 284.79,-97.51"/>
<polygon fill="midnightblue" stroke="midnightblue" points="284.58,-101 294.89,-98.58 285.32,-94.04 284.58,-101"/>
</g>
<!-- Node4 -->
<g id="node4" class="node">
<title>Node4</title>
<g id="a_node4"><a xlink:href="group__CORTEX__Exported__Functions__Group1.html#gac3a3f0d53c315523a8e6e7bcac1940cf" target="_top" xlink:title=" ">
<polygon fill="white" stroke="black" points="297,-57.5 297,-76.5 415,-76.5 415,-57.5 297,-57.5"/>
<text text-anchor="middle" x="356" y="-64.5" font-family="Helvetica,sans-Serif" font-size="10.00">HAL_SYSTICK_Config</text>
</a>
</g>
</g>
<!-- Node2&#45;&gt;Node4 -->
<g id="edge3" class="edge">
<title>Node2&#45;&gt;Node4</title>
<path fill="none" stroke="midnightblue" d="M214.75,-81.97C235.74,-79.73 262.49,-76.87 287,-74.26"/>
<polygon fill="midnightblue" stroke="midnightblue" points="287.41,-77.74 296.98,-73.19 286.66,-70.77 287.41,-77.74"/>
</g>
</g>
</svg>
