<?xml version="1.0" encoding="UTF-8" standalone="no"?>
<!DOCTYPE svg PUBLIC "-//W3C//DTD SVG 1.1//EN"
 "http://www.w3.org/Graphics/SVG/1.1/DTD/svg11.dtd">
<!-- Generated by graphviz version 2.43.0 (0)
 -->
<!-- Title: FLASHEx Pages: 1 -->
<svg width="436pt" height="212pt"
 viewBox="0.00 0.00 436.00 212.00" xmlns="http://www.w3.org/2000/svg" xmlns:xlink="http://www.w3.org/1999/xlink">
<g id="graph0" class="graph" transform="scale(1 1) rotate(0) translate(4 208)">
<title>FLASHEx</title>
<polygon fill="white" stroke="transparent" points="-4,4 -4,-208 432,-208 432,4 -4,4"/>
<!-- Node3 -->
<g id="node1" class="node">
<title>Node3</title>
<g id="a_node1"><a xlink:href="group__FLASHEx__Exported__Types.html" target="_top" xlink:title=" ">
<polygon fill="white" stroke="black" points="410.5,-204 284.5,-204 284.5,-185 410.5,-185 410.5,-204"/>
<text text-anchor="middle" x="347.5" y="-192" font-family="Helvetica,sans-Serif" font-size="10.00">FLASH Exported Types</text>
</a>
</g>
</g>
<!-- Node4 -->
<g id="node2" class="node">
<title>Node4</title>
<g id="a_node2"><a xlink:href="group__FLASHEx__Exported__Constants.html" target="_top" xlink:title=" ">
<polygon fill="white" stroke="black" points="421,-167 274,-167 274,-148 421,-148 421,-167"/>
<text text-anchor="middle" x="347.5" y="-155" font-family="Helvetica,sans-Serif" font-size="10.00">FLASH Exported Constants</text>
</a>
</g>
</g>
<!-- Node1 -->
<g id="node3" class="node">
<title>Node1</title>
<g id="a_node3"><a xlink:title="FLASH HAL Extension module driver.">
<polygon fill="#bfbfbf" stroke="black" points="231,-111 170,-111 170,-92 231,-92 231,-111"/>
<text text-anchor="middle" x="200.5" y="-99" font-family="Helvetica,sans-Serif" font-size="10.00">FLASHEx</text>
</a>
</g>
</g>
<!-- Node1&#45;&gt;Node3 -->
<g id="edge2" class="edge">
<title>Node1&#45;&gt;Node3</title>
<path fill="none" stroke="black" d="M212.5,-119.7C223.94,-137.02 243.45,-162.45 267,-176.5 272.71,-179.91 279.01,-182.67 285.48,-184.91"/>
<polygon fill="black" stroke="black" points="215.31,-117.61 207,-111.04 209.4,-121.36 215.31,-117.61"/>
</g>
<!-- Node1&#45;&gt;Node4 -->
<g id="edge3" class="edge">
<title>Node1&#45;&gt;Node4</title>
<path fill="none" stroke="black" d="M224.06,-116.88C236.31,-124.63 251.98,-133.6 267,-139.5 275.43,-142.81 284.61,-145.59 293.65,-147.9"/>
<polygon fill="black" stroke="black" points="225.72,-113.78 215.43,-111.27 221.91,-119.65 225.72,-113.78"/>
</g>
<!-- Node5 -->
<g id="node4" class="node">
<title>Node5</title>
<g id="a_node4"><a xlink:href="group__FLASHEx__Private__Constants.html" target="_top" xlink:title=" ">
<polygon fill="white" stroke="black" points="416.5,-130 278.5,-130 278.5,-111 416.5,-111 416.5,-130"/>
<text text-anchor="middle" x="347.5" y="-118" font-family="Helvetica,sans-Serif" font-size="10.00">FLASH Private Constants</text>
</a>
</g>
</g>
<!-- Node1&#45;&gt;Node5 -->
<g id="edge4" class="edge">
<title>Node1&#45;&gt;Node5</title>
<path fill="none" stroke="black" d="M241.28,-106.71C252.74,-108.21 265.58,-109.9 278.24,-111.56"/>
<polygon fill="black" stroke="black" points="241.56,-103.22 231.19,-105.39 240.65,-110.16 241.56,-103.22"/>
</g>
<!-- Node8 -->
<g id="node6" class="node">
<title>Node8</title>
<g id="a_node6"><a xlink:href="group__FLASHEx__Exported__Functions.html" target="_top" xlink:title=" ">
<polygon fill="white" stroke="black" points="428,-93 267,-93 267,-74 428,-74 428,-93"/>
<text text-anchor="middle" x="347.5" y="-81" font-family="Helvetica,sans-Serif" font-size="10.00">FLASHEx_Exported_Functions</text>
</a>
</g>
</g>
<!-- Node1&#45;&gt;Node8 -->
<g id="edge7" class="edge">
<title>Node1&#45;&gt;Node8</title>
<path fill="none" stroke="black" d="M241.24,-96.57C250.17,-95.46 259.94,-94.25 269.81,-93.02"/>
<polygon fill="black" stroke="black" points="240.69,-93.11 231.19,-97.81 241.55,-100.06 240.69,-93.11"/>
</g>
<!-- Node6 -->
<g id="node7" class="node">
<title>Node6</title>
<g id="a_node7"><a xlink:href="group__FLASHEx__Private__Macros.html" target="_top" xlink:title=" ">
<polygon fill="white" stroke="black" points="410,-56 285,-56 285,-37 410,-37 410,-56"/>
<text text-anchor="middle" x="347.5" y="-44" font-family="Helvetica,sans-Serif" font-size="10.00">FLASH Private Macros</text>
</a>
</g>
</g>
<!-- Node1&#45;&gt;Node6 -->
<g id="edge5" class="edge">
<title>Node1&#45;&gt;Node6</title>
<path fill="none" stroke="black" d="M224.6,-86.26C236.79,-78.79 252.24,-70.2 267,-64.5 275.58,-61.19 284.93,-58.4 294.1,-56.08"/>
<polygon fill="black" stroke="black" points="222.58,-83.39 215.98,-91.68 226.3,-89.32 222.58,-83.39"/>
</g>
<!-- Node7 -->
<g id="node8" class="node">
<title>Node7</title>
<g id="a_node8"><a xlink:href="group__FLASHEx__Private__Functions.html" target="_top" xlink:title=" ">
<polygon fill="white" stroke="black" points="415.5,-19 279.5,-19 279.5,0 415.5,0 415.5,-19"/>
<text text-anchor="middle" x="347.5" y="-7" font-family="Helvetica,sans-Serif" font-size="10.00">FLASH Private Functions</text>
</a>
</g>
</g>
<!-- Node1&#45;&gt;Node7 -->
<g id="edge6" class="edge">
<title>Node1&#45;&gt;Node7</title>
<path fill="none" stroke="black" d="M212.74,-83.27C224.24,-66.19 243.7,-41.29 267,-27.5 272.72,-24.11 279.03,-21.36 285.5,-19.13"/>
<polygon fill="black" stroke="black" points="209.69,-81.54 207.19,-91.83 215.57,-85.34 209.69,-81.54"/>
</g>
<!-- Node2 -->
<g id="node5" class="node">
<title>Node2</title>
<g id="a_node5"><a xlink:href="group__STM32F4xx__HAL__Driver.html" target="_top" xlink:title=" ">
<polygon fill="white" stroke="black" points="134,-111 0,-111 0,-92 134,-92 134,-111"/>
<text text-anchor="middle" x="67" y="-99" font-family="Helvetica,sans-Serif" font-size="10.00">STM32F4xx_HAL_Driver</text>
</a>
</g>
</g>
<!-- Node2&#45;&gt;Node1 -->
<g id="edge1" class="edge">
<title>Node2&#45;&gt;Node1</title>
<path fill="none" stroke="black" d="M144.38,-101.5C153.38,-101.5 162.11,-101.5 169.86,-101.5"/>
<polygon fill="black" stroke="black" points="144.14,-98 134.14,-101.5 144.14,-105 144.14,-98"/>
</g>
</g>
</svg>
