<?xml version="1.0" encoding="UTF-8" standalone="no"?>
<!DOCTYPE svg PUBLIC "-//W3C//DTD SVG 1.1//EN"
 "http://www.w3.org/Graphics/SVG/1.1/DTD/svg11.dtd">
<!-- Generated by graphviz version 2.43.0 (0)
 -->
<!-- Title: RCC Pages: 1 -->
<svg width="388pt" height="212pt"
 viewBox="0.00 0.00 388.00 212.00" xmlns="http://www.w3.org/2000/svg" xmlns:xlink="http://www.w3.org/1999/xlink">
<g id="graph0" class="graph" transform="scale(1 1) rotate(0) translate(4 208)">
<title>RCC</title>
<polygon fill="white" stroke="transparent" points="-4,4 -4,-208 384,-208 384,4 -4,4"/>
<!-- Node7 -->
<g id="node1" class="node">
<title>Node7</title>
<g id="a_node1"><a xlink:href="group__RCC__Private__Macros.html" target="_top" xlink:title=" ">
<polygon fill="white" stroke="black" points="368,-204 255,-204 255,-185 368,-185 368,-204"/>
<text text-anchor="middle" x="311.5" y="-192" font-family="Helvetica,sans-Serif" font-size="10.00">RCC Private Macros</text>
</a>
</g>
</g>
<!-- Node5 -->
<g id="node2" class="node">
<title>Node5</title>
<g id="a_node2"><a xlink:href="group__RCC__Exported__Macros.html" target="_top" xlink:title=" ">
<polygon fill="white" stroke="black" points="372.5,-167 250.5,-167 250.5,-148 372.5,-148 372.5,-167"/>
<text text-anchor="middle" x="311.5" y="-155" font-family="Helvetica,sans-Serif" font-size="10.00">RCC Exported Macros</text>
</a>
</g>
</g>
<!-- Node8 -->
<g id="node3" class="node">
<title>Node8</title>
<g id="a_node3"><a xlink:href="group__RCC__Exported__Functions.html" target="_top" xlink:title=" ">
<polygon fill="white" stroke="black" points="380,-130 243,-130 243,-111 380,-111 380,-130"/>
<text text-anchor="middle" x="311.5" y="-118" font-family="Helvetica,sans-Serif" font-size="10.00">RCC_Exported_Functions</text>
</a>
</g>
</g>
<!-- Node2 -->
<g id="node4" class="node">
<title>Node2</title>
<g id="a_node4"><a xlink:href="group__STM32F4xx__HAL__Driver.html" target="_top" xlink:title=" ">
<polygon fill="white" stroke="black" points="134,-111 0,-111 0,-92 134,-92 134,-111"/>
<text text-anchor="middle" x="67" y="-99" font-family="Helvetica,sans-Serif" font-size="10.00">STM32F4xx_HAL_Driver</text>
</a>
</g>
</g>
<!-- Node1 -->
<g id="node8" class="node">
<title>Node1</title>
<g id="a_node8"><a xlink:title="RCC HAL module driver.">
<polygon fill="#bfbfbf" stroke="black" points="207,-111 170,-111 170,-92 207,-92 207,-111"/>
<text text-anchor="middle" x="188.5" y="-99" font-family="Helvetica,sans-Serif" font-size="10.00">RCC</text>
</a>
</g>
</g>
<!-- Node2&#45;&gt;Node1 -->
<g id="edge1" class="edge">
<title>Node2&#45;&gt;Node1</title>
<path fill="none" stroke="black" d="M144.1,-101.5C153.59,-101.5 162.48,-101.5 169.72,-101.5"/>
<polygon fill="black" stroke="black" points="144.04,-98 134.04,-101.5 144.04,-105 144.04,-98"/>
</g>
<!-- Node4 -->
<g id="node5" class="node">
<title>Node4</title>
<g id="a_node5"><a xlink:href="group__RCC__Exported__Constants.html" target="_top" xlink:title=" ">
<polygon fill="white" stroke="black" points="379,-93 244,-93 244,-74 379,-74 379,-93"/>
<text text-anchor="middle" x="311.5" y="-81" font-family="Helvetica,sans-Serif" font-size="10.00">RCC Exported Constants</text>
</a>
</g>
</g>
<!-- Node3 -->
<g id="node6" class="node">
<title>Node3</title>
<g id="a_node6"><a xlink:href="group__RCC__Exported__Types.html" target="_top" xlink:title=" ">
<polygon fill="white" stroke="black" points="368.5,-56 254.5,-56 254.5,-37 368.5,-37 368.5,-56"/>
<text text-anchor="middle" x="311.5" y="-44" font-family="Helvetica,sans-Serif" font-size="10.00">RCC Exported Types</text>
</a>
</g>
</g>
<!-- Node6 -->
<g id="node7" class="node">
<title>Node6</title>
<g id="a_node7"><a xlink:href="group__RCC__Private__Constants.html" target="_top" xlink:title=" ">
<polygon fill="white" stroke="black" points="374.5,-19 248.5,-19 248.5,0 374.5,0 374.5,-19"/>
<text text-anchor="middle" x="311.5" y="-7" font-family="Helvetica,sans-Serif" font-size="10.00">RCC Private Constants</text>
</a>
</g>
</g>
<!-- Node1&#45;&gt;Node7 -->
<g id="edge6" class="edge">
<title>Node1&#45;&gt;Node7</title>
<path fill="none" stroke="black" d="M198.17,-120.28C207.05,-137.45 222.45,-162.26 243,-176.5 247.88,-179.88 253.37,-182.63 259.05,-184.86"/>
<polygon fill="black" stroke="black" points="201.26,-118.63 193.71,-111.2 194.97,-121.72 201.26,-118.63"/>
</g>
<!-- Node1&#45;&gt;Node5 -->
<g id="edge4" class="edge">
<title>Node1&#45;&gt;Node5</title>
<path fill="none" stroke="black" d="M208.5,-117.53C218.28,-125.1 230.72,-133.73 243,-139.5 250.14,-142.85 258,-145.66 265.76,-147.99"/>
<polygon fill="black" stroke="black" points="210.64,-114.76 200.65,-111.24 206.26,-120.22 210.64,-114.76"/>
</g>
<!-- Node1&#45;&gt;Node8 -->
<g id="edge7" class="edge">
<title>Node1&#45;&gt;Node8</title>
<path fill="none" stroke="black" d="M217.05,-105.83C226.91,-107.37 238.45,-109.19 249.99,-111"/>
<polygon fill="black" stroke="black" points="217.52,-102.36 207.09,-104.26 216.43,-109.27 217.52,-102.36"/>
</g>
<!-- Node1&#45;&gt;Node4 -->
<g id="edge3" class="edge">
<title>Node1&#45;&gt;Node4</title>
<path fill="none" stroke="black" d="M217.13,-97.39C225.97,-96.07 236.16,-94.56 246.49,-93.02"/>
<polygon fill="black" stroke="black" points="216.47,-93.95 207.09,-98.88 217.5,-100.87 216.47,-93.95"/>
</g>
<!-- Node1&#45;&gt;Node3 -->
<g id="edge2" class="edge">
<title>Node1&#45;&gt;Node3</title>
<path fill="none" stroke="black" d="M209.24,-85.41C218.93,-78.16 231.07,-70.01 243,-64.5 250.16,-61.19 258.03,-58.41 265.8,-56.09"/>
<polygon fill="black" stroke="black" points="206.86,-82.82 201.1,-91.71 211.15,-88.35 206.86,-82.82"/>
</g>
<!-- Node1&#45;&gt;Node6 -->
<g id="edge5" class="edge">
<title>Node1&#45;&gt;Node6</title>
<path fill="none" stroke="black" d="M198.23,-82.97C207.15,-66.03 222.58,-41.55 243,-27.5 248,-24.06 253.61,-21.28 259.42,-19.03"/>
<polygon fill="black" stroke="black" points="195.09,-81.42 193.74,-91.93 201.35,-84.56 195.09,-81.42"/>
</g>
</g>
</svg>
