<?xml version="1.0" encoding="UTF-8" standalone="no"?>
<!DOCTYPE svg PUBLIC "-//W3C//DTD SVG 1.1//EN"
 "http://www.w3.org/Graphics/SVG/1.1/DTD/svg11.dtd">
<!-- Generated by graphviz version 2.43.0 (0)
 -->
<!-- Title: I2C Exported Types Pages: 1 -->
<svg width="370pt" height="220pt"
 viewBox="0.00 0.00 370.00 220.00" xmlns="http://www.w3.org/2000/svg" xmlns:xlink="http://www.w3.org/1999/xlink">
<g id="graph0" class="graph" transform="scale(1 1) rotate(0) translate(4 216)">
<title>I2C Exported Types</title>
<polygon fill="white" stroke="transparent" points="-4,4 -4,-216 366,-216 366,4 -4,4"/>
<!-- Node5 -->
<g id="node1" class="node">
<title>Node5</title>
<g id="a_node1"><a xlink:href="group__HAL__mode__structure__definition.html" target="_top" xlink:title="HAL Mode structure definition.">
<polygon fill="white" stroke="black" points="344.5,-212 231.5,-212 231.5,-182 344.5,-182 344.5,-212"/>
<text text-anchor="start" x="239.5" y="-200" font-family="Helvetica,sans-Serif" font-size="10.00">HAL mode structure</text>
<text text-anchor="middle" x="288" y="-189" font-family="Helvetica,sans-Serif" font-size="10.00"> definition</text>
</a>
</g>
</g>
<!-- Node2 -->
<g id="node2" class="node">
<title>Node2</title>
<g id="a_node2"><a xlink:href="group__I2C.html" target="_top" xlink:title="I2C HAL module driver.">
<polygon fill="white" stroke="black" points="32,-120.5 0,-120.5 0,-101.5 32,-101.5 32,-120.5"/>
<text text-anchor="middle" x="16" y="-108.5" font-family="Helvetica,sans-Serif" font-size="10.00">I2C</text>
</a>
</g>
</g>
<!-- Node1 -->
<g id="node4" class="node">
<title>Node1</title>
<g id="a_node4"><a xlink:title=" ">
<polygon fill="#bfbfbf" stroke="black" points="178,-120.5 68,-120.5 68,-101.5 178,-101.5 178,-120.5"/>
<text text-anchor="middle" x="123" y="-108.5" font-family="Helvetica,sans-Serif" font-size="10.00">I2C Exported Types</text>
</a>
</g>
</g>
<!-- Node2&#45;&gt;Node1 -->
<g id="edge1" class="edge">
<title>Node2&#45;&gt;Node1</title>
<path fill="none" stroke="black" d="M42.15,-111C49.89,-111 58.73,-111 67.65,-111"/>
<polygon fill="black" stroke="black" points="42.04,-107.5 32.04,-111 42.04,-114.5 42.04,-107.5"/>
</g>
<!-- Node6 -->
<g id="node3" class="node">
<title>Node6</title>
<g id="a_node3"><a xlink:href="group__I2C__Error__Code__definition.html" target="_top" xlink:title="I2C Error Code definition.">
<polygon fill="white" stroke="black" points="355.5,-163.5 220.5,-163.5 220.5,-144.5 355.5,-144.5 355.5,-163.5"/>
<text text-anchor="middle" x="288" y="-151.5" font-family="Helvetica,sans-Serif" font-size="10.00">I2C Error Code definition</text>
</a>
</g>
</g>
<!-- Node1&#45;&gt;Node5 -->
<g id="edge4" class="edge">
<title>Node1&#45;&gt;Node5</title>
<path fill="none" stroke="black" d="M143.85,-127.15C161.43,-140.84 188.24,-160.22 214,-173 220.57,-176.26 227.69,-179.23 234.82,-181.88"/>
<polygon fill="black" stroke="black" points="145.56,-124.05 135.55,-120.58 141.21,-129.53 145.56,-124.05"/>
</g>
<!-- Node1&#45;&gt;Node6 -->
<g id="edge5" class="edge">
<title>Node1&#45;&gt;Node6</title>
<path fill="none" stroke="black" d="M169.52,-123.2C183.76,-127 199.53,-131.19 214,-135 225.78,-138.1 238.63,-141.46 250.23,-144.47"/>
<polygon fill="black" stroke="black" points="170.03,-119.71 159.47,-120.51 168.22,-126.47 170.03,-119.71"/>
</g>
<!-- Node7 -->
<g id="node5" class="node">
<title>Node7</title>
<g id="a_node5"><a xlink:href="group__I2C__handle__Structure__definition.html" target="_top" xlink:title="I2C handle Structure definition.">
<polygon fill="white" stroke="black" points="346,-126 230,-126 230,-96 346,-96 346,-126"/>
<text text-anchor="start" x="238" y="-114" font-family="Helvetica,sans-Serif" font-size="10.00">I2C handle Structure</text>
<text text-anchor="middle" x="288" y="-103" font-family="Helvetica,sans-Serif" font-size="10.00"> definition</text>
</a>
</g>
</g>
<!-- Node1&#45;&gt;Node7 -->
<g id="edge6" class="edge">
<title>Node1&#45;&gt;Node7</title>
<path fill="none" stroke="black" d="M188.56,-111C202.22,-111 216.53,-111 229.89,-111"/>
<polygon fill="black" stroke="black" points="188.28,-107.5 178.28,-111 188.28,-114.5 188.28,-107.5"/>
</g>
<!-- Node4 -->
<g id="node6" class="node">
<title>Node4</title>
<g id="a_node6"><a xlink:href="group__HAL__state__structure__definition.html" target="_top" xlink:title="HAL State structure definition.">
<polygon fill="white" stroke="black" points="343,-78 233,-78 233,-48 343,-48 343,-78"/>
<text text-anchor="start" x="241" y="-66" font-family="Helvetica,sans-Serif" font-size="10.00">HAL state structure</text>
<text text-anchor="middle" x="288" y="-55" font-family="Helvetica,sans-Serif" font-size="10.00"> definition</text>
</a>
</g>
</g>
<!-- Node1&#45;&gt;Node4 -->
<g id="edge3" class="edge">
<title>Node1&#45;&gt;Node4</title>
<path fill="none" stroke="black" d="M166.31,-98.54C187.56,-92.28 213.48,-84.65 235.85,-78.06"/>
<polygon fill="black" stroke="black" points="165.2,-95.22 156.59,-101.4 167.18,-101.93 165.2,-95.22"/>
</g>
<!-- Node3 -->
<g id="node7" class="node">
<title>Node3</title>
<g id="a_node7"><a xlink:href="group__I2C__Configuration__Structure__definition.html" target="_top" xlink:title="I2C Configuration Structure definition.">
<polygon fill="white" stroke="black" points="362,-30 214,-30 214,0 362,0 362,-30"/>
<text text-anchor="start" x="222" y="-18" font-family="Helvetica,sans-Serif" font-size="10.00">I2C Configuration Structure</text>
<text text-anchor="middle" x="288" y="-7" font-family="Helvetica,sans-Serif" font-size="10.00"> definition</text>
</a>
</g>
</g>
<!-- Node1&#45;&gt;Node3 -->
<g id="edge2" class="edge">
<title>Node1&#45;&gt;Node3</title>
<path fill="none" stroke="black" d="M141.21,-94.08C158.39,-77.99 186.18,-54.06 214,-39 220.1,-35.7 226.73,-32.75 233.43,-30.14"/>
<polygon fill="black" stroke="black" points="138.48,-91.84 133.67,-101.28 143.32,-96.9 138.48,-91.84"/>
</g>
</g>
</svg>
