<?xml version="1.0" encoding="UTF-8" standalone="no"?>
<!DOCTYPE svg PUBLIC "-//W3C//DTD SVG 1.1//EN"
 "http://www.w3.org/Graphics/SVG/1.1/DTD/svg11.dtd">
<!-- Generated by graphviz version 2.43.0 (0)
 -->
<!-- Title: I2C_Exported_Functions Pages: 1 -->
<svg width="393pt" height="172pt"
 viewBox="0.00 0.00 393.00 171.50" xmlns="http://www.w3.org/2000/svg" xmlns:xlink="http://www.w3.org/1999/xlink">
<g id="graph0" class="graph" transform="scale(1 1) rotate(0) translate(4 167.5)">
<title>I2C_Exported_Functions</title>
<polygon fill="white" stroke="transparent" points="-4,4 -4,-167.5 389,-167.5 389,4 -4,4"/>
<!-- Node5 -->
<g id="node1" class="node">
<title>Node5</title>
<g id="a_node1"><a xlink:href="group__I2C__IRQ__Handler__and__Callbacks.html" target="_top" xlink:title=" ">
<polygon fill="white" stroke="black" points="384,-163.5 238,-163.5 238,-144.5 384,-144.5 384,-163.5"/>
<text text-anchor="middle" x="311" y="-151.5" font-family="Helvetica,sans-Serif" font-size="10.00">IRQ Handler and Callbacks</text>
</a>
</g>
</g>
<!-- Node2 -->
<g id="node2" class="node">
<title>Node2</title>
<g id="a_node2"><a xlink:href="group__I2C.html" target="_top" xlink:title="I2C HAL module driver.">
<polygon fill="white" stroke="black" points="32,-96.5 0,-96.5 0,-77.5 32,-77.5 32,-96.5"/>
<text text-anchor="middle" x="16" y="-84.5" font-family="Helvetica,sans-Serif" font-size="10.00">I2C</text>
</a>
</g>
</g>
<!-- Node1 -->
<g id="node6" class="node">
<title>Node1</title>
<g id="a_node6"><a xlink:title=" ">
<polygon fill="#bfbfbf" stroke="black" points="201,-96.5 68,-96.5 68,-77.5 201,-77.5 201,-96.5"/>
<text text-anchor="middle" x="134.5" y="-84.5" font-family="Helvetica,sans-Serif" font-size="10.00">I2C_Exported_Functions</text>
</a>
</g>
</g>
<!-- Node2&#45;&gt;Node1 -->
<g id="edge1" class="edge">
<title>Node2&#45;&gt;Node1</title>
<path fill="none" stroke="black" d="M42.25,-87C49.95,-87 58.79,-87 67.87,-87"/>
<polygon fill="black" stroke="black" points="42.23,-83.5 32.23,-87 42.23,-90.5 42.23,-83.5"/>
</g>
<!-- Node3 -->
<g id="node3" class="node">
<title>Node3</title>
<g id="a_node3"><a xlink:href="group__I2C__Exported__Functions__Group1.html" target="_top" xlink:title=" ">
<polygon fill="white" stroke="black" points="383,-126 239,-126 239,-96 383,-96 383,-126"/>
<text text-anchor="start" x="247" y="-114" font-family="Helvetica,sans-Serif" font-size="10.00">Initialization and</text>
<text text-anchor="middle" x="311" y="-103" font-family="Helvetica,sans-Serif" font-size="10.00"> de&#45;initialization functions</text>
</a>
</g>
</g>
<!-- Node4 -->
<g id="node4" class="node">
<title>Node4</title>
<g id="a_node4"><a xlink:href="group__I2C__Exported__Functions__Group2.html" target="_top" xlink:title=" ">
<polygon fill="white" stroke="black" points="385,-78 237,-78 237,-48 385,-48 385,-78"/>
<text text-anchor="start" x="245" y="-66" font-family="Helvetica,sans-Serif" font-size="10.00">Input and Output operation</text>
<text text-anchor="middle" x="311" y="-55" font-family="Helvetica,sans-Serif" font-size="10.00"> functions</text>
</a>
</g>
</g>
<!-- Node6 -->
<g id="node5" class="node">
<title>Node6</title>
<g id="a_node5"><a xlink:href="group__I2C__Exported__Functions__Group3.html" target="_top" xlink:title=" ">
<polygon fill="white" stroke="black" points="375,-30 247,-30 247,0 375,0 375,-30"/>
<text text-anchor="start" x="255" y="-18" font-family="Helvetica,sans-Serif" font-size="10.00">Peripheral State, Mode</text>
<text text-anchor="middle" x="311" y="-7" font-family="Helvetica,sans-Serif" font-size="10.00"> and Error functions</text>
</a>
</g>
</g>
<!-- Node1&#45;&gt;Node5 -->
<g id="edge4" class="edge">
<title>Node1&#45;&gt;Node5</title>
<path fill="none" stroke="black" d="M161.93,-101.18C182.08,-111.57 210.74,-125.47 237,-135 246.85,-138.57 257.67,-141.77 267.9,-144.48"/>
<polygon fill="black" stroke="black" points="163.52,-98.06 153.04,-96.53 160.28,-104.26 163.52,-98.06"/>
</g>
<!-- Node1&#45;&gt;Node3 -->
<g id="edge2" class="edge">
<title>Node1&#45;&gt;Node3</title>
<path fill="none" stroke="black" d="M211.64,-97.47C220.72,-98.72 229.97,-99.99 238.98,-101.23"/>
<polygon fill="black" stroke="black" points="211.85,-93.97 201.47,-96.07 210.9,-100.9 211.85,-93.97"/>
</g>
<!-- Node1&#45;&gt;Node4 -->
<g id="edge3" class="edge">
<title>Node1&#45;&gt;Node4</title>
<path fill="none" stroke="black" d="M211.63,-76.53C220.03,-75.37 228.57,-74.2 236.93,-73.05"/>
<polygon fill="black" stroke="black" points="210.9,-73.1 201.47,-77.93 211.85,-80.03 210.9,-73.1"/>
</g>
<!-- Node1&#45;&gt;Node6 -->
<g id="edge5" class="edge">
<title>Node1&#45;&gt;Node6</title>
<path fill="none" stroke="black" d="M162.84,-72.93C183.04,-62.82 211.37,-49.23 237,-39 244.81,-35.88 253.19,-32.85 261.4,-30.04"/>
<polygon fill="black" stroke="black" points="161.25,-69.82 153.9,-77.45 164.4,-76.07 161.25,-69.82"/>
</g>
</g>
</svg>
