<?xml version="1.0" encoding="UTF-8" standalone="no"?>
<!DOCTYPE svg PUBLIC "-//W3C//DTD SVG 1.1//EN"
 "http://www.w3.org/Graphics/SVG/1.1/DTD/svg11.dtd">
<!-- Generated by graphviz version 2.43.0 (0)
 -->
<!-- Title: SPI Exported Constants Pages: 1 -->
<!--zoomable 471 -->
<svg id="main" version="1.1" xmlns="http://www.w3.org/2000/svg" xmlns:xlink="http://www.w3.org/1999/xlink" xml:space="preserve" onload="init(evt)">
<style type="text/css"><![CDATA[
.edge:hover path { stroke: red; }
.edge:hover polygon { stroke: red; fill: red; }
]]></style>
<script type="text/javascript"><![CDATA[
var edges = document.getElementsByTagName('g');
if (edges && edges.length) {
  for (var i=0;i<edges.length;i++) {
    if (edges[i].id.substr(0,4)=='edge') {
      edges[i].setAttribute('class','edge');
    }
  }
}
]]></script>
        <defs>
                <circle id="rim" cx="0" cy="0" r="7"/>
                <circle id="rim2" cx="0" cy="0" r="3.5"/>
                <g id="zoomPlus">
                        <use xlink:href="#rim" fill="#404040">
                                <set attributeName="fill" to="#808080" begin="zoomplus.mouseover" end="zoomplus.mouseout"/>
                        </use>
                        <path d="M-4,0h8M0,-4v8" fill="none" stroke="white" stroke-width="1.5" pointer-events="none"/>
                </g>
                <g id="zoomMin">
                        <use xlink:href="#rim" fill="#404040">
                                <set attributeName="fill" to="#808080" begin="zoomminus.mouseover" end="zoomminus.mouseout"/>
                        </use>
                        <path d="M-4,0h8" fill="none" stroke="white" stroke-width="1.5" pointer-events="none"/>
                </g>
                <g id="dirArrow">
                        <path fill="none" stroke="white" stroke-width="1.5" d="M0,-3.0v7 M-2.5,-0.5L0,-3.0L2.5,-0.5"/>
                </g>
               <g id="resetDef">
                       <use xlink:href="#rim2" fill="#404040">
                               <set attributeName="fill" to="#808080" begin="reset.mouseover" end="reset.mouseout"/>
                       </use>
               </g>
        </defs>

<script type="text/javascript">
var viewWidth = 404;
var viewHeight = 471;
var sectionId = 'dynsection-0';
</script>
<script xlink:href="svgpan.js"/>
<svg id="graph" class="graph">
<g id="viewport">
<title>SPI Exported Constants</title>
<polygon fill="white" stroke="transparent" points="-4,4 -4,-467 400,-467 400,4 -4,4"/>
<!-- Node1 -->
<g id="node1" class="node">
<title>Node1</title>
<g id="a_node1"><a xlink:title=" ">
<polygon fill="#bfbfbf" stroke="black" points="198,-241 68,-241 68,-222 198,-222 198,-241"/>
<text text-anchor="middle" x="133" y="-229" font-family="Helvetica,sans-Serif" font-size="10.00">SPI Exported Constants</text>
</a>
</g>
</g>
<!-- Node13 -->
<g id="node2" class="node">
<title>Node13</title>
<g id="a_node2"><a xlink:href="group__SPI__CRC__Calculation.html" target="_top" xlink:title=" ">
<polygon fill="white" stroke="black" points="371.5,-463 258.5,-463 258.5,-444 371.5,-444 371.5,-463"/>
<text text-anchor="middle" x="315" y="-451" font-family="Helvetica,sans-Serif" font-size="10.00">SPI CRC Calculation</text>
</a>
</g>
</g>
<!-- Node1&#45;&gt;Node13 -->
<g id="edge12" class="edge">
<title>Node1&#45;&gt;Node13</title>
<path fill="none" stroke="black" d="M137.71,-251.07C146.55,-292.08 172.87,-387.25 234,-435.5 241.04,-441.06 249.46,-444.97 258.15,-447.71"/>
<polygon fill="black" stroke="black" points="141.09,-250.12 135.66,-241.02 134.23,-251.52 141.09,-250.12"/>
</g>
<!-- Node7 -->
<g id="node3" class="node">
<title>Node7</title>
<g id="a_node3"><a xlink:href="group__SPI__Clock__Polarity.html" target="_top" xlink:title=" ">
<polygon fill="white" stroke="black" points="366,-426 264,-426 264,-407 366,-407 366,-426"/>
<text text-anchor="middle" x="315" y="-414" font-family="Helvetica,sans-Serif" font-size="10.00">SPI Clock Polarity</text>
</a>
</g>
</g>
<!-- Node1&#45;&gt;Node7 -->
<g id="edge6" class="edge">
<title>Node1&#45;&gt;Node7</title>
<path fill="none" stroke="black" d="M139.91,-250.89C151.71,-286.16 181.64,-360.62 234,-398.5 242.77,-404.84 253.38,-409 263.97,-411.72"/>
<polygon fill="black" stroke="black" points="143.22,-249.74 136.83,-241.29 136.55,-251.88 143.22,-249.74"/>
</g>
<!-- Node14 -->
<g id="node5" class="node">
<title>Node14</title>
<g id="a_node5"><a xlink:href="group__SPI__Interrupt__definition.html" target="_top" xlink:title=" ">
<polygon fill="white" stroke="black" points="378.5,-389 251.5,-389 251.5,-370 378.5,-370 378.5,-389"/>
<text text-anchor="middle" x="315" y="-377" font-family="Helvetica,sans-Serif" font-size="10.00">SPI Interrupt Definition</text>
</a>
</g>
</g>
<!-- Node1&#45;&gt;Node14 -->
<g id="edge13" class="edge">
<title>Node1&#45;&gt;Node14</title>
<path fill="none" stroke="black" d="M142.95,-250.17C157.72,-278.85 189.99,-333.4 234,-361.5 239.4,-364.95 245.37,-367.74 251.55,-370"/>
<polygon fill="black" stroke="black" points="146.06,-248.57 138.47,-241.18 139.8,-251.69 146.06,-248.57"/>
</g>
<!-- Node11 -->
<g id="node6" class="node">
<title>Node11</title>
<g id="a_node6"><a xlink:href="group__SPI__MSB__LSB__transmission.html" target="_top" xlink:title=" ">
<polygon fill="white" stroke="black" points="387,-352 243,-352 243,-333 387,-333 387,-352"/>
<text text-anchor="middle" x="315" y="-340" font-family="Helvetica,sans-Serif" font-size="10.00">SPI MSB LSB Transmission</text>
</a>
</g>
</g>
<!-- Node1&#45;&gt;Node11 -->
<g id="edge10" class="edge">
<title>Node1&#45;&gt;Node11</title>
<path fill="none" stroke="black" d="M147.77,-249.05C165.42,-270.29 198.06,-305.55 234,-324.5 240.42,-327.89 247.46,-330.64 254.62,-332.87"/>
<polygon fill="black" stroke="black" points="150.38,-246.71 141.36,-241.15 144.94,-251.12 150.38,-246.71"/>
</g>
<!-- Node10 -->
<g id="node7" class="node">
<title>Node10</title>
<g id="a_node7"><a xlink:href="group__SPI__BaudRate__Prescaler.html" target="_top" xlink:title=" ">
<polygon fill="white" stroke="black" points="380,-315 250,-315 250,-296 380,-296 380,-315"/>
<text text-anchor="middle" x="315" y="-303" font-family="Helvetica,sans-Serif" font-size="10.00">SPI BaudRate Prescaler</text>
</a>
</g>
</g>
<!-- Node1&#45;&gt;Node10 -->
<g id="edge9" class="edge">
<title>Node1&#45;&gt;Node10</title>
<path fill="none" stroke="black" d="M156.48,-246.59C176.16,-259.18 205.93,-276.74 234,-287.5 242.64,-290.81 252.05,-293.6 261.28,-295.92"/>
<polygon fill="black" stroke="black" points="158.22,-243.55 147.93,-241.03 154.41,-249.42 158.22,-243.55"/>
</g>
<!-- Node9 -->
<g id="node8" class="node">
<title>Node9</title>
<g id="a_node8"><a xlink:href="group__SPI__Slave__Select__management.html" target="_top" xlink:title=" ">
<polygon fill="white" stroke="black" points="396,-278 234,-278 234,-259 396,-259 396,-278"/>
<text text-anchor="middle" x="315" y="-266" font-family="Helvetica,sans-Serif" font-size="10.00">SPI Slave Select Management</text>
</a>
</g>
</g>
<!-- Node1&#45;&gt;Node9 -->
<g id="edge8" class="edge">
<title>Node1&#45;&gt;Node9</title>
<path fill="none" stroke="black" d="M190.35,-243.08C215.16,-248.18 243.94,-254.1 267.49,-258.94"/>
<polygon fill="black" stroke="black" points="190.85,-239.61 180.35,-241.03 189.44,-246.47 190.85,-239.61"/>
</g>
<!-- Node4 -->
<g id="node9" class="node">
<title>Node4</title>
<g id="a_node9"><a xlink:href="group__SPI__Mode.html" target="_top" xlink:title=" ">
<polygon fill="white" stroke="black" points="346,-241 284,-241 284,-222 346,-222 346,-241"/>
<text text-anchor="middle" x="315" y="-229" font-family="Helvetica,sans-Serif" font-size="10.00">SPI Mode</text>
</a>
</g>
</g>
<!-- Node1&#45;&gt;Node4 -->
<g id="edge3" class="edge">
<title>Node1&#45;&gt;Node4</title>
<path fill="none" stroke="black" d="M208.23,-231.5C234.65,-231.5 262.94,-231.5 283.61,-231.5"/>
<polygon fill="black" stroke="black" points="208.22,-228 198.22,-231.5 208.22,-235 208.22,-228"/>
</g>
<!-- Node8 -->
<g id="node10" class="node">
<title>Node8</title>
<g id="a_node10"><a xlink:href="group__SPI__Clock__Phase.html" target="_top" xlink:title=" ">
<polygon fill="white" stroke="black" points="362,-204 268,-204 268,-185 362,-185 362,-204"/>
<text text-anchor="middle" x="315" y="-192" font-family="Helvetica,sans-Serif" font-size="10.00">SPI Clock Phase</text>
</a>
</g>
</g>
<!-- Node1&#45;&gt;Node8 -->
<g id="edge7" class="edge">
<title>Node1&#45;&gt;Node8</title>
<path fill="none" stroke="black" d="M190.39,-219.91C215.3,-214.79 244.21,-208.85 267.8,-204"/>
<polygon fill="black" stroke="black" points="189.44,-216.53 180.35,-221.97 190.85,-223.39 189.44,-216.53"/>
</g>
<!-- Node12 -->
<g id="node11" class="node">
<title>Node12</title>
<g id="a_node11"><a xlink:href="group__SPI__TI__mode.html" target="_top" xlink:title=" ">
<polygon fill="white" stroke="black" points="352,-167 278,-167 278,-148 352,-148 352,-167"/>
<text text-anchor="middle" x="315" y="-155" font-family="Helvetica,sans-Serif" font-size="10.00">SPI TI Mode</text>
</a>
</g>
</g>
<!-- Node1&#45;&gt;Node12 -->
<g id="edge11" class="edge">
<title>Node1&#45;&gt;Node12</title>
<path fill="none" stroke="black" d="M156.48,-216.41C176.16,-203.82 205.93,-186.26 234,-175.5 247.96,-170.15 263.92,-166.16 277.9,-163.32"/>
<polygon fill="black" stroke="black" points="154.41,-213.58 147.93,-221.97 158.22,-219.45 154.41,-213.58"/>
</g>
<!-- Node15 -->
<g id="node12" class="node">
<title>Node15</title>
<g id="a_node12"><a xlink:href="group__SPI__Flags__definition.html" target="_top" xlink:title=" ">
<polygon fill="white" stroke="black" points="370.5,-130 259.5,-130 259.5,-111 370.5,-111 370.5,-130"/>
<text text-anchor="middle" x="315" y="-118" font-family="Helvetica,sans-Serif" font-size="10.00">SPI Flags Definition</text>
</a>
</g>
</g>
<!-- Node1&#45;&gt;Node15 -->
<g id="edge14" class="edge">
<title>Node1&#45;&gt;Node15</title>
<path fill="none" stroke="black" d="M147.77,-213.95C165.42,-192.71 198.06,-157.45 234,-138.5 241.81,-134.38 250.53,-131.2 259.26,-128.75"/>
<polygon fill="black" stroke="black" points="144.94,-211.88 141.36,-221.85 150.38,-216.29 144.94,-211.88"/>
</g>
<!-- Node5 -->
<g id="node13" class="node">
<title>Node5</title>
<g id="a_node13"><a xlink:href="group__SPI__Direction.html" target="_top" xlink:title=" ">
<polygon fill="white" stroke="black" points="369.5,-93 260.5,-93 260.5,-74 369.5,-74 369.5,-93"/>
<text text-anchor="middle" x="315" y="-81" font-family="Helvetica,sans-Serif" font-size="10.00">SPI Direction Mode</text>
</a>
</g>
</g>
<!-- Node1&#45;&gt;Node5 -->
<g id="edge4" class="edge">
<title>Node1&#45;&gt;Node5</title>
<path fill="none" stroke="black" d="M142.95,-212.83C157.72,-184.15 189.99,-129.6 234,-101.5 241.92,-96.44 251.07,-92.8 260.3,-90.17"/>
<polygon fill="black" stroke="black" points="139.8,-211.31 138.47,-221.82 146.06,-214.43 139.8,-211.31"/>
</g>
<!-- Node6 -->
<g id="node14" class="node">
<title>Node6</title>
<g id="a_node14"><a xlink:href="group__SPI__Data__Size.html" target="_top" xlink:title=" ">
<polygon fill="white" stroke="black" points="355.5,-56 274.5,-56 274.5,-37 355.5,-37 355.5,-56"/>
<text text-anchor="middle" x="315" y="-44" font-family="Helvetica,sans-Serif" font-size="10.00">SPI Data Size</text>
</a>
</g>
</g>
<!-- Node1&#45;&gt;Node6 -->
<g id="edge5" class="edge">
<title>Node1&#45;&gt;Node6</title>
<path fill="none" stroke="black" d="M139.91,-212.11C151.71,-176.84 181.64,-102.38 234,-64.5 245.65,-56.07 260.56,-51.49 274.34,-49.04"/>
<polygon fill="black" stroke="black" points="136.55,-211.12 136.83,-221.71 143.22,-213.26 136.55,-211.12"/>
</g>
<!-- Node3 -->
<g id="node15" class="node">
<title>Node3</title>
<g id="a_node15"><a xlink:href="group__SPI__Error__Code.html" target="_top" xlink:title=" ">
<polygon fill="white" stroke="black" points="358,-19 272,-19 272,0 358,0 358,-19"/>
<text text-anchor="middle" x="315" y="-7" font-family="Helvetica,sans-Serif" font-size="10.00">SPI Error Code</text>
</a>
</g>
</g>
<!-- Node1&#45;&gt;Node3 -->
<g id="edge2" class="edge">
<title>Node1&#45;&gt;Node3</title>
<path fill="none" stroke="black" d="M137.71,-211.93C146.55,-170.92 172.87,-75.75 234,-27.5 244.73,-19.03 258.66,-14.38 271.88,-11.88"/>
<polygon fill="black" stroke="black" points="134.23,-211.48 135.66,-221.98 141.09,-212.88 134.23,-211.48"/>
</g>
<!-- Node2 -->
<g id="node4" class="node">
<title>Node2</title>
<g id="a_node4"><a xlink:href="group__SPI.html" target="_top" xlink:title="SPI HAL module driver.">
<polygon fill="white" stroke="black" points="32,-241 0,-241 0,-222 32,-222 32,-241"/>
<text text-anchor="middle" x="16" y="-229" font-family="Helvetica,sans-Serif" font-size="10.00">SPI</text>
</a>
</g>
</g>
<!-- Node2&#45;&gt;Node1 -->
<g id="edge1" class="edge">
<title>Node2&#45;&gt;Node1</title>
<path fill="none" stroke="black" d="M42.14,-231.5C49.9,-231.5 58.84,-231.5 68,-231.5"/>
<polygon fill="black" stroke="black" points="42.03,-228 32.03,-231.5 42.03,-235 42.03,-228"/>
</g>
</g>
</svg>
        <g id="navigator" transform="translate(0 0)" fill="#404254">
                <rect fill="#f2f5e9" fill-opacity="0.5" stroke="#606060" stroke-width=".5" x="0" y="0" width="60" height="60"/>
                <use id="zoomplus" xlink:href="#zoomPlus" x="17" y="9" onmousedown="handleZoom(evt,'in')"/>
                <use id="zoomminus" xlink:href="#zoomMin" x="42" y="9" onmousedown="handleZoom(evt,'out')"/>
                <use id="reset" xlink:href="#resetDef" x="30" y="36" onmousedown="handleReset()"/>
                <g id="arrowUp" xlink:href="#dirArrow" transform="translate(30 24)" onmousedown="handlePan(0,-1)">
                  <use xlink:href="#rim" fill="#404040">
                        <set attributeName="fill" to="#808080" begin="arrowUp.mouseover" end="arrowUp.mouseout"/>
                  </use>
                  <path fill="none" stroke="white" stroke-width="1.5" d="M0,-3.0v7 M-2.5,-0.5L0,-3.0L2.5,-0.5"/>
                </g>
                <g id="arrowRight" xlink:href="#dirArrow" transform="rotate(90) translate(36 -43)" onmousedown="handlePan(1,0)">
                  <use xlink:href="#rim" fill="#404040">
                        <set attributeName="fill" to="#808080" begin="arrowRight.mouseover" end="arrowRight.mouseout"/>
                  </use>
                  <path fill="none" stroke="white" stroke-width="1.5" d="M0,-3.0v7 M-2.5,-0.5L0,-3.0L2.5,-0.5"/>
                </g>
                <g id="arrowDown" xlink:href="#dirArrow" transform="rotate(180) translate(-30 -48)" onmousedown="handlePan(0,1)">
                  <use xlink:href="#rim" fill="#404040">
                        <set attributeName="fill" to="#808080" begin="arrowDown.mouseover" end="arrowDown.mouseout"/>
                  </use>
                  <path fill="none" stroke="white" stroke-width="1.5" d="M0,-3.0v7 M-2.5,-0.5L0,-3.0L2.5,-0.5"/>
                </g>
                <g id="arrowLeft" xlink:href="#dirArrow" transform="rotate(270) translate(-36 17)" onmousedown="handlePan(-1,0)">
                  <use xlink:href="#rim" fill="#404040">
                        <set attributeName="fill" to="#808080" begin="arrowLeft.mouseover" end="arrowLeft.mouseout"/>
                  </use>
                  <path fill="none" stroke="white" stroke-width="1.5" d="M0,-3.0v7 M-2.5,-0.5L0,-3.0L2.5,-0.5"/>
                </g>
        </g>
        <svg viewBox="0 0 15 15" width="100%" height="30px" preserveAspectRatio="xMaxYMin meet">
         <g id="arrow_out" transform="scale(0.3 0.3)">
          <a xlink:href="group__SPI__Exported__Constants_org.svg" target="_base">
           <rect id="button" ry="5" rx="5" y="6" x="6" height="38" width="38"
                fill="#f2f5e9" fill-opacity="0.5" stroke="#606060" stroke-width="1.0"/>
           <path id="arrow"
             d="M 11.500037,31.436501 C 11.940474,20.09759 22.043105,11.32322 32.158766,21.979434 L 37.068811,17.246167 C 37.068811,17.246167 37.088388,32 37.088388,32 L 22.160133,31.978069 C 22.160133,31.978069 26.997745,27.140456 26.997745,27.140456 C 18.528582,18.264221 13.291696,25.230495 11.500037,31.436501 z"
             style="fill:#404040;"/>
          </a>
         </g>
        </svg>
</svg>
