<?xml version="1.0" encoding="UTF-8" standalone="no"?>
<!DOCTYPE svg PUBLIC "-//W3C//DTD SVG 1.1//EN"
 "http://www.w3.org/Graphics/SVG/1.1/DTD/svg11.dtd">
<!-- Generated by graphviz version 2.43.0 (0)
 -->
<!-- Title: SMARTCARD Pages: 1 -->
<svg width="458pt" height="295pt"
 viewBox="0.00 0.00 458.00 294.50" xmlns="http://www.w3.org/2000/svg" xmlns:xlink="http://www.w3.org/1999/xlink">
<g id="graph0" class="graph" transform="scale(1 1) rotate(0) translate(4 290.5)">
<title>SMARTCARD</title>
<polygon fill="white" stroke="transparent" points="-4,4 -4,-290.5 454,-290.5 454,4 -4,4"/>
<!-- Node3 -->
<g id="node1" class="node">
<title>Node3</title>
<g id="a_node1"><a xlink:href="group__SMARTCARD__Exported__Types.html" target="_top" xlink:title=" ">
<polygon fill="white" stroke="black" points="428.5,-286.5 304.5,-286.5 304.5,-256.5 428.5,-256.5 428.5,-286.5"/>
<text text-anchor="start" x="312.5" y="-274.5" font-family="Helvetica,sans-Serif" font-size="10.00">SMARTCARD Exported</text>
<text text-anchor="middle" x="366.5" y="-263.5" font-family="Helvetica,sans-Serif" font-size="10.00"> Types</text>
</a>
</g>
</g>
<!-- Node9 -->
<g id="node2" class="node">
<title>Node9</title>
<g id="a_node2"><a xlink:href="group__SMARTCARD__Exported__Functions.html" target="_top" xlink:title=" ">
<polygon fill="white" stroke="black" points="429.5,-238.5 303.5,-238.5 303.5,-208.5 429.5,-208.5 429.5,-238.5"/>
<text text-anchor="start" x="311.5" y="-226.5" font-family="Helvetica,sans-Serif" font-size="10.00">SMARTCARD_Exported</text>
<text text-anchor="middle" x="366.5" y="-215.5" font-family="Helvetica,sans-Serif" font-size="10.00">_Functions</text>
</a>
</g>
</g>
<!-- Node1 -->
<g id="node3" class="node">
<title>Node1</title>
<g id="a_node3"><a xlink:title="HAL SMARTCARD module driver.">
<polygon fill="#bfbfbf" stroke="black" points="247,-147 170,-147 170,-128 247,-128 247,-147"/>
<text text-anchor="middle" x="208.5" y="-135" font-family="Helvetica,sans-Serif" font-size="10.00">SMARTCARD</text>
</a>
</g>
</g>
<!-- Node1&#45;&gt;Node3 -->
<g id="edge2" class="edge">
<title>Node1&#45;&gt;Node3</title>
<path fill="none" stroke="black" d="M217.18,-156.43C228.14,-181.06 250.58,-223.74 283,-247.5 289.38,-252.17 296.65,-255.94 304.17,-258.98"/>
<polygon fill="black" stroke="black" points="220.34,-154.91 213.19,-147.09 213.9,-157.66 220.34,-154.91"/>
</g>
<!-- Node1&#45;&gt;Node9 -->
<g id="edge8" class="edge">
<title>Node1&#45;&gt;Node9</title>
<path fill="none" stroke="black" d="M225.85,-154.84C239.83,-168.73 261.11,-187.77 283,-199.5 289.31,-202.88 296.16,-205.84 303.11,-208.41"/>
<polygon fill="black" stroke="black" points="228.02,-152.04 218.52,-147.35 223.02,-156.94 228.02,-152.04"/>
</g>
<!-- Node7 -->
<g id="node4" class="node">
<title>Node7</title>
<g id="a_node4"><a xlink:href="group__SMARTCARD__Private__Macros.html" target="_top" xlink:title=" ">
<polygon fill="white" stroke="black" points="443,-190 290,-190 290,-171 443,-171 443,-190"/>
<text text-anchor="middle" x="366.5" y="-178" font-family="Helvetica,sans-Serif" font-size="10.00">SMARTCARD Private Macros</text>
</a>
</g>
</g>
<!-- Node1&#45;&gt;Node7 -->
<g id="edge6" class="edge">
<title>Node1&#45;&gt;Node7</title>
<path fill="none" stroke="black" d="M246.68,-150.35C258.25,-154.16 271.1,-158.19 283,-161.5 295.18,-164.88 308.49,-168.14 320.79,-170.97"/>
<polygon fill="black" stroke="black" points="247.49,-146.93 236.9,-147.09 245.27,-153.57 247.49,-146.93"/>
</g>
<!-- Node5 -->
<g id="node6" class="node">
<title>Node5</title>
<g id="a_node6"><a xlink:href="group__SMARTCARD__Exported__Macros.html" target="_top" xlink:title=" ">
<polygon fill="white" stroke="black" points="428.5,-152.5 304.5,-152.5 304.5,-122.5 428.5,-122.5 428.5,-152.5"/>
<text text-anchor="start" x="312.5" y="-140.5" font-family="Helvetica,sans-Serif" font-size="10.00">SMARTCARD Exported</text>
<text text-anchor="middle" x="366.5" y="-129.5" font-family="Helvetica,sans-Serif" font-size="10.00"> Macros</text>
</a>
</g>
</g>
<!-- Node1&#45;&gt;Node5 -->
<g id="edge4" class="edge">
<title>Node1&#45;&gt;Node5</title>
<path fill="none" stroke="black" d="M257.67,-137.5C272.43,-137.5 288.86,-137.5 304.36,-137.5"/>
<polygon fill="black" stroke="black" points="257.26,-134 247.26,-137.5 257.26,-141 257.26,-134"/>
</g>
<!-- Node4 -->
<g id="node7" class="node">
<title>Node4</title>
<g id="a_node7"><a xlink:href="group__SMARTCARD__Exported__Constants.html" target="_top" xlink:title=" ">
<polygon fill="white" stroke="black" points="428.5,-104.5 304.5,-104.5 304.5,-74.5 428.5,-74.5 428.5,-104.5"/>
<text text-anchor="start" x="312.5" y="-92.5" font-family="Helvetica,sans-Serif" font-size="10.00">SMARTCARD Exported</text>
<text text-anchor="middle" x="366.5" y="-81.5" font-family="Helvetica,sans-Serif" font-size="10.00"> constants</text>
</a>
</g>
</g>
<!-- Node1&#45;&gt;Node4 -->
<g id="edge3" class="edge">
<title>Node1&#45;&gt;Node4</title>
<path fill="none" stroke="black" d="M247.68,-124.77C259.02,-121.06 271.49,-117.05 283,-113.5 292.55,-110.55 302.75,-107.5 312.61,-104.61"/>
<polygon fill="black" stroke="black" points="246.46,-121.49 238.05,-127.94 248.65,-128.14 246.46,-121.49"/>
</g>
<!-- Node6 -->
<g id="node8" class="node">
<title>Node6</title>
<g id="a_node8"><a xlink:href="group__SMARTCARD__Private__Constants.html" target="_top" xlink:title=" ">
<polygon fill="white" stroke="black" points="450,-56 283,-56 283,-37 450,-37 450,-56"/>
<text text-anchor="middle" x="366.5" y="-44" font-family="Helvetica,sans-Serif" font-size="10.00">SMARTCARD Private Constants</text>
</a>
</g>
</g>
<!-- Node1&#45;&gt;Node6 -->
<g id="edge5" class="edge">
<title>Node1&#45;&gt;Node6</title>
<path fill="none" stroke="black" d="M222.95,-119.55C236.35,-102.97 258.41,-78.96 283,-65.5 290.09,-61.62 297.94,-58.53 305.9,-56.07"/>
<polygon fill="black" stroke="black" points="219.85,-117.84 216.44,-127.87 225.36,-122.15 219.85,-117.84"/>
</g>
<!-- Node8 -->
<g id="node9" class="node">
<title>Node8</title>
<g id="a_node9"><a xlink:href="group__SMARTCARD__Private__Functions.html" target="_top" xlink:title=" ">
<polygon fill="white" stroke="black" points="448.5,-19 284.5,-19 284.5,0 448.5,0 448.5,-19"/>
<text text-anchor="middle" x="366.5" y="-7" font-family="Helvetica,sans-Serif" font-size="10.00">SMARTCARD Private Functions</text>
</a>
</g>
</g>
<!-- Node1&#45;&gt;Node8 -->
<g id="edge7" class="edge">
<title>Node1&#45;&gt;Node8</title>
<path fill="none" stroke="black" d="M216.94,-118.23C227.64,-93.23 249.79,-50.14 283,-27.5 287.97,-24.11 293.46,-21.35 299.18,-19.1"/>
<polygon fill="black" stroke="black" points="213.61,-117.14 213.06,-127.73 220.09,-119.79 213.61,-117.14"/>
</g>
<!-- Node2 -->
<g id="node5" class="node">
<title>Node2</title>
<g id="a_node5"><a xlink:href="group__STM32F4xx__HAL__Driver.html" target="_top" xlink:title=" ">
<polygon fill="white" stroke="black" points="134,-147 0,-147 0,-128 134,-128 134,-147"/>
<text text-anchor="middle" x="67" y="-135" font-family="Helvetica,sans-Serif" font-size="10.00">STM32F4xx_HAL_Driver</text>
</a>
</g>
</g>
<!-- Node2&#45;&gt;Node1 -->
<g id="edge1" class="edge">
<title>Node2&#45;&gt;Node1</title>
<path fill="none" stroke="black" d="M144.13,-137.5C153.01,-137.5 161.75,-137.5 169.77,-137.5"/>
<polygon fill="black" stroke="black" points="144.07,-134 134.07,-137.5 144.07,-141 144.07,-134"/>
</g>
</g>
</svg>
