<?xml version="1.0" encoding="UTF-8" standalone="no"?>
<!DOCTYPE svg PUBLIC "-//W3C//DTD SVG 1.1//EN"
 "http://www.w3.org/Graphics/SVG/1.1/DTD/svg11.dtd">
<!-- Generated by graphviz version 2.43.0 (0)
 -->
<!-- Title: UTILS_EnablePLLAndSwitchSystem Pages: 1 -->
<svg width="329pt" height="66pt"
 viewBox="0.00 0.00 329.00 66.00" xmlns="http://www.w3.org/2000/svg" xmlns:xlink="http://www.w3.org/1999/xlink">
<g id="graph0" class="graph" transform="scale(1 1) rotate(0) translate(4 62)">
<title>UTILS_EnablePLLAndSwitchSystem</title>
<polygon fill="white" stroke="transparent" points="-4,4 -4,-62 325,-62 325,4 -4,4"/>
<!-- Node1 -->
<g id="node1" class="node">
<title>Node1</title>
<g id="a_node1"><a xlink:title="Function to enable PLL and switch system clock to PLL.">
<polygon fill="#bfbfbf" stroke="black" points="0,-14 0,-44 151,-44 151,-14 0,-14"/>
<text text-anchor="start" x="8" y="-32" font-family="Helvetica,sans-Serif" font-size="10.00">UTILS_EnablePLLAndSwitch</text>
<text text-anchor="middle" x="75.5" y="-21" font-family="Helvetica,sans-Serif" font-size="10.00">System</text>
</a>
</g>
</g>
<!-- Node2 -->
<g id="node2" class="node">
<title>Node2</title>
<g id="a_node2"><a xlink:href="group__UTILS__EF__SYSTEM.html#ga74f71dc4b93a3b99e5f9e042e85e2ce5" target="_top" xlink:title="Update number of Flash wait states in line with new frequency and current voltage range.">
<polygon fill="white" stroke="black" points="197.5,-38.5 197.5,-57.5 310.5,-57.5 310.5,-38.5 197.5,-38.5"/>
<text text-anchor="middle" x="254" y="-45.5" font-family="Helvetica,sans-Serif" font-size="10.00">LL_SetFlashLatency</text>
</a>
</g>
</g>
<!-- Node1&#45;&gt;Node2 -->
<g id="edge1" class="edge">
<title>Node1&#45;&gt;Node2</title>
<path fill="none" stroke="midnightblue" d="M151.1,-37.03C163.1,-38.32 175.46,-39.65 187.23,-40.92"/>
<polygon fill="midnightblue" stroke="midnightblue" points="187.1,-44.43 197.42,-42.02 187.85,-37.47 187.1,-44.43"/>
</g>
<!-- Node3 -->
<g id="node3" class="node">
<title>Node3</title>
<g id="a_node3"><a xlink:href="group__UTILS__EF__SYSTEM.html#ga5af902d59c4c2d9dc5e189df0bc71ecd" target="_top" xlink:title="This function sets directly SystemCoreClock CMSIS variable.">
<polygon fill="white" stroke="black" points="187,-0.5 187,-19.5 321,-19.5 321,-0.5 187,-0.5"/>
<text text-anchor="middle" x="254" y="-7.5" font-family="Helvetica,sans-Serif" font-size="10.00">LL_SetSystemCoreClock</text>
</a>
</g>
</g>
<!-- Node1&#45;&gt;Node3 -->
<g id="edge2" class="edge">
<title>Node1&#45;&gt;Node3</title>
<path fill="none" stroke="midnightblue" d="M151.1,-20.97C159.52,-20.06 168.12,-19.14 176.57,-18.23"/>
<polygon fill="midnightblue" stroke="midnightblue" points="177.22,-21.68 186.79,-17.13 176.47,-14.72 177.22,-21.68"/>
</g>
</g>
</svg>
