<?xml version="1.0" encoding="UTF-8" standalone="no"?>
<!DOCTYPE svg PUBLIC "-//W3C//DTD SVG 1.1//EN"
 "http://www.w3.org/Graphics/SVG/1.1/DTD/svg11.dtd">
<!-- Generated by graphviz version 2.43.0 (0)
 -->
<!-- Title: GPIOEx Pages: 1 -->
<svg width="406pt" height="212pt"
 viewBox="0.00 0.00 406.00 212.00" xmlns="http://www.w3.org/2000/svg" xmlns:xlink="http://www.w3.org/1999/xlink">
<g id="graph0" class="graph" transform="scale(1 1) rotate(0) translate(4 208)">
<title>GPIOEx</title>
<polygon fill="white" stroke="transparent" points="-4,4 -4,-208 402,-208 402,4 -4,4"/>
<!-- Node5 -->
<g id="node1" class="node">
<title>Node5</title>
<g id="a_node1"><a xlink:href="group__GPIOEx__Exported__Functions.html" target="_top" xlink:title=" ">
<polygon fill="white" stroke="black" points="397,-204 260,-204 260,-185 397,-185 397,-204"/>
<text text-anchor="middle" x="328.5" y="-192" font-family="Helvetica,sans-Serif" font-size="10.00">GPIO Exported Functions</text>
</a>
</g>
</g>
<!-- Node8 -->
<g id="node2" class="node">
<title>Node8</title>
<g id="a_node2"><a xlink:href="group__GPIOEx__Private__Functions.html" target="_top" xlink:title=" ">
<polygon fill="white" stroke="black" points="392.5,-167 264.5,-167 264.5,-148 392.5,-148 392.5,-167"/>
<text text-anchor="middle" x="328.5" y="-155" font-family="Helvetica,sans-Serif" font-size="10.00">GPIO Private Functions</text>
</a>
</g>
</g>
<!-- Node4 -->
<g id="node3" class="node">
<title>Node4</title>
<g id="a_node3"><a xlink:href="group__GPIOEx__Exported__Macros.html" target="_top" xlink:title=" ">
<polygon fill="white" stroke="black" points="391,-130 266,-130 266,-111 391,-111 391,-130"/>
<text text-anchor="middle" x="328.5" y="-118" font-family="Helvetica,sans-Serif" font-size="10.00">GPIO Exported Macros</text>
</a>
</g>
</g>
<!-- Node3 -->
<g id="node4" class="node">
<title>Node3</title>
<g id="a_node4"><a xlink:href="group__GPIOEx__Exported__Constants.html" target="_top" xlink:title=" ">
<polygon fill="white" stroke="black" points="398,-93 259,-93 259,-74 398,-74 398,-93"/>
<text text-anchor="middle" x="328.5" y="-81" font-family="Helvetica,sans-Serif" font-size="10.00">GPIO Exported Constants</text>
</a>
</g>
</g>
<!-- Node1 -->
<g id="node5" class="node">
<title>Node1</title>
<g id="a_node5"><a xlink:title=" ">
<polygon fill="#bfbfbf" stroke="black" points="223,-111 170,-111 170,-92 223,-92 223,-111"/>
<text text-anchor="middle" x="196.5" y="-99" font-family="Helvetica,sans-Serif" font-size="10.00">GPIOEx</text>
</a>
</g>
</g>
<!-- Node1&#45;&gt;Node5 -->
<g id="edge4" class="edge">
<title>Node1&#45;&gt;Node5</title>
<path fill="none" stroke="black" d="M207.84,-119.81C218.48,-137 236.64,-162.15 259,-176.5 264.28,-179.89 270.17,-182.64 276.23,-184.87"/>
<polygon fill="black" stroke="black" points="210.84,-118.01 202.72,-111.2 204.82,-121.59 210.84,-118.01"/>
</g>
<!-- Node1&#45;&gt;Node8 -->
<g id="edge7" class="edge">
<title>Node1&#45;&gt;Node8</title>
<path fill="none" stroke="black" d="M218.98,-116.96C230.42,-124.62 244.98,-133.49 259,-139.5 266.68,-142.8 275.12,-145.61 283.36,-147.97"/>
<polygon fill="black" stroke="black" points="220.77,-113.95 210.55,-111.16 216.8,-119.71 220.77,-113.95"/>
</g>
<!-- Node1&#45;&gt;Node4 -->
<g id="edge3" class="edge">
<title>Node1&#45;&gt;Node4</title>
<path fill="none" stroke="black" d="M233.23,-106.72C243.33,-108.2 254.63,-109.85 265.8,-111.48"/>
<polygon fill="black" stroke="black" points="233.58,-103.24 223.18,-105.25 232.57,-110.16 233.58,-103.24"/>
</g>
<!-- Node1&#45;&gt;Node3 -->
<g id="edge2" class="edge">
<title>Node1&#45;&gt;Node3</title>
<path fill="none" stroke="black" d="M233.27,-96.55C241.31,-95.43 250.11,-94.22 258.99,-92.99"/>
<polygon fill="black" stroke="black" points="232.61,-93.11 223.18,-97.94 233.57,-100.04 232.61,-93.11"/>
</g>
<!-- Node6 -->
<g id="node7" class="node">
<title>Node6</title>
<g id="a_node7"><a xlink:href="group__GPIOEx__Private__Constants.html" target="_top" xlink:title=" ">
<polygon fill="white" stroke="black" points="393.5,-56 263.5,-56 263.5,-37 393.5,-37 393.5,-56"/>
<text text-anchor="middle" x="328.5" y="-44" font-family="Helvetica,sans-Serif" font-size="10.00">GPIO Private Constants</text>
</a>
</g>
</g>
<!-- Node1&#45;&gt;Node6 -->
<g id="edge5" class="edge">
<title>Node1&#45;&gt;Node6</title>
<path fill="none" stroke="black" d="M219.48,-86.18C230.86,-78.8 245.23,-70.31 259,-64.5 266.82,-61.2 275.4,-58.37 283.76,-56"/>
<polygon fill="black" stroke="black" points="217.44,-83.33 211.06,-91.79 221.33,-89.16 217.44,-83.33"/>
</g>
<!-- Node7 -->
<g id="node8" class="node">
<title>Node7</title>
<g id="a_node8"><a xlink:href="group__GPIOEx__Private__Macros.html" target="_top" xlink:title=" ">
<polygon fill="white" stroke="black" points="386.5,-19 270.5,-19 270.5,0 386.5,0 386.5,-19"/>
<text text-anchor="middle" x="328.5" y="-7" font-family="Helvetica,sans-Serif" font-size="10.00">GPIO Private Macros</text>
</a>
</g>
</g>
<!-- Node1&#45;&gt;Node7 -->
<g id="edge6" class="edge">
<title>Node1&#45;&gt;Node7</title>
<path fill="none" stroke="black" d="M208.19,-82.96C218.92,-66.02 236.98,-41.53 259,-27.5 264.39,-24.06 270.42,-21.28 276.6,-19.03"/>
<polygon fill="black" stroke="black" points="204.95,-81.56 202.75,-91.93 210.93,-85.19 204.95,-81.56"/>
</g>
<!-- Node2 -->
<g id="node6" class="node">
<title>Node2</title>
<g id="a_node6"><a xlink:href="group__STM32F4xx__HAL__Driver.html" target="_top" xlink:title=" ">
<polygon fill="white" stroke="black" points="134,-111 0,-111 0,-92 134,-92 134,-111"/>
<text text-anchor="middle" x="67" y="-99" font-family="Helvetica,sans-Serif" font-size="10.00">STM32F4xx_HAL_Driver</text>
</a>
</g>
</g>
<!-- Node2&#45;&gt;Node1 -->
<g id="edge1" class="edge">
<title>Node2&#45;&gt;Node1</title>
<path fill="none" stroke="black" d="M144.62,-101.5C153.6,-101.5 162.23,-101.5 169.75,-101.5"/>
<polygon fill="black" stroke="black" points="144.36,-98 134.36,-101.5 144.36,-105 144.36,-98"/>
</g>
</g>
</svg>
