<?xml version="1.0" encoding="UTF-8" standalone="no"?>
<!DOCTYPE svg PUBLIC "-//W3C//DTD SVG 1.1//EN"
 "http://www.w3.org/Graphics/SVG/1.1/DTD/svg11.dtd">
<!-- Generated by graphviz version 2.43.0 (0)
 -->
<!-- Title: ADC Exported Constants Pages: 1 -->
<svg width="416pt" height="247pt"
 viewBox="0.00 0.00 416.00 247.00" xmlns="http://www.w3.org/2000/svg" xmlns:xlink="http://www.w3.org/1999/xlink">
<g id="graph0" class="graph" transform="scale(1 1) rotate(0) translate(4 243)">
<title>ADC Exported Constants</title>
<polygon fill="white" stroke="transparent" points="-4,4 -4,-243 412,-243 412,4 -4,4"/>
<!-- Node2 -->
<g id="node1" class="node">
<title>Node2</title>
<g id="a_node1"><a xlink:href="group__ADCEx.html" target="_top" xlink:title="ADC Extended driver modules.">
<polygon fill="white" stroke="black" points="50,-131.5 0,-131.5 0,-112.5 50,-112.5 50,-131.5"/>
<text text-anchor="middle" x="25" y="-119.5" font-family="Helvetica,sans-Serif" font-size="10.00">ADCEx</text>
</a>
</g>
</g>
<!-- Node1 -->
<g id="node7" class="node">
<title>Node1</title>
<g id="a_node7"><a xlink:title=" ">
<polygon fill="#bfbfbf" stroke="black" points="222,-131.5 86,-131.5 86,-112.5 222,-112.5 222,-131.5"/>
<text text-anchor="middle" x="154" y="-119.5" font-family="Helvetica,sans-Serif" font-size="10.00">ADC Exported Constants</text>
</a>
</g>
</g>
<!-- Node2&#45;&gt;Node1 -->
<g id="edge1" class="edge">
<title>Node2&#45;&gt;Node1</title>
<path fill="none" stroke="black" d="M60.44,-122C68.35,-122 77.03,-122 85.8,-122"/>
<polygon fill="black" stroke="black" points="60.19,-118.5 50.19,-122 60.19,-125.5 60.19,-118.5"/>
</g>
<!-- Node4 -->
<g id="node2" class="node">
<title>Node4</title>
<g id="a_node2"><a xlink:href="group__ADCEx__Direct__memory__access__mode__for__multi__mode.html" target="_top" xlink:title=" ">
<polygon fill="white" stroke="black" points="408,-239 258,-239 258,-209 408,-209 408,-239"/>
<text text-anchor="start" x="266" y="-227" font-family="Helvetica,sans-Serif" font-size="10.00">ADC Direct Memory Access</text>
<text text-anchor="middle" x="333" y="-216" font-family="Helvetica,sans-Serif" font-size="10.00"> Mode For Multi Mode</text>
</a>
</g>
</g>
<!-- Node7 -->
<g id="node3" class="node">
<title>Node7</title>
<g id="a_node3"><a xlink:href="group__ADCEx__injected__rank.html" target="_top" xlink:title=" ">
<polygon fill="white" stroke="black" points="386.5,-190.5 279.5,-190.5 279.5,-171.5 386.5,-171.5 386.5,-190.5"/>
<text text-anchor="middle" x="333" y="-178.5" font-family="Helvetica,sans-Serif" font-size="10.00">ADC Injected Rank</text>
</a>
</g>
</g>
<!-- Node3 -->
<g id="node4" class="node">
<title>Node3</title>
<g id="a_node4"><a xlink:href="group__ADCEx__Common__mode.html" target="_top" xlink:title=" ">
<polygon fill="white" stroke="black" points="390.5,-153.5 275.5,-153.5 275.5,-134.5 390.5,-134.5 390.5,-153.5"/>
<text text-anchor="middle" x="333" y="-141.5" font-family="Helvetica,sans-Serif" font-size="10.00">ADC Common Mode</text>
</a>
</g>
</g>
<!-- Node6 -->
<g id="node5" class="node">
<title>Node6</title>
<g id="a_node5"><a xlink:href="group__ADCEx__External__trigger__Source__Injected.html" target="_top" xlink:title=" ">
<polygon fill="white" stroke="black" points="391.5,-116 274.5,-116 274.5,-86 391.5,-86 391.5,-116"/>
<text text-anchor="start" x="282.5" y="-104" font-family="Helvetica,sans-Serif" font-size="10.00">ADC External Trigger</text>
<text text-anchor="middle" x="333" y="-93" font-family="Helvetica,sans-Serif" font-size="10.00"> Source Injected</text>
</a>
</g>
</g>
<!-- Node8 -->
<g id="node6" class="node">
<title>Node8</title>
<g id="a_node6"><a xlink:href="group__ADCEx__channels.html" target="_top" xlink:title=" ">
<polygon fill="white" stroke="black" points="396,-67.5 270,-67.5 270,-48.5 396,-48.5 396,-67.5"/>
<text text-anchor="middle" x="333" y="-55.5" font-family="Helvetica,sans-Serif" font-size="10.00">ADC Specific Channels</text>
</a>
</g>
</g>
<!-- Node1&#45;&gt;Node4 -->
<g id="edge3" class="edge">
<title>Node1&#45;&gt;Node4</title>
<path fill="none" stroke="black" d="M172.84,-138.51C192.44,-155.88 225.46,-183.02 258,-200 264.35,-203.31 271.24,-206.28 278.17,-208.91"/>
<polygon fill="black" stroke="black" points="175.08,-135.81 165.31,-131.72 170.39,-141.01 175.08,-135.81"/>
</g>
<!-- Node1&#45;&gt;Node7 -->
<g id="edge6" class="edge">
<title>Node1&#45;&gt;Node7</title>
<path fill="none" stroke="black" d="M185.72,-135.54C205.99,-144.15 233.26,-155.11 258,-163 267.7,-166.09 278.26,-168.95 288.28,-171.44"/>
<polygon fill="black" stroke="black" points="186.95,-132.26 176.38,-131.53 184.19,-138.69 186.95,-132.26"/>
</g>
<!-- Node1&#45;&gt;Node3 -->
<g id="edge2" class="edge">
<title>Node1&#45;&gt;Node3</title>
<path fill="none" stroke="black" d="M232.12,-131.59C246.62,-133.39 261.53,-135.24 275.27,-136.95"/>
<polygon fill="black" stroke="black" points="232.52,-128.11 222.17,-130.35 231.66,-135.06 232.52,-128.11"/>
</g>
<!-- Node1&#45;&gt;Node6 -->
<g id="edge5" class="edge">
<title>Node1&#45;&gt;Node6</title>
<path fill="none" stroke="black" d="M232.36,-112.82C246.49,-111.15 261,-109.42 274.42,-107.83"/>
<polygon fill="black" stroke="black" points="231.69,-109.38 222.17,-114.03 232.51,-116.33 231.69,-109.38"/>
</g>
<!-- Node1&#45;&gt;Node8 -->
<g id="edge7" class="edge">
<title>Node1&#45;&gt;Node8</title>
<path fill="none" stroke="black" d="M183.43,-108.1C203.85,-98.49 232.2,-85.89 258,-77 268.16,-73.5 279.3,-70.32 289.78,-67.59"/>
<polygon fill="black" stroke="black" points="181.9,-104.96 174.37,-112.42 184.91,-111.28 181.9,-104.96"/>
</g>
<!-- Node5 -->
<g id="node8" class="node">
<title>Node5</title>
<g id="a_node8"><a xlink:href="group__ADCEx__External__trigger__edge__Injected.html" target="_top" xlink:title=" ">
<polygon fill="white" stroke="black" points="391.5,-30 274.5,-30 274.5,0 391.5,0 391.5,-30"/>
<text text-anchor="start" x="282.5" y="-18" font-family="Helvetica,sans-Serif" font-size="10.00">ADC External Trigger</text>
<text text-anchor="middle" x="333" y="-7" font-family="Helvetica,sans-Serif" font-size="10.00"> Edge Injected</text>
</a>
</g>
</g>
<!-- Node1&#45;&gt;Node5 -->
<g id="edge4" class="edge">
<title>Node1&#45;&gt;Node5</title>
<path fill="none" stroke="black" d="M172.11,-105.25C191.52,-87.03 224.81,-58.09 258,-40 264.79,-36.3 272.22,-33.01 279.67,-30.13"/>
<polygon fill="black" stroke="black" points="169.5,-102.9 164.68,-112.34 174.33,-107.97 169.5,-102.9"/>
</g>
</g>
</svg>
