<?xml version="1.0" encoding="UTF-8" standalone="no"?>
<!DOCTYPE svg PUBLIC "-//W3C//DTD SVG 1.1//EN"
 "http://www.w3.org/Graphics/SVG/1.1/DTD/svg11.dtd">
<!-- Generated by graphviz version 2.43.0 (0)
 -->
<!-- Title: I2S Exported Constants Pages: 1 -->
<svg width="390pt" height="397pt"
 viewBox="0.00 0.00 390.00 397.00" xmlns="http://www.w3.org/2000/svg" xmlns:xlink="http://www.w3.org/1999/xlink">
<g id="graph0" class="graph" transform="scale(1 1) rotate(0) translate(4 393)">
<title>I2S Exported Constants</title>
<polygon fill="white" stroke="transparent" points="-4,4 -4,-393 386,-393 386,4 -4,4"/>
<!-- Node9 -->
<g id="node1" class="node">
<title>Node9</title>
<g id="a_node1"><a xlink:href="group__I2S__FullDuplex__Mode.html" target="_top" xlink:title=" ">
<polygon fill="white" stroke="black" points="366,-389 250,-389 250,-370 366,-370 366,-389"/>
<text text-anchor="middle" x="308" y="-377" font-family="Helvetica,sans-Serif" font-size="10.00">I2S FullDuplex Mode</text>
</a>
</g>
</g>
<!-- Node11 -->
<g id="node2" class="node">
<title>Node11</title>
<g id="a_node2"><a xlink:href="group__I2S__Interrupts__Definition.html" target="_top" xlink:title=" ">
<polygon fill="white" stroke="black" points="374,-352 242,-352 242,-333 374,-333 374,-352"/>
<text text-anchor="middle" x="308" y="-340" font-family="Helvetica,sans-Serif" font-size="10.00">I2S Interrupts Definition</text>
</a>
</g>
</g>
<!-- Node12 -->
<g id="node3" class="node">
<title>Node12</title>
<g id="a_node3"><a xlink:href="group__I2S__Flags__Definition.html" target="_top" xlink:title=" ">
<polygon fill="white" stroke="black" points="363.5,-315 252.5,-315 252.5,-296 363.5,-296 363.5,-315"/>
<text text-anchor="middle" x="308" y="-303" font-family="Helvetica,sans-Serif" font-size="10.00">I2S Flags Definition</text>
</a>
</g>
</g>
<!-- Node3 -->
<g id="node4" class="node">
<title>Node3</title>
<g id="a_node4"><a xlink:href="group__I2S__Error.html" target="_top" xlink:title=" ">
<polygon fill="white" stroke="black" points="337,-278 279,-278 279,-259 337,-259 337,-278"/>
<text text-anchor="middle" x="308" y="-266" font-family="Helvetica,sans-Serif" font-size="10.00">I2S Error</text>
</a>
</g>
</g>
<!-- Node4 -->
<g id="node5" class="node">
<title>Node4</title>
<g id="a_node5"><a xlink:href="group__I2S__Mode.html" target="_top" xlink:title=" ">
<polygon fill="white" stroke="black" points="339,-241 277,-241 277,-222 339,-222 339,-241"/>
<text text-anchor="middle" x="308" y="-229" font-family="Helvetica,sans-Serif" font-size="10.00">I2S Mode</text>
</a>
</g>
</g>
<!-- Node6 -->
<g id="node6" class="node">
<title>Node6</title>
<g id="a_node6"><a xlink:href="group__I2S__Data__Format.html" target="_top" xlink:title=" ">
<polygon fill="white" stroke="black" points="355.5,-204 260.5,-204 260.5,-185 355.5,-185 355.5,-204"/>
<text text-anchor="middle" x="308" y="-192" font-family="Helvetica,sans-Serif" font-size="10.00">I2S Data Format</text>
</a>
</g>
</g>
<!-- Node2 -->
<g id="node7" class="node">
<title>Node2</title>
<g id="a_node7"><a xlink:href="group__I2S.html" target="_top" xlink:title=" ">
<polygon fill="white" stroke="black" points="32,-204 0,-204 0,-185 32,-185 32,-204"/>
<text text-anchor="middle" x="16" y="-192" font-family="Helvetica,sans-Serif" font-size="10.00">I2S</text>
</a>
</g>
</g>
<!-- Node1 -->
<g id="node8" class="node">
<title>Node1</title>
<g id="a_node8"><a xlink:title=" ">
<polygon fill="#bfbfbf" stroke="black" points="198,-204 68,-204 68,-185 198,-185 198,-204"/>
<text text-anchor="middle" x="133" y="-192" font-family="Helvetica,sans-Serif" font-size="10.00">I2S Exported Constants</text>
</a>
</g>
</g>
<!-- Node2&#45;&gt;Node1 -->
<g id="edge1" class="edge">
<title>Node2&#45;&gt;Node1</title>
<path fill="none" stroke="black" d="M42.14,-194.5C49.9,-194.5 58.84,-194.5 68,-194.5"/>
<polygon fill="black" stroke="black" points="42.03,-191 32.03,-194.5 42.03,-198 42.03,-191"/>
</g>
<!-- Node1&#45;&gt;Node9 -->
<g id="edge8" class="edge">
<title>Node1&#45;&gt;Node9</title>
<path fill="none" stroke="black" d="M139.99,-213.79C151.91,-248.89 182.03,-323.09 234,-361.5 238.83,-365.07 244.28,-367.94 249.97,-370.24"/>
<polygon fill="black" stroke="black" points="143.3,-212.66 136.87,-204.24 136.64,-214.83 143.3,-212.66"/>
</g>
<!-- Node1&#45;&gt;Node11 -->
<g id="edge10" class="edge">
<title>Node1&#45;&gt;Node11</title>
<path fill="none" stroke="black" d="M143.02,-213.06C157.88,-241.6 190.28,-295.95 234,-324.5 239.25,-327.93 245.09,-330.7 251.13,-332.95"/>
<polygon fill="black" stroke="black" points="146.14,-211.47 138.51,-204.12 139.89,-214.63 146.14,-211.47"/>
</g>
<!-- Node1&#45;&gt;Node12 -->
<g id="edge11" class="edge">
<title>Node1&#45;&gt;Node12</title>
<path fill="none" stroke="black" d="M147.84,-211.93C165.55,-233.05 198.25,-268.18 234,-287.5 240.32,-290.91 247.29,-293.69 254.34,-295.95"/>
<polygon fill="black" stroke="black" points="150.45,-209.6 141.4,-204.08 145.03,-214.03 150.45,-209.6"/>
</g>
<!-- Node1&#45;&gt;Node3 -->
<g id="edge2" class="edge">
<title>Node1&#45;&gt;Node3</title>
<path fill="none" stroke="black" d="M156.87,-209.66C176.6,-222.15 206.2,-239.52 234,-250.5 248.33,-256.16 264.96,-260.42 278.72,-263.38"/>
<polygon fill="black" stroke="black" points="158.6,-206.61 148.3,-204.14 154.81,-212.5 158.6,-206.61"/>
</g>
<!-- Node1&#45;&gt;Node4 -->
<g id="edge3" class="edge">
<title>Node1&#45;&gt;Node4</title>
<path fill="none" stroke="black" d="M188.6,-206.18C217.73,-212.41 252.47,-219.84 276.76,-225.03"/>
<polygon fill="black" stroke="black" points="189.06,-202.7 178.55,-204.03 187.6,-209.54 189.06,-202.7"/>
</g>
<!-- Node1&#45;&gt;Node6 -->
<g id="edge5" class="edge">
<title>Node1&#45;&gt;Node6</title>
<path fill="none" stroke="black" d="M208.66,-194.5C226.22,-194.5 244.44,-194.5 260.36,-194.5"/>
<polygon fill="black" stroke="black" points="208.42,-191 198.42,-194.5 208.42,-198 208.42,-191"/>
</g>
<!-- Node7 -->
<g id="node9" class="node">
<title>Node7</title>
<g id="a_node9"><a xlink:href="group__I2S__MCLK__Output.html" target="_top" xlink:title=" ">
<polygon fill="white" stroke="black" points="357,-167 259,-167 259,-148 357,-148 357,-167"/>
<text text-anchor="middle" x="308" y="-155" font-family="Helvetica,sans-Serif" font-size="10.00">I2S MCLK Output</text>
</a>
</g>
</g>
<!-- Node1&#45;&gt;Node7 -->
<g id="edge6" class="edge">
<title>Node1&#45;&gt;Node7</title>
<path fill="none" stroke="black" d="M188.48,-182.85C212.25,-177.77 239.76,-171.88 262.3,-167.06"/>
<polygon fill="black" stroke="black" points="187.6,-179.46 178.55,-184.97 189.06,-186.3 187.6,-179.46"/>
</g>
<!-- Node5 -->
<g id="node10" class="node">
<title>Node5</title>
<g id="a_node10"><a xlink:href="group__I2S__Standard.html" target="_top" xlink:title=" ">
<polygon fill="white" stroke="black" points="347,-130 269,-130 269,-111 347,-111 347,-130"/>
<text text-anchor="middle" x="308" y="-118" font-family="Helvetica,sans-Serif" font-size="10.00">I2S Standard</text>
</a>
</g>
</g>
<!-- Node1&#45;&gt;Node5 -->
<g id="edge4" class="edge">
<title>Node1&#45;&gt;Node5</title>
<path fill="none" stroke="black" d="M156.87,-179.34C176.6,-166.85 206.2,-149.48 234,-138.5 245.05,-134.14 257.47,-130.6 268.88,-127.86"/>
<polygon fill="black" stroke="black" points="154.81,-176.5 148.3,-184.86 158.6,-182.39 154.81,-176.5"/>
</g>
<!-- Node8 -->
<g id="node11" class="node">
<title>Node8</title>
<g id="a_node11"><a xlink:href="group__I2S__Audio__Frequency.html" target="_top" xlink:title=" ">
<polygon fill="white" stroke="black" points="366,-93 250,-93 250,-74 366,-74 366,-93"/>
<text text-anchor="middle" x="308" y="-81" font-family="Helvetica,sans-Serif" font-size="10.00">I2S Audio Frequency</text>
</a>
</g>
</g>
<!-- Node1&#45;&gt;Node8 -->
<g id="edge7" class="edge">
<title>Node1&#45;&gt;Node8</title>
<path fill="none" stroke="black" d="M147.84,-177.07C165.55,-155.95 198.25,-120.82 234,-101.5 240.32,-98.09 247.29,-95.31 254.34,-93.05"/>
<polygon fill="black" stroke="black" points="145.03,-174.97 141.4,-184.92 150.45,-179.4 145.03,-174.97"/>
</g>
<!-- Node10 -->
<g id="node12" class="node">
<title>Node10</title>
<g id="a_node12"><a xlink:href="group__I2S__Clock__Polarity.html" target="_top" xlink:title=" ">
<polygon fill="white" stroke="black" points="359,-56 257,-56 257,-37 359,-37 359,-56"/>
<text text-anchor="middle" x="308" y="-44" font-family="Helvetica,sans-Serif" font-size="10.00">I2S Clock Polarity</text>
</a>
</g>
</g>
<!-- Node1&#45;&gt;Node10 -->
<g id="edge9" class="edge">
<title>Node1&#45;&gt;Node10</title>
<path fill="none" stroke="black" d="M143.02,-175.94C157.88,-147.4 190.28,-93.05 234,-64.5 240.89,-60 248.8,-56.63 256.83,-54.1"/>
<polygon fill="black" stroke="black" points="139.89,-174.37 138.51,-184.88 146.14,-177.53 139.89,-174.37"/>
</g>
<!-- Node13 -->
<g id="node13" class="node">
<title>Node13</title>
<g id="a_node13"><a xlink:href="group__I2S__Clock__Source.html" target="_top" xlink:title=" ">
<polygon fill="white" stroke="black" points="382,-19 234,-19 234,0 382,0 382,-19"/>
<text text-anchor="middle" x="308" y="-7" font-family="Helvetica,sans-Serif" font-size="10.00">I2S Clock Source Definition</text>
</a>
</g>
</g>
<!-- Node1&#45;&gt;Node13 -->
<g id="edge12" class="edge">
<title>Node1&#45;&gt;Node13</title>
<path fill="none" stroke="black" d="M139.99,-175.21C151.91,-140.11 182.03,-65.91 234,-27.5 238.62,-24.09 243.81,-21.31 249.23,-19.06"/>
<polygon fill="black" stroke="black" points="136.64,-174.17 136.87,-184.76 143.3,-176.34 136.64,-174.17"/>
</g>
</g>
</svg>
