<?xml version="1.0" encoding="UTF-8" standalone="no"?>
<!DOCTYPE svg PUBLIC "-//W3C//DTD SVG 1.1//EN"
 "http://www.w3.org/Graphics/SVG/1.1/DTD/svg11.dtd">
<!-- Generated by graphviz version 2.43.0 (0)
 -->
<!-- Title: DMA Pages: 1 -->
<svg width="392pt" height="212pt"
 viewBox="0.00 0.00 392.00 212.00" xmlns="http://www.w3.org/2000/svg" xmlns:xlink="http://www.w3.org/1999/xlink">
<g id="graph0" class="graph" transform="scale(1 1) rotate(0) translate(4 208)">
<title>DMA</title>
<polygon fill="white" stroke="transparent" points="-4,4 -4,-208 388,-208 388,4 -4,4"/>
<!-- Node6 -->
<g id="node1" class="node">
<title>Node6</title>
<g id="a_node1"><a xlink:href="group__DMA__Private__Constants.html" target="_top" xlink:title="DMA private defines and constants.">
<polygon fill="white" stroke="black" points="379.5,-204 250.5,-204 250.5,-185 379.5,-185 379.5,-204"/>
<text text-anchor="middle" x="315" y="-192" font-family="Helvetica,sans-Serif" font-size="10.00">DMA Private Constants</text>
</a>
</g>
</g>
<!-- Node4 -->
<g id="node2" class="node">
<title>Node4</title>
<g id="a_node2"><a xlink:href="group__DMA__Exported__Constants.html" target="_top" xlink:title="DMA Exported constants.">
<polygon fill="white" stroke="black" points="384,-167 246,-167 246,-148 384,-148 384,-167"/>
<text text-anchor="middle" x="315" y="-155" font-family="Helvetica,sans-Serif" font-size="10.00">DMA Exported Constants</text>
</a>
</g>
</g>
<!-- Node7 -->
<g id="node3" class="node">
<title>Node7</title>
<g id="a_node3"><a xlink:href="group__DMA__Private__Macros.html" target="_top" xlink:title="DMA private macros.">
<polygon fill="white" stroke="black" points="373,-130 257,-130 257,-111 373,-111 373,-130"/>
<text text-anchor="middle" x="315" y="-118" font-family="Helvetica,sans-Serif" font-size="10.00">DMA Private Macros</text>
</a>
</g>
</g>
<!-- Node3 -->
<g id="node4" class="node">
<title>Node3</title>
<g id="a_node4"><a xlink:href="group__DMA__Exported__Types.html" target="_top" xlink:title="DMA Exported Types.">
<polygon fill="white" stroke="black" points="373.5,-93 256.5,-93 256.5,-74 373.5,-74 373.5,-93"/>
<text text-anchor="middle" x="315" y="-81" font-family="Helvetica,sans-Serif" font-size="10.00">DMA Exported Types</text>
</a>
</g>
</g>
<!-- Node1 -->
<g id="node5" class="node">
<title>Node1</title>
<g id="a_node5"><a xlink:title="DMA HAL module driver.">
<polygon fill="#bfbfbf" stroke="black" points="210,-111 170,-111 170,-92 210,-92 210,-111"/>
<text text-anchor="middle" x="190" y="-99" font-family="Helvetica,sans-Serif" font-size="10.00">DMA</text>
</a>
</g>
</g>
<!-- Node1&#45;&gt;Node6 -->
<g id="edge5" class="edge">
<title>Node1&#45;&gt;Node6</title>
<path fill="none" stroke="black" d="M200.04,-120.29C209.25,-137.46 225.15,-162.28 246,-176.5 251.05,-179.94 256.71,-182.72 262.57,-184.97"/>
<polygon fill="black" stroke="black" points="203.06,-118.52 195.4,-111.2 196.83,-121.7 203.06,-118.52"/>
</g>
<!-- Node1&#45;&gt;Node4 -->
<g id="edge3" class="edge">
<title>Node1&#45;&gt;Node4</title>
<path fill="none" stroke="black" d="M210.59,-117.51C220.67,-125.09 233.44,-133.72 246,-139.5 253.21,-142.82 261.14,-145.62 268.97,-147.94"/>
<polygon fill="black" stroke="black" points="212.55,-114.6 202.5,-111.23 208.25,-120.13 212.55,-114.6"/>
</g>
<!-- Node1&#45;&gt;Node7 -->
<g id="edge6" class="edge">
<title>Node1&#45;&gt;Node7</title>
<path fill="none" stroke="black" d="M220.14,-106C231.18,-107.71 244.17,-109.71 256.91,-111.68"/>
<polygon fill="black" stroke="black" points="220.64,-102.54 210.22,-104.47 219.57,-109.45 220.64,-102.54"/>
</g>
<!-- Node1&#45;&gt;Node3 -->
<g id="edge2" class="edge">
<title>Node1&#45;&gt;Node3</title>
<path fill="none" stroke="black" d="M220.36,-97.2C231.2,-95.62 243.89,-93.76 256.37,-91.93"/>
<polygon fill="black" stroke="black" points="219.61,-93.78 210.22,-98.69 220.62,-100.7 219.61,-93.78"/>
</g>
<!-- Node5 -->
<g id="node6" class="node">
<title>Node5</title>
<g id="a_node6"><a xlink:href="group__DMA__Exported__Functions.html" target="_top" xlink:title="DMA Exported functions.">
<polygon fill="white" stroke="black" points="383,-56 247,-56 247,-37 383,-37 383,-56"/>
<text text-anchor="middle" x="315" y="-44" font-family="Helvetica,sans-Serif" font-size="10.00">DMA Exported Functions</text>
</a>
</g>
</g>
<!-- Node1&#45;&gt;Node5 -->
<g id="edge4" class="edge">
<title>Node1&#45;&gt;Node5</title>
<path fill="none" stroke="black" d="M211.05,-85.64C221.07,-78.34 233.68,-70.08 246,-64.5 253.34,-61.17 261.42,-58.37 269.36,-56.03"/>
<polygon fill="black" stroke="black" points="208.86,-82.91 202.97,-91.72 213.06,-88.5 208.86,-82.91"/>
</g>
<!-- Node8 -->
<g id="node7" class="node">
<title>Node8</title>
<g id="a_node7"><a xlink:href="group__DMA__Private__Functions.html" target="_top" xlink:title="DMA private functions.">
<polygon fill="white" stroke="black" points="378.5,-19 251.5,-19 251.5,0 378.5,0 378.5,-19"/>
<text text-anchor="middle" x="315" y="-7" font-family="Helvetica,sans-Serif" font-size="10.00">DMA Private Functions</text>
</a>
</g>
</g>
<!-- Node1&#45;&gt;Node8 -->
<g id="edge7" class="edge">
<title>Node1&#45;&gt;Node8</title>
<path fill="none" stroke="black" d="M200.1,-82.96C209.36,-66.02 225.28,-41.53 246,-27.5 251.06,-24.08 256.73,-21.3 262.59,-19.06"/>
<polygon fill="black" stroke="black" points="196.94,-81.44 195.43,-91.93 203.15,-84.67 196.94,-81.44"/>
</g>
<!-- Node2 -->
<g id="node8" class="node">
<title>Node2</title>
<g id="a_node8"><a xlink:href="group__STM32F4xx__HAL__Driver.html" target="_top" xlink:title=" ">
<polygon fill="white" stroke="black" points="134,-111 0,-111 0,-92 134,-92 134,-111"/>
<text text-anchor="middle" x="67" y="-99" font-family="Helvetica,sans-Serif" font-size="10.00">STM32F4xx_HAL_Driver</text>
</a>
</g>
</g>
<!-- Node2&#45;&gt;Node1 -->
<g id="edge1" class="edge">
<title>Node2&#45;&gt;Node1</title>
<path fill="none" stroke="black" d="M144.21,-101.5C153.69,-101.5 162.62,-101.5 169.98,-101.5"/>
<polygon fill="black" stroke="black" points="144.16,-98 134.16,-101.5 144.16,-105 144.16,-98"/>
</g>
</g>
</svg>
