<?xml version="1.0" encoding="UTF-8" standalone="no"?>
<!DOCTYPE svg PUBLIC "-//W3C//DTD SVG 1.1//EN"
 "http://www.w3.org/Graphics/SVG/1.1/DTD/svg11.dtd">
<!-- Generated by graphviz version 2.43.0 (0)
 -->
<!-- Title: FMC_LL Pages: 1 -->
<svg width="405pt" height="124pt"
 viewBox="0.00 0.00 405.00 124.00" xmlns="http://www.w3.org/2000/svg" xmlns:xlink="http://www.w3.org/1999/xlink">
<g id="graph0" class="graph" transform="scale(1 1) rotate(0) translate(4 120)">
<title>FMC_LL</title>
<polygon fill="white" stroke="transparent" points="-4,4 -4,-120 401,-120 401,4 -4,4"/>
<!-- Node3 -->
<g id="node1" class="node">
<title>Node3</title>
<g id="a_node1"><a xlink:href="group__FMC__LL__Exported__typedef.html" target="_top" xlink:title=" ">
<polygon fill="white" stroke="black" points="397,-116 260,-116 260,-86 397,-86 397,-116"/>
<text text-anchor="start" x="268" y="-104" font-family="Helvetica,sans-Serif" font-size="10.00">FMC Low Layer Exported</text>
<text text-anchor="middle" x="328.5" y="-93" font-family="Helvetica,sans-Serif" font-size="10.00"> Types</text>
</a>
</g>
</g>
<!-- Node4 -->
<g id="node2" class="node">
<title>Node4</title>
<g id="a_node2"><a xlink:href="group__FMC__LL__Private__Macros.html" target="_top" xlink:title=" ">
<polygon fill="white" stroke="black" points="395,-67.5 262,-67.5 262,-48.5 395,-48.5 395,-67.5"/>
<text text-anchor="middle" x="328.5" y="-55.5" font-family="Helvetica,sans-Serif" font-size="10.00">FMC_LL &#160;Private Macros</text>
</a>
</g>
</g>
<!-- Node1 -->
<g id="node3" class="node">
<title>Node1</title>
<g id="a_node3"><a xlink:title=" ">
<polygon fill="#bfbfbf" stroke="black" points="224,-67.5 170,-67.5 170,-48.5 224,-48.5 224,-67.5"/>
<text text-anchor="middle" x="197" y="-55.5" font-family="Helvetica,sans-Serif" font-size="10.00">FMC_LL</text>
</a>
</g>
</g>
<!-- Node1&#45;&gt;Node3 -->
<g id="edge2" class="edge">
<title>Node1&#45;&gt;Node3</title>
<path fill="none" stroke="black" d="M234.07,-69.98C248.98,-74.93 266.43,-80.72 282.19,-85.96"/>
<polygon fill="black" stroke="black" points="234.8,-66.53 224.21,-66.7 232.59,-73.17 234.8,-66.53"/>
</g>
<!-- Node1&#45;&gt;Node4 -->
<g id="edge3" class="edge">
<title>Node1&#45;&gt;Node4</title>
<path fill="none" stroke="black" d="M234.29,-58C242.94,-58 252.44,-58 261.96,-58"/>
<polygon fill="black" stroke="black" points="234.21,-54.5 224.21,-58 234.21,-61.5 234.21,-54.5"/>
</g>
<!-- Node5 -->
<g id="node4" class="node">
<title>Node5</title>
<g id="a_node4"><a xlink:href="group__FMC__LL__Exported__Constants.html" target="_top" xlink:title=" ">
<polygon fill="white" stroke="black" points="397,-30 260,-30 260,0 397,0 397,-30"/>
<text text-anchor="start" x="268" y="-18" font-family="Helvetica,sans-Serif" font-size="10.00">FMC Low Layer Exported</text>
<text text-anchor="middle" x="328.5" y="-7" font-family="Helvetica,sans-Serif" font-size="10.00"> Constants</text>
</a>
</g>
</g>
<!-- Node1&#45;&gt;Node5 -->
<g id="edge4" class="edge">
<title>Node1&#45;&gt;Node5</title>
<path fill="none" stroke="black" d="M234.07,-46.02C248.98,-41.07 266.43,-35.28 282.19,-30.04"/>
<polygon fill="black" stroke="black" points="232.59,-42.83 224.21,-49.3 234.8,-49.47 232.59,-42.83"/>
</g>
<!-- Node2 -->
<g id="node5" class="node">
<title>Node2</title>
<g id="a_node5"><a xlink:href="group__STM32F4xx__HAL__Driver.html" target="_top" xlink:title=" ">
<polygon fill="white" stroke="black" points="134,-67.5 0,-67.5 0,-48.5 134,-48.5 134,-67.5"/>
<text text-anchor="middle" x="67" y="-55.5" font-family="Helvetica,sans-Serif" font-size="10.00">STM32F4xx_HAL_Driver</text>
</a>
</g>
</g>
<!-- Node2&#45;&gt;Node1 -->
<g id="edge1" class="edge">
<title>Node2&#45;&gt;Node1</title>
<path fill="none" stroke="black" d="M144.3,-58C153.47,-58 162.29,-58 169.96,-58"/>
<polygon fill="black" stroke="black" points="144.25,-54.5 134.25,-58 144.25,-61.5 144.25,-54.5"/>
</g>
</g>
</svg>
