<?xml version="1.0" encoding="UTF-8" standalone="no"?>
<!DOCTYPE svg PUBLIC "-//W3C//DTD SVG 1.1//EN"
 "http://www.w3.org/Graphics/SVG/1.1/DTD/svg11.dtd">
<!-- Generated by graphviz version 2.43.0 (0)
 -->
<!-- Title: SMBUS Exported Constants Pages: 1 -->
<!--zoomable 481 -->
<svg id="main" version="1.1" xmlns="http://www.w3.org/2000/svg" xmlns:xlink="http://www.w3.org/1999/xlink" xml:space="preserve" onload="init(evt)">
<style type="text/css"><![CDATA[
.edge:hover path { stroke: red; }
.edge:hover polygon { stroke: red; fill: red; }
]]></style>
<script type="text/javascript"><![CDATA[
var edges = document.getElementsByTagName('g');
if (edges && edges.length) {
  for (var i=0;i<edges.length;i++) {
    if (edges[i].id.substr(0,4)=='edge') {
      edges[i].setAttribute('class','edge');
    }
  }
}
]]></script>
        <defs>
                <circle id="rim" cx="0" cy="0" r="7"/>
                <circle id="rim2" cx="0" cy="0" r="3.5"/>
                <g id="zoomPlus">
                        <use xlink:href="#rim" fill="#404040">
                                <set attributeName="fill" to="#808080" begin="zoomplus.mouseover" end="zoomplus.mouseout"/>
                        </use>
                        <path d="M-4,0h8M0,-4v8" fill="none" stroke="white" stroke-width="1.5" pointer-events="none"/>
                </g>
                <g id="zoomMin">
                        <use xlink:href="#rim" fill="#404040">
                                <set attributeName="fill" to="#808080" begin="zoomminus.mouseover" end="zoomminus.mouseout"/>
                        </use>
                        <path d="M-4,0h8" fill="none" stroke="white" stroke-width="1.5" pointer-events="none"/>
                </g>
                <g id="dirArrow">
                        <path fill="none" stroke="white" stroke-width="1.5" d="M0,-3.0v7 M-2.5,-0.5L0,-3.0L2.5,-0.5"/>
                </g>
               <g id="resetDef">
                       <use xlink:href="#rim2" fill="#404040">
                               <set attributeName="fill" to="#808080" begin="reset.mouseover" end="reset.mouseout"/>
                       </use>
               </g>
        </defs>

<script type="text/javascript">
var viewWidth = 446;
var viewHeight = 481;
var sectionId = 'dynsection-0';
</script>
<script xlink:href="svgpan.js"/>
<svg id="graph" class="graph">
<g id="viewport">
<title>SMBUS Exported Constants</title>
<polygon fill="white" stroke="transparent" points="-4,4 -4,-477 442,-477 442,4 -4,4"/>
<!-- Node14 -->
<g id="node1" class="node">
<title>Node14</title>
<g id="a_node1"><a xlink:href="group__SMBUS__Flag__definition.html" target="_top" xlink:title=" ">
<polygon fill="white" stroke="black" points="418.5,-473 293.5,-473 293.5,-454 418.5,-454 418.5,-473"/>
<text text-anchor="middle" x="356" y="-461" font-family="Helvetica,sans-Serif" font-size="10.00">SMBUS Flag definition</text>
</a>
</g>
</g>
<!-- Node4 -->
<g id="node2" class="node">
<title>Node4</title>
<g id="a_node2"><a xlink:href="group__SMBUS__Analog__Filter.html" target="_top" xlink:title=" ">
<polygon fill="white" stroke="black" points="414,-436 298,-436 298,-417 414,-417 414,-436"/>
<text text-anchor="middle" x="356" y="-424" font-family="Helvetica,sans-Serif" font-size="10.00">SMBUS Analog Filter</text>
</a>
</g>
</g>
<!-- Node12 -->
<g id="node3" class="node">
<title>Node12</title>
<g id="a_node3"><a xlink:href="group__SMBUS__XferOptions__definition.html" target="_top" xlink:title=" ">
<polygon fill="white" stroke="black" points="436.5,-399 275.5,-399 275.5,-380 436.5,-380 436.5,-399"/>
<text text-anchor="middle" x="356" y="-387" font-family="Helvetica,sans-Serif" font-size="10.00">SMBUS XferOptions definition</text>
</a>
</g>
</g>
<!-- Node7 -->
<g id="node4" class="node">
<title>Node7</title>
<g id="a_node4"><a xlink:href="group__SMBUS__general__call__addressing__mode.html" target="_top" xlink:title=" ">
<polygon fill="white" stroke="black" points="412,-361.5 300,-361.5 300,-331.5 412,-331.5 412,-361.5"/>
<text text-anchor="start" x="308" y="-349.5" font-family="Helvetica,sans-Serif" font-size="10.00">SMBUS general call</text>
<text text-anchor="middle" x="356" y="-338.5" font-family="Helvetica,sans-Serif" font-size="10.00"> addressing mode</text>
</a>
</g>
</g>
<!-- Node9 -->
<g id="node5" class="node">
<title>Node9</title>
<g id="a_node5"><a xlink:href="group__SMBUS__packet__error__check__mode.html" target="_top" xlink:title=" ">
<polygon fill="white" stroke="black" points="412.5,-313.5 299.5,-313.5 299.5,-283.5 412.5,-283.5 412.5,-313.5"/>
<text text-anchor="start" x="307.5" y="-301.5" font-family="Helvetica,sans-Serif" font-size="10.00">SMBUS packet error</text>
<text text-anchor="middle" x="356" y="-290.5" font-family="Helvetica,sans-Serif" font-size="10.00"> check mode</text>
</a>
</g>
</g>
<!-- Node6 -->
<g id="node6" class="node">
<title>Node6</title>
<g id="a_node6"><a xlink:href="group__SMBUS__dual__addressing__mode.html" target="_top" xlink:title=" ">
<polygon fill="white" stroke="black" points="437.5,-265 274.5,-265 274.5,-246 437.5,-246 437.5,-265"/>
<text text-anchor="middle" x="356" y="-253" font-family="Helvetica,sans-Serif" font-size="10.00">SMBUS dual addressing mode</text>
</a>
</g>
</g>
<!-- Node8 -->
<g id="node7" class="node">
<title>Node8</title>
<g id="a_node7"><a xlink:href="group__SMBUS__nostretch__mode.html" target="_top" xlink:title=" ">
<polygon fill="white" stroke="black" points="421.5,-228 290.5,-228 290.5,-209 421.5,-209 421.5,-228"/>
<text text-anchor="middle" x="356" y="-216" font-family="Helvetica,sans-Serif" font-size="10.00">SMBUS nostretch mode</text>
</a>
</g>
</g>
<!-- Node5 -->
<g id="node8" class="node">
<title>Node5</title>
<g id="a_node8"><a xlink:href="group__SMBUS__addressing__mode.html" target="_top" xlink:title=" ">
<polygon fill="white" stroke="black" points="425.5,-191 286.5,-191 286.5,-172 425.5,-172 425.5,-191"/>
<text text-anchor="middle" x="356" y="-179" font-family="Helvetica,sans-Serif" font-size="10.00">SMBUS addressing mode</text>
</a>
</g>
</g>
<!-- Node11 -->
<g id="node9" class="node">
<title>Node11</title>
<g id="a_node9"><a xlink:href="group__SMBUS__XferDirection__definition.html" target="_top" xlink:title=" ">
<polygon fill="white" stroke="black" points="415.5,-153.5 296.5,-153.5 296.5,-123.5 415.5,-123.5 415.5,-153.5"/>
<text text-anchor="start" x="304.5" y="-141.5" font-family="Helvetica,sans-Serif" font-size="10.00">SMBUS XferDirection</text>
<text text-anchor="middle" x="356" y="-130.5" font-family="Helvetica,sans-Serif" font-size="10.00"> definition</text>
</a>
</g>
</g>
<!-- Node1 -->
<g id="node10" class="node">
<title>Node1</title>
<g id="a_node10"><a xlink:title=" ">
<polygon fill="#bfbfbf" stroke="black" points="238,-246 88,-246 88,-227 238,-227 238,-246"/>
<text text-anchor="middle" x="163" y="-234" font-family="Helvetica,sans-Serif" font-size="10.00">SMBUS Exported Constants</text>
</a>
</g>
</g>
<!-- Node1&#45;&gt;Node14 -->
<g id="edge13" class="edge">
<title>Node1&#45;&gt;Node14</title>
<path fill="none" stroke="black" d="M168.4,-256.05C178.88,-297.86 209.4,-396.14 274,-445.5 279.72,-449.87 286.3,-453.22 293.18,-455.79"/>
<polygon fill="black" stroke="black" points="171.79,-255.19 166.06,-246.27 164.99,-256.81 171.79,-255.19"/>
</g>
<!-- Node1&#45;&gt;Node4 -->
<g id="edge3" class="edge">
<title>Node1&#45;&gt;Node4</title>
<path fill="none" stroke="black" d="M170.7,-255.99C184.19,-292.15 218.19,-369.47 274,-408.5 281.08,-413.45 289.3,-417.07 297.72,-419.71"/>
<polygon fill="black" stroke="black" points="173.85,-254.4 167.17,-246.18 167.27,-256.77 173.85,-254.4"/>
</g>
<!-- Node1&#45;&gt;Node12 -->
<g id="edge11" class="edge">
<title>Node1&#45;&gt;Node12</title>
<path fill="none" stroke="black" d="M173.76,-254.88C190.3,-284.15 226.71,-341.06 274,-370.5 280.25,-374.39 287.23,-377.49 294.39,-379.95"/>
<polygon fill="black" stroke="black" points="176.81,-253.16 168.93,-246.09 170.68,-256.54 176.81,-253.16"/>
</g>
<!-- Node1&#45;&gt;Node7 -->
<g id="edge6" class="edge">
<title>Node1&#45;&gt;Node7</title>
<path fill="none" stroke="black" d="M181,-253.18C201.47,-272.41 237.67,-303.78 274,-322.5 282.08,-326.67 291,-330.22 299.88,-333.22"/>
<polygon fill="black" stroke="black" points="183.36,-250.59 173.71,-246.22 178.53,-255.65 183.36,-250.59"/>
</g>
<!-- Node1&#45;&gt;Node9 -->
<g id="edge8" class="edge">
<title>Node1&#45;&gt;Node9</title>
<path fill="none" stroke="black" d="M200.22,-249.47C221.6,-257.01 249.25,-266.56 274,-274.5 283.36,-277.5 293.36,-280.57 303.04,-283.48"/>
<polygon fill="black" stroke="black" points="201.16,-246.09 190.56,-246.05 198.82,-252.68 201.16,-246.09"/>
</g>
<!-- Node1&#45;&gt;Node6 -->
<g id="edge5" class="edge">
<title>Node1&#45;&gt;Node6</title>
<path fill="none" stroke="black" d="M248.21,-244.88C256.87,-245.74 265.65,-246.61 274.27,-247.47"/>
<polygon fill="black" stroke="black" points="248.42,-241.38 238.12,-243.87 247.72,-248.35 248.42,-241.38"/>
</g>
<!-- Node1&#45;&gt;Node8 -->
<g id="edge7" class="edge">
<title>Node1&#45;&gt;Node8</title>
<path fill="none" stroke="black" d="M248.29,-228.56C262.36,-227.23 276.76,-225.87 290.25,-224.6"/>
<polygon fill="black" stroke="black" points="247.75,-225.09 238.12,-229.51 248.4,-232.06 247.75,-225.09"/>
</g>
<!-- Node1&#45;&gt;Node5 -->
<g id="edge4" class="edge">
<title>Node1&#45;&gt;Node5</title>
<path fill="none" stroke="black" d="M199.62,-223.45C221.01,-215.88 248.87,-206.5 274,-199.5 284.96,-196.45 296.87,-193.56 308.1,-191.04"/>
<polygon fill="black" stroke="black" points="198.23,-220.23 189.98,-226.89 200.58,-226.83 198.23,-220.23"/>
</g>
<!-- Node1&#45;&gt;Node11 -->
<g id="edge10" class="edge">
<title>Node1&#45;&gt;Node11</title>
<path fill="none" stroke="black" d="M183.72,-220.5C204.92,-203.99 240.14,-178.44 274,-162.5 281.03,-159.19 288.63,-156.22 296.24,-153.59"/>
<polygon fill="black" stroke="black" points="181.47,-217.82 175.8,-226.77 185.82,-223.31 181.47,-217.82"/>
</g>
<!-- Node10 -->
<g id="node11" class="node">
<title>Node10</title>
<g id="a_node11"><a xlink:href="group__SMBUS__peripheral__mode.html" target="_top" xlink:title=" ">
<polygon fill="white" stroke="black" points="423.5,-105 288.5,-105 288.5,-86 423.5,-86 423.5,-105"/>
<text text-anchor="middle" x="356" y="-93" font-family="Helvetica,sans-Serif" font-size="10.00">SMBUS peripheral mode</text>
</a>
</g>
</g>
<!-- Node1&#45;&gt;Node10 -->
<g id="edge9" class="edge">
<title>Node1&#45;&gt;Node10</title>
<path fill="none" stroke="black" d="M175.18,-218.25C192.73,-191.2 229.42,-140.85 274,-114.5 280.59,-110.61 287.92,-107.51 295.41,-105.05"/>
<polygon fill="black" stroke="black" points="172.18,-216.44 169.78,-226.77 178.09,-220.19 172.18,-216.44"/>
</g>
<!-- Node13 -->
<g id="node12" class="node">
<title>Node13</title>
<g id="a_node12"><a xlink:href="group__SMBUS__Interrupt__configuration__definition.html" target="_top" xlink:title=" ">
<polygon fill="white" stroke="black" points="438,-67.5 274,-67.5 274,-37.5 438,-37.5 438,-67.5"/>
<text text-anchor="start" x="282" y="-55.5" font-family="Helvetica,sans-Serif" font-size="10.00">SMBUS Interrupt configuration</text>
<text text-anchor="middle" x="356" y="-44.5" font-family="Helvetica,sans-Serif" font-size="10.00"> definition</text>
</a>
</g>
</g>
<!-- Node1&#45;&gt;Node13 -->
<g id="edge12" class="edge">
<title>Node1&#45;&gt;Node13</title>
<path fill="none" stroke="black" d="M171.95,-217.32C186.88,-183.67 222.32,-114.04 274,-76.5 278.75,-73.05 283.99,-70.1 289.45,-67.56"/>
<polygon fill="black" stroke="black" points="168.57,-216.32 167.83,-226.89 175,-219.09 168.57,-216.32"/>
</g>
<!-- Node3 -->
<g id="node14" class="node">
<title>Node3</title>
<g id="a_node14"><a xlink:href="group__SMBUS__Error__Code__definition.html" target="_top" xlink:title="SMBUS Error Code.">
<polygon fill="white" stroke="black" points="409,-19 303,-19 303,0 409,0 409,-19"/>
<text text-anchor="middle" x="356" y="-7" font-family="Helvetica,sans-Serif" font-size="10.00">SMBUS Error Code</text>
</a>
</g>
</g>
<!-- Node1&#45;&gt;Node3 -->
<g id="edge2" class="edge">
<title>Node1&#45;&gt;Node3</title>
<path fill="none" stroke="black" d="M168.54,-216.83C179.23,-175.18 210.02,-77.89 274,-28.5 282.35,-22.06 292.52,-17.74 302.8,-14.87"/>
<polygon fill="black" stroke="black" points="165.08,-216.26 166.1,-226.8 171.88,-217.92 165.08,-216.26"/>
</g>
<!-- Node2 -->
<g id="node13" class="node">
<title>Node2</title>
<g id="a_node13"><a xlink:href="group__SMBUS.html" target="_top" xlink:title="SMBUS HAL module driver.">
<polygon fill="white" stroke="black" points="52,-246 0,-246 0,-227 52,-227 52,-246"/>
<text text-anchor="middle" x="26" y="-234" font-family="Helvetica,sans-Serif" font-size="10.00">SMBUS</text>
</a>
</g>
</g>
<!-- Node2&#45;&gt;Node1 -->
<g id="edge1" class="edge">
<title>Node2&#45;&gt;Node1</title>
<path fill="none" stroke="black" d="M62.32,-236.5C70.22,-236.5 78.89,-236.5 87.72,-236.5"/>
<polygon fill="black" stroke="black" points="62.08,-233 52.08,-236.5 62.08,-240 62.08,-233"/>
</g>
</g>
</svg>
        <g id="navigator" transform="translate(0 0)" fill="#404254">
                <rect fill="#f2f5e9" fill-opacity="0.5" stroke="#606060" stroke-width=".5" x="0" y="0" width="60" height="60"/>
                <use id="zoomplus" xlink:href="#zoomPlus" x="17" y="9" onmousedown="handleZoom(evt,'in')"/>
                <use id="zoomminus" xlink:href="#zoomMin" x="42" y="9" onmousedown="handleZoom(evt,'out')"/>
                <use id="reset" xlink:href="#resetDef" x="30" y="36" onmousedown="handleReset()"/>
                <g id="arrowUp" xlink:href="#dirArrow" transform="translate(30 24)" onmousedown="handlePan(0,-1)">
                  <use xlink:href="#rim" fill="#404040">
                        <set attributeName="fill" to="#808080" begin="arrowUp.mouseover" end="arrowUp.mouseout"/>
                  </use>
                  <path fill="none" stroke="white" stroke-width="1.5" d="M0,-3.0v7 M-2.5,-0.5L0,-3.0L2.5,-0.5"/>
                </g>
                <g id="arrowRight" xlink:href="#dirArrow" transform="rotate(90) translate(36 -43)" onmousedown="handlePan(1,0)">
                  <use xlink:href="#rim" fill="#404040">
                        <set attributeName="fill" to="#808080" begin="arrowRight.mouseover" end="arrowRight.mouseout"/>
                  </use>
                  <path fill="none" stroke="white" stroke-width="1.5" d="M0,-3.0v7 M-2.5,-0.5L0,-3.0L2.5,-0.5"/>
                </g>
                <g id="arrowDown" xlink:href="#dirArrow" transform="rotate(180) translate(-30 -48)" onmousedown="handlePan(0,1)">
                  <use xlink:href="#rim" fill="#404040">
                        <set attributeName="fill" to="#808080" begin="arrowDown.mouseover" end="arrowDown.mouseout"/>
                  </use>
                  <path fill="none" stroke="white" stroke-width="1.5" d="M0,-3.0v7 M-2.5,-0.5L0,-3.0L2.5,-0.5"/>
                </g>
                <g id="arrowLeft" xlink:href="#dirArrow" transform="rotate(270) translate(-36 17)" onmousedown="handlePan(-1,0)">
                  <use xlink:href="#rim" fill="#404040">
                        <set attributeName="fill" to="#808080" begin="arrowLeft.mouseover" end="arrowLeft.mouseout"/>
                  </use>
                  <path fill="none" stroke="white" stroke-width="1.5" d="M0,-3.0v7 M-2.5,-0.5L0,-3.0L2.5,-0.5"/>
                </g>
        </g>
        <svg viewBox="0 0 15 15" width="100%" height="30px" preserveAspectRatio="xMaxYMin meet">
         <g id="arrow_out" transform="scale(0.3 0.3)">
          <a xlink:href="group__SMBUS__Exported__Constants_org.svg" target="_base">
           <rect id="button" ry="5" rx="5" y="6" x="6" height="38" width="38"
                fill="#f2f5e9" fill-opacity="0.5" stroke="#606060" stroke-width="1.0"/>
           <path id="arrow"
             d="M 11.500037,31.436501 C 11.940474,20.09759 22.043105,11.32322 32.158766,21.979434 L 37.068811,17.246167 C 37.068811,17.246167 37.088388,32 37.088388,32 L 22.160133,31.978069 C 22.160133,31.978069 26.997745,27.140456 26.997745,27.140456 C 18.528582,18.264221 13.291696,25.230495 11.500037,31.436501 z"
             style="fill:#404040;"/>
          </a>
         </g>
        </svg>
</svg>
