<?xml version="1.0" encoding="UTF-8" standalone="no"?>
<!DOCTYPE svg PUBLIC "-//W3C//DTD SVG 1.1//EN"
 "http://www.w3.org/Graphics/SVG/1.1/DTD/svg11.dtd">
<!-- Generated by graphviz version 2.43.0 (0)
 -->
<!-- Title: EXTI Exported Constants Pages: 1 -->
<svg width="335pt" height="138pt"
 viewBox="0.00 0.00 335.00 138.00" xmlns="http://www.w3.org/2000/svg" xmlns:xlink="http://www.w3.org/1999/xlink">
<g id="graph0" class="graph" transform="scale(1 1) rotate(0) translate(4 134)">
<title>EXTI Exported Constants</title>
<polygon fill="white" stroke="transparent" points="-4,4 -4,-134 331,-134 331,4 -4,4"/>
<!-- Node4 -->
<g id="node1" class="node">
<title>Node4</title>
<g id="a_node1"><a xlink:href="group__EXTI__Mode.html" target="_top" xlink:title=" ">
<polygon fill="white" stroke="black" points="321,-130 253,-130 253,-111 321,-111 321,-130"/>
<text text-anchor="middle" x="287" y="-118" font-family="Helvetica,sans-Serif" font-size="10.00">EXTI Mode</text>
</a>
</g>
</g>
<!-- Node1 -->
<g id="node2" class="node">
<title>Node1</title>
<g id="a_node2"><a xlink:title=" ">
<polygon fill="#bfbfbf" stroke="black" points="211,-74 74,-74 74,-55 211,-55 211,-74"/>
<text text-anchor="middle" x="142.5" y="-62" font-family="Helvetica,sans-Serif" font-size="10.00">EXTI Exported Constants</text>
</a>
</g>
</g>
<!-- Node1&#45;&gt;Node4 -->
<g id="edge3" class="edge">
<title>Node1&#45;&gt;Node4</title>
<path fill="none" stroke="black" d="M177.46,-77.85C203.45,-88.06 238.65,-101.89 261.82,-111"/>
<polygon fill="black" stroke="black" points="178.58,-74.53 168,-74.13 176.02,-81.04 178.58,-74.53"/>
</g>
<!-- Node3 -->
<g id="node3" class="node">
<title>Node3</title>
<g id="a_node3"><a xlink:href="group__EXTI__Line.html" target="_top" xlink:title=" ">
<polygon fill="white" stroke="black" points="318,-93 256,-93 256,-74 318,-74 318,-93"/>
<text text-anchor="middle" x="287" y="-81" font-family="Helvetica,sans-Serif" font-size="10.00">EXTI Line</text>
</a>
</g>
</g>
<!-- Node1&#45;&gt;Node3 -->
<g id="edge2" class="edge">
<title>Node1&#45;&gt;Node3</title>
<path fill="none" stroke="black" d="M221.67,-74.92C233.84,-76.54 245.73,-78.13 255.92,-79.49"/>
<polygon fill="black" stroke="black" points="221.79,-71.41 211.41,-73.55 220.86,-78.35 221.79,-71.41"/>
</g>
<!-- Node5 -->
<g id="node4" class="node">
<title>Node5</title>
<g id="a_node4"><a xlink:href="group__EXTI__Trigger.html" target="_top" xlink:title=" ">
<polygon fill="white" stroke="black" points="324,-56 250,-56 250,-37 324,-37 324,-56"/>
<text text-anchor="middle" x="287" y="-44" font-family="Helvetica,sans-Serif" font-size="10.00">EXTI Trigger</text>
</a>
</g>
</g>
<!-- Node1&#45;&gt;Node5 -->
<g id="edge4" class="edge">
<title>Node1&#45;&gt;Node5</title>
<path fill="none" stroke="black" d="M221.61,-54.63C231.37,-53.4 240.96,-52.19 249.63,-51.09"/>
<polygon fill="black" stroke="black" points="220.89,-51.2 211.41,-55.92 221.77,-58.14 220.89,-51.2"/>
</g>
<!-- Node6 -->
<g id="node6" class="node">
<title>Node6</title>
<g id="a_node6"><a xlink:href="group__EXTI__GPIOSel.html" target="_top" xlink:title=" ">
<polygon fill="white" stroke="black" points="327,-19 247,-19 247,0 327,0 327,-19"/>
<text text-anchor="middle" x="287" y="-7" font-family="Helvetica,sans-Serif" font-size="10.00">EXTI GPIOSel</text>
</a>
</g>
</g>
<!-- Node1&#45;&gt;Node6 -->
<g id="edge5" class="edge">
<title>Node1&#45;&gt;Node6</title>
<path fill="none" stroke="black" d="M177.68,-51.31C203.33,-41.41 237.87,-28.08 260.98,-19.16"/>
<polygon fill="black" stroke="black" points="176.39,-48.05 168.32,-54.92 178.91,-54.58 176.39,-48.05"/>
</g>
<!-- Node2 -->
<g id="node5" class="node">
<title>Node2</title>
<g id="a_node5"><a xlink:href="group__EXTI.html" target="_top" xlink:title="EXTI HAL module driver.">
<polygon fill="white" stroke="black" points="38,-74 0,-74 0,-55 38,-55 38,-74"/>
<text text-anchor="middle" x="19" y="-62" font-family="Helvetica,sans-Serif" font-size="10.00">EXTI</text>
</a>
</g>
</g>
<!-- Node2&#45;&gt;Node1 -->
<g id="edge1" class="edge">
<title>Node2&#45;&gt;Node1</title>
<path fill="none" stroke="black" d="M48.43,-64.5C56.21,-64.5 64.98,-64.5 73.95,-64.5"/>
<polygon fill="black" stroke="black" points="48.19,-61 38.19,-64.5 48.19,-68 48.19,-61"/>
</g>
</g>
</svg>
