<?xml version="1.0" encoding="UTF-8" standalone="no"?>
<!DOCTYPE svg PUBLIC "-//W3C//DTD SVG 1.1//EN"
 "http://www.w3.org/Graphics/SVG/1.1/DTD/svg11.dtd">
<!-- Generated by graphviz version 2.43.0 (0)
 -->
<!-- Title: UART Exported Constants Pages: 1 -->
<!--zoomable 543 -->
<svg id="main" version="1.1" xmlns="http://www.w3.org/2000/svg" xmlns:xlink="http://www.w3.org/1999/xlink" xml:space="preserve" onload="init(evt)">
<style type="text/css"><![CDATA[
.edge:hover path { stroke: red; }
.edge:hover polygon { stroke: red; fill: red; }
]]></style>
<script type="text/javascript"><![CDATA[
var edges = document.getElementsByTagName('g');
if (edges && edges.length) {
  for (var i=0;i<edges.length;i++) {
    if (edges[i].id.substr(0,4)=='edge') {
      edges[i].setAttribute('class','edge');
    }
  }
}
]]></script>
        <defs>
                <circle id="rim" cx="0" cy="0" r="7"/>
                <circle id="rim2" cx="0" cy="0" r="3.5"/>
                <g id="zoomPlus">
                        <use xlink:href="#rim" fill="#404040">
                                <set attributeName="fill" to="#808080" begin="zoomplus.mouseover" end="zoomplus.mouseout"/>
                        </use>
                        <path d="M-4,0h8M0,-4v8" fill="none" stroke="white" stroke-width="1.5" pointer-events="none"/>
                </g>
                <g id="zoomMin">
                        <use xlink:href="#rim" fill="#404040">
                                <set attributeName="fill" to="#808080" begin="zoomminus.mouseover" end="zoomminus.mouseout"/>
                        </use>
                        <path d="M-4,0h8" fill="none" stroke="white" stroke-width="1.5" pointer-events="none"/>
                </g>
                <g id="dirArrow">
                        <path fill="none" stroke="white" stroke-width="1.5" d="M0,-3.0v7 M-2.5,-0.5L0,-3.0L2.5,-0.5"/>
                </g>
               <g id="resetDef">
                       <use xlink:href="#rim2" fill="#404040">
                               <set attributeName="fill" to="#808080" begin="reset.mouseover" end="reset.mouseout"/>
                       </use>
               </g>
        </defs>

<script type="text/javascript">
var viewWidth = 410;
var viewHeight = 543;
var sectionId = 'dynsection-0';
</script>
<script xlink:href="svgpan.js"/>
<svg id="graph" class="graph">
<g id="viewport">
<title>UART Exported Constants</title>
<polygon fill="white" stroke="transparent" points="-4,4 -4,-539 406,-539 406,4 -4,4"/>
<!-- Node16 -->
<g id="node1" class="node">
<title>Node16</title>
<g id="a_node1"><a xlink:href="group__UART__RxEvent__Type__Values.html" target="_top" xlink:title=" ">
<polygon fill="white" stroke="black" points="402,-535 256,-535 256,-516 402,-516 402,-535"/>
<text text-anchor="middle" x="329" y="-523" font-family="Helvetica,sans-Serif" font-size="10.00">UART RxEvent type values</text>
</a>
</g>
</g>
<!-- Node14 -->
<g id="node2" class="node">
<title>Node14</title>
<g id="a_node2"><a xlink:href="group__UART__Interrupt__definition.html" target="_top" xlink:title=" ">
<polygon fill="white" stroke="black" points="400.5,-498 257.5,-498 257.5,-479 400.5,-479 400.5,-498"/>
<text text-anchor="middle" x="329" y="-486" font-family="Helvetica,sans-Serif" font-size="10.00">UART Interrupt Definitions</text>
</a>
</g>
</g>
<!-- Node5 -->
<g id="node3" class="node">
<title>Node5</title>
<g id="a_node3"><a xlink:href="group__UART__Stop__Bits.html" target="_top" xlink:title=" ">
<polygon fill="white" stroke="black" points="401,-461 257,-461 257,-442 401,-442 401,-461"/>
<text text-anchor="middle" x="329" y="-449" font-family="Helvetica,sans-Serif" font-size="10.00">UART Number of Stop Bits</text>
</a>
</g>
</g>
<!-- Node11 -->
<g id="node4" class="node">
<title>Node11</title>
<g id="a_node4"><a xlink:href="group__UART__LIN__Break__Detection__Length.html" target="_top" xlink:title=" ">
<polygon fill="white" stroke="black" points="400.5,-423.5 257.5,-423.5 257.5,-393.5 400.5,-393.5 400.5,-423.5"/>
<text text-anchor="start" x="265.5" y="-411.5" font-family="Helvetica,sans-Serif" font-size="10.00">UART LIN Break Detection</text>
<text text-anchor="middle" x="329" y="-400.5" font-family="Helvetica,sans-Serif" font-size="10.00"> Length</text>
</a>
</g>
</g>
<!-- Node3 -->
<g id="node5" class="node">
<title>Node3</title>
<g id="a_node5"><a xlink:href="group__UART__Error__Code.html" target="_top" xlink:title=" ">
<polygon fill="white" stroke="black" points="377.5,-375 280.5,-375 280.5,-356 377.5,-356 377.5,-375"/>
<text text-anchor="middle" x="329" y="-363" font-family="Helvetica,sans-Serif" font-size="10.00">UART Error Code</text>
</a>
</g>
</g>
<!-- Node10 -->
<g id="node6" class="node">
<title>Node10</title>
<g id="a_node6"><a xlink:href="group__UART__Over__Sampling.html" target="_top" xlink:title=" ">
<polygon fill="white" stroke="black" points="388,-338 270,-338 270,-319 388,-319 388,-338"/>
<text text-anchor="middle" x="329" y="-326" font-family="Helvetica,sans-Serif" font-size="10.00">UART Over Sampling</text>
</a>
</g>
</g>
<!-- Node15 -->
<g id="node7" class="node">
<title>Node15</title>
<g id="a_node7"><a xlink:href="group__UART__Reception__Type__Values.html" target="_top" xlink:title=" ">
<polygon fill="white" stroke="black" points="388.5,-300.5 269.5,-300.5 269.5,-270.5 388.5,-270.5 388.5,-300.5"/>
<text text-anchor="start" x="277.5" y="-288.5" font-family="Helvetica,sans-Serif" font-size="10.00">UART Reception type</text>
<text text-anchor="middle" x="329" y="-277.5" font-family="Helvetica,sans-Serif" font-size="10.00"> values</text>
</a>
</g>
</g>
<!-- Node7 -->
<g id="node8" class="node">
<title>Node7</title>
<g id="a_node8"><a xlink:href="group__UART__Hardware__Flow__Control.html" target="_top" xlink:title=" ">
<polygon fill="white" stroke="black" points="388.5,-252.5 269.5,-252.5 269.5,-222.5 388.5,-222.5 388.5,-252.5"/>
<text text-anchor="start" x="277.5" y="-240.5" font-family="Helvetica,sans-Serif" font-size="10.00">UART Hardware Flow</text>
<text text-anchor="middle" x="329" y="-229.5" font-family="Helvetica,sans-Serif" font-size="10.00"> Control</text>
</a>
</g>
</g>
<!-- Node6 -->
<g id="node9" class="node">
<title>Node6</title>
<g id="a_node9"><a xlink:href="group__UART__Parity.html" target="_top" xlink:title=" ">
<polygon fill="white" stroke="black" points="366,-204 292,-204 292,-185 366,-185 366,-204"/>
<text text-anchor="middle" x="329" y="-192" font-family="Helvetica,sans-Serif" font-size="10.00">UART Parity</text>
</a>
</g>
</g>
<!-- Node4 -->
<g id="node10" class="node">
<title>Node4</title>
<g id="a_node10"><a xlink:href="group__UART__Word__Length.html" target="_top" xlink:title=" ">
<polygon fill="white" stroke="black" points="382.5,-167 275.5,-167 275.5,-148 382.5,-148 382.5,-167"/>
<text text-anchor="middle" x="329" y="-155" font-family="Helvetica,sans-Serif" font-size="10.00">UART Word Length</text>
</a>
</g>
</g>
<!-- Node8 -->
<g id="node11" class="node">
<title>Node8</title>
<g id="a_node11"><a xlink:href="group__UART__Mode.html" target="_top" xlink:title=" ">
<polygon fill="white" stroke="black" points="386.5,-130 271.5,-130 271.5,-111 386.5,-111 386.5,-130"/>
<text text-anchor="middle" x="329" y="-118" font-family="Helvetica,sans-Serif" font-size="10.00">UART Transfer Mode</text>
</a>
</g>
</g>
<!-- Node12 -->
<g id="node12" class="node">
<title>Node12</title>
<g id="a_node12"><a xlink:href="group__UART__WakeUp__functions.html" target="_top" xlink:title=" ">
<polygon fill="white" stroke="black" points="396,-93 262,-93 262,-74 396,-74 396,-93"/>
<text text-anchor="middle" x="329" y="-81" font-family="Helvetica,sans-Serif" font-size="10.00">UART Wakeup Functions</text>
</a>
</g>
</g>
<!-- Node9 -->
<g id="node13" class="node">
<title>Node9</title>
<g id="a_node13"><a xlink:href="group__UART__State.html" target="_top" xlink:title=" ">
<polygon fill="white" stroke="black" points="364.5,-56 293.5,-56 293.5,-37 364.5,-37 364.5,-56"/>
<text text-anchor="middle" x="329" y="-44" font-family="Helvetica,sans-Serif" font-size="10.00">UART State</text>
</a>
</g>
</g>
<!-- Node13 -->
<g id="node14" class="node">
<title>Node13</title>
<g id="a_node14"><a xlink:href="group__UART__Flags.html" target="_top" xlink:title=" ">
<polygon fill="white" stroke="black" points="366,-19 292,-19 292,0 366,0 366,-19"/>
<text text-anchor="middle" x="329" y="-7" font-family="Helvetica,sans-Serif" font-size="10.00">UART FLags</text>
</a>
</g>
</g>
<!-- Node2 -->
<g id="node15" class="node">
<title>Node2</title>
<g id="a_node15"><a xlink:href="group__UART.html" target="_top" xlink:title="HAL UART module driver.">
<polygon fill="white" stroke="black" points="43,-271 0,-271 0,-252 43,-252 43,-271"/>
<text text-anchor="middle" x="21.5" y="-259" font-family="Helvetica,sans-Serif" font-size="10.00">UART</text>
</a>
</g>
</g>
<!-- Node1 -->
<g id="node16" class="node">
<title>Node1</title>
<g id="a_node16"><a xlink:title=" ">
<polygon fill="#bfbfbf" stroke="black" points="220,-271 79,-271 79,-252 220,-252 220,-271"/>
<text text-anchor="middle" x="149.5" y="-259" font-family="Helvetica,sans-Serif" font-size="10.00">UART Exported Constants</text>
</a>
</g>
</g>
<!-- Node2&#45;&gt;Node1 -->
<g id="edge1" class="edge">
<title>Node2&#45;&gt;Node1</title>
<path fill="none" stroke="black" d="M53.16,-261.5C61.06,-261.5 69.9,-261.5 78.92,-261.5"/>
<polygon fill="black" stroke="black" points="53.02,-258 43.02,-261.5 53.02,-265 53.02,-258"/>
</g>
<!-- Node1&#45;&gt;Node16 -->
<g id="edge15" class="edge">
<title>Node1&#45;&gt;Node16</title>
<path fill="none" stroke="black" d="M152.98,-281.05C159.97,-327.75 184.25,-446.41 256,-507.5 260.02,-510.92 264.6,-513.71 269.46,-515.98"/>
<polygon fill="black" stroke="black" points="156.43,-280.47 151.59,-271.04 149.5,-281.43 156.43,-280.47"/>
</g>
<!-- Node1&#45;&gt;Node14 -->
<g id="edge13" class="edge">
<title>Node1&#45;&gt;Node14</title>
<path fill="none" stroke="black" d="M154.63,-281.18C164.44,-322.85 193.17,-420.3 256,-470.5 260.23,-473.88 265.01,-476.63 270.04,-478.88"/>
<polygon fill="black" stroke="black" points="158,-280.19 152.4,-271.2 151.17,-281.72 158,-280.19"/>
</g>
<!-- Node1&#45;&gt;Node5 -->
<g id="edge4" class="edge">
<title>Node1&#45;&gt;Node5</title>
<path fill="none" stroke="black" d="M156.87,-280.67C169.71,-316.27 202.16,-392.58 256,-432.5 261.19,-436.35 267.1,-439.42 273.25,-441.87"/>
<polygon fill="black" stroke="black" points="160.1,-279.31 153.51,-271.01 153.49,-281.61 160.1,-279.31"/>
</g>
<!-- Node1&#45;&gt;Node11 -->
<g id="edge10" class="edge">
<title>Node1&#45;&gt;Node11</title>
<path fill="none" stroke="black" d="M161.54,-279.76C178.58,-306.48 213.79,-356.13 256,-384.5 261.03,-387.88 266.58,-390.82 272.29,-393.37"/>
<polygon fill="black" stroke="black" points="164.36,-277.67 156.1,-271.04 158.42,-281.37 164.36,-277.67"/>
</g>
<!-- Node1&#45;&gt;Node3 -->
<g id="edge2" class="edge">
<title>Node1&#45;&gt;Node3</title>
<path fill="none" stroke="black" d="M166.49,-278.44C185.86,-297.96 220.35,-329.64 256,-347.5 263.6,-351.31 272.07,-354.35 280.45,-356.77"/>
<polygon fill="black" stroke="black" points="168.86,-275.86 159.38,-271.13 163.84,-280.74 168.86,-275.86"/>
</g>
<!-- Node1&#45;&gt;Node10 -->
<g id="edge9" class="edge">
<title>Node1&#45;&gt;Node10</title>
<path fill="none" stroke="black" d="M178.14,-275.63C199.12,-285.97 228.88,-299.83 256,-309.5 265.86,-313.02 276.69,-316.21 286.89,-318.93"/>
<polygon fill="black" stroke="black" points="179.67,-272.49 169.16,-271.16 176.55,-278.75 179.67,-272.49"/>
</g>
<!-- Node1&#45;&gt;Node15 -->
<g id="edge14" class="edge">
<title>Node1&#45;&gt;Node15</title>
<path fill="none" stroke="black" d="M230.18,-272.27C243.4,-274.06 256.89,-275.88 269.46,-277.58"/>
<polygon fill="black" stroke="black" points="230.52,-268.79 220.14,-270.92 229.58,-275.72 230.52,-268.79"/>
</g>
<!-- Node1&#45;&gt;Node7 -->
<g id="edge6" class="edge">
<title>Node1&#45;&gt;Node7</title>
<path fill="none" stroke="black" d="M230.18,-250.73C243.4,-248.94 256.89,-247.12 269.46,-245.42"/>
<polygon fill="black" stroke="black" points="229.58,-247.28 220.14,-252.08 230.52,-254.21 229.58,-247.28"/>
</g>
<!-- Node1&#45;&gt;Node6 -->
<g id="edge5" class="edge">
<title>Node1&#45;&gt;Node6</title>
<path fill="none" stroke="black" d="M178.14,-247.37C199.12,-237.03 228.88,-223.17 256,-213.5 267.45,-209.42 280.19,-205.77 291.74,-202.79"/>
<polygon fill="black" stroke="black" points="176.55,-244.25 169.16,-251.84 179.67,-250.51 176.55,-244.25"/>
</g>
<!-- Node1&#45;&gt;Node4 -->
<g id="edge3" class="edge">
<title>Node1&#45;&gt;Node4</title>
<path fill="none" stroke="black" d="M166.49,-244.56C185.86,-225.04 220.35,-193.36 256,-175.5 262.8,-172.09 270.28,-169.3 277.78,-167.02"/>
<polygon fill="black" stroke="black" points="163.84,-242.26 159.38,-251.87 168.86,-247.14 163.84,-242.26"/>
</g>
<!-- Node1&#45;&gt;Node8 -->
<g id="edge7" class="edge">
<title>Node1&#45;&gt;Node8</title>
<path fill="none" stroke="black" d="M161.26,-242.81C177.96,-215.56 212.73,-165.23 256,-138.5 261.48,-135.11 267.57,-132.36 273.81,-130.13"/>
<polygon fill="black" stroke="black" points="158.06,-241.35 155.95,-251.73 164.07,-244.93 158.06,-241.35"/>
</g>
<!-- Node1&#45;&gt;Node12 -->
<g id="edge11" class="edge">
<title>Node1&#45;&gt;Node12</title>
<path fill="none" stroke="black" d="M157.75,-242.09C171.47,-208.1 204.55,-137.95 256,-101.5 260.84,-98.07 266.26,-95.3 271.9,-93.05"/>
<polygon fill="black" stroke="black" points="154.34,-241.18 153.97,-251.77 160.87,-243.73 154.34,-241.18"/>
</g>
<!-- Node1&#45;&gt;Node9 -->
<g id="edge8" class="edge">
<title>Node1&#45;&gt;Node9</title>
<path fill="none" stroke="black" d="M155.2,-242.13C165.88,-202.37 195.86,-111.37 256,-64.5 266.57,-56.26 280.43,-51.75 293.17,-49.29"/>
<polygon fill="black" stroke="black" points="151.79,-241.35 152.69,-251.91 158.57,-243.09 151.79,-241.35"/>
</g>
<!-- Node1&#45;&gt;Node13 -->
<g id="edge12" class="edge">
<title>Node1&#45;&gt;Node13</title>
<path fill="none" stroke="black" d="M153.5,-241.67C161.44,-196.4 187.28,-84.93 256,-27.5 265.99,-19.16 279.3,-14.59 291.76,-12.13"/>
<polygon fill="black" stroke="black" points="150.03,-241.25 151.86,-251.68 156.93,-242.38 150.03,-241.25"/>
</g>
</g>
</svg>
        <g id="navigator" transform="translate(0 0)" fill="#404254">
                <rect fill="#f2f5e9" fill-opacity="0.5" stroke="#606060" stroke-width=".5" x="0" y="0" width="60" height="60"/>
                <use id="zoomplus" xlink:href="#zoomPlus" x="17" y="9" onmousedown="handleZoom(evt,'in')"/>
                <use id="zoomminus" xlink:href="#zoomMin" x="42" y="9" onmousedown="handleZoom(evt,'out')"/>
                <use id="reset" xlink:href="#resetDef" x="30" y="36" onmousedown="handleReset()"/>
                <g id="arrowUp" xlink:href="#dirArrow" transform="translate(30 24)" onmousedown="handlePan(0,-1)">
                  <use xlink:href="#rim" fill="#404040">
                        <set attributeName="fill" to="#808080" begin="arrowUp.mouseover" end="arrowUp.mouseout"/>
                  </use>
                  <path fill="none" stroke="white" stroke-width="1.5" d="M0,-3.0v7 M-2.5,-0.5L0,-3.0L2.5,-0.5"/>
                </g>
                <g id="arrowRight" xlink:href="#dirArrow" transform="rotate(90) translate(36 -43)" onmousedown="handlePan(1,0)">
                  <use xlink:href="#rim" fill="#404040">
                        <set attributeName="fill" to="#808080" begin="arrowRight.mouseover" end="arrowRight.mouseout"/>
                  </use>
                  <path fill="none" stroke="white" stroke-width="1.5" d="M0,-3.0v7 M-2.5,-0.5L0,-3.0L2.5,-0.5"/>
                </g>
                <g id="arrowDown" xlink:href="#dirArrow" transform="rotate(180) translate(-30 -48)" onmousedown="handlePan(0,1)">
                  <use xlink:href="#rim" fill="#404040">
                        <set attributeName="fill" to="#808080" begin="arrowDown.mouseover" end="arrowDown.mouseout"/>
                  </use>
                  <path fill="none" stroke="white" stroke-width="1.5" d="M0,-3.0v7 M-2.5,-0.5L0,-3.0L2.5,-0.5"/>
                </g>
                <g id="arrowLeft" xlink:href="#dirArrow" transform="rotate(270) translate(-36 17)" onmousedown="handlePan(-1,0)">
                  <use xlink:href="#rim" fill="#404040">
                        <set attributeName="fill" to="#808080" begin="arrowLeft.mouseover" end="arrowLeft.mouseout"/>
                  </use>
                  <path fill="none" stroke="white" stroke-width="1.5" d="M0,-3.0v7 M-2.5,-0.5L0,-3.0L2.5,-0.5"/>
                </g>
        </g>
        <svg viewBox="0 0 15 15" width="100%" height="30px" preserveAspectRatio="xMaxYMin meet">
         <g id="arrow_out" transform="scale(0.3 0.3)">
          <a xlink:href="group__UART__Exported__Constants_org.svg" target="_base">
           <rect id="button" ry="5" rx="5" y="6" x="6" height="38" width="38"
                fill="#f2f5e9" fill-opacity="0.5" stroke="#606060" stroke-width="1.0"/>
           <path id="arrow"
             d="M 11.500037,31.436501 C 11.940474,20.09759 22.043105,11.32322 32.158766,21.979434 L 37.068811,17.246167 C 37.068811,17.246167 37.088388,32 37.088388,32 L 22.160133,31.978069 C 22.160133,31.978069 26.997745,27.140456 26.997745,27.140456 C 18.528582,18.264221 13.291696,25.230495 11.500037,31.436501 z"
             style="fill:#404040;"/>
          </a>
         </g>
        </svg>
</svg>
