<?xml version="1.0" encoding="UTF-8" standalone="no"?>
<!DOCTYPE svg PUBLIC "-//W3C//DTD SVG 1.1//EN"
 "http://www.w3.org/Graphics/SVG/1.1/DTD/svg11.dtd">
<!-- Generated by graphviz version 2.43.0 (0)
 -->
<!-- Title: HAL_InitTick Pages: 1 -->
<svg width="263pt" height="218pt"
 viewBox="0.00 0.00 263.00 218.00" xmlns="http://www.w3.org/2000/svg" xmlns:xlink="http://www.w3.org/1999/xlink">
<g id="graph0" class="graph" transform="scale(1 1) rotate(0) translate(4 214)">
<title>HAL_InitTick</title>
<polygon fill="white" stroke="transparent" points="-4,4 -4,-214 259,-214 259,4 -4,4"/>
<!-- Node1 -->
<g id="node1" class="node">
<title>Node1</title>
<g id="a_node1"><a xlink:title="This function configures the TIM6 as a time base source. The time source is configured to have 1ms ti...">
<polygon fill="#bfbfbf" stroke="black" points="0,-95.5 0,-114.5 77,-114.5 77,-95.5 0,-95.5"/>
<text text-anchor="middle" x="38.5" y="-102.5" font-family="Helvetica,sans-Serif" font-size="10.00">HAL_InitTick</text>
</a>
</g>
</g>
<!-- Node2 -->
<g id="node2" class="node">
<title>Node2</title>
<g id="a_node2"><a xlink:href="group__CORTEX__Exported__Functions__Group1.html#gaaad4492c1b25e006d69948a15790352a" target="_top" xlink:title=" ">
<polygon fill="white" stroke="black" points="123.5,-190.5 123.5,-209.5 244.5,-209.5 244.5,-190.5 123.5,-190.5"/>
<text text-anchor="middle" x="184" y="-197.5" font-family="Helvetica,sans-Serif" font-size="10.00">HAL_NVIC_EnableIRQ</text>
</a>
</g>
</g>
<!-- Node1&#45;&gt;Node2 -->
<g id="edge1" class="edge">
<title>Node1&#45;&gt;Node2</title>
<path fill="none" stroke="midnightblue" d="M46.01,-114.52C57.58,-130.69 83.29,-163.45 113,-181 116.66,-183.16 120.57,-185.08 124.6,-186.79"/>
<polygon fill="midnightblue" stroke="midnightblue" points="123.58,-190.15 134.17,-190.4 126.05,-183.6 123.58,-190.15"/>
</g>
<!-- Node3 -->
<g id="node3" class="node">
<title>Node3</title>
<g id="a_node3"><a xlink:href="group__CORTEX__Exported__Functions__Group1.html#ga8581a82025a4780efd00876a66e3e91b" target="_top" xlink:title=" ">
<polygon fill="white" stroke="black" points="123,-152.5 123,-171.5 245,-171.5 245,-152.5 123,-152.5"/>
<text text-anchor="middle" x="184" y="-159.5" font-family="Helvetica,sans-Serif" font-size="10.00">HAL_NVIC_SetPriority</text>
</a>
</g>
</g>
<!-- Node1&#45;&gt;Node3 -->
<g id="edge2" class="edge">
<title>Node1&#45;&gt;Node3</title>
<path fill="none" stroke="midnightblue" d="M55.67,-114.63C70.26,-123.01 92.52,-135.03 113,-143 119.23,-145.42 125.88,-147.66 132.52,-149.68"/>
<polygon fill="midnightblue" stroke="midnightblue" points="131.6,-153.06 142.18,-152.49 133.55,-146.34 131.6,-153.06"/>
</g>
<!-- Node4 -->
<g id="node4" class="node">
<title>Node4</title>
<g id="a_node4"><a xlink:href="group__RCC__Exported__Functions__Group2.html#gabc95375dfca279d88b9ded9d063d2323" target="_top" xlink:title=" ">
<polygon fill="white" stroke="black" points="113,-114.5 113,-133.5 255,-133.5 255,-114.5 113,-114.5"/>
<text text-anchor="middle" x="184" y="-121.5" font-family="Helvetica,sans-Serif" font-size="10.00">HAL_RCC_GetClockConfig</text>
</a>
</g>
</g>
<!-- Node1&#45;&gt;Node4 -->
<g id="edge3" class="edge">
<title>Node1&#45;&gt;Node4</title>
<path fill="none" stroke="midnightblue" d="M77.2,-109.99C85.17,-111.05 93.86,-112.2 102.73,-113.37"/>
<polygon fill="midnightblue" stroke="midnightblue" points="102.41,-116.86 112.79,-114.7 103.33,-109.92 102.41,-116.86"/>
</g>
<!-- Node5 -->
<g id="node5" class="node">
<title>Node5</title>
<g id="a_node5"><a xlink:href="group__RCC__Exported__Functions__Group2.html#gab3042d8ac5703ac696cabf0ee461c599" target="_top" xlink:title=" ">
<polygon fill="white" stroke="black" points="116,-76.5 116,-95.5 252,-95.5 252,-76.5 116,-76.5"/>
<text text-anchor="middle" x="184" y="-83.5" font-family="Helvetica,sans-Serif" font-size="10.00">HAL_RCC_GetPCLK1Freq</text>
</a>
</g>
</g>
<!-- Node1&#45;&gt;Node5 -->
<g id="edge4" class="edge">
<title>Node1&#45;&gt;Node5</title>
<path fill="none" stroke="midnightblue" d="M77.2,-100.01C86.11,-98.83 95.93,-97.53 105.88,-96.21"/>
<polygon fill="midnightblue" stroke="midnightblue" points="106.4,-99.67 115.86,-94.89 105.48,-92.73 106.4,-99.67"/>
</g>
<!-- Node6 -->
<g id="node6" class="node">
<title>Node6</title>
<g id="a_node6"><a xlink:href="group__TIM__Exported__Functions__Group1.html#ga1b288eb68eb52c97b8d187cdd6e9088f" target="_top" xlink:title=" ">
<polygon fill="white" stroke="black" points="129,-38.5 129,-57.5 239,-57.5 239,-38.5 129,-38.5"/>
<text text-anchor="middle" x="184" y="-45.5" font-family="Helvetica,sans-Serif" font-size="10.00">HAL_TIM_Base_Init</text>
</a>
</g>
</g>
<!-- Node1&#45;&gt;Node6 -->
<g id="edge5" class="edge">
<title>Node1&#45;&gt;Node6</title>
<path fill="none" stroke="midnightblue" d="M55.67,-95.37C70.26,-86.99 92.52,-74.97 113,-67 119.23,-64.58 125.88,-62.34 132.52,-60.32"/>
<polygon fill="midnightblue" stroke="midnightblue" points="133.55,-63.66 142.18,-57.51 131.6,-56.94 133.55,-63.66"/>
</g>
<!-- Node7 -->
<g id="node7" class="node">
<title>Node7</title>
<g id="a_node7"><a xlink:href="group__TIM__Exported__Functions__Group1.html#gae517d80e2ac713069767df8e8915971e" target="_top" xlink:title=" ">
<polygon fill="white" stroke="black" points="118.5,-0.5 118.5,-19.5 249.5,-19.5 249.5,-0.5 118.5,-0.5"/>
<text text-anchor="middle" x="184" y="-7.5" font-family="Helvetica,sans-Serif" font-size="10.00">HAL_TIM_Base_Start_IT</text>
</a>
</g>
</g>
<!-- Node1&#45;&gt;Node7 -->
<g id="edge6" class="edge">
<title>Node1&#45;&gt;Node7</title>
<path fill="none" stroke="midnightblue" d="M46.01,-95.48C57.58,-79.31 83.29,-46.55 113,-29 116.66,-26.84 120.57,-24.92 124.6,-23.21"/>
<polygon fill="midnightblue" stroke="midnightblue" points="126.05,-26.4 134.17,-19.6 123.58,-19.85 126.05,-26.4"/>
</g>
</g>
</svg>
