<?xml version="1.0" encoding="UTF-8" standalone="no"?>
<!DOCTYPE svg PUBLIC "-//W3C//DTD SVG 1.1//EN"
 "http://www.w3.org/Graphics/SVG/1.1/DTD/svg11.dtd">
<!-- Generated by graphviz version 2.43.0 (0)
 -->
<!-- Title: TIM Exported Functions Pages: 1 -->
<svg width="409pt" height="396pt"
 viewBox="0.00 0.00 409.00 395.50" xmlns="http://www.w3.org/2000/svg" xmlns:xlink="http://www.w3.org/1999/xlink">
<g id="graph0" class="graph" transform="scale(1 1) rotate(0) translate(4 391.5)">
<title>TIM Exported Functions</title>
<polygon fill="white" stroke="transparent" points="-4,4 -4,-391.5 405,-391.5 405,4 -4,4"/>
<!-- Node1 -->
<g id="node1" class="node">
<title>Node1</title>
<g id="a_node1"><a xlink:title=" ">
<polygon fill="#bfbfbf" stroke="black" points="202,-208.5 71,-208.5 71,-189.5 202,-189.5 202,-208.5"/>
<text text-anchor="middle" x="136.5" y="-196.5" font-family="Helvetica,sans-Serif" font-size="10.00">TIM Exported Functions</text>
</a>
</g>
</g>
<!-- Node6 -->
<g id="node3" class="node">
<title>Node6</title>
<g id="a_node3"><a xlink:href="group__TIM__Exported__Functions__Group1.html" target="_top" xlink:title="Time Base functions.">
<polygon fill="white" stroke="black" points="388,-387.5 251,-387.5 251,-368.5 388,-368.5 388,-387.5"/>
<text text-anchor="middle" x="319.5" y="-375.5" font-family="Helvetica,sans-Serif" font-size="10.00">TIM Time Base functions</text>
</a>
</g>
</g>
<!-- Node1&#45;&gt;Node6 -->
<g id="edge5" class="edge">
<title>Node1&#45;&gt;Node6</title>
<path fill="none" stroke="black" d="M144.09,-218.46C156.67,-252.55 187.44,-322.84 238,-359 243.37,-362.84 249.41,-365.92 255.71,-368.38"/>
<polygon fill="black" stroke="black" points="147.29,-217.01 140.64,-208.76 140.69,-219.35 147.29,-217.01"/>
</g>
<!-- Node7 -->
<g id="node4" class="node">
<title>Node7</title>
<g id="a_node4"><a xlink:href="group__TIM__Exported__Functions__Group2.html" target="_top" xlink:title="TIM Output Compare functions.">
<polygon fill="white" stroke="black" points="378.5,-350 260.5,-350 260.5,-320 378.5,-320 378.5,-350"/>
<text text-anchor="start" x="268.5" y="-338" font-family="Helvetica,sans-Serif" font-size="10.00">TIM Output Compare</text>
<text text-anchor="middle" x="319.5" y="-327" font-family="Helvetica,sans-Serif" font-size="10.00"> functions</text>
</a>
</g>
</g>
<!-- Node1&#45;&gt;Node7 -->
<g id="edge6" class="edge">
<title>Node1&#45;&gt;Node7</title>
<path fill="none" stroke="black" d="M149.05,-217.2C165.72,-242.02 198.86,-286.21 238,-311 244.78,-315.29 252.36,-318.85 260.08,-321.78"/>
<polygon fill="black" stroke="black" points="151.9,-215.16 143.49,-208.72 146.04,-219 151.9,-215.16"/>
</g>
<!-- Node8 -->
<g id="node5" class="node">
<title>Node8</title>
<g id="a_node5"><a xlink:href="group__TIM__Exported__Functions__Group3.html" target="_top" xlink:title="TIM PWM functions.">
<polygon fill="white" stroke="black" points="374.5,-301.5 264.5,-301.5 264.5,-282.5 374.5,-282.5 374.5,-301.5"/>
<text text-anchor="middle" x="319.5" y="-289.5" font-family="Helvetica,sans-Serif" font-size="10.00">TIM PWM functions</text>
</a>
</g>
</g>
<!-- Node1&#45;&gt;Node8 -->
<g id="edge7" class="edge">
<title>Node1&#45;&gt;Node8</title>
<path fill="none" stroke="black" d="M154.92,-215.67C173.87,-232.87 205.77,-259.2 238,-274 246.2,-277.77 255.24,-280.77 264.21,-283.15"/>
<polygon fill="black" stroke="black" points="157.12,-212.94 147.4,-208.71 152.36,-218.07 157.12,-212.94"/>
</g>
<!-- Node9 -->
<g id="node6" class="node">
<title>Node9</title>
<g id="a_node6"><a xlink:href="group__TIM__Exported__Functions__Group4.html" target="_top" xlink:title="TIM Input Capture functions.">
<polygon fill="white" stroke="black" points="395.5,-264.5 243.5,-264.5 243.5,-245.5 395.5,-245.5 395.5,-264.5"/>
<text text-anchor="middle" x="319.5" y="-252.5" font-family="Helvetica,sans-Serif" font-size="10.00">TIM Input Capture functions</text>
</a>
</g>
</g>
<!-- Node1&#45;&gt;Node9 -->
<g id="edge8" class="edge">
<title>Node1&#45;&gt;Node9</title>
<path fill="none" stroke="black" d="M169.29,-212.34C188.87,-220.23 214.61,-230 238,-237 248.43,-240.12 259.76,-242.97 270.54,-245.44"/>
<polygon fill="black" stroke="black" points="170.52,-209.06 159.94,-208.53 167.88,-215.55 170.52,-209.06"/>
</g>
<!-- Node10 -->
<g id="node7" class="node">
<title>Node10</title>
<g id="a_node7"><a xlink:href="group__TIM__Exported__Functions__Group5.html" target="_top" xlink:title="TIM One Pulse functions.">
<polygon fill="white" stroke="black" points="386.5,-227.5 252.5,-227.5 252.5,-208.5 386.5,-208.5 386.5,-227.5"/>
<text text-anchor="middle" x="319.5" y="-215.5" font-family="Helvetica,sans-Serif" font-size="10.00">TIM One Pulse functions</text>
</a>
</g>
</g>
<!-- Node1&#45;&gt;Node10 -->
<g id="edge9" class="edge">
<title>Node1&#45;&gt;Node10</title>
<path fill="none" stroke="black" d="M212.17,-206.84C225.52,-208.24 239.34,-209.69 252.42,-211.06"/>
<polygon fill="black" stroke="black" points="212.39,-203.34 202.08,-205.78 211.66,-210.3 212.39,-203.34"/>
</g>
<!-- Node11 -->
<g id="node8" class="node">
<title>Node11</title>
<g id="a_node8"><a xlink:href="group__TIM__Exported__Functions__Group6.html" target="_top" xlink:title="TIM Encoder functions.">
<polygon fill="white" stroke="black" points="382,-190.5 257,-190.5 257,-171.5 382,-171.5 382,-190.5"/>
<text text-anchor="middle" x="319.5" y="-178.5" font-family="Helvetica,sans-Serif" font-size="10.00">TIM Encoder functions</text>
</a>
</g>
</g>
<!-- Node1&#45;&gt;Node11 -->
<g id="edge10" class="edge">
<title>Node1&#45;&gt;Node11</title>
<path fill="none" stroke="black" d="M212.26,-191.56C227.14,-190.09 242.6,-188.55 256.98,-187.12"/>
<polygon fill="black" stroke="black" points="211.68,-188.11 202.08,-192.58 212.38,-195.07 211.68,-188.11"/>
</g>
<!-- Node12 -->
<g id="node9" class="node">
<title>Node12</title>
<g id="a_node9"><a xlink:href="group__TIM__Exported__Functions__Group7.html" target="_top" xlink:title="IRQ handler management.">
<polygon fill="white" stroke="black" points="401,-153.5 238,-153.5 238,-134.5 401,-134.5 401,-153.5"/>
<text text-anchor="middle" x="319.5" y="-141.5" font-family="Helvetica,sans-Serif" font-size="10.00">TIM IRQ handler management</text>
</a>
</g>
</g>
<!-- Node1&#45;&gt;Node12 -->
<g id="edge11" class="edge">
<title>Node1&#45;&gt;Node12</title>
<path fill="none" stroke="black" d="M170.09,-185.75C189.58,-178.14 214.96,-168.78 238,-162 248.58,-158.89 260.08,-156.02 270.98,-153.53"/>
<polygon fill="black" stroke="black" points="168.78,-182.51 160.76,-189.44 171.35,-189.02 168.78,-182.51"/>
</g>
<!-- Node3 -->
<g id="node10" class="node">
<title>Node3</title>
<g id="a_node10"><a xlink:href="group__TIM__Exported__Functions__Group8.html" target="_top" xlink:title="Peripheral Control functions.">
<polygon fill="white" stroke="black" points="382,-116 257,-116 257,-86 382,-86 382,-116"/>
<text text-anchor="start" x="265" y="-104" font-family="Helvetica,sans-Serif" font-size="10.00">TIM Peripheral Control</text>
<text text-anchor="middle" x="319.5" y="-93" font-family="Helvetica,sans-Serif" font-size="10.00"> functions</text>
</a>
</g>
</g>
<!-- Node1&#45;&gt;Node3 -->
<g id="edge2" class="edge">
<title>Node1&#45;&gt;Node3</title>
<path fill="none" stroke="black" d="M155.48,-182.73C174.67,-166.14 206.58,-140.66 238,-125 244.66,-121.68 251.86,-118.74 259.12,-116.14"/>
<polygon fill="black" stroke="black" points="153.04,-180.22 147.84,-189.46 157.66,-185.48 153.04,-180.22"/>
</g>
<!-- Node4 -->
<g id="node11" class="node">
<title>Node4</title>
<g id="a_node11"><a xlink:href="group__TIM__Exported__Functions__Group9.html" target="_top" xlink:title="TIM Callbacks functions.">
<polygon fill="white" stroke="black" points="386,-67.5 253,-67.5 253,-48.5 386,-48.5 386,-67.5"/>
<text text-anchor="middle" x="319.5" y="-55.5" font-family="Helvetica,sans-Serif" font-size="10.00">TIM Callbacks functions</text>
</a>
</g>
</g>
<!-- Node1&#45;&gt;Node4 -->
<g id="edge3" class="edge">
<title>Node1&#45;&gt;Node4</title>
<path fill="none" stroke="black" d="M147.52,-180.39C163.13,-153.25 195.88,-103.22 238,-77 244.22,-73.13 251.15,-70.05 258.27,-67.59"/>
<polygon fill="black" stroke="black" points="144.38,-178.83 142.56,-189.26 150.49,-182.24 144.38,-178.83"/>
</g>
<!-- Node5 -->
<g id="node12" class="node">
<title>Node5</title>
<g id="a_node12"><a xlink:href="group__TIM__Exported__Functions__Group10.html" target="_top" xlink:title="Peripheral State functions.">
<polygon fill="white" stroke="black" points="377.5,-30 261.5,-30 261.5,0 377.5,0 377.5,-30"/>
<text text-anchor="start" x="269.5" y="-18" font-family="Helvetica,sans-Serif" font-size="10.00">TIM Peripheral State</text>
<text text-anchor="middle" x="319.5" y="-7" font-family="Helvetica,sans-Serif" font-size="10.00"> functions</text>
</a>
</g>
</g>
<!-- Node1&#45;&gt;Node5 -->
<g id="edge4" class="edge">
<title>Node1&#45;&gt;Node5</title>
<path fill="none" stroke="black" d="M144.3,-179.83C157.22,-146.21 188.51,-76.61 238,-39 244.97,-33.71 253.09,-29.57 261.44,-26.35"/>
<polygon fill="black" stroke="black" points="140.95,-178.8 140.76,-189.4 147.52,-181.24 140.95,-178.8"/>
</g>
<!-- Node2 -->
<g id="node2" class="node">
<title>Node2</title>
<g id="a_node2"><a xlink:href="group__TIM.html" target="_top" xlink:title="TIM HAL module driver.">
<polygon fill="white" stroke="black" points="35,-208.5 0,-208.5 0,-189.5 35,-189.5 35,-208.5"/>
<text text-anchor="middle" x="17.5" y="-196.5" font-family="Helvetica,sans-Serif" font-size="10.00">TIM</text>
</a>
</g>
</g>
<!-- Node2&#45;&gt;Node1 -->
<g id="edge1" class="edge">
<title>Node2&#45;&gt;Node1</title>
<path fill="none" stroke="black" d="M45.17,-199C52.93,-199 61.76,-199 70.79,-199"/>
<polygon fill="black" stroke="black" points="45.02,-195.5 35.02,-199 45.02,-202.5 45.02,-195.5"/>
</g>
</g>
</svg>
