<?xml version="1.0" encoding="UTF-8" standalone="no"?>
<!DOCTYPE svg PUBLIC "-//W3C//DTD SVG 1.1//EN"
 "http://www.w3.org/Graphics/SVG/1.1/DTD/svg11.dtd">
<!-- Generated by graphviz version 2.43.0 (0)
 -->
<!-- Title: UTILS Exported Functions Pages: 1 -->
<svg width="440pt" height="101pt"
 viewBox="0.00 0.00 440.00 101.00" xmlns="http://www.w3.org/2000/svg" xmlns:xlink="http://www.w3.org/1999/xlink">
<g id="graph0" class="graph" transform="scale(1 1) rotate(0) translate(4 97)">
<title>UTILS Exported Functions</title>
<polygon fill="white" stroke="transparent" points="-4,4 -4,-97 436,-97 436,4 -4,4"/>
<!-- Node2 -->
<g id="node1" class="node">
<title>Node2</title>
<g id="a_node1"><a xlink:href="group__UTILS__LL.html" target="_top" xlink:title=" ">
<polygon fill="white" stroke="black" points="44,-56 0,-56 0,-37 44,-37 44,-56"/>
<text text-anchor="middle" x="22" y="-44" font-family="Helvetica,sans-Serif" font-size="10.00">UTILS</text>
</a>
</g>
</g>
<!-- Node1 -->
<g id="node4" class="node">
<title>Node1</title>
<g id="a_node4"><a xlink:title=" ">
<polygon fill="#bfbfbf" stroke="black" points="220,-56 80,-56 80,-37 220,-37 220,-56"/>
<text text-anchor="middle" x="150" y="-44" font-family="Helvetica,sans-Serif" font-size="10.00">UTILS Exported Functions</text>
</a>
</g>
</g>
<!-- Node2&#45;&gt;Node1 -->
<g id="edge1" class="edge">
<title>Node2&#45;&gt;Node1</title>
<path fill="none" stroke="black" d="M54.25,-46.5C62.16,-46.5 70.97,-46.5 79.95,-46.5"/>
<polygon fill="black" stroke="black" points="54.09,-43 44.09,-46.5 54.09,-50 54.09,-43"/>
</g>
<!-- Node5 -->
<g id="node2" class="node">
<title>Node5</title>
<g id="a_node2"><a xlink:href="group__UTILS__EF__SYSTEM.html" target="_top" xlink:title="System Configuration functions.">
<polygon fill="white" stroke="black" points="372,-93 316,-93 316,-74 372,-74 372,-93"/>
<text text-anchor="middle" x="344" y="-81" font-family="Helvetica,sans-Serif" font-size="10.00">SYSTEM</text>
</a>
</g>
</g>
<!-- Node4 -->
<g id="node3" class="node">
<title>Node4</title>
<g id="a_node3"><a xlink:href="group__UTILS__LL__EF__DELAY.html" target="_top" xlink:title=" ">
<polygon fill="white" stroke="black" points="368,-56 320,-56 320,-37 368,-37 368,-56"/>
<text text-anchor="middle" x="344" y="-44" font-family="Helvetica,sans-Serif" font-size="10.00">DELAY</text>
</a>
</g>
</g>
<!-- Node1&#45;&gt;Node5 -->
<g id="edge4" class="edge">
<title>Node1&#45;&gt;Node5</title>
<path fill="none" stroke="black" d="M210.63,-57.99C245.84,-64.78 288.71,-73.04 315.94,-78.28"/>
<polygon fill="black" stroke="black" points="210.93,-54.48 200.44,-56.03 209.6,-61.36 210.93,-54.48"/>
</g>
<!-- Node1&#45;&gt;Node4 -->
<g id="edge3" class="edge">
<title>Node1&#45;&gt;Node4</title>
<path fill="none" stroke="black" d="M230.44,-46.5C262.81,-46.5 297.76,-46.5 319.99,-46.5"/>
<polygon fill="black" stroke="black" points="230.05,-43 220.05,-46.5 230.05,-50 230.05,-43"/>
</g>
<!-- Node3 -->
<g id="node5" class="node">
<title>Node3</title>
<g id="a_node5"><a xlink:href="group__UTILS__EF__DEVICE__ELECTRONIC__SIGNATURE.html" target="_top" xlink:title=" ">
<polygon fill="white" stroke="black" points="432,-19 256,-19 256,0 432,0 432,-19"/>
<text text-anchor="middle" x="344" y="-7" font-family="Helvetica,sans-Serif" font-size="10.00">DEVICE ELECTRONIC SIGNATURE</text>
</a>
</g>
</g>
<!-- Node1&#45;&gt;Node3 -->
<g id="edge2" class="edge">
<title>Node1&#45;&gt;Node3</title>
<path fill="none" stroke="black" d="M210.41,-35.05C237.02,-29.92 268.04,-23.94 293.39,-19.06"/>
<polygon fill="black" stroke="black" points="209.6,-31.64 200.44,-36.97 210.93,-38.52 209.6,-31.64"/>
</g>
</g>
</svg>
