<?xml version="1.0" encoding="UTF-8" standalone="no"?>
<!DOCTYPE svg PUBLIC "-//W3C//DTD SVG 1.1//EN"
 "http://www.w3.org/Graphics/SVG/1.1/DTD/svg11.dtd">
<!-- Generated by graphviz version 2.43.0 (0)
 -->
<!-- Title: UTILS Pages: 1 -->
<svg width="392pt" height="212pt"
 viewBox="0.00 0.00 392.00 212.00" xmlns="http://www.w3.org/2000/svg" xmlns:xlink="http://www.w3.org/1999/xlink">
<g id="graph0" class="graph" transform="scale(1 1) rotate(0) translate(4 208)">
<title>UTILS</title>
<polygon fill="white" stroke="transparent" points="-4,4 -4,-208 388,-208 388,4 -4,4"/>
<!-- Node1 -->
<g id="node1" class="node">
<title>Node1</title>
<g id="a_node1"><a xlink:title=" ">
<polygon fill="#bfbfbf" stroke="black" points="205,-111 161,-111 161,-92 205,-92 205,-111"/>
<text text-anchor="middle" x="183" y="-99" font-family="Helvetica,sans-Serif" font-size="10.00">UTILS</text>
</a>
</g>
</g>
<!-- Node6 -->
<g id="node2" class="node">
<title>Node6</title>
<g id="a_node2"><a xlink:href="group__UTILS__LL__Exported__Constants.html" target="_top" xlink:title=" ">
<polygon fill="white" stroke="black" points="384,-204 241,-204 241,-185 384,-185 384,-204"/>
<text text-anchor="middle" x="312.5" y="-192" font-family="Helvetica,sans-Serif" font-size="10.00">UTILS Exported Constants</text>
</a>
</g>
</g>
<!-- Node1&#45;&gt;Node6 -->
<g id="edge5" class="edge">
<title>Node1&#45;&gt;Node6</title>
<path fill="none" stroke="black" d="M193.5,-120.33C203.15,-137.53 219.69,-162.37 241,-176.5 246.16,-179.92 251.93,-182.69 257.88,-184.93"/>
<polygon fill="black" stroke="black" points="196.44,-118.39 188.64,-111.23 190.26,-121.69 196.44,-118.39"/>
</g>
<!-- Node8 -->
<g id="node3" class="node">
<title>Node8</title>
<g id="a_node3"><a xlink:href="group__UTILS__LL__Private__Functions.html" target="_top" xlink:title=" ">
<polygon fill="white" stroke="black" points="377.5,-167 247.5,-167 247.5,-148 377.5,-148 377.5,-167"/>
<text text-anchor="middle" x="312.5" y="-155" font-family="Helvetica,sans-Serif" font-size="10.00">UTILS Private functions</text>
</a>
</g>
</g>
<!-- Node1&#45;&gt;Node8 -->
<g id="edge7" class="edge">
<title>Node1&#45;&gt;Node8</title>
<path fill="none" stroke="black" d="M204.05,-117.3C214.55,-124.94 227.93,-133.68 241,-139.5 248.5,-142.84 256.74,-145.65 264.85,-147.97"/>
<polygon fill="black" stroke="black" points="206.07,-114.44 195.97,-111.24 201.87,-120.04 206.07,-114.44"/>
</g>
<!-- Node7 -->
<g id="node4" class="node">
<title>Node7</title>
<g id="a_node4"><a xlink:href="group__UTILS__LL__Exported__Functions.html" target="_top" xlink:title=" ">
<polygon fill="white" stroke="black" points="382.5,-130 242.5,-130 242.5,-111 382.5,-111 382.5,-130"/>
<text text-anchor="middle" x="312.5" y="-118" font-family="Helvetica,sans-Serif" font-size="10.00">UTILS Exported Functions</text>
</a>
</g>
</g>
<!-- Node1&#45;&gt;Node7 -->
<g id="edge6" class="edge">
<title>Node1&#45;&gt;Node7</title>
<path fill="none" stroke="black" d="M215.16,-106.14C225.06,-107.62 236.4,-109.31 247.73,-111"/>
<polygon fill="black" stroke="black" points="215.46,-102.65 205.05,-104.64 214.43,-109.57 215.46,-102.65"/>
</g>
<!-- Node3 -->
<g id="node6" class="node">
<title>Node3</title>
<g id="a_node6"><a xlink:href="group__UTILS__LL__Private__Constants.html" target="_top" xlink:title=" ">
<polygon fill="white" stroke="black" points="379.5,-93 245.5,-93 245.5,-74 379.5,-74 379.5,-93"/>
<text text-anchor="middle" x="312.5" y="-81" font-family="Helvetica,sans-Serif" font-size="10.00">UTILS Private Constants</text>
</a>
</g>
</g>
<!-- Node1&#45;&gt;Node3 -->
<g id="edge2" class="edge">
<title>Node1&#45;&gt;Node3</title>
<path fill="none" stroke="black" d="M215.18,-97.1C224.35,-95.8 234.75,-94.34 245.24,-92.86"/>
<polygon fill="black" stroke="black" points="214.47,-93.66 205.05,-98.53 215.45,-100.6 214.47,-93.66"/>
</g>
<!-- Node4 -->
<g id="node7" class="node">
<title>Node4</title>
<g id="a_node7"><a xlink:href="group__UTILS__LL__Private__Macros.html" target="_top" xlink:title=" ">
<polygon fill="white" stroke="black" points="372.5,-56 252.5,-56 252.5,-37 372.5,-37 372.5,-56"/>
<text text-anchor="middle" x="312.5" y="-44" font-family="Helvetica,sans-Serif" font-size="10.00">UTILS Private Macros</text>
</a>
</g>
</g>
<!-- Node1&#45;&gt;Node4 -->
<g id="edge3" class="edge">
<title>Node1&#45;&gt;Node4</title>
<path fill="none" stroke="black" d="M204.83,-85.62C215.24,-78.32 228.3,-70.07 241,-64.5 248.52,-61.21 256.77,-58.42 264.89,-56.11"/>
<polygon fill="black" stroke="black" points="202.49,-83 196.45,-91.7 206.6,-88.67 202.49,-83"/>
</g>
<!-- Node5 -->
<g id="node8" class="node">
<title>Node5</title>
<g id="a_node8"><a xlink:href="group__UTILS__LL__ES__INIT.html" target="_top" xlink:title=" ">
<polygon fill="white" stroke="black" points="384,-19 241,-19 241,0 384,0 384,-19"/>
<text text-anchor="middle" x="312.5" y="-7" font-family="Helvetica,sans-Serif" font-size="10.00">UTILS Exported structures</text>
</a>
</g>
</g>
<!-- Node1&#45;&gt;Node5 -->
<g id="edge4" class="edge">
<title>Node1&#45;&gt;Node5</title>
<path fill="none" stroke="black" d="M193.57,-82.92C203.26,-65.95 219.83,-41.44 241,-27.5 246.17,-24.1 251.94,-21.34 257.9,-19.1"/>
<polygon fill="black" stroke="black" points="190.38,-81.45 188.67,-91.9 196.53,-84.8 190.38,-81.45"/>
</g>
<!-- Node2 -->
<g id="node5" class="node">
<title>Node2</title>
<g id="a_node5"><a xlink:href="group__STM32F4xx__LL__Driver.html" target="_top" xlink:title=" ">
<polygon fill="white" stroke="black" points="125,-111 0,-111 0,-92 125,-92 125,-111"/>
<text text-anchor="middle" x="62.5" y="-99" font-family="Helvetica,sans-Serif" font-size="10.00">STM32F4xx_LL_Driver</text>
</a>
</g>
</g>
<!-- Node2&#45;&gt;Node1 -->
<g id="edge1" class="edge">
<title>Node2&#45;&gt;Node1</title>
<path fill="none" stroke="black" d="M135.32,-101.5C144.55,-101.5 153.36,-101.5 160.78,-101.5"/>
<polygon fill="black" stroke="black" points="135.18,-98 125.18,-101.5 135.18,-105 135.18,-98"/>
</g>
</g>
</svg>
