<?xml version="1.0" encoding="UTF-8" standalone="no"?>
<!DOCTYPE svg PUBLIC "-//W3C//DTD SVG 1.1//EN"
 "http://www.w3.org/Graphics/SVG/1.1/DTD/svg11.dtd">
<!-- Generated by graphviz version 2.43.0 (0)
 -->
<!-- Title: DMAEx Exported Functions Pages: 1 -->
<svg width="434pt" height="27pt"
 viewBox="0.00 0.00 434.00 27.00" xmlns="http://www.w3.org/2000/svg" xmlns:xlink="http://www.w3.org/1999/xlink">
<g id="graph0" class="graph" transform="scale(1 1) rotate(0) translate(4 23)">
<title>DMAEx Exported Functions</title>
<polygon fill="white" stroke="transparent" points="-4,4 -4,-23 430,-23 430,4 -4,4"/>
<!-- Node1 -->
<g id="node1" class="node">
<title>Node1</title>
<g id="a_node1"><a xlink:title="DMAEx Exported functions.">
<polygon fill="#bfbfbf" stroke="black" points="236,-19 88,-19 88,0 236,0 236,-19"/>
<text text-anchor="middle" x="162" y="-7" font-family="Helvetica,sans-Serif" font-size="10.00">DMAEx Exported Functions</text>
</a>
</g>
</g>
<!-- Node3 -->
<g id="node2" class="node">
<title>Node3</title>
<g id="a_node2"><a xlink:href="group__DMAEx__Exported__Functions__Group1.html" target="_top" xlink:title="Extended features functions.">
<polygon fill="white" stroke="black" points="426,-19 272,-19 272,0 426,0 426,-19"/>
<text text-anchor="middle" x="349" y="-7" font-family="Helvetica,sans-Serif" font-size="10.00">Extended features functions</text>
</a>
</g>
</g>
<!-- Node1&#45;&gt;Node3 -->
<g id="edge2" class="edge">
<title>Node1&#45;&gt;Node3</title>
<path fill="none" stroke="black" d="M246.37,-9.5C254.83,-9.5 263.39,-9.5 271.77,-9.5"/>
<polygon fill="black" stroke="black" points="246.12,-6 236.12,-9.5 246.12,-13 246.12,-6"/>
</g>
<!-- Node2 -->
<g id="node3" class="node">
<title>Node2</title>
<g id="a_node3"><a xlink:href="group__DMAEx.html" target="_top" xlink:title="DMA Extended HAL module driver.">
<polygon fill="white" stroke="black" points="52,-19 0,-19 0,0 52,0 52,-19"/>
<text text-anchor="middle" x="26" y="-7" font-family="Helvetica,sans-Serif" font-size="10.00">DMAEx</text>
</a>
</g>
</g>
<!-- Node2&#45;&gt;Node1 -->
<g id="edge1" class="edge">
<title>Node2&#45;&gt;Node1</title>
<path fill="none" stroke="black" d="M62.46,-9.5C70.36,-9.5 79.03,-9.5 87.84,-9.5"/>
<polygon fill="black" stroke="black" points="62.2,-6 52.2,-9.5 62.2,-13 62.2,-6"/>
</g>
</g>
</svg>
