<?xml version="1.0" encoding="UTF-8" standalone="no"?>
<!DOCTYPE svg PUBLIC "-//W3C//DTD SVG 1.1//EN"
 "http://www.w3.org/Graphics/SVG/1.1/DTD/svg11.dtd">
<!-- Generated by graphviz version 2.43.0 (0)
 -->
<!-- Title: RCCEx Pages: 1 -->
<svg width="412pt" height="212pt"
 viewBox="0.00 0.00 412.00 212.00" xmlns="http://www.w3.org/2000/svg" xmlns:xlink="http://www.w3.org/1999/xlink">
<g id="graph0" class="graph" transform="scale(1 1) rotate(0) translate(4 208)">
<title>RCCEx</title>
<polygon fill="white" stroke="transparent" points="-4,4 -4,-208 408,-208 408,4 -4,4"/>
<!-- Node5 -->
<g id="node1" class="node">
<title>Node5</title>
<g id="a_node1"><a xlink:href="group__RCCEx__Exported__Macros.html" target="_top" xlink:title=" ">
<polygon fill="white" stroke="black" points="396.5,-204 262.5,-204 262.5,-185 396.5,-185 396.5,-204"/>
<text text-anchor="middle" x="329.5" y="-192" font-family="Helvetica,sans-Serif" font-size="10.00">RCCEx Exported Macros</text>
</a>
</g>
</g>
<!-- Node1 -->
<g id="node2" class="node">
<title>Node1</title>
<g id="a_node2"><a xlink:title="RCCEx HAL module driver.">
<polygon fill="#bfbfbf" stroke="black" points="219,-111 170,-111 170,-92 219,-92 219,-111"/>
<text text-anchor="middle" x="194.5" y="-99" font-family="Helvetica,sans-Serif" font-size="10.00">RCCEx</text>
</a>
</g>
</g>
<!-- Node1&#45;&gt;Node5 -->
<g id="edge4" class="edge">
<title>Node1&#45;&gt;Node5</title>
<path fill="none" stroke="black" d="M205.59,-120.38C215.78,-137.61 233.13,-162.48 255,-176.5 260.31,-179.9 266.21,-182.66 272.3,-184.9"/>
<polygon fill="black" stroke="black" points="208.4,-118.24 200.44,-111.25 202.31,-121.68 208.4,-118.24"/>
</g>
<!-- Node8 -->
<g id="node3" class="node">
<title>Node8</title>
<g id="a_node3"><a xlink:href="group__RCCEx__Exported__Functions.html" target="_top" xlink:title=" ">
<polygon fill="white" stroke="black" points="404,-167 255,-167 255,-148 404,-148 404,-167"/>
<text text-anchor="middle" x="329.5" y="-155" font-family="Helvetica,sans-Serif" font-size="10.00">RCCEx_Exported_Functions</text>
</a>
</g>
</g>
<!-- Node1&#45;&gt;Node8 -->
<g id="edge7" class="edge">
<title>Node1&#45;&gt;Node8</title>
<path fill="none" stroke="black" d="M216.17,-117.09C227.21,-124.78 241.31,-133.64 255,-139.5 262.73,-142.81 271.19,-145.59 279.53,-147.89"/>
<polygon fill="black" stroke="black" points="218.21,-114.25 208.05,-111.25 214.12,-119.93 218.21,-114.25"/>
</g>
<!-- Node3 -->
<g id="node4" class="node">
<title>Node3</title>
<g id="a_node4"><a xlink:href="group__RCCEx__Exported__Types.html" target="_top" xlink:title=" ">
<polygon fill="white" stroke="black" points="392.5,-130 266.5,-130 266.5,-111 392.5,-111 392.5,-130"/>
<text text-anchor="middle" x="329.5" y="-118" font-family="Helvetica,sans-Serif" font-size="10.00">RCCEx Exported Types</text>
</a>
</g>
</g>
<!-- Node1&#45;&gt;Node3 -->
<g id="edge2" class="edge">
<title>Node1&#45;&gt;Node3</title>
<path fill="none" stroke="black" d="M229.51,-106.36C240.78,-107.97 253.7,-109.81 266.4,-111.63"/>
<polygon fill="black" stroke="black" points="229.67,-102.85 219.28,-104.9 228.68,-109.78 229.67,-102.85"/>
</g>
<!-- Node7 -->
<g id="node6" class="node">
<title>Node7</title>
<g id="a_node6"><a xlink:href="group__RCCEx__Private__Macros.html" target="_top" xlink:title=" ">
<polygon fill="white" stroke="black" points="392,-93 267,-93 267,-74 392,-74 392,-93"/>
<text text-anchor="middle" x="329.5" y="-81" font-family="Helvetica,sans-Serif" font-size="10.00">RCCEx Private Macros</text>
</a>
</g>
</g>
<!-- Node1&#45;&gt;Node7 -->
<g id="edge6" class="edge">
<title>Node1&#45;&gt;Node7</title>
<path fill="none" stroke="black" d="M229.28,-96.93C240.77,-95.37 254,-93.58 266.97,-91.83"/>
<polygon fill="black" stroke="black" points="228.72,-93.47 219.28,-98.28 229.66,-100.41 228.72,-93.47"/>
</g>
<!-- Node6 -->
<g id="node7" class="node">
<title>Node6</title>
<g id="a_node7"><a xlink:href="group__RCCEx__Private__Constants.html" target="_top" xlink:title=" ">
<polygon fill="white" stroke="black" points="398.5,-56 260.5,-56 260.5,-37 398.5,-37 398.5,-56"/>
<text text-anchor="middle" x="329.5" y="-44" font-family="Helvetica,sans-Serif" font-size="10.00">RCCEx Private Constants</text>
</a>
</g>
</g>
<!-- Node1&#45;&gt;Node6 -->
<g id="edge5" class="edge">
<title>Node1&#45;&gt;Node6</title>
<path fill="none" stroke="black" d="M216.99,-85.83C227.92,-78.47 241.69,-70.1 255,-64.5 262.87,-61.19 271.48,-58.4 279.95,-56.08"/>
<polygon fill="black" stroke="black" points="214.76,-83.11 208.54,-91.69 218.75,-88.86 214.76,-83.11"/>
</g>
<!-- Node4 -->
<g id="node8" class="node">
<title>Node4</title>
<g id="a_node8"><a xlink:href="group__RCCEx__Exported__Constants.html" target="_top" xlink:title=" ">
<polygon fill="white" stroke="black" points="403,-19 256,-19 256,0 403,0 403,-19"/>
<text text-anchor="middle" x="329.5" y="-7" font-family="Helvetica,sans-Serif" font-size="10.00">RCCEx Exported Constants</text>
</a>
</g>
</g>
<!-- Node1&#45;&gt;Node4 -->
<g id="edge3" class="edge">
<title>Node1&#45;&gt;Node4</title>
<path fill="none" stroke="black" d="M205.65,-82.87C215.89,-65.87 233.26,-41.34 255,-27.5 260.32,-24.11 266.23,-21.36 272.32,-19.13"/>
<polygon fill="black" stroke="black" points="202.42,-81.46 200.47,-91.88 208.49,-84.96 202.42,-81.46"/>
</g>
<!-- Node2 -->
<g id="node5" class="node">
<title>Node2</title>
<g id="a_node5"><a xlink:href="group__STM32F4xx__HAL__Driver.html" target="_top" xlink:title=" ">
<polygon fill="white" stroke="black" points="134,-111 0,-111 0,-92 134,-92 134,-111"/>
<text text-anchor="middle" x="67" y="-99" font-family="Helvetica,sans-Serif" font-size="10.00">STM32F4xx_HAL_Driver</text>
</a>
</g>
</g>
<!-- Node2&#45;&gt;Node1 -->
<g id="edge1" class="edge">
<title>Node2&#45;&gt;Node1</title>
<path fill="none" stroke="black" d="M144.24,-101.5C153.5,-101.5 162.36,-101.5 169.94,-101.5"/>
<polygon fill="black" stroke="black" points="144.06,-98 134.06,-101.5 144.06,-105 144.06,-98"/>
</g>
</g>
</svg>
