<?xml version="1.0" encoding="UTF-8" standalone="no"?>
<!DOCTYPE svg PUBLIC "-//W3C//DTD SVG 1.1//EN"
 "http://www.w3.org/Graphics/SVG/1.1/DTD/svg11.dtd">
<!-- Generated by graphviz version 2.43.0 (0)
 -->
<!-- Title: FLASH Exported Constants Pages: 1 -->
<svg width="426pt" height="212pt"
 viewBox="0.00 0.00 426.00 212.00" xmlns="http://www.w3.org/2000/svg" xmlns:xlink="http://www.w3.org/1999/xlink">
<g id="graph0" class="graph" transform="scale(1 1) rotate(0) translate(4 208)">
<title>FLASH Exported Constants</title>
<polygon fill="white" stroke="transparent" points="-4,4 -4,-208 422,-208 422,4 -4,4"/>
<!-- Node6 -->
<g id="node1" class="node">
<title>Node6</title>
<g id="a_node1"><a xlink:href="group__FLASH__Interrupt__definition.html" target="_top" xlink:title="FLASH Interrupt definition.">
<polygon fill="white" stroke="black" points="414.5,-204 271.5,-204 271.5,-185 414.5,-185 414.5,-204"/>
<text text-anchor="middle" x="343" y="-192" font-family="Helvetica,sans-Serif" font-size="10.00">FLASH Interrupt definition</text>
</a>
</g>
</g>
<!-- Node4 -->
<g id="node2" class="node">
<title>Node4</title>
<g id="a_node2"><a xlink:href="group__FLASH__Type__Program.html" target="_top" xlink:title=" ">
<polygon fill="white" stroke="black" points="402.5,-167 283.5,-167 283.5,-148 402.5,-148 402.5,-167"/>
<text text-anchor="middle" x="343" y="-155" font-family="Helvetica,sans-Serif" font-size="10.00">FLASH Type Program</text>
</a>
</g>
</g>
<!-- Node3 -->
<g id="node3" class="node">
<title>Node3</title>
<g id="a_node3"><a xlink:href="group__FLASH__Error__Code.html" target="_top" xlink:title="FLASH Error Code.">
<polygon fill="white" stroke="black" points="394.5,-130 291.5,-130 291.5,-111 394.5,-111 394.5,-130"/>
<text text-anchor="middle" x="343" y="-118" font-family="Helvetica,sans-Serif" font-size="10.00">FLASH Error Code</text>
</a>
</g>
</g>
<!-- Node8 -->
<g id="node4" class="node">
<title>Node8</title>
<g id="a_node4"><a xlink:href="group__FLASH__Keys.html" target="_top" xlink:title=" ">
<polygon fill="white" stroke="black" points="380.5,-93 305.5,-93 305.5,-74 380.5,-74 380.5,-93"/>
<text text-anchor="middle" x="343" y="-81" font-family="Helvetica,sans-Serif" font-size="10.00">FLASH Keys</text>
</a>
</g>
</g>
<!-- Node7 -->
<g id="node5" class="node">
<title>Node7</title>
<g id="a_node5"><a xlink:href="group__FLASH__Program__Parallelism.html" target="_top" xlink:title=" ">
<polygon fill="white" stroke="black" points="418,-56 268,-56 268,-37 418,-37 418,-56"/>
<text text-anchor="middle" x="343" y="-44" font-family="Helvetica,sans-Serif" font-size="10.00">FLASH Program Parallelism</text>
</a>
</g>
</g>
<!-- Node1 -->
<g id="node6" class="node">
<title>Node1</title>
<g id="a_node6"><a xlink:title=" ">
<polygon fill="#bfbfbf" stroke="black" points="232,-111 85,-111 85,-92 232,-92 232,-111"/>
<text text-anchor="middle" x="158.5" y="-99" font-family="Helvetica,sans-Serif" font-size="10.00">FLASH Exported Constants</text>
</a>
</g>
</g>
<!-- Node1&#45;&gt;Node6 -->
<g id="edge5" class="edge">
<title>Node1&#45;&gt;Node6</title>
<path fill="none" stroke="black" d="M178.06,-117.53C198.69,-134.56 233.66,-161.09 268,-176.5 275.48,-179.86 283.68,-182.64 291.8,-184.94"/>
<polygon fill="black" stroke="black" points="180.29,-114.84 170.38,-111.09 175.79,-120.2 180.29,-114.84"/>
</g>
<!-- Node1&#45;&gt;Node4 -->
<g id="edge3" class="edge">
<title>Node1&#45;&gt;Node4</title>
<path fill="none" stroke="black" d="M194.22,-114.64C215.38,-122.4 243.05,-132.12 268,-139.5 278.14,-142.5 289.17,-145.39 299.54,-147.93"/>
<polygon fill="black" stroke="black" points="195.29,-111.3 184.7,-111.12 192.87,-117.87 195.29,-111.3"/>
</g>
<!-- Node1&#45;&gt;Node3 -->
<g id="edge2" class="edge">
<title>Node1&#45;&gt;Node3</title>
<path fill="none" stroke="black" d="M242.49,-110.14C259.21,-111.88 276.3,-113.66 291.49,-115.24"/>
<polygon fill="black" stroke="black" points="242.46,-106.62 232.15,-109.06 241.74,-113.58 242.46,-106.62"/>
</g>
<!-- Node1&#45;&gt;Node8 -->
<g id="edge7" class="edge">
<title>Node1&#45;&gt;Node8</title>
<path fill="none" stroke="black" d="M242.22,-93.34C264.27,-91.17 286.99,-88.93 305.17,-87.13"/>
<polygon fill="black" stroke="black" points="241.76,-89.87 232.15,-94.33 242.45,-96.84 241.76,-89.87"/>
</g>
<!-- Node1&#45;&gt;Node7 -->
<g id="edge6" class="edge">
<title>Node1&#45;&gt;Node7</title>
<path fill="none" stroke="black" d="M195.1,-88.46C216.15,-80.97 243.42,-71.66 268,-64.5 278.28,-61.5 289.47,-58.6 299.95,-56.03"/>
<polygon fill="black" stroke="black" points="193.83,-85.19 185.6,-91.86 196.19,-91.78 193.83,-85.19"/>
</g>
<!-- Node5 -->
<g id="node7" class="node">
<title>Node5</title>
<g id="a_node7"><a xlink:href="group__FLASH__Flag__definition.html" target="_top" xlink:title="Flag definition.">
<polygon fill="white" stroke="black" points="404,-19 282,-19 282,0 404,0 404,-19"/>
<text text-anchor="middle" x="343" y="-7" font-family="Helvetica,sans-Serif" font-size="10.00">FLASH Flag definition</text>
</a>
</g>
</g>
<!-- Node1&#45;&gt;Node5 -->
<g id="edge4" class="edge">
<title>Node1&#45;&gt;Node5</title>
<path fill="none" stroke="black" d="M178.43,-85.43C199.14,-68.63 233.94,-42.65 268,-27.5 275.49,-24.17 283.69,-21.39 291.82,-19.1"/>
<polygon fill="black" stroke="black" points="176.2,-82.73 170.71,-91.79 180.65,-88.13 176.2,-82.73"/>
</g>
<!-- Node2 -->
<g id="node8" class="node">
<title>Node2</title>
<g id="a_node8"><a xlink:href="group__FLASH.html" target="_top" xlink:title="FLASH HAL module driver.">
<polygon fill="white" stroke="black" points="49,-111 0,-111 0,-92 49,-92 49,-111"/>
<text text-anchor="middle" x="24.5" y="-99" font-family="Helvetica,sans-Serif" font-size="10.00">FLASH</text>
</a>
</g>
</g>
<!-- Node2&#45;&gt;Node1 -->
<g id="edge1" class="edge">
<title>Node2&#45;&gt;Node1</title>
<path fill="none" stroke="black" d="M59.32,-101.5C67.24,-101.5 75.97,-101.5 84.86,-101.5"/>
<polygon fill="black" stroke="black" points="59.1,-98 49.1,-101.5 59.1,-105 59.1,-98"/>
</g>
</g>
</svg>
