<?xml version="1.0" encoding="UTF-8" standalone="no"?>
<!DOCTYPE svg PUBLIC "-//W3C//DTD SVG 1.1//EN"
 "http://www.w3.org/Graphics/SVG/1.1/DTD/svg11.dtd">
<!-- Generated by graphviz version 2.43.0 (0)
 -->
<!-- Title: STM32F4xx_HAL_Driver Pages: 1 -->
<!--zoomable 2049 -->
<svg id="main" version="1.1" xmlns="http://www.w3.org/2000/svg" xmlns:xlink="http://www.w3.org/1999/xlink" xml:space="preserve" onload="init(evt)">
<style type="text/css"><![CDATA[
.edge:hover path { stroke: red; }
.edge:hover polygon { stroke: red; fill: red; }
]]></style>
<script type="text/javascript"><![CDATA[
var edges = document.getElementsByTagName('g');
if (edges && edges.length) {
  for (var i=0;i<edges.length;i++) {
    if (edges[i].id.substr(0,4)=='edge') {
      edges[i].setAttribute('class','edge');
    }
  }
}
]]></script>
        <defs>
                <circle id="rim" cx="0" cy="0" r="7"/>
                <circle id="rim2" cx="0" cy="0" r="3.5"/>
                <g id="zoomPlus">
                        <use xlink:href="#rim" fill="#404040">
                                <set attributeName="fill" to="#808080" begin="zoomplus.mouseover" end="zoomplus.mouseout"/>
                        </use>
                        <path d="M-4,0h8M0,-4v8" fill="none" stroke="white" stroke-width="1.5" pointer-events="none"/>
                </g>
                <g id="zoomMin">
                        <use xlink:href="#rim" fill="#404040">
                                <set attributeName="fill" to="#808080" begin="zoomminus.mouseover" end="zoomminus.mouseout"/>
                        </use>
                        <path d="M-4,0h8" fill="none" stroke="white" stroke-width="1.5" pointer-events="none"/>
                </g>
                <g id="dirArrow">
                        <path fill="none" stroke="white" stroke-width="1.5" d="M0,-3.0v7 M-2.5,-0.5L0,-3.0L2.5,-0.5"/>
                </g>
               <g id="resetDef">
                       <use xlink:href="#rim2" fill="#404040">
                               <set attributeName="fill" to="#808080" begin="reset.mouseover" end="reset.mouseout"/>
                       </use>
               </g>
        </defs>

<script type="text/javascript">
var viewWidth = 330;
var viewHeight = 2049;
var sectionId = 'dynsection-0';
</script>
<script xlink:href="svgpan.js"/>
<svg id="graph" class="graph">
<g id="viewport">
<title>STM32F4xx_HAL_Driver</title>
<polygon fill="white" stroke="transparent" points="-4,4 -4,-2045 326,-2045 326,4 -4,4"/>
<!-- Node20 -->
<g id="node1" class="node">
<title>Node20</title>
<g id="a_node1"><a xlink:href="group__FMPI2C.html" target="_top" xlink:title="FMPI2C HAL module driver.">
<polygon fill="white" stroke="black" points="272.5,-2041 219.5,-2041 219.5,-2022 272.5,-2022 272.5,-2041"/>
<text text-anchor="middle" x="246" y="-2029" font-family="Helvetica,sans-Serif" font-size="10.00">FMPI2C</text>
</a>
</g>
</g>
<!-- Node46 -->
<g id="node2" class="node">
<title>Node46</title>
<g id="a_node2"><a xlink:href="group__TIMEx.html" target="_top" xlink:title="TIM Extended HAL module driver.">
<polygon fill="white" stroke="black" points="269.5,-2004 222.5,-2004 222.5,-1985 269.5,-1985 269.5,-2004"/>
<text text-anchor="middle" x="246" y="-1992" font-family="Helvetica,sans-Serif" font-size="10.00">TIMEx</text>
</a>
</g>
</g>
<!-- Node23 -->
<g id="node3" class="node">
<title>Node23</title>
<g id="a_node3"><a xlink:href="group__FMPSMBUSEx.html" target="_top" xlink:title="FMPSMBUS Extended HAL module driver.">
<polygon fill="white" stroke="black" points="288.5,-1967 203.5,-1967 203.5,-1948 288.5,-1948 288.5,-1967"/>
<text text-anchor="middle" x="246" y="-1955" font-family="Helvetica,sans-Serif" font-size="10.00">FMPSMBUSEx</text>
</a>
</g>
</g>
<!-- Node9 -->
<g id="node4" class="node">
<title>Node9</title>
<g id="a_node4"><a xlink:href="group__ADCEx.html" target="_top" xlink:title="ADC Extended driver modules.">
<polygon fill="white" stroke="black" points="271,-1930 221,-1930 221,-1911 271,-1911 271,-1930"/>
<text text-anchor="middle" x="246" y="-1918" font-family="Helvetica,sans-Serif" font-size="10.00">ADCEx</text>
</a>
</g>
</g>
<!-- Node19 -->
<g id="node5" class="node">
<title>Node19</title>
<g id="a_node5"><a xlink:href="group__FLASH__RAMFUNC.html" target="_top" xlink:title="FLASH functions executed from RAM.">
<polygon fill="white" stroke="black" points="297,-1893 195,-1893 195,-1874 297,-1874 297,-1893"/>
<text text-anchor="middle" x="246" y="-1881" font-family="Helvetica,sans-Serif" font-size="10.00">FLASH RAMFUNC</text>
</a>
</g>
</g>
<!-- Node10 -->
<g id="node6" class="node">
<title>Node10</title>
<g id="a_node6"><a xlink:href="group__CEC.html" target="_top" xlink:title="HAL CEC module driver.">
<polygon fill="white" stroke="black" points="264,-1856 228,-1856 228,-1837 264,-1837 264,-1856"/>
<text text-anchor="middle" x="246" y="-1844" font-family="Helvetica,sans-Serif" font-size="10.00">CEC</text>
</a>
</g>
</g>
<!-- Node39 -->
<g id="node7" class="node">
<title>Node39</title>
<g id="a_node7"><a xlink:href="group__SAI.html" target="_top" xlink:title="SAI HAL module driver.">
<polygon fill="white" stroke="black" points="262.5,-1819 229.5,-1819 229.5,-1800 262.5,-1800 262.5,-1819"/>
<text text-anchor="middle" x="246" y="-1807" font-family="Helvetica,sans-Serif" font-size="10.00">SAI</text>
</a>
</g>
</g>
<!-- Node5 -->
<g id="node8" class="node">
<title>Node5</title>
<g id="a_node8"><a xlink:href="group__FMC__LL__Private__Macros.html" target="_top" xlink:title=" ">
<polygon fill="white" stroke="black" points="312.5,-1782 179.5,-1782 179.5,-1763 312.5,-1763 312.5,-1782"/>
<text text-anchor="middle" x="246" y="-1770" font-family="Helvetica,sans-Serif" font-size="10.00">FMC_LL &#160;Private Macros</text>
</a>
</g>
</g>
<!-- Node37 -->
<g id="node9" class="node">
<title>Node37</title>
<g id="a_node9"><a xlink:href="group__RTC.html" target="_top" xlink:title="RTC HAL module driver.">
<polygon fill="white" stroke="black" points="263.5,-1745 228.5,-1745 228.5,-1726 263.5,-1726 263.5,-1745"/>
<text text-anchor="middle" x="246" y="-1733" font-family="Helvetica,sans-Serif" font-size="10.00">RTC</text>
</a>
</g>
</g>
<!-- Node36 -->
<g id="node10" class="node">
<title>Node36</title>
<g id="a_node10"><a xlink:href="group__RCCEx.html" target="_top" xlink:title="RCCEx HAL module driver.">
<polygon fill="white" stroke="black" points="270.5,-1708 221.5,-1708 221.5,-1689 270.5,-1689 270.5,-1708"/>
<text text-anchor="middle" x="246" y="-1696" font-family="Helvetica,sans-Serif" font-size="10.00">RCCEx</text>
</a>
</g>
</g>
<!-- Node14 -->
<g id="node11" class="node">
<title>Node14</title>
<g id="a_node11"><a xlink:href="group__DCMIEx.html" target="_top" xlink:title="DCMI Extended HAL module driver.">
<polygon fill="white" stroke="black" points="273.5,-1671 218.5,-1671 218.5,-1652 273.5,-1652 273.5,-1671"/>
<text text-anchor="middle" x="246" y="-1659" font-family="Helvetica,sans-Serif" font-size="10.00">DCMIEx</text>
</a>
</g>
</g>
<!-- Node38 -->
<g id="node12" class="node">
<title>Node38</title>
<g id="a_node12"><a xlink:href="group__RTCEx.html" target="_top" xlink:title="RTC Extended HAL module driver.">
<polygon fill="white" stroke="black" points="269.5,-1634 222.5,-1634 222.5,-1615 269.5,-1615 269.5,-1634"/>
<text text-anchor="middle" x="246" y="-1622" font-family="Helvetica,sans-Serif" font-size="10.00">RTCEx</text>
</a>
</g>
</g>
<!-- Node54 -->
<g id="node13" class="node">
<title>Node54</title>
<g id="a_node13"><a xlink:href="group__FMC__LL.html" target="_top" xlink:title=" ">
<polygon fill="white" stroke="black" points="273,-1597 219,-1597 219,-1578 273,-1578 273,-1597"/>
<text text-anchor="middle" x="246" y="-1585" font-family="Helvetica,sans-Serif" font-size="10.00">FMC_LL</text>
</a>
</g>
</g>
<!-- Node27 -->
<g id="node14" class="node">
<title>Node27</title>
<g id="a_node14"><a xlink:href="group__IRDA.html" target="_top" xlink:title="HAL IRDA module driver.">
<polygon fill="white" stroke="black" points="266.5,-1560 225.5,-1560 225.5,-1541 266.5,-1541 266.5,-1560"/>
<text text-anchor="middle" x="246" y="-1548" font-family="Helvetica,sans-Serif" font-size="10.00">IRDA</text>
</a>
</g>
</g>
<!-- Node34 -->
<g id="node15" class="node">
<title>Node34</title>
<g id="a_node15"><a xlink:href="group__PWREx.html" target="_top" xlink:title="PWR HAL module driver.">
<polygon fill="white" stroke="black" points="271.5,-1523 220.5,-1523 220.5,-1504 271.5,-1504 271.5,-1523"/>
<text text-anchor="middle" x="246" y="-1511" font-family="Helvetica,sans-Serif" font-size="10.00">PWREx</text>
</a>
</g>
</g>
<!-- Node13 -->
<g id="node16" class="node">
<title>Node13</title>
<g id="a_node16"><a xlink:href="group__DCMI.html" target="_top" xlink:title="DCMI HAL module driver.">
<polygon fill="white" stroke="black" points="267.5,-1486 224.5,-1486 224.5,-1467 267.5,-1467 267.5,-1486"/>
<text text-anchor="middle" x="246" y="-1474" font-family="Helvetica,sans-Serif" font-size="10.00">DCMI</text>
</a>
</g>
</g>
<!-- Node41 -->
<g id="node17" class="node">
<title>Node41</title>
<g id="a_node17"><a xlink:href="group__SMARTCARD.html" target="_top" xlink:title="HAL SMARTCARD module driver.">
<polygon fill="white" stroke="black" points="284.5,-1449 207.5,-1449 207.5,-1430 284.5,-1430 284.5,-1449"/>
<text text-anchor="middle" x="246" y="-1437" font-family="Helvetica,sans-Serif" font-size="10.00">SMARTCARD</text>
</a>
</g>
</g>
<!-- Node12 -->
<g id="node18" class="node">
<title>Node12</title>
<g id="a_node18"><a xlink:href="group__CRC.html" target="_top" xlink:title="CRC HAL module driver.">
<polygon fill="white" stroke="black" points="264.5,-1412 227.5,-1412 227.5,-1393 264.5,-1393 264.5,-1412"/>
<text text-anchor="middle" x="246" y="-1400" font-family="Helvetica,sans-Serif" font-size="10.00">CRC</text>
</a>
</g>
</g>
<!-- Node7 -->
<g id="node19" class="node">
<title>Node7</title>
<g id="a_node19"><a xlink:href="group__HAL.html" target="_top" xlink:title="HAL module driver.">
<polygon fill="white" stroke="black" points="264,-1375 228,-1375 228,-1356 264,-1356 264,-1375"/>
<text text-anchor="middle" x="246" y="-1363" font-family="Helvetica,sans-Serif" font-size="10.00">HAL</text>
</a>
</g>
</g>
<!-- Node25 -->
<g id="node20" class="node">
<title>Node25</title>
<g id="a_node20"><a xlink:href="group__I2C.html" target="_top" xlink:title="I2C HAL module driver.">
<polygon fill="white" stroke="black" points="262,-1338 230,-1338 230,-1319 262,-1319 262,-1338"/>
<text text-anchor="middle" x="246" y="-1326" font-family="Helvetica,sans-Serif" font-size="10.00">I2C</text>
</a>
</g>
</g>
<!-- Node53 -->
<g id="node21" class="node">
<title>Node53</title>
<g id="a_node21"><a xlink:href="group__WWDG.html" target="_top" xlink:title=" ">
<polygon fill="white" stroke="black" points="271.5,-1301 220.5,-1301 220.5,-1282 271.5,-1282 271.5,-1301"/>
<text text-anchor="middle" x="246" y="-1289" font-family="Helvetica,sans-Serif" font-size="10.00">WWDG</text>
</a>
</g>
</g>
<!-- Node48 -->
<g id="node22" class="node">
<title>Node48</title>
<g id="a_node22"><a xlink:href="group__HAL__TimeBase__RTC__WakeUp__Template.html" target="_top" xlink:title=" ">
<polygon fill="white" stroke="black" points="322,-1263.5 170,-1263.5 170,-1233.5 322,-1233.5 322,-1263.5"/>
<text text-anchor="start" x="178" y="-1251.5" font-family="Helvetica,sans-Serif" font-size="10.00">HAL TimeBase RTC WakeUp</text>
<text text-anchor="middle" x="246" y="-1240.5" font-family="Helvetica,sans-Serif" font-size="10.00"> Template</text>
</a>
</g>
</g>
<!-- Node52 -->
<g id="node23" class="node">
<title>Node52</title>
<g id="a_node23"><a xlink:href="group__I2S.html" target="_top" xlink:title=" ">
<polygon fill="white" stroke="black" points="262,-1215 230,-1215 230,-1196 262,-1196 262,-1215"/>
<text text-anchor="middle" x="246" y="-1203" font-family="Helvetica,sans-Serif" font-size="10.00">I2S</text>
</a>
</g>
</g>
<!-- Node44 -->
<g id="node24" class="node">
<title>Node44</title>
<g id="a_node24"><a xlink:href="group__SPI.html" target="_top" xlink:title="SPI HAL module driver.">
<polygon fill="white" stroke="black" points="262,-1178 230,-1178 230,-1159 262,-1159 262,-1178"/>
<text text-anchor="middle" x="246" y="-1166" font-family="Helvetica,sans-Serif" font-size="10.00">SPI</text>
</a>
</g>
</g>
<!-- Node31 -->
<g id="node25" class="node">
<title>Node31</title>
<g id="a_node25"><a xlink:href="group__PCD.html" target="_top" xlink:title="PCD HAL module driver.">
<polygon fill="white" stroke="black" points="264.5,-1141 227.5,-1141 227.5,-1122 264.5,-1122 264.5,-1141"/>
<text text-anchor="middle" x="246" y="-1129" font-family="Helvetica,sans-Serif" font-size="10.00">PCD</text>
</a>
</g>
</g>
<!-- Node11 -->
<g id="node26" class="node">
<title>Node11</title>
<g id="a_node26"><a xlink:href="group__CORTEX.html" target="_top" xlink:title="CORTEX HAL module driver.">
<polygon fill="white" stroke="black" points="274,-1104 218,-1104 218,-1085 274,-1085 274,-1104"/>
<text text-anchor="middle" x="246" y="-1092" font-family="Helvetica,sans-Serif" font-size="10.00">CORTEX</text>
</a>
</g>
</g>
<!-- Node6 -->
<g id="node27" class="node">
<title>Node6</title>
<g id="a_node27"><a xlink:href="group__FSMC__LL__Private__Macros.html" target="_top" xlink:title=" ">
<polygon fill="white" stroke="black" points="315,-1067 177,-1067 177,-1048 315,-1048 315,-1067"/>
<text text-anchor="middle" x="246" y="-1055" font-family="Helvetica,sans-Serif" font-size="10.00">FSMC_LL &#160;Private Macros</text>
</a>
</g>
</g>
<!-- Node15 -->
<g id="node28" class="node">
<title>Node15</title>
<g id="a_node28"><a xlink:href="group__DMA.html" target="_top" xlink:title="DMA HAL module driver.">
<polygon fill="white" stroke="black" points="266,-1030 226,-1030 226,-1011 266,-1011 266,-1030"/>
<text text-anchor="middle" x="246" y="-1018" font-family="Helvetica,sans-Serif" font-size="10.00">DMA</text>
</a>
</g>
</g>
<!-- Node3 -->
<g id="node29" class="node">
<title>Node3</title>
<g id="a_node29"><a xlink:href="group__GPIOEx.html" target="_top" xlink:title=" ">
<polygon fill="white" stroke="black" points="272.5,-993 219.5,-993 219.5,-974 272.5,-974 272.5,-993"/>
<text text-anchor="middle" x="246" y="-981" font-family="Helvetica,sans-Serif" font-size="10.00">GPIOEx</text>
</a>
</g>
</g>
<!-- Node45 -->
<g id="node30" class="node">
<title>Node45</title>
<g id="a_node30"><a xlink:href="group__TIM.html" target="_top" xlink:title="TIM HAL module driver.">
<polygon fill="white" stroke="black" points="263.5,-956 228.5,-956 228.5,-937 263.5,-937 263.5,-956"/>
<text text-anchor="middle" x="246" y="-944" font-family="Helvetica,sans-Serif" font-size="10.00">TIM</text>
</a>
</g>
</g>
<!-- Node18 -->
<g id="node31" class="node">
<title>Node18</title>
<g id="a_node31"><a xlink:href="group__FLASHEx.html" target="_top" xlink:title="FLASH HAL Extension module driver.">
<polygon fill="white" stroke="black" points="276.5,-919 215.5,-919 215.5,-900 276.5,-900 276.5,-919"/>
<text text-anchor="middle" x="246" y="-907" font-family="Helvetica,sans-Serif" font-size="10.00">FLASHEx</text>
</a>
</g>
</g>
<!-- Node4 -->
<g id="node32" class="node">
<title>Node4</title>
<g id="a_node32"><a xlink:href="group__IWDG.html" target="_top" xlink:title=" ">
<polygon fill="white" stroke="black" points="268,-882 224,-882 224,-863 268,-863 268,-882"/>
<text text-anchor="middle" x="246" y="-870" font-family="Helvetica,sans-Serif" font-size="10.00">IWDG</text>
</a>
</g>
</g>
<!-- Node32 -->
<g id="node33" class="node">
<title>Node32</title>
<g id="a_node33"><a xlink:href="group__PCDEx.html" target="_top" xlink:title="PCD Extended HAL module driver.">
<polygon fill="white" stroke="black" points="270.5,-845 221.5,-845 221.5,-826 270.5,-826 270.5,-845"/>
<text text-anchor="middle" x="246" y="-833" font-family="Helvetica,sans-Serif" font-size="10.00">PCDEx</text>
</a>
</g>
</g>
<!-- Node40 -->
<g id="node34" class="node">
<title>Node40</title>
<g id="a_node34"><a xlink:href="group__SAIEx.html" target="_top" xlink:title="SAI Extension HAL module driver.">
<polygon fill="white" stroke="black" points="268.5,-808 223.5,-808 223.5,-789 268.5,-789 268.5,-808"/>
<text text-anchor="middle" x="246" y="-796" font-family="Helvetica,sans-Serif" font-size="10.00">SAIEx</text>
</a>
</g>
</g>
<!-- Node47 -->
<g id="node35" class="node">
<title>Node47</title>
<g id="a_node35"><a xlink:href="group__HAL__TimeBase__RTC__Alarm__Template.html" target="_top" xlink:title=" ">
<polygon fill="white" stroke="black" points="316.5,-770.5 175.5,-770.5 175.5,-740.5 316.5,-740.5 316.5,-770.5"/>
<text text-anchor="start" x="183.5" y="-758.5" font-family="Helvetica,sans-Serif" font-size="10.00">HAL TimeBase RTC Alarm</text>
<text text-anchor="middle" x="246" y="-747.5" font-family="Helvetica,sans-Serif" font-size="10.00"> Template</text>
</a>
</g>
</g>
<!-- Node55 -->
<g id="node36" class="node">
<title>Node55</title>
<g id="a_node36"><a xlink:href="group__FSMC__LL.html" target="_top" xlink:title=" ">
<polygon fill="white" stroke="black" points="275.5,-722 216.5,-722 216.5,-703 275.5,-703 275.5,-722"/>
<text text-anchor="middle" x="246" y="-710" font-family="Helvetica,sans-Serif" font-size="10.00">FSMC_LL</text>
</a>
</g>
</g>
<!-- Node28 -->
<g id="node37" class="node">
<title>Node28</title>
<g id="a_node37"><a xlink:href="group__LPTIM.html" target="_top" xlink:title="LPTIM HAL module driver.">
<polygon fill="white" stroke="black" points="269,-685 223,-685 223,-666 269,-666 269,-685"/>
<text text-anchor="middle" x="246" y="-673" font-family="Helvetica,sans-Serif" font-size="10.00">LPTIM</text>
</a>
</g>
</g>
<!-- Node1 -->
<g id="node38" class="node">
<title>Node1</title>
<g id="a_node38"><a xlink:title=" ">
<polygon fill="#bfbfbf" stroke="black" points="134,-1030 0,-1030 0,-1011 134,-1011 134,-1030"/>
<text text-anchor="middle" x="67" y="-1018" font-family="Helvetica,sans-Serif" font-size="10.00">STM32F4xx_HAL_Driver</text>
</a>
</g>
</g>
<!-- Node1&#45;&gt;Node20 -->
<g id="edge19" class="edge">
<title>Node1&#45;&gt;Node20</title>
<path fill="none" stroke="black" d="M68.68,-1040.48C73.44,-1174.3 103.4,-1937.38 170,-2013.5 182.08,-2027.31 202.71,-2031.49 219.28,-2032.4"/>
<polygon fill="black" stroke="black" points="72.17,-1039.99 68.32,-1030.12 65.17,-1040.23 72.17,-1039.99"/>
</g>
<!-- Node1&#45;&gt;Node46 -->
<g id="edge45" class="edge">
<title>Node1&#45;&gt;Node46</title>
<path fill="none" stroke="black" d="M68.75,-1040.14C73.92,-1170.11 105.78,-1903.39 170,-1976.5 182.81,-1991.09 205.17,-1994.92 222.15,-1995.51"/>
<polygon fill="black" stroke="black" points="72.25,-1039.91 68.36,-1030.06 65.25,-1040.18 72.25,-1039.91"/>
</g>
<!-- Node1&#45;&gt;Node23 -->
<g id="edge22" class="edge">
<title>Node1&#45;&gt;Node23</title>
<path fill="none" stroke="black" d="M68.86,-1040.56C74.54,-1168.68 108.27,-1869.53 170,-1939.5 178.42,-1949.04 190.91,-1953.98 203.31,-1956.42"/>
<polygon fill="black" stroke="black" points="72.34,-1040.1 68.41,-1030.27 65.35,-1040.41 72.34,-1040.1"/>
</g>
<!-- Node1&#45;&gt;Node9 -->
<g id="edge8" class="edge">
<title>Node1&#45;&gt;Node9</title>
<path fill="none" stroke="black" d="M68.96,-1040.51C75.1,-1165.49 110.7,-1835.59 170,-1902.5 182.52,-1916.63 204,-1920.66 220.77,-1921.42"/>
<polygon fill="black" stroke="black" points="72.43,-1039.98 68.45,-1030.16 65.44,-1040.32 72.43,-1039.98"/>
</g>
<!-- Node1&#45;&gt;Node19 -->
<g id="edge18" class="edge">
<title>Node1&#45;&gt;Node19</title>
<path fill="none" stroke="black" d="M69.04,-1040.05C75.61,-1160.76 113.05,-1801.57 170,-1865.5 176.5,-1872.8 185.39,-1877.4 194.79,-1880.25"/>
<polygon fill="black" stroke="black" points="72.53,-1039.83 68.5,-1030.03 65.54,-1040.21 72.53,-1039.83"/>
</g>
<!-- Node1&#45;&gt;Node10 -->
<g id="edge9" class="edge">
<title>Node1&#45;&gt;Node10</title>
<path fill="none" stroke="black" d="M69.16,-1040.29C76.29,-1158.43 115.51,-1767.66 170,-1828.5 184.47,-1844.66 210.66,-1847.57 227.94,-1847.54"/>
<polygon fill="black" stroke="black" points="72.65,-1039.93 68.56,-1030.16 65.66,-1040.35 72.65,-1039.93"/>
</g>
<!-- Node1&#45;&gt;Node39 -->
<g id="edge38" class="edge">
<title>Node1&#45;&gt;Node39</title>
<path fill="none" stroke="black" d="M67.71,-1040.37C66.55,-1149.64 66.44,-1676.57 170,-1791.5 184.88,-1808.01 212,-1810.68 229.23,-1810.51"/>
<polygon fill="black" stroke="black" points="71.22,-1040.17 67.84,-1030.13 64.22,-1040.09 71.22,-1040.17"/>
</g>
<!-- Node1&#45;&gt;Node5 -->
<g id="edge4" class="edge">
<title>Node1&#45;&gt;Node5</title>
<path fill="none" stroke="black" d="M67.86,-1040.41C67.52,-1146.61 71.28,-1645.65 170,-1754.5 173.06,-1757.87 176.63,-1760.67 180.52,-1762.98"/>
<polygon fill="black" stroke="black" points="71.36,-1040.18 67.91,-1030.16 64.36,-1040.15 71.36,-1040.18"/>
</g>
<!-- Node1&#45;&gt;Node37 -->
<g id="edge36" class="edge">
<title>Node1&#45;&gt;Node37</title>
<path fill="none" stroke="black" d="M68.02,-1040.37C68.54,-1143.26 76.08,-1614.7 170,-1717.5 184.72,-1733.61 211.1,-1736.51 228.33,-1736.48"/>
<polygon fill="black" stroke="black" points="71.52,-1040.15 67.99,-1030.16 64.52,-1040.17 71.52,-1040.15"/>
</g>
<!-- Node1&#45;&gt;Node36 -->
<g id="edge35" class="edge">
<title>Node1&#45;&gt;Node36</title>
<path fill="none" stroke="black" d="M68.2,-1040.25C69.6,-1139.59 80.85,-1583.7 170,-1680.5 182.88,-1694.49 204.55,-1698.49 221.29,-1699.29"/>
<polygon fill="black" stroke="black" points="71.7,-1040.07 68.07,-1030.11 64.7,-1040.16 71.7,-1040.07"/>
</g>
<!-- Node1&#45;&gt;Node14 -->
<g id="edge13" class="edge">
<title>Node1&#45;&gt;Node14</title>
<path fill="none" stroke="black" d="M68.39,-1040.04C70.71,-1135.59 85.58,-1552.66 170,-1643.5 182.21,-1656.64 202.19,-1660.96 218.46,-1662.09"/>
<polygon fill="black" stroke="black" points="71.89,-1039.95 68.17,-1030.03 64.89,-1040.1 71.89,-1039.95"/>
</g>
<!-- Node1&#45;&gt;Node38 -->
<g id="edge37" class="edge">
<title>Node1&#45;&gt;Node38</title>
<path fill="none" stroke="black" d="M68.62,-1040.33C71.93,-1132.93 90.45,-1521.76 170,-1606.5 183.29,-1620.66 205.59,-1624.55 222.42,-1625.27"/>
<polygon fill="black" stroke="black" points="72.12,-1040.21 68.28,-1030.34 65.12,-1040.45 72.12,-1040.21"/>
</g>
<!-- Node1&#45;&gt;Node54 -->
<g id="edge53" class="edge">
<title>Node1&#45;&gt;Node54</title>
<path fill="none" stroke="black" d="M68.87,-1040.19C73.18,-1128.93 95.18,-1490.7 170,-1569.5 182.45,-1582.61 202.62,-1586.9 218.92,-1588.02"/>
<polygon fill="black" stroke="black" points="72.36,-1039.97 68.4,-1030.14 65.37,-1040.3 72.36,-1039.97"/>
</g>
<!-- Node1&#45;&gt;Node27 -->
<g id="edge26" class="edge">
<title>Node1&#45;&gt;Node27</title>
<path fill="none" stroke="black" d="M69.17,-1040.47C74.6,-1125.93 100.02,-1459.74 170,-1532.5 184.2,-1547.27 208.22,-1550.81 225.24,-1551.27"/>
<polygon fill="black" stroke="black" points="72.66,-1040.08 68.55,-1030.31 65.67,-1040.51 72.66,-1040.08"/>
</g>
<!-- Node1&#45;&gt;Node34 -->
<g id="edge33" class="edge">
<title>Node1&#45;&gt;Node34</title>
<path fill="none" stroke="black" d="M69.54,-1040.83C76.15,-1122.92 104.86,-1428.77 170,-1495.5 183,-1508.82 204,-1512.98 220.47,-1514"/>
<polygon fill="black" stroke="black" points="72.99,-1040.09 68.72,-1030.4 66.01,-1040.64 72.99,-1040.09"/>
</g>
<!-- Node1&#45;&gt;Node13 -->
<g id="edge12" class="edge">
<title>Node1&#45;&gt;Node13</title>
<path fill="none" stroke="black" d="M69.87,-1040.23C77.59,-1117.39 109.42,-1397.51 170,-1458.5 184.15,-1472.75 207.47,-1476.48 224.35,-1477.13"/>
<polygon fill="black" stroke="black" points="73.33,-1039.62 68.87,-1030.01 66.36,-1040.3 73.33,-1039.62"/>
</g>
<!-- Node1&#45;&gt;Node41 -->
<g id="edge40" class="edge">
<title>Node1&#45;&gt;Node41</title>
<path fill="none" stroke="black" d="M70.35,-1040.43C79.38,-1113.64 114.18,-1366.43 170,-1421.5 179.82,-1431.19 193.88,-1435.99 207.17,-1438.28"/>
<polygon fill="black" stroke="black" points="73.8,-1039.78 69.12,-1030.27 66.85,-1040.62 73.8,-1039.78"/>
</g>
<!-- Node1&#45;&gt;Node12 -->
<g id="edge11" class="edge">
<title>Node1&#45;&gt;Node12</title>
<path fill="none" stroke="black" d="M70.88,-1040.33C81.26,-1109 118.83,-1335.23 170,-1384.5 185.34,-1399.27 210.55,-1402.64 227.46,-1403.07"/>
<polygon fill="black" stroke="black" points="74.29,-1039.43 69.36,-1030.05 67.37,-1040.46 74.29,-1039.43"/>
</g>
<!-- Node1&#45;&gt;Node7 -->
<g id="edge6" class="edge">
<title>Node1&#45;&gt;Node7</title>
<path fill="none" stroke="black" d="M67.87,-1040.47C68.63,-1097.49 78.98,-1262.37 170,-1347.5 185.65,-1362.14 211.03,-1365.51 227.87,-1365.98"/>
<polygon fill="black" stroke="black" points="71.37,-1040.27 67.82,-1030.29 64.37,-1040.3 71.37,-1040.27"/>
</g>
<!-- Node1&#45;&gt;Node25 -->
<g id="edge24" class="edge">
<title>Node1&#45;&gt;Node25</title>
<path fill="none" stroke="black" d="M68.77,-1040.28C71.93,-1092.76 88.03,-1236.54 170,-1310.5 186.5,-1325.39 213.14,-1328.54 229.83,-1328.91"/>
<polygon fill="black" stroke="black" points="72.25,-1039.82 68.25,-1030.01 65.26,-1040.18 72.25,-1039.82"/>
</g>
<!-- Node1&#45;&gt;Node53 -->
<g id="edge52" class="edge">
<title>Node1&#45;&gt;Node53</title>
<path fill="none" stroke="black" d="M70.04,-1040.49C76.01,-1088.23 97.87,-1209.6 170,-1272.5 183.87,-1284.59 204.37,-1289.19 220.44,-1290.84"/>
<polygon fill="black" stroke="black" points="73.48,-1039.79 68.87,-1030.26 66.53,-1040.59 73.48,-1039.79"/>
</g>
<!-- Node1&#45;&gt;Node48 -->
<g id="edge47" class="edge">
<title>Node1&#45;&gt;Node48</title>
<path fill="none" stroke="black" d="M72.39,-1040.22C82.43,-1080.75 110.91,-1173.87 170,-1224.5 174.05,-1227.97 178.6,-1230.94 183.42,-1233.48"/>
<polygon fill="black" stroke="black" points="75.74,-1039.19 70.04,-1030.26 68.93,-1040.8 75.74,-1039.19"/>
</g>
<!-- Node1&#45;&gt;Node52 -->
<g id="edge51" class="edge">
<title>Node1&#45;&gt;Node52</title>
<path fill="none" stroke="black" d="M74.2,-1039.83C86.51,-1074.98 117.47,-1149.28 170,-1187.5 187.76,-1200.42 213.54,-1204.17 229.78,-1205.2"/>
<polygon fill="black" stroke="black" points="77.48,-1038.62 70.97,-1030.26 70.85,-1040.85 77.48,-1038.62"/>
</g>
<!-- Node1&#45;&gt;Node44 -->
<g id="edge43" class="edge">
<title>Node1&#45;&gt;Node44</title>
<path fill="none" stroke="black" d="M77.28,-1039.09C92.54,-1067.68 125.73,-1122.09 170,-1150.5 188.37,-1162.29 213.75,-1166.36 229.77,-1167.77"/>
<polygon fill="black" stroke="black" points="80.35,-1037.41 72.64,-1030.14 74.13,-1040.63 80.35,-1037.41"/>
</g>
<!-- Node1&#45;&gt;Node31 -->
<g id="edge30" class="edge">
<title>Node1&#45;&gt;Node31</title>
<path fill="none" stroke="black" d="M82.17,-1037.96C100.3,-1059.1 133.71,-1094.26 170,-1113.5 188.22,-1123.16 211.66,-1127.71 227.45,-1129.8"/>
<polygon fill="black" stroke="black" points="84.69,-1035.51 75.58,-1030.1 79.32,-1040.01 84.69,-1035.51"/>
</g>
<!-- Node1&#45;&gt;Node11 -->
<g id="edge10" class="edge">
<title>Node1&#45;&gt;Node11</title>
<path fill="none" stroke="black" d="M91.09,-1035.51C111.22,-1048.02 141.57,-1065.51 170,-1076.5 185.36,-1082.44 203.28,-1086.83 217.74,-1089.78"/>
<polygon fill="black" stroke="black" points="92.92,-1032.53 82.6,-1030.16 89.19,-1038.45 92.92,-1032.53"/>
</g>
<!-- Node1&#45;&gt;Node6 -->
<g id="edge5" class="edge">
<title>Node1&#45;&gt;Node6</title>
<path fill="none" stroke="black" d="M123.42,-1032.08C147.8,-1037.18 176.11,-1043.1 199.27,-1047.94"/>
<polygon fill="black" stroke="black" points="124.09,-1028.65 113.58,-1030.03 122.65,-1035.5 124.09,-1028.65"/>
</g>
<!-- Node1&#45;&gt;Node15 -->
<g id="edge14" class="edge">
<title>Node1&#45;&gt;Node15</title>
<path fill="none" stroke="black" d="M144.21,-1020.5C174.11,-1020.5 205.91,-1020.5 225.62,-1020.5"/>
<polygon fill="black" stroke="black" points="144.16,-1017 134.16,-1020.5 144.16,-1024 144.16,-1017"/>
</g>
<!-- Node1&#45;&gt;Node3 -->
<g id="edge2" class="edge">
<title>Node1&#45;&gt;Node3</title>
<path fill="none" stroke="black" d="M123.71,-1008.85C155.71,-1002.17 194.36,-994.09 219.3,-988.87"/>
<polygon fill="black" stroke="black" points="122.65,-1005.5 113.58,-1010.97 124.09,-1012.35 122.65,-1005.5"/>
</g>
<!-- Node1&#45;&gt;Node45 -->
<g id="edge44" class="edge">
<title>Node1&#45;&gt;Node45</title>
<path fill="none" stroke="black" d="M91.78,-1005.49C111.96,-993.3 142,-976.4 170,-965.5 189.4,-957.95 212.8,-952.57 228.25,-949.51"/>
<polygon fill="black" stroke="black" points="89.68,-1002.68 82.99,-1010.89 93.34,-1008.64 89.68,-1002.68"/>
</g>
<!-- Node1&#45;&gt;Node18 -->
<g id="edge17" class="edge">
<title>Node1&#45;&gt;Node18</title>
<path fill="none" stroke="black" d="M82.53,-1002.99C100.8,-982.12 134.14,-947.67 170,-928.5 183.98,-921.03 201,-916.41 215.3,-913.6"/>
<polygon fill="black" stroke="black" points="79.72,-1000.89 75.87,-1010.76 85.03,-1005.44 79.72,-1000.89"/>
</g>
<!-- Node1&#45;&gt;Node4 -->
<g id="edge3" class="edge">
<title>Node1&#45;&gt;Node4</title>
<path fill="none" stroke="black" d="M77.36,-1002.12C92.73,-973.85 126.06,-919.97 170,-891.5 186.23,-880.98 207.93,-876.29 223.82,-874.19"/>
<polygon fill="black" stroke="black" points="74.26,-1000.49 72.68,-1010.97 80.45,-1003.76 74.26,-1000.49"/>
</g>
<!-- Node1&#45;&gt;Node32 -->
<g id="edge31" class="edge">
<title>Node1&#45;&gt;Node32</title>
<path fill="none" stroke="black" d="M74.28,-1001.35C86.72,-966.51 117.89,-892.81 170,-854.5 184.93,-843.52 205.56,-838.86 221.4,-836.89"/>
<polygon fill="black" stroke="black" points="70.96,-1000.24 71.02,-1010.83 77.58,-1002.52 70.96,-1000.24"/>
</g>
<!-- Node1&#45;&gt;Node40 -->
<g id="edge39" class="edge">
<title>Node1&#45;&gt;Node40</title>
<path fill="none" stroke="black" d="M72.11,-1000.84C81.69,-960.08 109.44,-866.14 170,-817.5 185.19,-805.3 207.23,-800.83 223.49,-799.24"/>
<polygon fill="black" stroke="black" points="68.69,-1000.11 69.92,-1010.63 75.52,-1001.64 68.69,-1000.11"/>
</g>
<!-- Node1&#45;&gt;Node47 -->
<g id="edge46" class="edge">
<title>Node1&#45;&gt;Node47</title>
<path fill="none" stroke="black" d="M70.84,-1000.55C78.39,-954.94 103.14,-842.21 170,-780.5 174.24,-776.59 179.1,-773.29 184.27,-770.51"/>
<polygon fill="black" stroke="black" points="67.36,-1000.21 69.28,-1010.63 74.27,-1001.29 67.36,-1000.21"/>
</g>
<!-- Node1&#45;&gt;Node55 -->
<g id="edge54" class="edge">
<title>Node1&#45;&gt;Node55</title>
<path fill="none" stroke="black" d="M68.87,-1000.49C72.27,-948.04 88.89,-805.53 170,-731.5 182.5,-720.09 200.86,-715.31 216.29,-713.4"/>
<polygon fill="black" stroke="black" points="65.36,-1000.6 68.3,-1010.77 72.35,-1000.98 65.36,-1000.6"/>
</g>
<!-- Node1&#45;&gt;Node28 -->
<g id="edge27" class="edge">
<title>Node1&#45;&gt;Node28</title>
<path fill="none" stroke="black" d="M67.94,-1000.64C68.9,-943.95 79.73,-779.92 170,-694.5 184.15,-681.11 206.33,-676.8 222.91,-675.57"/>
<polygon fill="black" stroke="black" points="64.44,-1000.74 67.86,-1010.77 71.44,-1000.8 64.44,-1000.74"/>
</g>
<!-- Node8 -->
<g id="node39" class="node">
<title>Node8</title>
<g id="a_node39"><a xlink:href="group__ADC.html" target="_top" xlink:title="ADC driver modules.">
<polygon fill="white" stroke="black" points="265,-648 227,-648 227,-629 265,-629 265,-648"/>
<text text-anchor="middle" x="246" y="-636" font-family="Helvetica,sans-Serif" font-size="10.00">ADC</text>
</a>
</g>
</g>
<!-- Node1&#45;&gt;Node8 -->
<g id="edge7" class="edge">
<title>Node1&#45;&gt;Node8</title>
<path fill="none" stroke="black" d="M67.2,-1000.87C65.87,-940.29 70.46,-754.5 170,-657.5 185.1,-642.78 209.89,-638.97 226.8,-638.22"/>
<polygon fill="black" stroke="black" points="63.71,-1001.08 67.51,-1010.97 70.7,-1000.87 63.71,-1001.08"/>
</g>
<!-- Node26 -->
<g id="node40" class="node">
<title>Node26</title>
<g id="a_node40"><a xlink:href="group__I2CEx.html" target="_top" xlink:title="I2C HAL module driver.">
<polygon fill="white" stroke="black" points="268,-611 224,-611 224,-592 268,-592 268,-611"/>
<text text-anchor="middle" x="246" y="-599" font-family="Helvetica,sans-Serif" font-size="10.00">I2CEx</text>
</a>
</g>
</g>
<!-- Node1&#45;&gt;Node26 -->
<g id="edge25" class="edge">
<title>Node1&#45;&gt;Node26</title>
<path fill="none" stroke="black" d="M70.38,-1000.65C79.52,-927.69 114.64,-675.77 170,-620.5 184.07,-606.45 206.94,-602.3 223.73,-601.29"/>
<polygon fill="black" stroke="black" points="66.88,-1000.41 69.14,-1010.76 73.83,-1001.26 66.88,-1000.41"/>
</g>
<!-- Node43 -->
<g id="node41" class="node">
<title>Node43</title>
<g id="a_node41"><a xlink:href="group__SPDIFRX.html" target="_top" xlink:title="SPDIFRX HAL module driver.">
<polygon fill="white" stroke="black" points="275.5,-574 216.5,-574 216.5,-555 275.5,-555 275.5,-574"/>
<text text-anchor="middle" x="246" y="-562" font-family="Helvetica,sans-Serif" font-size="10.00">SPDIFRX</text>
</a>
</g>
</g>
<!-- Node1&#45;&gt;Node43 -->
<g id="edge42" class="edge">
<title>Node1&#45;&gt;Node43</title>
<path fill="none" stroke="black" d="M69.95,-1000.34C77.87,-922.73 110.05,-644.59 170,-583.5 181.95,-571.32 200.5,-566.55 216.16,-564.84"/>
<polygon fill="black" stroke="black" points="66.43,-1000.35 68.93,-1010.65 73.4,-1001.05 66.43,-1000.35"/>
</g>
<!-- Node21 -->
<g id="node42" class="node">
<title>Node21</title>
<g id="a_node42"><a xlink:href="group__FMPI2CEx.html" target="_top" xlink:title="FMPI2C Extended HAL module driver.">
<polygon fill="white" stroke="black" points="278.5,-537 213.5,-537 213.5,-518 278.5,-518 278.5,-537"/>
<text text-anchor="middle" x="246" y="-525" font-family="Helvetica,sans-Serif" font-size="10.00">FMPI2CEx</text>
</a>
</g>
</g>
<!-- Node1&#45;&gt;Node21 -->
<g id="edge20" class="edge">
<title>Node1&#45;&gt;Node21</title>
<path fill="none" stroke="black" d="M69.57,-1000.24C76.29,-918.4 105.39,-613.49 170,-546.5 181.19,-534.9 198.37,-530 213.46,-528.07"/>
<polygon fill="black" stroke="black" points="66.04,-1000.39 68.73,-1010.64 73.02,-1000.95 66.04,-1000.39"/>
</g>
<!-- Node50 -->
<g id="node43" class="node">
<title>Node50</title>
<g id="a_node43"><a xlink:href="group__USART.html" target="_top" xlink:title="HAL USART Synchronous module driver.">
<polygon fill="white" stroke="black" points="271,-500 221,-500 221,-481 271,-481 271,-500"/>
<text text-anchor="middle" x="246" y="-488" font-family="Helvetica,sans-Serif" font-size="10.00">USART</text>
</a>
</g>
</g>
<!-- Node1&#45;&gt;Node50 -->
<g id="edge49" class="edge">
<title>Node1&#45;&gt;Node50</title>
<path fill="none" stroke="black" d="M69.2,-1000.59C74.74,-915.39 100.59,-582.55 170,-509.5 182.95,-495.87 204.17,-491.46 220.74,-490.27"/>
<polygon fill="black" stroke="black" points="65.7,-1000.52 68.56,-1010.72 72.69,-1000.96 65.7,-1000.52"/>
</g>
<!-- Node56 -->
<g id="node44" class="node">
<title>Node56</title>
<g id="a_node44"><a xlink:href="group__HAL__TimeBase__TIM.html" target="_top" xlink:title=" ">
<polygon fill="white" stroke="black" points="302.5,-463 189.5,-463 189.5,-444 302.5,-444 302.5,-463"/>
<text text-anchor="middle" x="246" y="-451" font-family="Helvetica,sans-Serif" font-size="10.00">HAL_TimeBase_TIM</text>
</a>
</g>
</g>
<!-- Node1&#45;&gt;Node56 -->
<g id="edge55" class="edge">
<title>Node1&#45;&gt;Node56</title>
<path fill="none" stroke="black" d="M68.9,-1000.87C73.34,-912.39 95.8,-551.62 170,-472.5 175.33,-466.82 182.09,-462.73 189.37,-459.82"/>
<polygon fill="black" stroke="black" points="65.4,-1000.73 68.41,-1010.88 72.39,-1001.06 65.4,-1000.73"/>
</g>
<!-- Node22 -->
<g id="node45" class="node">
<title>Node22</title>
<g id="a_node45"><a xlink:href="group__FMPSMBUS.html" target="_top" xlink:title="FMPSMBUS HAL module driver.">
<polygon fill="white" stroke="black" points="282.5,-426 209.5,-426 209.5,-407 282.5,-407 282.5,-426"/>
<text text-anchor="middle" x="246" y="-414" font-family="Helvetica,sans-Serif" font-size="10.00">FMPSMBUS</text>
</a>
</g>
</g>
<!-- Node1&#45;&gt;Node22 -->
<g id="edge21" class="edge">
<title>Node1&#45;&gt;Node22</title>
<path fill="none" stroke="black" d="M68.66,-1000.44C72.13,-907.59 91.18,-520.5 170,-435.5 180.05,-424.67 195.31,-419.63 209.44,-417.42"/>
<polygon fill="black" stroke="black" points="65.15,-1000.57 68.3,-1010.69 72.15,-1000.82 65.15,-1000.57"/>
</g>
<!-- Node42 -->
<g id="node46" class="node">
<title>Node42</title>
<g id="a_node46"><a xlink:href="group__SMBUS.html" target="_top" xlink:title="SMBUS HAL module driver.">
<polygon fill="white" stroke="black" points="272,-389 220,-389 220,-370 272,-370 272,-389"/>
<text text-anchor="middle" x="246" y="-377" font-family="Helvetica,sans-Serif" font-size="10.00">SMBUS</text>
</a>
</g>
</g>
<!-- Node1&#45;&gt;Node42 -->
<g id="edge41" class="edge">
<title>Node1&#45;&gt;Node42</title>
<path fill="none" stroke="black" d="M68.43,-1000.72C70.9,-904.87 86.36,-489.63 170,-398.5 182.53,-384.84 203.35,-380.39 219.87,-379.18"/>
<polygon fill="black" stroke="black" points="64.92,-1000.92 68.18,-1011 71.92,-1001.09 64.92,-1000.92"/>
</g>
<!-- Node24 -->
<g id="node47" class="node">
<title>Node24</title>
<g id="a_node47"><a xlink:href="group__GPIO.html" target="_top" xlink:title="GPIO HAL module driver.">
<polygon fill="white" stroke="black" points="266.5,-352 225.5,-352 225.5,-333 266.5,-333 266.5,-352"/>
<text text-anchor="middle" x="246" y="-340" font-family="Helvetica,sans-Serif" font-size="10.00">GPIO</text>
</a>
</g>
</g>
<!-- Node1&#45;&gt;Node24 -->
<g id="edge23" class="edge">
<title>Node1&#45;&gt;Node24</title>
<path fill="none" stroke="black" d="M68.23,-1000.8C69.77,-901.72 81.58,-458.71 170,-361.5 183.92,-346.2 208.23,-342.43 225.4,-341.86"/>
<polygon fill="black" stroke="black" points="64.72,-1000.87 68.09,-1010.91 71.72,-1000.96 64.72,-1000.87"/>
</g>
<!-- Node33 -->
<g id="node48" class="node">
<title>Node33</title>
<g id="a_node48"><a xlink:href="group__PWR.html" target="_top" xlink:title="PWR HAL module driver.">
<polygon fill="white" stroke="black" points="265.5,-315 226.5,-315 226.5,-296 265.5,-296 265.5,-315"/>
<text text-anchor="middle" x="246" y="-303" font-family="Helvetica,sans-Serif" font-size="10.00">PWR</text>
</a>
</g>
</g>
<!-- Node1&#45;&gt;Node33 -->
<g id="edge32" class="edge">
<title>Node1&#45;&gt;Node33</title>
<path fill="none" stroke="black" d="M68.05,-1000.68C68.71,-898.04 76.85,-427.74 170,-324.5 184.13,-308.84 209.14,-305.24 226.36,-304.8"/>
<polygon fill="black" stroke="black" points="64.55,-1000.85 68,-1010.87 71.55,-1000.88 64.55,-1000.85"/>
</g>
<!-- Node51 -->
<g id="node49" class="node">
<title>Node51</title>
<g id="a_node49"><a xlink:href="group__CRYPEx.html" target="_top" xlink:title=" ">
<polygon fill="white" stroke="black" points="272.5,-278 219.5,-278 219.5,-259 272.5,-259 272.5,-278"/>
<text text-anchor="middle" x="246" y="-266" font-family="Helvetica,sans-Serif" font-size="10.00">CRYPEx</text>
</a>
</g>
</g>
<!-- Node1&#45;&gt;Node51 -->
<g id="edge50" class="edge">
<title>Node1&#45;&gt;Node51</title>
<path fill="none" stroke="black" d="M67.89,-1000.64C67.7,-894.69 72.08,-396.81 170,-287.5 182.28,-273.79 202.89,-269.32 219.41,-268.11"/>
<polygon fill="black" stroke="black" points="64.39,-1000.87 67.92,-1010.86 71.39,-1000.85 64.39,-1000.87"/>
</g>
<!-- Node29 -->
<g id="node50" class="node">
<title>Node29</title>
<g id="a_node50"><a xlink:href="group__MMC.html" target="_top" xlink:title="MMC HAL module driver.">
<polygon fill="white" stroke="black" points="266.5,-241 225.5,-241 225.5,-222 266.5,-222 266.5,-241"/>
<text text-anchor="middle" x="246" y="-229" font-family="Helvetica,sans-Serif" font-size="10.00">MMC</text>
</a>
</g>
</g>
<!-- Node1&#45;&gt;Node29 -->
<g id="edge28" class="edge">
<title>Node1&#45;&gt;Node29</title>
<path fill="none" stroke="black" d="M67.74,-1000.68C66.73,-891.66 67.29,-365.92 170,-250.5 183.75,-235.05 208.1,-231.31 225.32,-230.79"/>
<polygon fill="black" stroke="black" points="64.24,-1000.93 67.85,-1010.89 71.24,-1000.85 64.24,-1000.93"/>
</g>
<!-- Node2 -->
<g id="node51" class="node">
<title>Node2</title>
<g id="a_node51"><a xlink:href="group__EXTI.html" target="_top" xlink:title="EXTI HAL module driver.">
<polygon fill="white" stroke="black" points="265,-204 227,-204 227,-185 265,-185 265,-204"/>
<text text-anchor="middle" x="246" y="-192" font-family="Helvetica,sans-Serif" font-size="10.00">EXTI</text>
</a>
</g>
</g>
<!-- Node1&#45;&gt;Node2 -->
<g id="edge1" class="edge">
<title>Node1&#45;&gt;Node2</title>
<path fill="none" stroke="black" d="M67.61,-1000.79C65.81,-888.96 62.47,-335.07 170,-213.5 184.15,-197.5 209.65,-194.05 226.95,-193.73"/>
<polygon fill="black" stroke="black" points="64.11,-1001.02 67.79,-1010.96 71.11,-1000.9 64.11,-1001.02"/>
</g>
<!-- Node49 -->
<g id="node52" class="node">
<title>Node49</title>
<g id="a_node52"><a xlink:href="group__UART.html" target="_top" xlink:title="HAL UART module driver.">
<polygon fill="white" stroke="black" points="267.5,-167 224.5,-167 224.5,-148 267.5,-148 267.5,-167"/>
<text text-anchor="middle" x="246" y="-155" font-family="Helvetica,sans-Serif" font-size="10.00">UART</text>
</a>
</g>
</g>
<!-- Node1&#45;&gt;Node49 -->
<g id="edge48" class="edge">
<title>Node1&#45;&gt;Node49</title>
<path fill="none" stroke="black" d="M69.05,-1000.98C75.7,-880.47 113.51,-240.71 170,-176.5 183.4,-161.27 207.08,-157.4 224.26,-156.78"/>
<polygon fill="black" stroke="black" points="65.55,-1000.81 68.5,-1010.98 72.54,-1001.19 65.55,-1000.81"/>
</g>
<!-- Node35 -->
<g id="node53" class="node">
<title>Node35</title>
<g id="a_node53"><a xlink:href="group__RCC.html" target="_top" xlink:title="RCC HAL module driver.">
<polygon fill="white" stroke="black" points="264.5,-130 227.5,-130 227.5,-111 264.5,-111 264.5,-130"/>
<text text-anchor="middle" x="246" y="-118" font-family="Helvetica,sans-Serif" font-size="10.00">RCC</text>
</a>
</g>
</g>
<!-- Node1&#45;&gt;Node35 -->
<g id="edge34" class="edge">
<title>Node1&#45;&gt;Node35</title>
<path fill="none" stroke="black" d="M68.97,-1000.52C75.2,-875.75 111.18,-206.7 170,-139.5 184.15,-123.33 209.91,-119.95 227.24,-119.69"/>
<polygon fill="black" stroke="black" points="65.46,-1000.7 68.46,-1010.86 72.45,-1001.04 65.46,-1000.7"/>
</g>
<!-- Node16 -->
<g id="node54" class="node">
<title>Node16</title>
<g id="a_node54"><a xlink:href="group__DMAEx.html" target="_top" xlink:title="DMA Extended HAL module driver.">
<polygon fill="white" stroke="black" points="272,-93 220,-93 220,-74 272,-74 272,-93"/>
<text text-anchor="middle" x="246" y="-81" font-family="Helvetica,sans-Serif" font-size="10.00">DMAEx</text>
</a>
</g>
</g>
<!-- Node1&#45;&gt;Node16 -->
<g id="edge15" class="edge">
<title>Node1&#45;&gt;Node16</title>
<path fill="none" stroke="black" d="M68.87,-1000.48C74.63,-872.55 108.78,-172.78 170,-102.5 182.18,-88.52 203.02,-84.09 219.65,-82.98"/>
<polygon fill="black" stroke="black" points="65.36,-1000.6 68.42,-1010.75 72.36,-1000.91 65.36,-1000.6"/>
</g>
<!-- Node30 -->
<g id="node55" class="node">
<title>Node30</title>
<g id="a_node55"><a xlink:href="group__HAL__MSP.html" target="_top" xlink:title="HAL MSP module.">
<polygon fill="white" stroke="black" points="276,-56 216,-56 216,-37 276,-37 276,-56"/>
<text text-anchor="middle" x="246" y="-44" font-family="Helvetica,sans-Serif" font-size="10.00">HAL MSP</text>
</a>
</g>
</g>
<!-- Node1&#45;&gt;Node30 -->
<g id="edge29" class="edge">
<title>Node1&#45;&gt;Node30</title>
<path fill="none" stroke="black" d="M68.77,-1000.89C74.01,-871.12 106.3,-138.94 170,-65.5 181.27,-52.51 200.02,-47.76 215.95,-46.26"/>
<polygon fill="black" stroke="black" points="65.27,-1000.83 68.37,-1010.96 72.26,-1001.11 65.27,-1000.83"/>
</g>
<!-- Node17 -->
<g id="node56" class="node">
<title>Node17</title>
<g id="a_node56"><a xlink:href="group__FLASH.html" target="_top" xlink:title="FLASH HAL module driver.">
<polygon fill="white" stroke="black" points="270.5,-19 221.5,-19 221.5,0 270.5,0 270.5,-19"/>
<text text-anchor="middle" x="246" y="-7" font-family="Helvetica,sans-Serif" font-size="10.00">FLASH</text>
</a>
</g>
</g>
<!-- Node1&#45;&gt;Node17 -->
<g id="edge16" class="edge">
<title>Node1&#45;&gt;Node17</title>
<path fill="none" stroke="black" d="M68.7,-1000.55C73.54,-866.93 103.94,-104.96 170,-28.5 182.56,-13.97 204.49,-9.74 221.4,-8.84"/>
<polygon fill="black" stroke="black" points="65.19,-1000.78 68.33,-1010.9 72.18,-1001.03 65.19,-1000.78"/>
</g>
</g>
</svg>
        <g id="navigator" transform="translate(0 0)" fill="#404254">
                <rect fill="#f2f5e9" fill-opacity="0.5" stroke="#606060" stroke-width=".5" x="0" y="0" width="60" height="60"/>
                <use id="zoomplus" xlink:href="#zoomPlus" x="17" y="9" onmousedown="handleZoom(evt,'in')"/>
                <use id="zoomminus" xlink:href="#zoomMin" x="42" y="9" onmousedown="handleZoom(evt,'out')"/>
                <use id="reset" xlink:href="#resetDef" x="30" y="36" onmousedown="handleReset()"/>
                <g id="arrowUp" xlink:href="#dirArrow" transform="translate(30 24)" onmousedown="handlePan(0,-1)">
                  <use xlink:href="#rim" fill="#404040">
                        <set attributeName="fill" to="#808080" begin="arrowUp.mouseover" end="arrowUp.mouseout"/>
                  </use>
                  <path fill="none" stroke="white" stroke-width="1.5" d="M0,-3.0v7 M-2.5,-0.5L0,-3.0L2.5,-0.5"/>
                </g>
                <g id="arrowRight" xlink:href="#dirArrow" transform="rotate(90) translate(36 -43)" onmousedown="handlePan(1,0)">
                  <use xlink:href="#rim" fill="#404040">
                        <set attributeName="fill" to="#808080" begin="arrowRight.mouseover" end="arrowRight.mouseout"/>
                  </use>
                  <path fill="none" stroke="white" stroke-width="1.5" d="M0,-3.0v7 M-2.5,-0.5L0,-3.0L2.5,-0.5"/>
                </g>
                <g id="arrowDown" xlink:href="#dirArrow" transform="rotate(180) translate(-30 -48)" onmousedown="handlePan(0,1)">
                  <use xlink:href="#rim" fill="#404040">
                        <set attributeName="fill" to="#808080" begin="arrowDown.mouseover" end="arrowDown.mouseout"/>
                  </use>
                  <path fill="none" stroke="white" stroke-width="1.5" d="M0,-3.0v7 M-2.5,-0.5L0,-3.0L2.5,-0.5"/>
                </g>
                <g id="arrowLeft" xlink:href="#dirArrow" transform="rotate(270) translate(-36 17)" onmousedown="handlePan(-1,0)">
                  <use xlink:href="#rim" fill="#404040">
                        <set attributeName="fill" to="#808080" begin="arrowLeft.mouseover" end="arrowLeft.mouseout"/>
                  </use>
                  <path fill="none" stroke="white" stroke-width="1.5" d="M0,-3.0v7 M-2.5,-0.5L0,-3.0L2.5,-0.5"/>
                </g>
        </g>
        <svg viewBox="0 0 15 15" width="100%" height="30px" preserveAspectRatio="xMaxYMin meet">
         <g id="arrow_out" transform="scale(0.3 0.3)">
          <a xlink:href="group__STM32F4xx__HAL__Driver_org.svg" target="_base">
           <rect id="button" ry="5" rx="5" y="6" x="6" height="38" width="38"
                fill="#f2f5e9" fill-opacity="0.5" stroke="#606060" stroke-width="1.0"/>
           <path id="arrow"
             d="M 11.500037,31.436501 C 11.940474,20.09759 22.043105,11.32322 32.158766,21.979434 L 37.068811,17.246167 C 37.068811,17.246167 37.088388,32 37.088388,32 L 22.160133,31.978069 C 22.160133,31.978069 26.997745,27.140456 26.997745,27.140456 C 18.528582,18.264221 13.291696,25.230495 11.500037,31.436501 z"
             style="fill:#404040;"/>
          </a>
         </g>
        </svg>
</svg>
