<?xml version="1.0" encoding="UTF-8" standalone="no"?>
<!DOCTYPE svg PUBLIC "-//W3C//DTD SVG 1.1//EN"
 "http://www.w3.org/Graphics/SVG/1.1/DTD/svg11.dtd">
<!-- Generated by graphviz version 2.43.0 (0)
 -->
<!-- Title: GPIO_Exported_Functions Pages: 1 -->
<svg width="403pt" height="86pt"
 viewBox="0.00 0.00 403.00 86.00" xmlns="http://www.w3.org/2000/svg" xmlns:xlink="http://www.w3.org/1999/xlink">
<g id="graph0" class="graph" transform="scale(1 1) rotate(0) translate(4 82)">
<title>GPIO_Exported_Functions</title>
<polygon fill="white" stroke="transparent" points="-4,4 -4,-82 399,-82 399,4 -4,4"/>
<!-- Node3 -->
<g id="node1" class="node">
<title>Node3</title>
<g id="a_node1"><a xlink:href="group__GPIO__Exported__Functions__Group1.html" target="_top" xlink:title=" ">
<polygon fill="white" stroke="black" points="395,-78 254,-78 254,-48 395,-48 395,-78"/>
<text text-anchor="start" x="262" y="-66" font-family="Helvetica,sans-Serif" font-size="10.00">GPIO_Exported_Functions</text>
<text text-anchor="middle" x="324.5" y="-55" font-family="Helvetica,sans-Serif" font-size="10.00">_Group1</text>
</a>
</g>
</g>
<!-- Node4 -->
<g id="node2" class="node">
<title>Node4</title>
<g id="a_node2"><a xlink:href="group__GPIO__Exported__Functions__Group2.html" target="_top" xlink:title=" ">
<polygon fill="white" stroke="black" points="395,-30 254,-30 254,0 395,0 395,-30"/>
<text text-anchor="start" x="262" y="-18" font-family="Helvetica,sans-Serif" font-size="10.00">GPIO_Exported_Functions</text>
<text text-anchor="middle" x="324.5" y="-7" font-family="Helvetica,sans-Serif" font-size="10.00">_Group2</text>
</a>
</g>
</g>
<!-- Node2 -->
<g id="node3" class="node">
<title>Node2</title>
<g id="a_node3"><a xlink:href="group__GPIO.html" target="_top" xlink:title="GPIO HAL module driver.">
<polygon fill="white" stroke="black" points="41,-48.5 0,-48.5 0,-29.5 41,-29.5 41,-48.5"/>
<text text-anchor="middle" x="20.5" y="-36.5" font-family="Helvetica,sans-Serif" font-size="10.00">GPIO</text>
</a>
</g>
</g>
<!-- Node1 -->
<g id="node4" class="node">
<title>Node1</title>
<g id="a_node4"><a xlink:title=" ">
<polygon fill="#bfbfbf" stroke="black" points="218,-48.5 77,-48.5 77,-29.5 218,-29.5 218,-48.5"/>
<text text-anchor="middle" x="147.5" y="-36.5" font-family="Helvetica,sans-Serif" font-size="10.00">GPIO_Exported_Functions</text>
</a>
</g>
</g>
<!-- Node2&#45;&gt;Node1 -->
<g id="edge1" class="edge">
<title>Node2&#45;&gt;Node1</title>
<path fill="none" stroke="black" d="M51.12,-39C59.01,-39 67.89,-39 76.96,-39"/>
<polygon fill="black" stroke="black" points="51.03,-35.5 41.03,-39 51.03,-42.5 51.03,-35.5"/>
</g>
<!-- Node1&#45;&gt;Node3 -->
<g id="edge2" class="edge">
<title>Node1&#45;&gt;Node3</title>
<path fill="none" stroke="black" d="M227.99,-49.9C236.63,-51.09 245.37,-52.29 253.88,-53.45"/>
<polygon fill="black" stroke="black" points="228.3,-46.41 217.92,-48.52 227.35,-53.35 228.3,-46.41"/>
</g>
<!-- Node1&#45;&gt;Node4 -->
<g id="edge3" class="edge">
<title>Node1&#45;&gt;Node4</title>
<path fill="none" stroke="black" d="M227.99,-28.1C236.63,-26.91 245.37,-25.71 253.88,-24.55"/>
<polygon fill="black" stroke="black" points="227.35,-24.65 217.92,-29.48 228.3,-31.59 227.35,-24.65"/>
</g>
</g>
</svg>
