<?xml version="1.0" encoding="UTF-8" standalone="no"?>
<!DOCTYPE svg PUBLIC "-//W3C//DTD SVG 1.1//EN"
 "http://www.w3.org/Graphics/SVG/1.1/DTD/svg11.dtd">
<!-- Generated by graphviz version 2.43.0 (0)
 -->
<!-- Title: RTC Exported Constants Pages: 1 -->
<!--zoomable 672 -->
<svg id="main" version="1.1" xmlns="http://www.w3.org/2000/svg" xmlns:xlink="http://www.w3.org/1999/xlink" xml:space="preserve" onload="init(evt)">
<style type="text/css"><![CDATA[
.edge:hover path { stroke: red; }
.edge:hover polygon { stroke: red; fill: red; }
]]></style>
<script type="text/javascript"><![CDATA[
var edges = document.getElementsByTagName('g');
if (edges && edges.length) {
  for (var i=0;i<edges.length;i++) {
    if (edges[i].id.substr(0,4)=='edge') {
      edges[i].setAttribute('class','edge');
    }
  }
}
]]></script>
        <defs>
                <circle id="rim" cx="0" cy="0" r="7"/>
                <circle id="rim2" cx="0" cy="0" r="3.5"/>
                <g id="zoomPlus">
                        <use xlink:href="#rim" fill="#404040">
                                <set attributeName="fill" to="#808080" begin="zoomplus.mouseover" end="zoomplus.mouseout"/>
                        </use>
                        <path d="M-4,0h8M0,-4v8" fill="none" stroke="white" stroke-width="1.5" pointer-events="none"/>
                </g>
                <g id="zoomMin">
                        <use xlink:href="#rim" fill="#404040">
                                <set attributeName="fill" to="#808080" begin="zoomminus.mouseover" end="zoomminus.mouseout"/>
                        </use>
                        <path d="M-4,0h8" fill="none" stroke="white" stroke-width="1.5" pointer-events="none"/>
                </g>
                <g id="dirArrow">
                        <path fill="none" stroke="white" stroke-width="1.5" d="M0,-3.0v7 M-2.5,-0.5L0,-3.0L2.5,-0.5"/>
                </g>
               <g id="resetDef">
                       <use xlink:href="#rim2" fill="#404040">
                               <set attributeName="fill" to="#808080" begin="reset.mouseover" end="reset.mouseout"/>
                       </use>
               </g>
        </defs>

<script type="text/javascript">
var viewWidth = 406;
var viewHeight = 672;
var sectionId = 'dynsection-0';
</script>
<script xlink:href="svgpan.js"/>
<svg id="graph" class="graph">
<g id="viewport">
<title>RTC Exported Constants</title>
<polygon fill="white" stroke="transparent" points="-4,4 -4,-667.5 402,-667.5 402,4 -4,4"/>
<!-- Node16 -->
<g id="node1" class="node">
<title>Node16</title>
<g id="a_node1"><a xlink:href="group__RTC__Alarm__Sub__Seconds__Masks__Definitions.html" target="_top" xlink:title=" ">
<polygon fill="white" stroke="black" points="384.5,-663.5 253.5,-663.5 253.5,-633.5 384.5,-633.5 384.5,-663.5"/>
<text text-anchor="start" x="261.5" y="-651.5" font-family="Helvetica,sans-Serif" font-size="10.00">RTC Alarm Sub Seconds</text>
<text text-anchor="middle" x="319" y="-640.5" font-family="Helvetica,sans-Serif" font-size="10.00"> Masks Definitions</text>
</a>
</g>
</g>
<!-- Node13 -->
<g id="node2" class="node">
<title>Node13</title>
<g id="a_node2"><a xlink:href="group__RTC__AlarmDateWeekDay__Definitions.html" target="_top" xlink:title=" ">
<polygon fill="white" stroke="black" points="390.5,-615.5 247.5,-615.5 247.5,-585.5 390.5,-585.5 390.5,-615.5"/>
<text text-anchor="start" x="255.5" y="-603.5" font-family="Helvetica,sans-Serif" font-size="10.00">RTC Alarm Date WeekDay</text>
<text text-anchor="middle" x="319" y="-592.5" font-family="Helvetica,sans-Serif" font-size="10.00"> Definitions</text>
</a>
</g>
</g>
<!-- Node11 -->
<g id="node3" class="node">
<title>Node11</title>
<g id="a_node3"><a xlink:href="group__RTC__Month__Date__Definitions.html" target="_top" xlink:title=" ">
<polygon fill="white" stroke="black" points="394,-567.5 244,-567.5 244,-537.5 394,-537.5 394,-567.5"/>
<text text-anchor="start" x="252" y="-555.5" font-family="Helvetica,sans-Serif" font-size="10.00">RTC Month Date Definitions</text>
<text text-anchor="middle" x="319" y="-544.5" font-family="Helvetica,sans-Serif" font-size="10.00"> (in BCD format)</text>
</a>
</g>
</g>
<!-- Node4 -->
<g id="node4" class="node">
<title>Node4</title>
<g id="a_node4"><a xlink:href="group__RTC__Output__selection__Definitions.html" target="_top" xlink:title=" ">
<polygon fill="white" stroke="black" points="378.5,-519.5 259.5,-519.5 259.5,-489.5 378.5,-489.5 378.5,-519.5"/>
<text text-anchor="start" x="267.5" y="-507.5" font-family="Helvetica,sans-Serif" font-size="10.00">RTC Output Selection</text>
<text text-anchor="middle" x="319" y="-496.5" font-family="Helvetica,sans-Serif" font-size="10.00"> Definitions</text>
</a>
</g>
</g>
<!-- Node8 -->
<g id="node5" class="node">
<title>Node8</title>
<g id="a_node5"><a xlink:href="group__RTC__DayLightSaving__Definitions.html" target="_top" xlink:title=" ">
<polygon fill="white" stroke="black" points="377.5,-471.5 260.5,-471.5 260.5,-441.5 377.5,-441.5 377.5,-471.5"/>
<text text-anchor="start" x="268.5" y="-459.5" font-family="Helvetica,sans-Serif" font-size="10.00">RTC DayLight Saving</text>
<text text-anchor="middle" x="319" y="-448.5" font-family="Helvetica,sans-Serif" font-size="10.00"> Definitions</text>
</a>
</g>
</g>
<!-- Node10 -->
<g id="node6" class="node">
<title>Node10</title>
<g id="a_node6"><a xlink:href="group__RTC__Input__parameter__format__definitions.html" target="_top" xlink:title=" ">
<polygon fill="white" stroke="black" points="377,-423.5 261,-423.5 261,-393.5 377,-393.5 377,-423.5"/>
<text text-anchor="start" x="269" y="-411.5" font-family="Helvetica,sans-Serif" font-size="10.00">RTC Input Parameter</text>
<text text-anchor="middle" x="319" y="-400.5" font-family="Helvetica,sans-Serif" font-size="10.00"> Format Definitions</text>
</a>
</g>
</g>
<!-- Node2 -->
<g id="node7" class="node">
<title>Node2</title>
<g id="a_node7"><a xlink:href="group__RTC.html" target="_top" xlink:title="RTC HAL module driver.">
<polygon fill="white" stroke="black" points="35,-319 0,-319 0,-300 35,-300 35,-319"/>
<text text-anchor="middle" x="17.5" y="-307" font-family="Helvetica,sans-Serif" font-size="10.00">RTC</text>
</a>
</g>
</g>
<!-- Node1 -->
<g id="node18" class="node">
<title>Node1</title>
<g id="a_node18"><a xlink:title=" ">
<polygon fill="#bfbfbf" stroke="black" points="204,-319 71,-319 71,-300 204,-300 204,-319"/>
<text text-anchor="middle" x="137.5" y="-307" font-family="Helvetica,sans-Serif" font-size="10.00">RTC Exported Constants</text>
</a>
</g>
</g>
<!-- Node2&#45;&gt;Node1 -->
<g id="edge1" class="edge">
<title>Node2&#45;&gt;Node1</title>
<path fill="none" stroke="black" d="M45.33,-309.5C53.09,-309.5 61.93,-309.5 70.97,-309.5"/>
<polygon fill="black" stroke="black" points="45.16,-306 35.16,-309.5 45.16,-313 45.16,-306"/>
</g>
<!-- Node14 -->
<g id="node8" class="node">
<title>Node14</title>
<g id="a_node8"><a xlink:href="group__RTC__AlarmMask__Definitions.html" target="_top" xlink:title=" ">
<polygon fill="white" stroke="black" points="395,-375 243,-375 243,-356 395,-356 395,-375"/>
<text text-anchor="middle" x="319" y="-363" font-family="Helvetica,sans-Serif" font-size="10.00">RTC Alarm Mask Definitions</text>
</a>
</g>
</g>
<!-- Node17 -->
<g id="node9" class="node">
<title>Node17</title>
<g id="a_node9"><a xlink:href="group__RTC__Interrupts__Definitions.html" target="_top" xlink:title=" ">
<polygon fill="white" stroke="black" points="389,-338 249,-338 249,-319 389,-319 389,-338"/>
<text text-anchor="middle" x="319" y="-326" font-family="Helvetica,sans-Serif" font-size="10.00">RTC Interrupts Definitions</text>
</a>
</g>
</g>
<!-- Node15 -->
<g id="node10" class="node">
<title>Node15</title>
<g id="a_node10"><a xlink:href="group__RTC__Alarms__Definitions.html" target="_top" xlink:title=" ">
<polygon fill="white" stroke="black" points="383,-301 255,-301 255,-282 383,-282 383,-301"/>
<text text-anchor="middle" x="319" y="-289" font-family="Helvetica,sans-Serif" font-size="10.00">RTC Alarms Definitions</text>
</a>
</g>
</g>
<!-- Node3 -->
<g id="node11" class="node">
<title>Node3</title>
<g id="a_node11"><a xlink:href="group__RTC__Hour__Formats.html" target="_top" xlink:title=" ">
<polygon fill="white" stroke="black" points="371,-264 267,-264 267,-245 371,-245 371,-264"/>
<text text-anchor="middle" x="319" y="-252" font-family="Helvetica,sans-Serif" font-size="10.00">RTC Hour Formats</text>
</a>
</g>
</g>
<!-- Node18 -->
<g id="node12" class="node">
<title>Node18</title>
<g id="a_node12"><a xlink:href="group__RTC__Flags__Definitions.html" target="_top" xlink:title=" ">
<polygon fill="white" stroke="black" points="378.5,-227 259.5,-227 259.5,-208 378.5,-208 378.5,-227"/>
<text text-anchor="middle" x="319" y="-215" font-family="Helvetica,sans-Serif" font-size="10.00">RTC Flags Definitions</text>
</a>
</g>
</g>
<!-- Node7 -->
<g id="node13" class="node">
<title>Node7</title>
<g id="a_node13"><a xlink:href="group__RTC__AM__PM__Definitions.html" target="_top" xlink:title=" ">
<polygon fill="white" stroke="black" points="382.5,-190 255.5,-190 255.5,-171 382.5,-171 382.5,-190"/>
<text text-anchor="middle" x="319" y="-178" font-family="Helvetica,sans-Serif" font-size="10.00">RTC AM PM Definitions</text>
</a>
</g>
</g>
<!-- Node6 -->
<g id="node14" class="node">
<title>Node6</title>
<g id="a_node14"><a xlink:href="group__RTC__Output__Type__ALARM__OUT.html" target="_top" xlink:title=" ">
<polygon fill="white" stroke="black" points="398,-153 240,-153 240,-134 398,-134 398,-153"/>
<text text-anchor="middle" x="319" y="-141" font-family="Helvetica,sans-Serif" font-size="10.00">RTC Output Type ALARM OUT</text>
</a>
</g>
</g>
<!-- Node5 -->
<g id="node15" class="node">
<title>Node5</title>
<g id="a_node15"><a xlink:href="group__RTC__Output__Polarity__Definitions.html" target="_top" xlink:title=" ">
<polygon fill="white" stroke="black" points="374.5,-115.5 263.5,-115.5 263.5,-85.5 374.5,-85.5 374.5,-115.5"/>
<text text-anchor="start" x="271.5" y="-103.5" font-family="Helvetica,sans-Serif" font-size="10.00">RTC Output Polarity</text>
<text text-anchor="middle" x="319" y="-92.5" font-family="Helvetica,sans-Serif" font-size="10.00"> Definitions</text>
</a>
</g>
</g>
<!-- Node9 -->
<g id="node16" class="node">
<title>Node9</title>
<g id="a_node16"><a xlink:href="group__RTC__StoreOperation__Definitions.html" target="_top" xlink:title=" ">
<polygon fill="white" stroke="black" points="376,-67.5 262,-67.5 262,-37.5 376,-37.5 376,-67.5"/>
<text text-anchor="start" x="270" y="-55.5" font-family="Helvetica,sans-Serif" font-size="10.00">RTC Store Operation</text>
<text text-anchor="middle" x="319" y="-44.5" font-family="Helvetica,sans-Serif" font-size="10.00"> Definitions</text>
</a>
</g>
</g>
<!-- Node12 -->
<g id="node17" class="node">
<title>Node12</title>
<g id="a_node17"><a xlink:href="group__RTC__WeekDay__Definitions.html" target="_top" xlink:title=" ">
<polygon fill="white" stroke="black" points="389,-19 249,-19 249,0 389,0 389,-19"/>
<text text-anchor="middle" x="319" y="-7" font-family="Helvetica,sans-Serif" font-size="10.00">RTC WeekDay Definitions</text>
</a>
</g>
</g>
<!-- Node1&#45;&gt;Node16 -->
<g id="edge15" class="edge">
<title>Node1&#45;&gt;Node16</title>
<path fill="none" stroke="black" d="M138.87,-329.19C141.01,-384.09 154.67,-540.29 240,-624.5 243.93,-628.38 248.48,-631.64 253.36,-634.37"/>
<polygon fill="black" stroke="black" points="142.37,-328.97 138.57,-319.08 135.37,-329.18 142.37,-328.97"/>
</g>
<!-- Node1&#45;&gt;Node13 -->
<g id="edge12" class="edge">
<title>Node1&#45;&gt;Node13</title>
<path fill="none" stroke="black" d="M140.22,-329.41C145.53,-378.68 166.14,-507.27 240,-576.5 243.62,-579.89 247.7,-582.8 252.06,-585.3"/>
<polygon fill="black" stroke="black" points="143.67,-328.78 139.21,-319.17 136.7,-329.46 143.67,-328.78"/>
</g>
<!-- Node1&#45;&gt;Node11 -->
<g id="edge10" class="edge">
<title>Node1&#45;&gt;Node11</title>
<path fill="none" stroke="black" d="M141.99,-328.95C150.64,-371.54 177.11,-473.6 240,-528.5 243.95,-531.95 248.39,-534.9 253.09,-537.43"/>
<polygon fill="black" stroke="black" points="145.4,-328.2 140.08,-319.04 138.53,-329.52 145.4,-328.2"/>
</g>
<!-- Node1&#45;&gt;Node4 -->
<g id="edge3" class="edge">
<title>Node1&#45;&gt;Node4</title>
<path fill="none" stroke="black" d="M144.74,-328.96C157.12,-364.43 188.13,-439.67 240,-480.5 245.79,-485.06 252.45,-488.75 259.38,-491.75"/>
<polygon fill="black" stroke="black" points="148,-327.68 141.5,-319.32 141.37,-329.91 148,-327.68"/>
</g>
<!-- Node1&#45;&gt;Node8 -->
<g id="edge7" class="edge">
<title>Node1&#45;&gt;Node8</title>
<path fill="none" stroke="black" d="M148.86,-327.9C164.93,-354.8 198.4,-404.66 240,-432.5 246.24,-436.68 253.24,-440.15 260.42,-443.04"/>
<polygon fill="black" stroke="black" points="151.8,-325.99 143.74,-319.11 145.75,-329.52 151.8,-325.99"/>
</g>
<!-- Node1&#45;&gt;Node10 -->
<g id="edge9" class="edge">
<title>Node1&#45;&gt;Node10</title>
<path fill="none" stroke="black" d="M156.68,-325.93C176.07,-342.71 208.31,-368.5 240,-384.5 246.58,-387.82 253.7,-390.78 260.88,-393.39"/>
<polygon fill="black" stroke="black" points="158.78,-323.12 148.96,-319.14 154.15,-328.37 158.78,-323.12"/>
</g>
<!-- Node1&#45;&gt;Node14 -->
<g id="edge13" class="edge">
<title>Node1&#45;&gt;Node14</title>
<path fill="none" stroke="black" d="M171.02,-322.92C190.76,-330.75 216.57,-340.44 240,-347.5 250.25,-350.59 261.39,-353.44 271.95,-355.93"/>
<polygon fill="black" stroke="black" points="172.17,-319.61 161.58,-319.14 169.56,-326.11 172.17,-319.61"/>
</g>
<!-- Node1&#45;&gt;Node17 -->
<g id="edge16" class="edge">
<title>Node1&#45;&gt;Node17</title>
<path fill="none" stroke="black" d="M214.13,-317.51C225.69,-318.73 237.58,-319.99 248.99,-321.2"/>
<polygon fill="black" stroke="black" points="214.38,-314.01 204.07,-316.44 213.64,-320.97 214.38,-314.01"/>
</g>
<!-- Node1&#45;&gt;Node15 -->
<g id="edge14" class="edge">
<title>Node1&#45;&gt;Node15</title>
<path fill="none" stroke="black" d="M214.26,-301.9C227.73,-300.55 241.63,-299.16 254.71,-297.85"/>
<polygon fill="black" stroke="black" points="213.67,-298.44 204.07,-302.93 214.36,-305.41 213.67,-298.44"/>
</g>
<!-- Node1&#45;&gt;Node3 -->
<g id="edge2" class="edge">
<title>Node1&#45;&gt;Node3</title>
<path fill="none" stroke="black" d="M171.45,-296.32C191.14,-288.74 216.77,-279.39 240,-272.5 250.39,-269.42 261.69,-266.54 272.38,-264.04"/>
<polygon fill="black" stroke="black" points="170.06,-293.11 162.01,-299.99 172.6,-299.63 170.06,-293.11"/>
</g>
<!-- Node1&#45;&gt;Node18 -->
<g id="edge17" class="edge">
<title>Node1&#45;&gt;Node18</title>
<path fill="none" stroke="black" d="M156.19,-293.11C175.4,-276.2 207.69,-250.26 240,-235.5 247.46,-232.09 255.62,-229.3 263.77,-227.02"/>
<polygon fill="black" stroke="black" points="153.66,-290.68 148.56,-299.96 158.34,-295.88 153.66,-290.68"/>
</g>
<!-- Node1&#45;&gt;Node7 -->
<g id="edge6" class="edge">
<title>Node1&#45;&gt;Node7</title>
<path fill="none" stroke="black" d="M149.78,-291.49C166.38,-266.56 199.81,-221.97 240,-198.5 245.88,-195.07 252.37,-192.29 259.01,-190.04"/>
<polygon fill="black" stroke="black" points="146.77,-289.7 144.27,-300 152.64,-293.51 146.77,-289.7"/>
</g>
<!-- Node1&#45;&gt;Node6 -->
<g id="edge5" class="edge">
<title>Node1&#45;&gt;Node6</title>
<path fill="none" stroke="black" d="M146.18,-290.13C159.93,-258.07 191.89,-194.29 240,-161.5 245.05,-158.06 250.67,-155.26 256.52,-153"/>
<polygon fill="black" stroke="black" points="142.81,-289.11 142.22,-299.69 149.28,-291.79 142.81,-289.11"/>
</g>
<!-- Node1&#45;&gt;Node5 -->
<g id="edge4" class="edge">
<title>Node1&#45;&gt;Node5</title>
<path fill="none" stroke="black" d="M143.81,-290.02C155.07,-252.37 184.94,-169.36 240,-124.5 246.81,-118.95 254.9,-114.68 263.24,-111.4"/>
<polygon fill="black" stroke="black" points="140.4,-289.19 141.01,-299.77 147.13,-291.12 140.4,-289.19"/>
</g>
<!-- Node1&#45;&gt;Node9 -->
<g id="edge8" class="edge">
<title>Node1&#45;&gt;Node9</title>
<path fill="none" stroke="black" d="M141.44,-289.73C149.13,-245.03 174.02,-135.46 240,-76.5 246.34,-70.84 253.99,-66.51 261.99,-63.2"/>
<polygon fill="black" stroke="black" points="137.94,-289.43 139.8,-299.86 144.85,-290.54 137.94,-289.43"/>
</g>
<!-- Node1&#45;&gt;Node12 -->
<g id="edge11" class="edge">
<title>Node1&#45;&gt;Node12</title>
<path fill="none" stroke="black" d="M139.51,-289.64C143.23,-238.24 160.52,-99.85 240,-28.5 244.25,-24.68 249.14,-21.6 254.36,-19.12"/>
<polygon fill="black" stroke="black" points="136.01,-289.55 138.88,-299.75 142.99,-289.99 136.01,-289.55"/>
</g>
</g>
</svg>
        <g id="navigator" transform="translate(0 0)" fill="#404254">
                <rect fill="#f2f5e9" fill-opacity="0.5" stroke="#606060" stroke-width=".5" x="0" y="0" width="60" height="60"/>
                <use id="zoomplus" xlink:href="#zoomPlus" x="17" y="9" onmousedown="handleZoom(evt,'in')"/>
                <use id="zoomminus" xlink:href="#zoomMin" x="42" y="9" onmousedown="handleZoom(evt,'out')"/>
                <use id="reset" xlink:href="#resetDef" x="30" y="36" onmousedown="handleReset()"/>
                <g id="arrowUp" xlink:href="#dirArrow" transform="translate(30 24)" onmousedown="handlePan(0,-1)">
                  <use xlink:href="#rim" fill="#404040">
                        <set attributeName="fill" to="#808080" begin="arrowUp.mouseover" end="arrowUp.mouseout"/>
                  </use>
                  <path fill="none" stroke="white" stroke-width="1.5" d="M0,-3.0v7 M-2.5,-0.5L0,-3.0L2.5,-0.5"/>
                </g>
                <g id="arrowRight" xlink:href="#dirArrow" transform="rotate(90) translate(36 -43)" onmousedown="handlePan(1,0)">
                  <use xlink:href="#rim" fill="#404040">
                        <set attributeName="fill" to="#808080" begin="arrowRight.mouseover" end="arrowRight.mouseout"/>
                  </use>
                  <path fill="none" stroke="white" stroke-width="1.5" d="M0,-3.0v7 M-2.5,-0.5L0,-3.0L2.5,-0.5"/>
                </g>
                <g id="arrowDown" xlink:href="#dirArrow" transform="rotate(180) translate(-30 -48)" onmousedown="handlePan(0,1)">
                  <use xlink:href="#rim" fill="#404040">
                        <set attributeName="fill" to="#808080" begin="arrowDown.mouseover" end="arrowDown.mouseout"/>
                  </use>
                  <path fill="none" stroke="white" stroke-width="1.5" d="M0,-3.0v7 M-2.5,-0.5L0,-3.0L2.5,-0.5"/>
                </g>
                <g id="arrowLeft" xlink:href="#dirArrow" transform="rotate(270) translate(-36 17)" onmousedown="handlePan(-1,0)">
                  <use xlink:href="#rim" fill="#404040">
                        <set attributeName="fill" to="#808080" begin="arrowLeft.mouseover" end="arrowLeft.mouseout"/>
                  </use>
                  <path fill="none" stroke="white" stroke-width="1.5" d="M0,-3.0v7 M-2.5,-0.5L0,-3.0L2.5,-0.5"/>
                </g>
        </g>
        <svg viewBox="0 0 15 15" width="100%" height="30px" preserveAspectRatio="xMaxYMin meet">
         <g id="arrow_out" transform="scale(0.3 0.3)">
          <a xlink:href="group__RTC__Exported__Constants_org.svg" target="_base">
           <rect id="button" ry="5" rx="5" y="6" x="6" height="38" width="38"
                fill="#f2f5e9" fill-opacity="0.5" stroke="#606060" stroke-width="1.0"/>
           <path id="arrow"
             d="M 11.500037,31.436501 C 11.940474,20.09759 22.043105,11.32322 32.158766,21.979434 L 37.068811,17.246167 C 37.068811,17.246167 37.088388,32 37.088388,32 L 22.160133,31.978069 C 22.160133,31.978069 26.997745,27.140456 26.997745,27.140456 C 18.528582,18.264221 13.291696,25.230495 11.500037,31.436501 z"
             style="fill:#404040;"/>
          </a>
         </g>
        </svg>
</svg>
