<?xml version="1.0" encoding="UTF-8" standalone="no"?>
<!DOCTYPE svg PUBLIC "-//W3C//DTD SVG 1.1//EN"
 "http://www.w3.org/Graphics/SVG/1.1/DTD/svg11.dtd">
<!-- Generated by graphviz version 2.43.0 (0)
 -->
<!-- Title: TIM Extended Exported Constants Pages: 1 -->
<svg width="399pt" height="38pt"
 viewBox="0.00 0.00 399.00 38.00" xmlns="http://www.w3.org/2000/svg" xmlns:xlink="http://www.w3.org/1999/xlink">
<g id="graph0" class="graph" transform="scale(1 1) rotate(0) translate(4 34)">
<title>TIM Extended Exported Constants</title>
<polygon fill="white" stroke="transparent" points="-4,4 -4,-34 395,-34 395,4 -4,4"/>
<!-- Node2 -->
<g id="node1" class="node">
<title>Node2</title>
<g id="a_node1"><a xlink:href="group__TIMEx.html" target="_top" xlink:title="TIM Extended HAL module driver.">
<polygon fill="white" stroke="black" points="47,-24.5 0,-24.5 0,-5.5 47,-5.5 47,-24.5"/>
<text text-anchor="middle" x="23.5" y="-12.5" font-family="Helvetica,sans-Serif" font-size="10.00">TIMEx</text>
</a>
</g>
</g>
<!-- Node1 -->
<g id="node3" class="node">
<title>Node1</title>
<g id="a_node3"><a xlink:title=" ">
<polygon fill="#bfbfbf" stroke="black" points="213,-30 83,-30 83,0 213,0 213,-30"/>
<text text-anchor="start" x="91" y="-18" font-family="Helvetica,sans-Serif" font-size="10.00">TIM Extended Exported</text>
<text text-anchor="middle" x="148" y="-7" font-family="Helvetica,sans-Serif" font-size="10.00"> Constants</text>
</a>
</g>
</g>
<!-- Node2&#45;&gt;Node1 -->
<g id="edge1" class="edge">
<title>Node2&#45;&gt;Node1</title>
<path fill="none" stroke="black" d="M57.49,-15C65.42,-15 74.15,-15 82.97,-15"/>
<polygon fill="black" stroke="black" points="57.25,-11.5 47.25,-15 57.25,-18.5 57.25,-11.5"/>
</g>
<!-- Node3 -->
<g id="node2" class="node">
<title>Node3</title>
<g id="a_node2"><a xlink:href="group__TIMEx__Remap.html" target="_top" xlink:title=" ">
<polygon fill="white" stroke="black" points="391,-24.5 249,-24.5 249,-5.5 391,-5.5 391,-24.5"/>
<text text-anchor="middle" x="320" y="-12.5" font-family="Helvetica,sans-Serif" font-size="10.00">TIM Extended Remapping</text>
</a>
</g>
</g>
<!-- Node1&#45;&gt;Node3 -->
<g id="edge2" class="edge">
<title>Node1&#45;&gt;Node3</title>
<path fill="none" stroke="black" d="M223.5,-15C231.96,-15 240.56,-15 248.96,-15"/>
<polygon fill="black" stroke="black" points="223.27,-11.5 213.27,-15 223.27,-18.5 223.27,-11.5"/>
</g>
</g>
</svg>
