<?xml version="1.0" encoding="UTF-8" standalone="no"?>
<!DOCTYPE svg PUBLIC "-//W3C//DTD SVG 1.1//EN"
 "http://www.w3.org/Graphics/SVG/1.1/DTD/svg11.dtd">
<!-- Generated by graphviz version 2.43.0 (0)
 -->
<!-- Title: ADC Exported Constants Pages: 1 -->
<svg width="392pt" height="593pt"
 viewBox="0.00 0.00 392.00 593.00" xmlns="http://www.w3.org/2000/svg" xmlns:xlink="http://www.w3.org/1999/xlink">
<g id="graph0" class="graph" transform="scale(1 1) rotate(0) translate(4 589)">
<title>ADC Exported Constants</title>
<polygon fill="white" stroke="transparent" points="-4,4 -4,-589 388,-589 388,4 -4,4"/>
<!-- Node13 -->
<g id="node1" class="node">
<title>Node13</title>
<g id="a_node1"><a xlink:href="group__ADC__Event__type.html" target="_top" xlink:title=" ">
<polygon fill="white" stroke="black" points="362,-585 268,-585 268,-566 362,-566 362,-585"/>
<text text-anchor="middle" x="315" y="-573" font-family="Helvetica,sans-Serif" font-size="10.00">ADC Event Type</text>
</a>
</g>
</g>
<!-- Node11 -->
<g id="node2" class="node">
<title>Node11</title>
<g id="a_node2"><a xlink:href="group__ADC__sampling__times.html" target="_top" xlink:title=" ">
<polygon fill="white" stroke="black" points="374.5,-548 255.5,-548 255.5,-529 374.5,-529 374.5,-548"/>
<text text-anchor="middle" x="315" y="-536" font-family="Helvetica,sans-Serif" font-size="10.00">ADC Sampling Times</text>
</a>
</g>
</g>
<!-- Node6 -->
<g id="node3" class="node">
<title>Node6</title>
<g id="a_node3"><a xlink:href="group__ADC__Resolution.html" target="_top" xlink:title=" ">
<polygon fill="white" stroke="black" points="361,-511 269,-511 269,-492 361,-492 361,-511"/>
<text text-anchor="middle" x="315" y="-499" font-family="Helvetica,sans-Serif" font-size="10.00">ADC Resolution</text>
</a>
</g>
</g>
<!-- Node14 -->
<g id="node4" class="node">
<title>Node14</title>
<g id="a_node4"><a xlink:href="group__ADC__analog__watchdog__selection.html" target="_top" xlink:title=" ">
<polygon fill="white" stroke="black" points="377.5,-473.5 252.5,-473.5 252.5,-443.5 377.5,-443.5 377.5,-473.5"/>
<text text-anchor="start" x="260.5" y="-461.5" font-family="Helvetica,sans-Serif" font-size="10.00">ADC Analog Watchdog</text>
<text text-anchor="middle" x="315" y="-450.5" font-family="Helvetica,sans-Serif" font-size="10.00"> Selection</text>
</a>
</g>
</g>
<!-- Node15 -->
<g id="node5" class="node">
<title>Node15</title>
<g id="a_node5"><a xlink:href="group__ADC__interrupts__definition.html" target="_top" xlink:title=" ">
<polygon fill="white" stroke="black" points="384,-425 246,-425 246,-406 384,-406 384,-425"/>
<text text-anchor="middle" x="315" y="-413" font-family="Helvetica,sans-Serif" font-size="10.00">ADC Interrupts Definition</text>
</a>
</g>
</g>
<!-- Node9 -->
<g id="node6" class="node">
<title>Node9</title>
<g id="a_node6"><a xlink:href="group__ADC__Data__align.html" target="_top" xlink:title=" ">
<polygon fill="white" stroke="black" points="361,-388 269,-388 269,-369 361,-369 361,-388"/>
<text text-anchor="middle" x="315" y="-376" font-family="Helvetica,sans-Serif" font-size="10.00">ADC Data Align</text>
</a>
</g>
</g>
<!-- Node8 -->
<g id="node7" class="node">
<title>Node8</title>
<g id="a_node7"><a xlink:href="group__ADC__External__trigger__Source__Regular.html" target="_top" xlink:title=" ">
<polygon fill="white" stroke="black" points="373.5,-350.5 256.5,-350.5 256.5,-320.5 373.5,-320.5 373.5,-350.5"/>
<text text-anchor="start" x="264.5" y="-338.5" font-family="Helvetica,sans-Serif" font-size="10.00">ADC External Trigger</text>
<text text-anchor="middle" x="315" y="-327.5" font-family="Helvetica,sans-Serif" font-size="10.00"> Source Regular</text>
</a>
</g>
</g>
<!-- Node4 -->
<g id="node8" class="node">
<title>Node4</title>
<g id="a_node8"><a xlink:href="group__ADC__ClockPrescaler.html" target="_top" xlink:title=" ">
<polygon fill="white" stroke="black" points="373,-302 257,-302 257,-283 373,-283 373,-302"/>
<text text-anchor="middle" x="315" y="-290" font-family="Helvetica,sans-Serif" font-size="10.00">ADC Clock Prescaler</text>
</a>
</g>
</g>
<!-- Node10 -->
<g id="node9" class="node">
<title>Node10</title>
<g id="a_node9"><a xlink:href="group__ADC__channels.html" target="_top" xlink:title=" ">
<polygon fill="white" stroke="black" points="381.5,-265 248.5,-265 248.5,-246 381.5,-246 381.5,-265"/>
<text text-anchor="middle" x="315" y="-253" font-family="Helvetica,sans-Serif" font-size="10.00">ADC Common Channels</text>
</a>
</g>
</g>
<!-- Node12 -->
<g id="node10" class="node">
<title>Node12</title>
<g id="a_node10"><a xlink:href="group__ADC__EOCSelection.html" target="_top" xlink:title=" ">
<polygon fill="white" stroke="black" points="369.5,-228 260.5,-228 260.5,-209 369.5,-209 369.5,-228"/>
<text text-anchor="middle" x="315" y="-216" font-family="Helvetica,sans-Serif" font-size="10.00">ADC EOC Selection</text>
</a>
</g>
</g>
<!-- Node7 -->
<g id="node11" class="node">
<title>Node7</title>
<g id="a_node11"><a xlink:href="group__ADC__External__trigger__edge__Regular.html" target="_top" xlink:title=" ">
<polygon fill="white" stroke="black" points="373.5,-190.5 256.5,-190.5 256.5,-160.5 373.5,-160.5 373.5,-190.5"/>
<text text-anchor="start" x="264.5" y="-178.5" font-family="Helvetica,sans-Serif" font-size="10.00">ADC External Trigger</text>
<text text-anchor="middle" x="315" y="-167.5" font-family="Helvetica,sans-Serif" font-size="10.00"> Edge Regular</text>
</a>
</g>
</g>
<!-- Node2 -->
<g id="node12" class="node">
<title>Node2</title>
<g id="a_node12"><a xlink:href="group__ADC.html" target="_top" xlink:title="ADC driver modules.">
<polygon fill="white" stroke="black" points="38,-302 0,-302 0,-283 38,-283 38,-302"/>
<text text-anchor="middle" x="19" y="-290" font-family="Helvetica,sans-Serif" font-size="10.00">ADC</text>
</a>
</g>
</g>
<!-- Node1 -->
<g id="node15" class="node">
<title>Node1</title>
<g id="a_node15"><a xlink:title=" ">
<polygon fill="#bfbfbf" stroke="black" points="210,-302 74,-302 74,-283 210,-283 210,-302"/>
<text text-anchor="middle" x="142" y="-290" font-family="Helvetica,sans-Serif" font-size="10.00">ADC Exported Constants</text>
</a>
</g>
</g>
<!-- Node2&#45;&gt;Node1 -->
<g id="edge1" class="edge">
<title>Node2&#45;&gt;Node1</title>
<path fill="none" stroke="black" d="M48.12,-292.5C55.99,-292.5 64.89,-292.5 74,-292.5"/>
<polygon fill="black" stroke="black" points="48.11,-289 38.11,-292.5 48.11,-296 48.11,-289"/>
</g>
<!-- Node3 -->
<g id="node13" class="node">
<title>Node3</title>
<g id="a_node13"><a xlink:href="group__ADC__Error__Code.html" target="_top" xlink:title=" ">
<polygon fill="white" stroke="black" points="361,-142 269,-142 269,-123 361,-123 361,-142"/>
<text text-anchor="middle" x="315" y="-130" font-family="Helvetica,sans-Serif" font-size="10.00">ADC Error Code</text>
</a>
</g>
</g>
<!-- Node5 -->
<g id="node14" class="node">
<title>Node5</title>
<g id="a_node14"><a xlink:href="group__ADC__delay__between__2__sampling__phases.html" target="_top" xlink:title=" ">
<polygon fill="white" stroke="black" points="377,-104.5 253,-104.5 253,-74.5 377,-74.5 377,-104.5"/>
<text text-anchor="start" x="261" y="-92.5" font-family="Helvetica,sans-Serif" font-size="10.00">ADC Delay Between 2</text>
<text text-anchor="middle" x="315" y="-81.5" font-family="Helvetica,sans-Serif" font-size="10.00"> Sampling Phases</text>
</a>
</g>
</g>
<!-- Node1&#45;&gt;Node13 -->
<g id="edge12" class="edge">
<title>Node1&#45;&gt;Node13</title>
<path fill="none" stroke="black" d="M144.69,-312.14C149.98,-361.25 170.72,-490.21 246,-557.5 252.19,-563.03 259.89,-566.9 267.86,-569.59"/>
<polygon fill="black" stroke="black" points="148.17,-311.8 143.71,-302.19 141.2,-312.48 148.17,-311.8"/>
</g>
<!-- Node1&#45;&gt;Node11 -->
<g id="edge10" class="edge">
<title>Node1&#45;&gt;Node11</title>
<path fill="none" stroke="black" d="M146.05,-312.04C153.99,-356.2 179.53,-464.21 246,-520.5 250.01,-523.89 254.59,-526.65 259.43,-528.9"/>
<polygon fill="black" stroke="black" points="149.48,-311.31 144.36,-302.03 142.57,-312.48 149.48,-311.31"/>
</g>
<!-- Node1&#45;&gt;Node6 -->
<g id="edge5" class="edge">
<title>Node1&#45;&gt;Node6</title>
<path fill="none" stroke="black" d="M148.05,-312.09C159.05,-350.72 188.86,-436.93 246,-482.5 252.61,-487.77 260.6,-491.58 268.74,-494.34"/>
<polygon fill="black" stroke="black" points="151.34,-310.85 145.34,-302.12 144.59,-312.69 151.34,-310.85"/>
</g>
<!-- Node1&#45;&gt;Node14 -->
<g id="edge13" class="edge">
<title>Node1&#45;&gt;Node14</title>
<path fill="none" stroke="black" d="M151.94,-311.39C167.14,-341.6 200.83,-400.78 246,-434.5 250.51,-437.87 255.54,-440.8 260.77,-443.33"/>
<polygon fill="black" stroke="black" points="155.04,-309.78 147.5,-302.34 148.76,-312.86 155.04,-309.78"/>
</g>
<!-- Node1&#45;&gt;Node15 -->
<g id="edge14" class="edge">
<title>Node1&#45;&gt;Node15</title>
<path fill="none" stroke="black" d="M155.64,-310.4C173.2,-333.95 207.25,-374.96 246,-397.5 251.81,-400.88 258.26,-403.63 264.8,-405.88"/>
<polygon fill="black" stroke="black" points="158.46,-308.33 149.74,-302.31 152.8,-312.45 158.46,-308.33"/>
</g>
<!-- Node1&#45;&gt;Node9 -->
<g id="edge8" class="edge">
<title>Node1&#45;&gt;Node9</title>
<path fill="none" stroke="black" d="M163.02,-308.18C183.03,-323.2 215.18,-345.57 246,-359.5 254.15,-363.19 263.19,-366.32 271.93,-368.9"/>
<polygon fill="black" stroke="black" points="165.05,-305.33 154.98,-302.05 160.81,-310.9 165.05,-305.33"/>
</g>
<!-- Node1&#45;&gt;Node8 -->
<g id="edge7" class="edge">
<title>Node1&#45;&gt;Node8</title>
<path fill="none" stroke="black" d="M190.91,-304.55C211.22,-309.65 235.06,-315.65 256.32,-321"/>
<polygon fill="black" stroke="black" points="191.5,-301.09 180.95,-302.04 189.79,-307.88 191.5,-301.09"/>
</g>
<!-- Node1&#45;&gt;Node4 -->
<g id="edge3" class="edge">
<title>Node1&#45;&gt;Node4</title>
<path fill="none" stroke="black" d="M220.32,-292.5C232.59,-292.5 245.09,-292.5 256.79,-292.5"/>
<polygon fill="black" stroke="black" points="220.09,-289 210.09,-292.5 220.09,-296 220.09,-289"/>
</g>
<!-- Node1&#45;&gt;Node10 -->
<g id="edge9" class="edge">
<title>Node1&#45;&gt;Node10</title>
<path fill="none" stroke="black" d="M196.85,-280.85C220.34,-275.77 247.54,-269.88 269.82,-265.06"/>
<polygon fill="black" stroke="black" points="196.07,-277.44 187.04,-282.97 197.55,-284.28 196.07,-277.44"/>
</g>
<!-- Node1&#45;&gt;Node12 -->
<g id="edge11" class="edge">
<title>Node1&#45;&gt;Node12</title>
<path fill="none" stroke="black" d="M166.4,-277.67C186.78,-265.27 217.46,-247.85 246,-236.5 254.06,-233.3 262.88,-230.49 271.41,-228.1"/>
<polygon fill="black" stroke="black" points="164.48,-274.74 157.8,-282.97 168.15,-280.7 164.48,-274.74"/>
</g>
<!-- Node1&#45;&gt;Node7 -->
<g id="edge6" class="edge">
<title>Node1&#45;&gt;Node7</title>
<path fill="none" stroke="black" d="M157.98,-275.34C176.73,-254.79 210.7,-220.51 246,-199.5 251.59,-196.17 257.72,-193.2 263.93,-190.59"/>
<polygon fill="black" stroke="black" points="155.2,-273.2 151.13,-282.98 160.41,-277.87 155.2,-273.2"/>
</g>
<!-- Node1&#45;&gt;Node3 -->
<g id="edge2" class="edge">
<title>Node1&#45;&gt;Node3</title>
<path fill="none" stroke="black" d="M151.5,-273.83C166.29,-243.49 199.67,-183.62 246,-151.5 252.85,-146.75 260.86,-143.18 268.93,-140.51"/>
<polygon fill="black" stroke="black" points="148.32,-272.37 147.21,-282.91 154.65,-275.37 148.32,-272.37"/>
</g>
<!-- Node1&#45;&gt;Node5 -->
<g id="edge4" class="edge">
<title>Node1&#45;&gt;Node5</title>
<path fill="none" stroke="black" d="M149.15,-272.86C161.56,-236.3 193.05,-157.56 246,-113.5 250.14,-110.06 254.8,-107.09 259.71,-104.55"/>
<polygon fill="black" stroke="black" points="145.69,-272.17 145.9,-282.76 152.34,-274.35 145.69,-272.17"/>
</g>
<!-- Node16 -->
<g id="node16" class="node">
<title>Node16</title>
<g id="a_node16"><a xlink:href="group__ADC__flags__definition.html" target="_top" xlink:title=" ">
<polygon fill="white" stroke="black" points="373.5,-56 256.5,-56 256.5,-37 373.5,-37 373.5,-56"/>
<text text-anchor="middle" x="315" y="-44" font-family="Helvetica,sans-Serif" font-size="10.00">ADC Flags Definition</text>
</a>
</g>
</g>
<!-- Node1&#45;&gt;Node16 -->
<g id="edge15" class="edge">
<title>Node1&#45;&gt;Node16</title>
<path fill="none" stroke="black" d="M146.24,-272.5C154.48,-228.29 180.41,-121.72 246,-65.5 250.56,-61.59 255.87,-58.48 261.46,-56.01"/>
<polygon fill="black" stroke="black" points="142.76,-272.1 144.48,-282.56 149.65,-273.31 142.76,-272.1"/>
</g>
<!-- Node17 -->
<g id="node17" class="node">
<title>Node17</title>
<g id="a_node17"><a xlink:href="group__ADC__channels__type.html" target="_top" xlink:title=" ">
<polygon fill="white" stroke="black" points="370.5,-19 259.5,-19 259.5,0 370.5,0 370.5,-19"/>
<text text-anchor="middle" x="315" y="-7" font-family="Helvetica,sans-Serif" font-size="10.00">ADC Channels Type</text>
</a>
</g>
</g>
<!-- Node1&#45;&gt;Node17 -->
<g id="edge16" class="edge">
<title>Node1&#45;&gt;Node17</title>
<path fill="none" stroke="black" d="M144.69,-272.86C149.98,-223.75 170.72,-94.79 246,-27.5 249.92,-24 254.43,-21.17 259.24,-18.88"/>
<polygon fill="black" stroke="black" points="141.2,-272.52 143.71,-282.81 148.17,-273.2 141.2,-272.52"/>
</g>
</g>
</svg>
