<?xml version="1.0" encoding="UTF-8" standalone="no"?>
<!DOCTYPE svg PUBLIC "-//W3C//DTD SVG 1.1//EN"
 "http://www.w3.org/Graphics/SVG/1.1/DTD/svg11.dtd">
<!-- Generated by graphviz version 2.43.0 (0)
 -->
<!-- Title: RTCEx Exported Macros Pages: 1 -->
<svg width="440pt" height="175pt"
 viewBox="0.00 0.00 440.00 175.00" xmlns="http://www.w3.org/2000/svg" xmlns:xlink="http://www.w3.org/1999/xlink">
<g id="graph0" class="graph" transform="scale(1 1) rotate(0) translate(4 171)">
<title>RTCEx Exported Macros</title>
<polygon fill="white" stroke="transparent" points="-4,4 -4,-171 436,-171 436,4 -4,4"/>
<!-- Node2 -->
<g id="node1" class="node">
<title>Node2</title>
<g id="a_node1"><a xlink:href="group__RTCEx.html" target="_top" xlink:title="RTC Extended HAL module driver.">
<polygon fill="white" stroke="black" points="47,-93 0,-93 0,-74 47,-74 47,-93"/>
<text text-anchor="middle" x="23.5" y="-81" font-family="Helvetica,sans-Serif" font-size="10.00">RTCEx</text>
</a>
</g>
</g>
<!-- Node1 -->
<g id="node7" class="node">
<title>Node1</title>
<g id="a_node7"><a xlink:title=" ">
<polygon fill="#bfbfbf" stroke="black" points="214,-93 83,-93 83,-74 214,-74 214,-93"/>
<text text-anchor="middle" x="148.5" y="-81" font-family="Helvetica,sans-Serif" font-size="10.00">RTCEx Exported Macros</text>
</a>
</g>
</g>
<!-- Node2&#45;&gt;Node1 -->
<g id="edge1" class="edge">
<title>Node2&#45;&gt;Node1</title>
<path fill="none" stroke="black" d="M57.06,-83.5C65.09,-83.5 73.98,-83.5 82.95,-83.5"/>
<polygon fill="black" stroke="black" points="57.06,-80 47.06,-83.5 57.06,-87 57.06,-80"/>
</g>
<!-- Node7 -->
<g id="node2" class="node">
<title>Node7</title>
<g id="a_node2"><a xlink:href="group__RTCEx__Calibration.html" target="_top" xlink:title=" ">
<polygon fill="white" stroke="black" points="392.5,-167 289.5,-167 289.5,-148 392.5,-148 392.5,-167"/>
<text text-anchor="middle" x="341" y="-155" font-family="Helvetica,sans-Serif" font-size="10.00">RTCEx Calibration</text>
</a>
</g>
</g>
<!-- Node6 -->
<g id="node3" class="node">
<title>Node6</title>
<g id="a_node3"><a xlink:href="group__RTCEx__Tamper__Timestamp.html" target="_top" xlink:title=" ">
<polygon fill="white" stroke="black" points="432,-130 250,-130 250,-111 432,-111 432,-130"/>
<text text-anchor="middle" x="341" y="-118" font-family="Helvetica,sans-Serif" font-size="10.00">EXTI RTC Tamper Timestamp EXTI</text>
</a>
</g>
</g>
<!-- Node5 -->
<g id="node4" class="node">
<title>Node5</title>
<g id="a_node4"><a xlink:href="group__RTCEx__Tamper.html" target="_top" xlink:title=" ">
<polygon fill="white" stroke="black" points="384,-93 298,-93 298,-74 384,-74 384,-93"/>
<text text-anchor="middle" x="341" y="-81" font-family="Helvetica,sans-Serif" font-size="10.00">RTCEx Tamper</text>
</a>
</g>
</g>
<!-- Node4 -->
<g id="node5" class="node">
<title>Node4</title>
<g id="a_node5"><a xlink:href="group__RTCEx__Timestamp.html" target="_top" xlink:title=" ">
<polygon fill="white" stroke="black" points="393.5,-56 288.5,-56 288.5,-37 393.5,-37 393.5,-56"/>
<text text-anchor="middle" x="341" y="-44" font-family="Helvetica,sans-Serif" font-size="10.00">RTCEx Timestamp</text>
</a>
</g>
</g>
<!-- Node3 -->
<g id="node6" class="node">
<title>Node3</title>
<g id="a_node6"><a xlink:href="group__RTCEx__WakeUp__Timer.html" target="_top" xlink:title=" ">
<polygon fill="white" stroke="black" points="401.5,-19 280.5,-19 280.5,0 401.5,0 401.5,-19"/>
<text text-anchor="middle" x="341" y="-7" font-family="Helvetica,sans-Serif" font-size="10.00">RTCEx WakeUp Timer</text>
</a>
</g>
</g>
<!-- Node1&#45;&gt;Node7 -->
<g id="edge6" class="edge">
<title>Node1&#45;&gt;Node7</title>
<path fill="none" stroke="black" d="M172.04,-98.76C191.79,-111.45 221.68,-129.07 250,-139.5 262.41,-144.07 276.23,-147.57 289.25,-150.21"/>
<polygon fill="black" stroke="black" points="173.75,-95.69 163.47,-93.14 169.92,-101.55 173.75,-95.69"/>
</g>
<!-- Node1&#45;&gt;Node6 -->
<g id="edge5" class="edge">
<title>Node1&#45;&gt;Node6</title>
<path fill="none" stroke="black" d="M208.44,-94.95C234.85,-100.08 265.63,-106.06 290.78,-110.94"/>
<polygon fill="black" stroke="black" points="209.04,-91.5 198.56,-93.03 207.71,-98.37 209.04,-91.5"/>
</g>
<!-- Node1&#45;&gt;Node5 -->
<g id="edge4" class="edge">
<title>Node1&#45;&gt;Node5</title>
<path fill="none" stroke="black" d="M224.44,-83.5C249.39,-83.5 276.28,-83.5 297.84,-83.5"/>
<polygon fill="black" stroke="black" points="224.26,-80 214.26,-83.5 224.26,-87 224.26,-80"/>
</g>
<!-- Node1&#45;&gt;Node4 -->
<g id="edge3" class="edge">
<title>Node1&#45;&gt;Node4</title>
<path fill="none" stroke="black" d="M208.44,-72.05C234.85,-66.92 265.63,-60.94 290.78,-56.06"/>
<polygon fill="black" stroke="black" points="207.71,-68.63 198.56,-73.97 209.04,-75.5 207.71,-68.63"/>
</g>
<!-- Node1&#45;&gt;Node3 -->
<g id="edge2" class="edge">
<title>Node1&#45;&gt;Node3</title>
<path fill="none" stroke="black" d="M172.45,-68.4C192.24,-56 221.98,-38.87 250,-28.5 260.18,-24.73 271.31,-21.62 282.15,-19.09"/>
<polygon fill="black" stroke="black" points="170.39,-65.56 163.84,-73.88 174.15,-71.46 170.39,-65.56"/>
</g>
</g>
</svg>
