<?xml version="1.0" encoding="UTF-8" standalone="no"?>
<!DOCTYPE svg PUBLIC "-//W3C//DTD SVG 1.1//EN"
 "http://www.w3.org/Graphics/SVG/1.1/DTD/svg11.dtd">
<!-- Generated by graphviz version 2.43.0 (0)
 -->
<!-- Title: GPIO Exported Constants Pages: 1 -->
<svg width="366pt" height="138pt"
 viewBox="0.00 0.00 366.00 138.00" xmlns="http://www.w3.org/2000/svg" xmlns:xlink="http://www.w3.org/1999/xlink">
<g id="graph0" class="graph" transform="scale(1 1) rotate(0) translate(4 134)">
<title>GPIO Exported Constants</title>
<polygon fill="white" stroke="transparent" points="-4,4 -4,-134 362,-134 362,4 -4,4"/>
<!-- Node1 -->
<g id="node1" class="node">
<title>Node1</title>
<g id="a_node1"><a xlink:title=" ">
<polygon fill="#bfbfbf" stroke="black" points="216,-74 77,-74 77,-55 216,-55 216,-74"/>
<text text-anchor="middle" x="146.5" y="-62" font-family="Helvetica,sans-Serif" font-size="10.00">GPIO Exported Constants</text>
</a>
</g>
</g>
<!-- Node4 -->
<g id="node2" class="node">
<title>Node4</title>
<g id="a_node2"><a xlink:href="group__GPIO__mode__define.html" target="_top" xlink:title="GPIO Configuration Mode Elements values convention: 0x00WX00YZ.">
<polygon fill="white" stroke="black" points="357,-130 253,-130 253,-111 357,-111 357,-130"/>
<text text-anchor="middle" x="305" y="-118" font-family="Helvetica,sans-Serif" font-size="10.00">GPIO mode define</text>
</a>
</g>
</g>
<!-- Node1&#45;&gt;Node4 -->
<g id="edge3" class="edge">
<title>Node1&#45;&gt;Node4</title>
<path fill="none" stroke="black" d="M183.08,-77.59C203.27,-84.98 229.02,-94.34 252,-102.5 259.83,-105.28 268.35,-108.25 276.18,-110.96"/>
<polygon fill="black" stroke="black" points="184.25,-74.29 173.66,-74.14 181.84,-80.87 184.25,-74.29"/>
</g>
<!-- Node3 -->
<g id="node3" class="node">
<title>Node3</title>
<g id="a_node3"><a xlink:href="group__GPIO__pins__define.html" target="_top" xlink:title=" ">
<polygon fill="white" stroke="black" points="353.5,-93 256.5,-93 256.5,-74 353.5,-74 353.5,-93"/>
<text text-anchor="middle" x="305" y="-81" font-family="Helvetica,sans-Serif" font-size="10.00">GPIO pins define</text>
</a>
</g>
</g>
<!-- Node1&#45;&gt;Node3 -->
<g id="edge2" class="edge">
<title>Node1&#45;&gt;Node3</title>
<path fill="none" stroke="black" d="M226.29,-74.07C236.46,-75.3 246.62,-76.53 256.08,-77.68"/>
<polygon fill="black" stroke="black" points="226.49,-70.56 216.14,-72.83 225.65,-77.51 226.49,-70.56"/>
</g>
<!-- Node6 -->
<g id="node4" class="node">
<title>Node6</title>
<g id="a_node4"><a xlink:href="group__GPIO__pull__define.html" target="_top" xlink:title="GPIO Pull&#45;Up or Pull&#45;Down Activation.">
<polygon fill="white" stroke="black" points="352.5,-56 257.5,-56 257.5,-37 352.5,-37 352.5,-56"/>
<text text-anchor="middle" x="305" y="-44" font-family="Helvetica,sans-Serif" font-size="10.00">GPIO pull define</text>
</a>
</g>
</g>
<!-- Node1&#45;&gt;Node6 -->
<g id="edge5" class="edge">
<title>Node1&#45;&gt;Node6</title>
<path fill="none" stroke="black" d="M226.33,-55.43C236.99,-54.21 247.62,-52.98 257.46,-51.85"/>
<polygon fill="black" stroke="black" points="225.68,-51.99 216.14,-56.6 226.48,-58.94 225.68,-51.99"/>
</g>
<!-- Node5 -->
<g id="node5" class="node">
<title>Node5</title>
<g id="a_node5"><a xlink:href="group__GPIO__speed__define.html" target="_top" xlink:title="GPIO Output Maximum frequency.">
<polygon fill="white" stroke="black" points="358,-19 252,-19 252,0 358,0 358,-19"/>
<text text-anchor="middle" x="305" y="-7" font-family="Helvetica,sans-Serif" font-size="10.00">GPIO speed define</text>
</a>
</g>
</g>
<!-- Node1&#45;&gt;Node5 -->
<g id="edge4" class="edge">
<title>Node1&#45;&gt;Node5</title>
<path fill="none" stroke="black" d="M184.21,-51.43C204.24,-44.32 229.47,-35.39 252,-27.5 259.84,-24.75 268.36,-21.79 276.19,-19.09"/>
<polygon fill="black" stroke="black" points="182.8,-48.22 174.55,-54.86 185.14,-54.81 182.8,-48.22"/>
</g>
<!-- Node2 -->
<g id="node6" class="node">
<title>Node2</title>
<g id="a_node6"><a xlink:href="group__GPIO.html" target="_top" xlink:title="GPIO HAL module driver.">
<polygon fill="white" stroke="black" points="41,-74 0,-74 0,-55 41,-55 41,-74"/>
<text text-anchor="middle" x="20.5" y="-62" font-family="Helvetica,sans-Serif" font-size="10.00">GPIO</text>
</a>
</g>
</g>
<!-- Node2&#45;&gt;Node1 -->
<g id="edge1" class="edge">
<title>Node2&#45;&gt;Node1</title>
<path fill="none" stroke="black" d="M51.17,-64.5C59,-64.5 67.8,-64.5 76.78,-64.5"/>
<polygon fill="black" stroke="black" points="51.15,-61 41.15,-64.5 51.15,-68 51.15,-61"/>
</g>
</g>
</svg>
