<?xml version="1.0" encoding="UTF-8" standalone="no"?>
<!DOCTYPE svg PUBLIC "-//W3C//DTD SVG 1.1//EN"
 "http://www.w3.org/Graphics/SVG/1.1/DTD/svg11.dtd">
<!-- Generated by graphviz version 2.43.0 (0)
 -->
<!-- Title: UTILS Exported Constants Pages: 1 -->
<svg width="393pt" height="64pt"
 viewBox="0.00 0.00 393.00 64.00" xmlns="http://www.w3.org/2000/svg" xmlns:xlink="http://www.w3.org/1999/xlink">
<g id="graph0" class="graph" transform="scale(1 1) rotate(0) translate(4 60)">
<title>UTILS Exported Constants</title>
<polygon fill="white" stroke="transparent" points="-4,4 -4,-60 389,-60 389,4 -4,4"/>
<!-- Node4 -->
<g id="node1" class="node">
<title>Node4</title>
<g id="a_node1"><a xlink:href="group__UTILS__EC__PACKAGETYPE.html" target="_top" xlink:title=" ">
<polygon fill="white" stroke="black" points="366.5,-56 277.5,-56 277.5,-37 366.5,-37 366.5,-56"/>
<text text-anchor="middle" x="322" y="-44" font-family="Helvetica,sans-Serif" font-size="10.00">PACKAGE TYPE</text>
</a>
</g>
</g>
<!-- Node2 -->
<g id="node2" class="node">
<title>Node2</title>
<g id="a_node2"><a xlink:href="group__UTILS__LL.html" target="_top" xlink:title=" ">
<polygon fill="white" stroke="black" points="44,-37 0,-37 0,-18 44,-18 44,-37"/>
<text text-anchor="middle" x="22" y="-25" font-family="Helvetica,sans-Serif" font-size="10.00">UTILS</text>
</a>
</g>
</g>
<!-- Node1 -->
<g id="node3" class="node">
<title>Node1</title>
<g id="a_node3"><a xlink:title=" ">
<polygon fill="#bfbfbf" stroke="black" points="223,-37 80,-37 80,-18 223,-18 223,-37"/>
<text text-anchor="middle" x="151.5" y="-25" font-family="Helvetica,sans-Serif" font-size="10.00">UTILS Exported Constants</text>
</a>
</g>
</g>
<!-- Node2&#45;&gt;Node1 -->
<g id="edge1" class="edge">
<title>Node2&#45;&gt;Node1</title>
<path fill="none" stroke="black" d="M54.17,-27.5C62.05,-27.5 70.84,-27.5 79.81,-27.5"/>
<polygon fill="black" stroke="black" points="54.05,-24 44.05,-27.5 54.05,-31 54.05,-24"/>
</g>
<!-- Node1&#45;&gt;Node4 -->
<g id="edge3" class="edge">
<title>Node1&#45;&gt;Node4</title>
<path fill="none" stroke="black" d="M233.76,-36.66C248.68,-38.34 263.72,-40.04 277.02,-41.54"/>
<polygon fill="black" stroke="black" points="233.8,-33.15 223.47,-35.5 233.02,-40.1 233.8,-33.15"/>
</g>
<!-- Node3 -->
<g id="node4" class="node">
<title>Node3</title>
<g id="a_node4"><a xlink:href="group__UTILS__EC__HSE__BYPASS.html" target="_top" xlink:title=" ">
<polygon fill="white" stroke="black" points="385,-19 259,-19 259,0 385,0 385,-19"/>
<text text-anchor="middle" x="322" y="-7" font-family="Helvetica,sans-Serif" font-size="10.00">HSE Bypass activation</text>
</a>
</g>
</g>
<!-- Node1&#45;&gt;Node3 -->
<g id="edge2" class="edge">
<title>Node1&#45;&gt;Node3</title>
<path fill="none" stroke="black" d="M233.48,-18.85C242.03,-17.94 250.64,-17.02 258.93,-16.13"/>
<polygon fill="black" stroke="black" points="233.04,-15.38 223.47,-19.92 233.79,-22.34 233.04,-15.38"/>
</g>
</g>
</svg>
