<?xml version="1.0" encoding="UTF-8" standalone="no"?>
<!DOCTYPE svg PUBLIC "-//W3C//DTD SVG 1.1//EN"
 "http://www.w3.org/Graphics/SVG/1.1/DTD/svg11.dtd">
<!-- Generated by graphviz version 2.43.0 (0)
 -->
<!-- Title: hal&#45;driver/Inc/stm32f4xx_ll_usb.h Pages: 1 -->
<svg width="300pt" height="173pt"
 viewBox="0.00 0.00 300.00 173.00" xmlns="http://www.w3.org/2000/svg" xmlns:xlink="http://www.w3.org/1999/xlink">
<g id="graph0" class="graph" transform="scale(1 1) rotate(0) translate(4 169)">
<title>hal&#45;driver/Inc/stm32f4xx_ll_usb.h</title>
<polygon fill="white" stroke="transparent" points="-4,4 -4,-169 296,-169 296,4 -4,4"/>
<!-- Node1 -->
<g id="node1" class="node">
<title>Node1</title>
<g id="a_node1"><a xlink:title="Header file of USB Low Layer HAL module.">
<polygon fill="#bfbfbf" stroke="black" points="77,-134.5 77,-164.5 214,-164.5 214,-134.5 77,-134.5"/>
<text text-anchor="start" x="85" y="-152.5" font-family="Helvetica,sans-Serif" font-size="10.00">hal&#45;driver/Inc/stm32f4xx</text>
<text text-anchor="middle" x="145.5" y="-141.5" font-family="Helvetica,sans-Serif" font-size="10.00">_ll_usb.h</text>
</a>
</g>
</g>
<!-- Node2 -->
<g id="node2" class="node">
<title>Node2</title>
<g id="a_node2"><a xlink:href="stm32f4xx__hal__hcd_8h.html" target="_top" xlink:title="Header file of HCD HAL module.">
<polygon fill="white" stroke="black" points="0,-67.5 0,-97.5 137,-97.5 137,-67.5 0,-67.5"/>
<text text-anchor="start" x="8" y="-85.5" font-family="Helvetica,sans-Serif" font-size="10.00">hal&#45;driver/Inc/stm32f4xx</text>
<text text-anchor="middle" x="68.5" y="-74.5" font-family="Helvetica,sans-Serif" font-size="10.00">_hal_hcd.h</text>
</a>
</g>
</g>
<!-- Node1&#45;&gt;Node2 -->
<g id="edge1" class="edge">
<title>Node1&#45;&gt;Node2</title>
<path fill="none" stroke="midnightblue" d="M121.08,-127.88C109.38,-118.01 95.66,-106.43 85.18,-97.58"/>
<polygon fill="midnightblue" stroke="midnightblue" points="118.89,-130.62 128.79,-134.4 123.41,-125.27 118.89,-130.62"/>
</g>
<!-- Node4 -->
<g id="node4" class="node">
<title>Node4</title>
<g id="a_node4"><a xlink:href="stm32f4xx__hal__pcd_8h.html" target="_top" xlink:title="Header file of PCD HAL module.">
<polygon fill="white" stroke="black" points="155,-67.5 155,-97.5 292,-97.5 292,-67.5 155,-67.5"/>
<text text-anchor="start" x="163" y="-85.5" font-family="Helvetica,sans-Serif" font-size="10.00">hal&#45;driver/Inc/stm32f4xx</text>
<text text-anchor="middle" x="223.5" y="-74.5" font-family="Helvetica,sans-Serif" font-size="10.00">_hal_pcd.h</text>
</a>
</g>
</g>
<!-- Node1&#45;&gt;Node4 -->
<g id="edge3" class="edge">
<title>Node1&#45;&gt;Node4</title>
<path fill="none" stroke="midnightblue" d="M170.24,-127.88C182.09,-118.01 195.98,-106.43 206.61,-97.58"/>
<polygon fill="midnightblue" stroke="midnightblue" points="167.87,-125.31 162.42,-134.4 172.35,-130.68 167.87,-125.31"/>
</g>
<!-- Node3 -->
<g id="node3" class="node">
<title>Node3</title>
<g id="a_node3"><a xlink:href="stm32f4xx__hal__conf__template_8h.html" target="_top" xlink:title="HAL configuration template file. This file should be copied to the application folder and renamed to ...">
<polygon fill="white" stroke="black" points="77,-0.5 77,-30.5 214,-30.5 214,-0.5 77,-0.5"/>
<text text-anchor="start" x="85" y="-18.5" font-family="Helvetica,sans-Serif" font-size="10.00">hal&#45;driver/Inc/stm32f4xx</text>
<text text-anchor="middle" x="145.5" y="-7.5" font-family="Helvetica,sans-Serif" font-size="10.00">_hal_conf_template.h</text>
</a>
</g>
</g>
<!-- Node2&#45;&gt;Node3 -->
<g id="edge2" class="edge">
<title>Node2&#45;&gt;Node3</title>
<path fill="none" stroke="midnightblue" d="M92.92,-60.88C104.62,-51.01 118.34,-39.43 128.82,-30.58"/>
<polygon fill="midnightblue" stroke="midnightblue" points="90.59,-58.27 85.21,-67.4 95.11,-63.62 90.59,-58.27"/>
</g>
<!-- Node4&#45;&gt;Node3 -->
<g id="edge4" class="edge">
<title>Node4&#45;&gt;Node3</title>
<path fill="none" stroke="midnightblue" d="M198.76,-60.88C186.91,-51.01 173.02,-39.43 162.39,-30.58"/>
<polygon fill="midnightblue" stroke="midnightblue" points="196.65,-63.68 206.58,-67.4 201.13,-58.31 196.65,-63.68"/>
</g>
</g>
</svg>
