<?xml version="1.0" encoding="UTF-8" standalone="no"?>
<!DOCTYPE svg PUBLIC "-//W3C//DTD SVG 1.1//EN"
 "http://www.w3.org/Graphics/SVG/1.1/DTD/svg11.dtd">
<!-- Generated by graphviz version 2.43.0 (0)
 -->
<!-- Title: hal&#45;driver/Src/stm32f4xx_ll_utils.c Pages: 1 -->
<svg width="531pt" height="151pt"
 viewBox="0.00 0.00 531.00 151.00" xmlns="http://www.w3.org/2000/svg" xmlns:xlink="http://www.w3.org/1999/xlink">
<g id="graph0" class="graph" transform="scale(1 1) rotate(0) translate(4 147)">
<title>hal&#45;driver/Src/stm32f4xx_ll_utils.c</title>
<polygon fill="white" stroke="transparent" points="-4,4 -4,-147 527,-147 527,4 -4,4"/>
<!-- Node1 -->
<g id="node1" class="node">
<title>Node1</title>
<g id="a_node1"><a xlink:title="UTILS LL module driver.">
<polygon fill="#bfbfbf" stroke="black" points="189.5,-112.5 189.5,-142.5 326.5,-142.5 326.5,-112.5 189.5,-112.5"/>
<text text-anchor="start" x="197.5" y="-130.5" font-family="Helvetica,sans-Serif" font-size="10.00">hal&#45;driver/Src/stm32f4xx</text>
<text text-anchor="middle" x="258" y="-119.5" font-family="Helvetica,sans-Serif" font-size="10.00">_ll_utils.c</text>
</a>
</g>
</g>
<!-- Node2 -->
<g id="node2" class="node">
<title>Node2</title>
<g id="a_node2"><a xlink:href="stm32f4xx__ll__utils_8h.html" target="_top" xlink:title="Header file of UTILS LL module.">
<polygon fill="white" stroke="black" points="0,-56.5 0,-75.5 116,-75.5 116,-56.5 0,-56.5"/>
<text text-anchor="middle" x="58" y="-63.5" font-family="Helvetica,sans-Serif" font-size="10.00">stm32f4xx_ll_utils.h</text>
</a>
</g>
</g>
<!-- Node1&#45;&gt;Node2 -->
<g id="edge1" class="edge">
<title>Node1&#45;&gt;Node2</title>
<path fill="none" stroke="midnightblue" d="M210.86,-112.47C175.9,-102.08 128.85,-88.08 96.23,-78.37"/>
<polygon fill="midnightblue" stroke="midnightblue" points="97.18,-75 86.59,-75.51 95.18,-81.71 97.18,-75"/>
</g>
<!-- Node4 -->
<g id="node4" class="node">
<title>Node4</title>
<g id="a_node4"><a xlink:href="stm32f4xx__ll__rcc_8h.html" target="_top" xlink:title="Header file of RCC LL module.">
<polygon fill="white" stroke="black" points="134.5,-56.5 134.5,-75.5 243.5,-75.5 243.5,-56.5 134.5,-56.5"/>
<text text-anchor="middle" x="189" y="-63.5" font-family="Helvetica,sans-Serif" font-size="10.00">stm32f4xx_ll_rcc.h</text>
</a>
</g>
</g>
<!-- Node1&#45;&gt;Node4 -->
<g id="edge3" class="edge">
<title>Node1&#45;&gt;Node4</title>
<path fill="none" stroke="midnightblue" d="M241.65,-112.4C231.1,-103.31 217.4,-91.49 206.62,-82.19"/>
<polygon fill="midnightblue" stroke="midnightblue" points="208.9,-79.54 199.04,-75.66 204.33,-84.84 208.9,-79.54"/>
</g>
<!-- Node5 -->
<g id="node5" class="node">
<title>Node5</title>
<g id="a_node5"><a xlink:href="stm32f4xx__ll__system_8h.html" target="_top" xlink:title="Header file of SYSTEM LL module.">
<polygon fill="white" stroke="black" points="261.5,-56.5 261.5,-75.5 392.5,-75.5 392.5,-56.5 261.5,-56.5"/>
<text text-anchor="middle" x="327" y="-63.5" font-family="Helvetica,sans-Serif" font-size="10.00">stm32f4xx_ll_system.h</text>
</a>
</g>
</g>
<!-- Node1&#45;&gt;Node5 -->
<g id="edge5" class="edge">
<title>Node1&#45;&gt;Node5</title>
<path fill="none" stroke="midnightblue" d="M274.35,-112.4C284.9,-103.31 298.6,-91.49 309.38,-82.19"/>
<polygon fill="midnightblue" stroke="midnightblue" points="311.67,-84.84 316.96,-75.66 307.1,-79.54 311.67,-84.84"/>
</g>
<!-- Node6 -->
<g id="node6" class="node">
<title>Node6</title>
<g id="a_node6"><a xlink:href="stm32f4xx__ll__pwr_8h.html" target="_top" xlink:title="Header file of PWR LL module.">
<polygon fill="white" stroke="black" points="411,-56.5 411,-75.5 523,-75.5 523,-56.5 411,-56.5"/>
<text text-anchor="middle" x="467" y="-63.5" font-family="Helvetica,sans-Serif" font-size="10.00">stm32f4xx_ll_pwr.h</text>
</a>
</g>
</g>
<!-- Node1&#45;&gt;Node6 -->
<g id="edge7" class="edge">
<title>Node1&#45;&gt;Node6</title>
<path fill="none" stroke="midnightblue" d="M307.27,-112.47C343.95,-102.03 393.38,-87.96 427.49,-78.25"/>
<polygon fill="midnightblue" stroke="midnightblue" points="428.46,-81.61 437.12,-75.51 426.54,-74.88 428.46,-81.61"/>
</g>
<!-- Node3 -->
<g id="node3" class="node">
<title>Node3</title>
<g id="a_node3"><a xlink:title=" ">
<polygon fill="white" stroke="#bfbfbf" points="219,-0.5 219,-19.5 297,-19.5 297,-0.5 219,-0.5"/>
<text text-anchor="middle" x="258" y="-7.5" font-family="Helvetica,sans-Serif" font-size="10.00">stm32f4xx.h</text>
</a>
</g>
</g>
<!-- Node2&#45;&gt;Node3 -->
<g id="edge2" class="edge">
<title>Node2&#45;&gt;Node3</title>
<path fill="none" stroke="midnightblue" d="M89.69,-56.44C124.07,-47.16 179.08,-32.31 216.79,-22.13"/>
<polygon fill="midnightblue" stroke="midnightblue" points="217.72,-25.5 226.46,-19.52 215.89,-18.74 217.72,-25.5"/>
</g>
<!-- Node4&#45;&gt;Node3 -->
<g id="edge4" class="edge">
<title>Node4&#45;&gt;Node3</title>
<path fill="none" stroke="midnightblue" d="M200.09,-56.32C210.49,-48.18 226.26,-35.84 238.72,-26.09"/>
<polygon fill="midnightblue" stroke="midnightblue" points="240.99,-28.75 246.71,-19.83 236.68,-23.24 240.99,-28.75"/>
</g>
<!-- Node5&#45;&gt;Node3 -->
<g id="edge6" class="edge">
<title>Node5&#45;&gt;Node3</title>
<path fill="none" stroke="midnightblue" d="M315.91,-56.32C305.51,-48.18 289.74,-35.84 277.28,-26.09"/>
<polygon fill="midnightblue" stroke="midnightblue" points="279.32,-23.24 269.29,-19.83 275.01,-28.75 279.32,-23.24"/>
</g>
<!-- Node6&#45;&gt;Node3 -->
<g id="edge8" class="edge">
<title>Node6&#45;&gt;Node3</title>
<path fill="none" stroke="midnightblue" d="M433.88,-56.44C397.88,-47.14 340.23,-32.25 300.81,-22.06"/>
<polygon fill="midnightblue" stroke="midnightblue" points="301.52,-18.63 290.96,-19.52 299.77,-25.41 301.52,-18.63"/>
</g>
</g>
</svg>
