<?xml version="1.0" encoding="UTF-8" standalone="no"?>
<!DOCTYPE svg PUBLIC "-//W3C//DTD SVG 1.1//EN"
 "http://www.w3.org/Graphics/SVG/1.1/DTD/svg11.dtd">
<!-- Generated by graphviz version 2.43.0 (0)
 -->
<!-- Title: hal&#45;driver/Inc/stm32f4xx_hal_flash.h Pages: 1 -->
<svg width="437pt" height="218pt"
 viewBox="0.00 0.00 437.00 218.00" xmlns="http://www.w3.org/2000/svg" xmlns:xlink="http://www.w3.org/1999/xlink">
<g id="graph0" class="graph" transform="scale(1 1) rotate(0) translate(4 214)">
<title>hal&#45;driver/Inc/stm32f4xx_hal_flash.h</title>
<polygon fill="white" stroke="transparent" points="-4,4 -4,-214 433,-214 433,4 -4,4"/>
<!-- Node1 -->
<g id="node1" class="node">
<title>Node1</title>
<g id="a_node1"><a xlink:title="Header file of FLASH HAL module.">
<polygon fill="#bfbfbf" stroke="black" points="152.5,-179.5 152.5,-209.5 289.5,-209.5 289.5,-179.5 152.5,-179.5"/>
<text text-anchor="start" x="160.5" y="-197.5" font-family="Helvetica,sans-Serif" font-size="10.00">hal&#45;driver/Inc/stm32f4xx</text>
<text text-anchor="middle" x="221" y="-186.5" font-family="Helvetica,sans-Serif" font-size="10.00">_hal_flash.h</text>
</a>
</g>
</g>
<!-- Node2 -->
<g id="node2" class="node">
<title>Node2</title>
<g id="a_node2"><a xlink:href="stm32f4xx__hal__def_8h.html" target="_top" xlink:title="This file contains HAL common defines, enumeration, macros and structures definitions.">
<polygon fill="white" stroke="black" points="111.5,-56.5 111.5,-75.5 230.5,-75.5 230.5,-56.5 111.5,-56.5"/>
<text text-anchor="middle" x="171" y="-63.5" font-family="Helvetica,sans-Serif" font-size="10.00">stm32f4xx_hal_def.h</text>
</a>
</g>
</g>
<!-- Node1&#45;&gt;Node2 -->
<g id="edge1" class="edge">
<title>Node1&#45;&gt;Node2</title>
<path fill="none" stroke="midnightblue" d="M182.34,-179.37C166.23,-171.34 149.17,-159.52 140,-143 129.15,-123.45 143.25,-99.3 155.79,-83.55"/>
<polygon fill="midnightblue" stroke="midnightblue" points="158.62,-85.63 162.43,-75.74 153.29,-81.09 158.62,-85.63"/>
</g>
<!-- Node6 -->
<g id="node6" class="node">
<title>Node6</title>
<g id="a_node6"><a xlink:href="stm32f4xx__hal__flash__ex_8h.html" target="_top" xlink:title="Header file of FLASH HAL Extension module.">
<polygon fill="white" stroke="black" points="149,-118 149,-137 293,-137 293,-118 149,-118"/>
<text text-anchor="middle" x="221" y="-125" font-family="Helvetica,sans-Serif" font-size="10.00">stm32f4xx_hal_flash_ex.h</text>
</a>
</g>
</g>
<!-- Node1&#45;&gt;Node6 -->
<g id="edge5" class="edge">
<title>Node1&#45;&gt;Node6</title>
<path fill="none" stroke="midnightblue" d="M221,-179.4C221,-170.06 221,-157.71 221,-147.52"/>
<polygon fill="midnightblue" stroke="midnightblue" points="224.5,-147.19 221,-137.19 217.5,-147.19 224.5,-147.19"/>
</g>
<!-- Node7 -->
<g id="node7" class="node">
<title>Node7</title>
<g id="a_node7"><a xlink:href="stm32f4xx__hal__flash__ramfunc_8h.html" target="_top" xlink:title="Header file of FLASH RAMFUNC driver.">
<polygon fill="white" stroke="black" points="311,-112.5 311,-142.5 429,-142.5 429,-112.5 311,-112.5"/>
<text text-anchor="start" x="319" y="-130.5" font-family="Helvetica,sans-Serif" font-size="10.00">stm32f4xx_hal_flash</text>
<text text-anchor="middle" x="370" y="-119.5" font-family="Helvetica,sans-Serif" font-size="10.00">_ramfunc.h</text>
</a>
</g>
</g>
<!-- Node1&#45;&gt;Node7 -->
<g id="edge7" class="edge">
<title>Node1&#45;&gt;Node7</title>
<path fill="none" stroke="midnightblue" d="M253.33,-179.4C275.3,-169.81 304.56,-157.05 328.28,-146.7"/>
<polygon fill="midnightblue" stroke="midnightblue" points="329.97,-149.78 337.73,-142.58 327.17,-143.37 329.97,-149.78"/>
</g>
<!-- Node3 -->
<g id="node3" class="node">
<title>Node3</title>
<g id="a_node3"><a xlink:title=" ">
<polygon fill="white" stroke="#bfbfbf" points="0,-0.5 0,-19.5 78,-19.5 78,-0.5 0,-0.5"/>
<text text-anchor="middle" x="39" y="-7.5" font-family="Helvetica,sans-Serif" font-size="10.00">stm32f4xx.h</text>
</a>
</g>
</g>
<!-- Node2&#45;&gt;Node3 -->
<g id="edge2" class="edge">
<title>Node2&#45;&gt;Node3</title>
<path fill="none" stroke="midnightblue" d="M150.08,-56.44C128.26,-47.52 93.85,-33.44 69.11,-23.32"/>
<polygon fill="midnightblue" stroke="midnightblue" points="70.4,-20.06 59.82,-19.52 67.75,-26.54 70.4,-20.06"/>
</g>
<!-- Node4 -->
<g id="node4" class="node">
<title>Node4</title>
<g id="a_node4"><a xlink:title=" ">
<polygon fill="white" stroke="#bfbfbf" points="96,-0.5 96,-19.5 246,-19.5 246,-0.5 96,-0.5"/>
<text text-anchor="middle" x="171" y="-7.5" font-family="Helvetica,sans-Serif" font-size="10.00">Legacy/stm32_hal_legacy.h</text>
</a>
</g>
</g>
<!-- Node2&#45;&gt;Node4 -->
<g id="edge3" class="edge">
<title>Node2&#45;&gt;Node4</title>
<path fill="none" stroke="midnightblue" d="M171,-56.08C171,-49.01 171,-38.86 171,-29.99"/>
<polygon fill="midnightblue" stroke="midnightblue" points="174.5,-29.75 171,-19.75 167.5,-29.75 174.5,-29.75"/>
</g>
<!-- Node5 -->
<g id="node5" class="node">
<title>Node5</title>
<g id="a_node5"><a xlink:title=" ">
<polygon fill="white" stroke="#bfbfbf" points="264,-0.5 264,-19.5 320,-19.5 320,-0.5 264,-0.5"/>
<text text-anchor="middle" x="292" y="-7.5" font-family="Helvetica,sans-Serif" font-size="10.00">stddef.h</text>
</a>
</g>
</g>
<!-- Node2&#45;&gt;Node5 -->
<g id="edge4" class="edge">
<title>Node2&#45;&gt;Node5</title>
<path fill="none" stroke="midnightblue" d="M190.17,-56.44C209.91,-47.64 240.89,-33.81 263.49,-23.72"/>
<polygon fill="midnightblue" stroke="midnightblue" points="265.21,-26.79 272.92,-19.52 262.36,-20.4 265.21,-26.79"/>
</g>
<!-- Node6&#45;&gt;Node2 -->
<g id="edge6" class="edge">
<title>Node6&#45;&gt;Node2</title>
<path fill="none" stroke="midnightblue" d="M213.84,-117.98C206.26,-108.96 194.13,-94.52 184.71,-83.31"/>
<polygon fill="midnightblue" stroke="midnightblue" points="187.26,-80.91 178.15,-75.51 181.9,-85.42 187.26,-80.91"/>
</g>
</g>
</svg>
