<?xml version="1.0" encoding="UTF-8" standalone="no"?>
<!DOCTYPE svg PUBLIC "-//W3C//DTD SVG 1.1//EN"
 "http://www.w3.org/Graphics/SVG/1.1/DTD/svg11.dtd">
<!-- Generated by graphviz version 2.43.0 (0)
 -->
<!-- Title: ADC_HandleTypeDef Pages: 1 -->
<svg width="254pt" height="162pt"
 viewBox="0.00 0.00 254.00 162.00" xmlns="http://www.w3.org/2000/svg" xmlns:xlink="http://www.w3.org/1999/xlink">
<g id="graph0" class="graph" transform="scale(1 1) rotate(0) translate(4 158)">
<title>ADC_HandleTypeDef</title>
<polygon fill="white" stroke="transparent" points="-4,4 -4,-158 250,-158 250,4 -4,4"/>
<!-- Node1 -->
<g id="node1" class="node">
<title>Node1</title>
<g id="a_node1"><a xlink:title="ADC handle Structure definition.">
<polygon fill="#bfbfbf" stroke="black" points="93.5,-0.5 93.5,-19.5 210.5,-19.5 210.5,-0.5 93.5,-0.5"/>
<text text-anchor="middle" x="152" y="-7.5" font-family="Helvetica,sans-Serif" font-size="10.00">ADC_HandleTypeDef</text>
</a>
</g>
</g>
<!-- Node2 -->
<g id="node2" class="node">
<title>Node2</title>
<g id="a_node2"><a xlink:href="struct____DMA__HandleTypeDef.html" target="_top" xlink:title="DMA handle Structure definition.">
<polygon fill="white" stroke="black" points="0,-67.5 0,-86.5 130,-86.5 130,-67.5 0,-67.5"/>
<text text-anchor="middle" x="65" y="-74.5" font-family="Helvetica,sans-Serif" font-size="10.00">__DMA_HandleTypeDef</text>
</a>
</g>
</g>
<!-- Node2&#45;&gt;Node1 -->
<g id="edge1" class="edge">
<title>Node2&#45;&gt;Node1</title>
<path fill="none" stroke="#9a32cd" stroke-dasharray="5,2" d="M77.93,-59.54C84.11,-52.36 91.91,-44.19 100,-38 109.62,-30.65 121.53,-24.3 131.52,-19.61"/>
<polygon fill="#9a32cd" stroke="#9a32cd" points="75.17,-57.4 71.51,-67.34 80.57,-61.85 75.17,-57.4"/>
<text text-anchor="middle" x="133.5" y="-41" font-family="Helvetica,sans-Serif" font-size="10.00"> DMA_Handle</text>
</g>
<!-- Node3 -->
<g id="node3" class="node">
<title>Node3</title>
<g id="a_node3"><a xlink:href="structDMA__InitTypeDef.html" target="_top" xlink:title="DMA Configuration Structure definition.">
<polygon fill="white" stroke="black" points="14.5,-134.5 14.5,-153.5 115.5,-153.5 115.5,-134.5 14.5,-134.5"/>
<text text-anchor="middle" x="65" y="-141.5" font-family="Helvetica,sans-Serif" font-size="10.00">DMA_InitTypeDef</text>
</a>
</g>
</g>
<!-- Node3&#45;&gt;Node2 -->
<g id="edge2" class="edge">
<title>Node3&#45;&gt;Node2</title>
<path fill="none" stroke="#9a32cd" stroke-dasharray="5,2" d="M65,-124.04C65,-111.67 65,-96.12 65,-86.63"/>
<polygon fill="#9a32cd" stroke="#9a32cd" points="61.5,-124.23 65,-134.23 68.5,-124.23 61.5,-124.23"/>
<text text-anchor="middle" x="74.5" y="-108" font-family="Helvetica,sans-Serif" font-size="10.00"> Init</text>
</g>
<!-- Node4 -->
<g id="node4" class="node">
<title>Node4</title>
<g id="a_node4"><a xlink:href="structADC__InitTypeDef.html" target="_top" xlink:title="Structure definition of ADC and regular group initialization.">
<polygon fill="white" stroke="black" points="148,-67.5 148,-86.5 246,-86.5 246,-67.5 148,-67.5"/>
<text text-anchor="middle" x="197" y="-74.5" font-family="Helvetica,sans-Serif" font-size="10.00">ADC_InitTypeDef</text>
</a>
</g>
</g>
<!-- Node4&#45;&gt;Node1 -->
<g id="edge3" class="edge">
<title>Node4&#45;&gt;Node1</title>
<path fill="none" stroke="#9a32cd" stroke-dasharray="5,2" d="M185.16,-58.9C176.42,-46.27 164.88,-29.6 157.97,-19.63"/>
<polygon fill="#9a32cd" stroke="#9a32cd" points="182.36,-61 190.93,-67.23 188.12,-57.02 182.36,-61"/>
<text text-anchor="middle" x="186.5" y="-41" font-family="Helvetica,sans-Serif" font-size="10.00"> Init</text>
</g>
</g>
</svg>
