<?xml version="1.0" encoding="UTF-8" standalone="no"?>
<!DOCTYPE svg PUBLIC "-//W3C//DTD SVG 1.1//EN"
 "http://www.w3.org/Graphics/SVG/1.1/DTD/svg11.dtd">
<!-- Generated by graphviz version 2.43.0 (0)
 -->
<!-- Title: __I2S_HandleTypeDef Pages: 1 -->
<svg width="248pt" height="173pt"
 viewBox="0.00 0.00 248.00 173.00" xmlns="http://www.w3.org/2000/svg" xmlns:xlink="http://www.w3.org/1999/xlink">
<g id="graph0" class="graph" transform="scale(1 1) rotate(0) translate(4 169)">
<title>__I2S_HandleTypeDef</title>
<polygon fill="white" stroke="transparent" points="-4,4 -4,-169 244,-169 244,4 -4,4"/>
<!-- Node1 -->
<g id="node1" class="node">
<title>Node1</title>
<g id="a_node1"><a xlink:title="I2S handle Structure definition.">
<polygon fill="#bfbfbf" stroke="black" points="100,-0.5 100,-19.5 222,-19.5 222,-0.5 100,-0.5"/>
<text text-anchor="middle" x="161" y="-7.5" font-family="Helvetica,sans-Serif" font-size="10.00">__I2S_HandleTypeDef</text>
</a>
</g>
</g>
<!-- Node2 -->
<g id="node2" class="node">
<title>Node2</title>
<g id="a_node2"><a xlink:href="struct____DMA__HandleTypeDef.html" target="_top" xlink:title="DMA handle Structure definition.">
<polygon fill="white" stroke="black" points="0,-78.5 0,-97.5 130,-97.5 130,-78.5 0,-78.5"/>
<text text-anchor="middle" x="65" y="-85.5" font-family="Helvetica,sans-Serif" font-size="10.00">__DMA_HandleTypeDef</text>
</a>
</g>
</g>
<!-- Node2&#45;&gt;Node1 -->
<g id="edge1" class="edge">
<title>Node2&#45;&gt;Node1</title>
<path fill="none" stroke="#9a32cd" stroke-dasharray="5,2" d="M84.02,-71.94C103.8,-56.28 134.06,-32.33 150.12,-19.62"/>
<polygon fill="#9a32cd" stroke="#9a32cd" points="81.68,-69.33 76.01,-78.28 86.03,-74.82 81.68,-69.33"/>
<text text-anchor="middle" x="145.5" y="-52" font-family="Helvetica,sans-Serif" font-size="10.00"> hdmarx</text>
<text text-anchor="middle" x="145.5" y="-41" font-family="Helvetica,sans-Serif" font-size="10.00">hdmatx</text>
</g>
<!-- Node3 -->
<g id="node3" class="node">
<title>Node3</title>
<g id="a_node3"><a xlink:href="structDMA__InitTypeDef.html" target="_top" xlink:title="DMA Configuration Structure definition.">
<polygon fill="white" stroke="black" points="14.5,-145.5 14.5,-164.5 115.5,-164.5 115.5,-145.5 14.5,-145.5"/>
<text text-anchor="middle" x="65" y="-152.5" font-family="Helvetica,sans-Serif" font-size="10.00">DMA_InitTypeDef</text>
</a>
</g>
</g>
<!-- Node3&#45;&gt;Node2 -->
<g id="edge2" class="edge">
<title>Node3&#45;&gt;Node2</title>
<path fill="none" stroke="#9a32cd" stroke-dasharray="5,2" d="M65,-135.04C65,-122.67 65,-107.12 65,-97.63"/>
<polygon fill="#9a32cd" stroke="#9a32cd" points="61.5,-135.23 65,-145.23 68.5,-135.23 61.5,-135.23"/>
<text text-anchor="middle" x="74.5" y="-119" font-family="Helvetica,sans-Serif" font-size="10.00"> Init</text>
</g>
<!-- Node4 -->
<g id="node4" class="node">
<title>Node4</title>
<g id="a_node4"><a xlink:href="structI2S__InitTypeDef.html" target="_top" xlink:title="I2S Init structure definition.">
<polygon fill="white" stroke="black" points="148,-78.5 148,-97.5 240,-97.5 240,-78.5 148,-78.5"/>
<text text-anchor="middle" x="194" y="-85.5" font-family="Helvetica,sans-Serif" font-size="10.00">I2S_InitTypeDef</text>
</a>
</g>
</g>
<!-- Node4&#45;&gt;Node1 -->
<g id="edge3" class="edge">
<title>Node4&#45;&gt;Node1</title>
<path fill="none" stroke="#9a32cd" stroke-dasharray="5,2" d="M186.04,-68.67C179.29,-53.11 169.89,-31.47 164.74,-19.62"/>
<polygon fill="#9a32cd" stroke="#9a32cd" points="183.02,-70.5 190.21,-78.28 189.44,-67.72 183.02,-70.5"/>
<text text-anchor="middle" x="190.5" y="-46.5" font-family="Helvetica,sans-Serif" font-size="10.00"> Init</text>
</g>
</g>
</svg>
