<?xml version="1.0" encoding="UTF-8" standalone="no"?>
<!DOCTYPE svg PUBLIC "-//W3C//DTD SVG 1.1//EN"
 "http://www.w3.org/Graphics/SVG/1.1/DTD/svg11.dtd">
<!-- Generated by graphviz version 2.43.0 (0)
 -->
<!-- Title: __UART_HandleTypeDef Pages: 1 -->
<svg width="260pt" height="173pt"
 viewBox="0.00 0.00 260.00 173.00" xmlns="http://www.w3.org/2000/svg" xmlns:xlink="http://www.w3.org/1999/xlink">
<g id="graph0" class="graph" transform="scale(1 1) rotate(0) translate(4 169)">
<title>__UART_HandleTypeDef</title>
<polygon fill="white" stroke="transparent" points="-4,4 -4,-169 256,-169 256,4 -4,4"/>
<!-- Node1 -->
<g id="node1" class="node">
<title>Node1</title>
<g id="a_node1"><a xlink:title="UART handle Structure definition.">
<polygon fill="#bfbfbf" stroke="black" points="29.5,-0.5 29.5,-19.5 162.5,-19.5 162.5,-0.5 29.5,-0.5"/>
<text text-anchor="middle" x="96" y="-7.5" font-family="Helvetica,sans-Serif" font-size="10.00">__UART_HandleTypeDef</text>
</a>
</g>
</g>
<!-- Node2 -->
<g id="node2" class="node">
<title>Node2</title>
<g id="a_node2"><a xlink:href="structUART__InitTypeDef.html" target="_top" xlink:title="UART Init Structure definition.">
<polygon fill="white" stroke="black" points="0,-78.5 0,-97.5 104,-97.5 104,-78.5 0,-78.5"/>
<text text-anchor="middle" x="52" y="-85.5" font-family="Helvetica,sans-Serif" font-size="10.00">UART_InitTypeDef</text>
</a>
</g>
</g>
<!-- Node2&#45;&gt;Node1 -->
<g id="edge1" class="edge">
<title>Node2&#45;&gt;Node1</title>
<path fill="none" stroke="#9a32cd" stroke-dasharray="5,2" d="M62.09,-69.57C71.14,-53.95 84.02,-31.7 91.01,-19.62"/>
<polygon fill="#9a32cd" stroke="#9a32cd" points="59.03,-67.87 57.05,-78.28 65.09,-71.38 59.03,-67.87"/>
<text text-anchor="middle" x="88.5" y="-46.5" font-family="Helvetica,sans-Serif" font-size="10.00"> Init</text>
</g>
<!-- Node3 -->
<g id="node3" class="node">
<title>Node3</title>
<g id="a_node3"><a xlink:href="struct____DMA__HandleTypeDef.html" target="_top" xlink:title="DMA handle Structure definition.">
<polygon fill="white" stroke="black" points="122,-78.5 122,-97.5 252,-97.5 252,-78.5 122,-78.5"/>
<text text-anchor="middle" x="187" y="-85.5" font-family="Helvetica,sans-Serif" font-size="10.00">__DMA_HandleTypeDef</text>
</a>
</g>
</g>
<!-- Node3&#45;&gt;Node1 -->
<g id="edge2" class="edge">
<title>Node3&#45;&gt;Node1</title>
<path fill="none" stroke="#9a32cd" stroke-dasharray="5,2" d="M168.72,-71.73C149.97,-56.07 121.47,-32.27 106.32,-19.62"/>
<polygon fill="#9a32cd" stroke="#9a32cd" points="166.64,-74.56 176.56,-78.28 171.13,-69.19 166.64,-74.56"/>
<text text-anchor="middle" x="172.5" y="-52" font-family="Helvetica,sans-Serif" font-size="10.00"> hdmarx</text>
<text text-anchor="middle" x="172.5" y="-41" font-family="Helvetica,sans-Serif" font-size="10.00">hdmatx</text>
</g>
<!-- Node4 -->
<g id="node4" class="node">
<title>Node4</title>
<g id="a_node4"><a xlink:href="structDMA__InitTypeDef.html" target="_top" xlink:title="DMA Configuration Structure definition.">
<polygon fill="white" stroke="black" points="136.5,-145.5 136.5,-164.5 237.5,-164.5 237.5,-145.5 136.5,-145.5"/>
<text text-anchor="middle" x="187" y="-152.5" font-family="Helvetica,sans-Serif" font-size="10.00">DMA_InitTypeDef</text>
</a>
</g>
</g>
<!-- Node4&#45;&gt;Node3 -->
<g id="edge3" class="edge">
<title>Node4&#45;&gt;Node3</title>
<path fill="none" stroke="#9a32cd" stroke-dasharray="5,2" d="M187,-135.04C187,-122.67 187,-107.12 187,-97.63"/>
<polygon fill="#9a32cd" stroke="#9a32cd" points="183.5,-135.23 187,-145.23 190.5,-135.23 183.5,-135.23"/>
<text text-anchor="middle" x="196.5" y="-119" font-family="Helvetica,sans-Serif" font-size="10.00"> Init</text>
</g>
</g>
</svg>
