<?xml version="1.0" encoding="UTF-8" standalone="no"?>
<!DOCTYPE svg PUBLIC "-//W3C//DTD SVG 1.1//EN"
 "http://www.w3.org/Graphics/SVG/1.1/DTD/svg11.dtd">
<!-- Generated by graphviz version 2.43.0 (0)
 -->
<!-- Title: Extended Peripheral State functions Pages: 1 -->
<svg width="289pt" height="38pt"
 viewBox="0.00 0.00 289.00 38.00" xmlns="http://www.w3.org/2000/svg" xmlns:xlink="http://www.w3.org/1999/xlink">
<g id="graph0" class="graph" transform="scale(1 1) rotate(0) translate(4 34)">
<title>Extended Peripheral State functions</title>
<polygon fill="white" stroke="transparent" points="-4,4 -4,-34 285,-34 285,4 -4,4"/>
<!-- Node2 -->
<g id="node1" class="node">
<title>Node2</title>
<g id="a_node1"><a xlink:href="group__TIMEx__Exported__Functions.html" target="_top" xlink:title=" ">
<polygon fill="white" stroke="black" points="130,-30 0,-30 0,0 130,0 130,-30"/>
<text text-anchor="start" x="8" y="-18" font-family="Helvetica,sans-Serif" font-size="10.00">TIM Extended Exported</text>
<text text-anchor="middle" x="65" y="-7" font-family="Helvetica,sans-Serif" font-size="10.00"> Functions</text>
</a>
</g>
</g>
<!-- Node1 -->
<g id="node2" class="node">
<title>Node1</title>
<g id="a_node2"><a xlink:title="Extended Peripheral State functions.">
<polygon fill="#bfbfbf" stroke="black" points="281,-30 166,-30 166,0 281,0 281,-30"/>
<text text-anchor="start" x="174" y="-18" font-family="Helvetica,sans-Serif" font-size="10.00">Extended Peripheral</text>
<text text-anchor="middle" x="223.5" y="-7" font-family="Helvetica,sans-Serif" font-size="10.00"> State functions</text>
</a>
</g>
</g>
<!-- Node2&#45;&gt;Node1 -->
<g id="edge1" class="edge">
<title>Node2&#45;&gt;Node1</title>
<path fill="none" stroke="black" d="M140.16,-15C148.77,-15 157.44,-15 165.77,-15"/>
<polygon fill="black" stroke="black" points="140.11,-11.5 130.11,-15 140.11,-18.5 140.11,-11.5"/>
</g>
</g>
</svg>
