<?xml version="1.0" encoding="UTF-8" standalone="no"?>
<!DOCTYPE svg PUBLIC "-//W3C//DTD SVG 1.1//EN"
 "http://www.w3.org/Graphics/SVG/1.1/DTD/svg11.dtd">
<!-- Generated by graphviz version 2.43.0 (0)
 -->
<!-- Title: FSMC_LL Pages: 1 -->
<svg width="416pt" height="124pt"
 viewBox="0.00 0.00 416.00 123.50" xmlns="http://www.w3.org/2000/svg" xmlns:xlink="http://www.w3.org/1999/xlink">
<g id="graph0" class="graph" transform="scale(1 1) rotate(0) translate(4 119.5)">
<title>FSMC_LL</title>
<polygon fill="white" stroke="transparent" points="-4,4 -4,-119.5 412,-119.5 412,4 -4,4"/>
<!-- Node4 -->
<g id="node1" class="node">
<title>Node4</title>
<g id="a_node1"><a xlink:href="group__FSMC__LL__Private__Macros.html" target="_top" xlink:title=" ">
<polygon fill="white" stroke="black" points="405.5,-115.5 267.5,-115.5 267.5,-96.5 405.5,-96.5 405.5,-115.5"/>
<text text-anchor="middle" x="336.5" y="-103.5" font-family="Helvetica,sans-Serif" font-size="10.00">FSMC_LL &#160;Private Macros</text>
</a>
</g>
</g>
<!-- Node1 -->
<g id="node2" class="node">
<title>Node1</title>
<g id="a_node2"><a xlink:title=" ">
<polygon fill="#bfbfbf" stroke="black" points="229,-72.5 170,-72.5 170,-53.5 229,-53.5 229,-72.5"/>
<text text-anchor="middle" x="199.5" y="-60.5" font-family="Helvetica,sans-Serif" font-size="10.00">FSMC_LL</text>
</a>
</g>
</g>
<!-- Node1&#45;&gt;Node4 -->
<g id="edge3" class="edge">
<title>Node1&#45;&gt;Node4</title>
<path fill="none" stroke="black" d="M234.02,-76.15C243.93,-79.85 254.84,-83.75 265,-87 275.5,-90.36 287.01,-93.63 297.63,-96.49"/>
<polygon fill="black" stroke="black" points="235.1,-72.81 224.51,-72.54 232.62,-79.36 235.1,-72.81"/>
</g>
<!-- Node3 -->
<g id="node4" class="node">
<title>Node3</title>
<g id="a_node4"><a xlink:href="group__FSMC__LL__Exported__typedef.html" target="_top" xlink:title=" ">
<polygon fill="white" stroke="black" points="408,-78 265,-78 265,-48 408,-48 408,-78"/>
<text text-anchor="start" x="273" y="-66" font-family="Helvetica,sans-Serif" font-size="10.00">FSMC Low Layer Exported</text>
<text text-anchor="middle" x="336.5" y="-55" font-family="Helvetica,sans-Serif" font-size="10.00"> Types</text>
</a>
</g>
</g>
<!-- Node1&#45;&gt;Node3 -->
<g id="edge2" class="edge">
<title>Node1&#45;&gt;Node3</title>
<path fill="none" stroke="black" d="M239.31,-63C247.39,-63 256.14,-63 264.97,-63"/>
<polygon fill="black" stroke="black" points="239.13,-59.5 229.13,-63 239.13,-66.5 239.13,-59.5"/>
</g>
<!-- Node5 -->
<g id="node5" class="node">
<title>Node5</title>
<g id="a_node5"><a xlink:href="group__FSMC__LL__Exported__Constants.html" target="_top" xlink:title=" ">
<polygon fill="white" stroke="black" points="408,-30 265,-30 265,0 408,0 408,-30"/>
<text text-anchor="start" x="273" y="-18" font-family="Helvetica,sans-Serif" font-size="10.00">FSMC Low Layer Exported</text>
<text text-anchor="middle" x="336.5" y="-7" font-family="Helvetica,sans-Serif" font-size="10.00"> Constants</text>
</a>
</g>
</g>
<!-- Node1&#45;&gt;Node5 -->
<g id="edge4" class="edge">
<title>Node1&#45;&gt;Node5</title>
<path fill="none" stroke="black" d="M235.22,-49.88C244.84,-46.3 255.31,-42.45 265,-39 273.28,-36.05 282.14,-32.97 290.68,-30.05"/>
<polygon fill="black" stroke="black" points="233.7,-46.71 225.56,-53.49 236.15,-53.27 233.7,-46.71"/>
</g>
<!-- Node2 -->
<g id="node3" class="node">
<title>Node2</title>
<g id="a_node3"><a xlink:href="group__STM32F4xx__HAL__Driver.html" target="_top" xlink:title=" ">
<polygon fill="white" stroke="black" points="134,-72.5 0,-72.5 0,-53.5 134,-53.5 134,-72.5"/>
<text text-anchor="middle" x="67" y="-60.5" font-family="Helvetica,sans-Serif" font-size="10.00">STM32F4xx_HAL_Driver</text>
</a>
</g>
</g>
<!-- Node2&#45;&gt;Node1 -->
<g id="edge1" class="edge">
<title>Node2&#45;&gt;Node1</title>
<path fill="none" stroke="black" d="M144.05,-63C153.22,-63 162.1,-63 169.93,-63"/>
<polygon fill="black" stroke="black" points="144.01,-59.5 134.01,-63 144.01,-66.5 144.01,-59.5"/>
</g>
</g>
</svg>
