<?xml version="1.0" encoding="UTF-8" standalone="no"?>
<!DOCTYPE svg PUBLIC "-//W3C//DTD SVG 1.1//EN"
 "http://www.w3.org/Graphics/SVG/1.1/DTD/svg11.dtd">
<!-- Generated by graphviz version 2.43.0 (0)
 -->
<!-- Title: LL_PLL_ConfigSystemClock_HSE Pages: 1 -->
<!--zoomable 129 -->
<svg id="main" version="1.1" xmlns="http://www.w3.org/2000/svg" xmlns:xlink="http://www.w3.org/1999/xlink" xml:space="preserve" onload="init(evt)">
<style type="text/css"><![CDATA[
.edge:hover path { stroke: red; }
.edge:hover polygon { stroke: red; fill: red; }
]]></style>
<script type="text/javascript"><![CDATA[
var edges = document.getElementsByTagName('g');
if (edges && edges.length) {
  for (var i=0;i<edges.length;i++) {
    if (edges[i].id.substr(0,4)=='edge') {
      edges[i].setAttribute('class','edge');
    }
  }
}
]]></script>
        <defs>
                <circle id="rim" cx="0" cy="0" r="7"/>
                <circle id="rim2" cx="0" cy="0" r="3.5"/>
                <g id="zoomPlus">
                        <use xlink:href="#rim" fill="#404040">
                                <set attributeName="fill" to="#808080" begin="zoomplus.mouseover" end="zoomplus.mouseout"/>
                        </use>
                        <path d="M-4,0h8M0,-4v8" fill="none" stroke="white" stroke-width="1.5" pointer-events="none"/>
                </g>
                <g id="zoomMin">
                        <use xlink:href="#rim" fill="#404040">
                                <set attributeName="fill" to="#808080" begin="zoomminus.mouseover" end="zoomminus.mouseout"/>
                        </use>
                        <path d="M-4,0h8" fill="none" stroke="white" stroke-width="1.5" pointer-events="none"/>
                </g>
                <g id="dirArrow">
                        <path fill="none" stroke="white" stroke-width="1.5" d="M0,-3.0v7 M-2.5,-0.5L0,-3.0L2.5,-0.5"/>
                </g>
               <g id="resetDef">
                       <use xlink:href="#rim2" fill="#404040">
                               <set attributeName="fill" to="#808080" begin="reset.mouseover" end="reset.mouseout"/>
                       </use>
               </g>
        </defs>

<script type="text/javascript">
var viewWidth = 554;
var viewHeight = 129;
var sectionId = 'dynsection-1';
</script>
<script xlink:href="svgpan.js"/>
<svg id="graph" class="graph">
<g id="viewport">
<title>LL_PLL_ConfigSystemClock_HSE</title>
<polygon fill="white" stroke="transparent" points="-4,4 -4,-125 550,-125 550,4 -4,4"/>
<!-- Node1 -->
<g id="node1" class="node">
<title>Node1</title>
<g id="a_node1"><a xlink:title="This function configures system clock with HSE as clock source of the PLL.">
<polygon fill="#bfbfbf" stroke="black" points="0,-38.5 0,-57.5 173,-57.5 173,-38.5 0,-38.5"/>
<text text-anchor="middle" x="86.5" y="-45.5" font-family="Helvetica,sans-Serif" font-size="10.00">LL_PLL_ConfigSystemClock_HSE</text>
</a>
</g>
</g>
<!-- Node2 -->
<g id="node2" class="node">
<title>Node2</title>
<g id="a_node2"><a xlink:href="group__UTILS__LL__Private__Functions.html#ga320bd51e9a0bfdf2fa1da4a24bb05fc0" target="_top" xlink:title="Function to enable PLL and switch system clock to PLL.">
<polygon fill="white" stroke="black" points="217,-77 217,-107 368,-107 368,-77 217,-77"/>
<text text-anchor="start" x="225" y="-95" font-family="Helvetica,sans-Serif" font-size="10.00">UTILS_EnablePLLAndSwitch</text>
<text text-anchor="middle" x="292.5" y="-84" font-family="Helvetica,sans-Serif" font-size="10.00">System</text>
</a>
</g>
</g>
<!-- Node1&#45;&gt;Node2 -->
<g id="edge1" class="edge">
<title>Node1&#45;&gt;Node2</title>
<path fill="none" stroke="midnightblue" d="M131.76,-57.55C155.14,-62.59 184.55,-68.93 211.75,-74.8"/>
<polygon fill="midnightblue" stroke="midnightblue" points="211.14,-78.25 221.65,-76.93 212.61,-71.4 211.14,-78.25"/>
</g>
<!-- Node5 -->
<g id="node5" class="node">
<title>Node5</title>
<g id="a_node5"><a xlink:href="group__UTILS__LL__Private__Functions.html#gae40ed31572a8b64837e7f6d8eda0f4e2" target="_top" xlink:title="Function to check that PLL can be modified.">
<polygon fill="white" stroke="black" points="209,-38.5 209,-57.5 376,-57.5 376,-38.5 209,-38.5"/>
<text text-anchor="middle" x="292.5" y="-45.5" font-family="Helvetica,sans-Serif" font-size="10.00">UTILS_GetPLLOutputFrequency</text>
</a>
</g>
</g>
<!-- Node1&#45;&gt;Node5 -->
<g id="edge4" class="edge">
<title>Node1&#45;&gt;Node5</title>
<path fill="none" stroke="midnightblue" d="M173.13,-48C181.5,-48 190.02,-48 198.46,-48"/>
<polygon fill="midnightblue" stroke="midnightblue" points="198.7,-51.5 208.7,-48 198.7,-44.5 198.7,-51.5"/>
</g>
<!-- Node6 -->
<g id="node6" class="node">
<title>Node6</title>
<g id="a_node6"><a xlink:href="group__UTILS__LL__Private__Functions.html#ga4242342336a76627fc39a7e145dbf3c7" target="_top" xlink:title="Function to check that PLL can be modified.">
<polygon fill="white" stroke="black" points="240.5,-0.5 240.5,-19.5 344.5,-19.5 344.5,-0.5 240.5,-0.5"/>
<text text-anchor="middle" x="292.5" y="-7.5" font-family="Helvetica,sans-Serif" font-size="10.00">UTILS_PLL_IsBusy</text>
</a>
</g>
</g>
<!-- Node1&#45;&gt;Node6 -->
<g id="edge5" class="edge">
<title>Node1&#45;&gt;Node6</title>
<path fill="none" stroke="midnightblue" d="M138.71,-38.46C166.48,-33.29 200.99,-26.86 230.18,-21.42"/>
<polygon fill="midnightblue" stroke="midnightblue" points="231.07,-24.82 240.26,-19.54 229.79,-17.93 231.07,-24.82"/>
</g>
<!-- Node3 -->
<g id="node3" class="node">
<title>Node3</title>
<g id="a_node3"><a xlink:href="group__UTILS__EF__SYSTEM.html#ga74f71dc4b93a3b99e5f9e042e85e2ce5" target="_top" xlink:title="Update number of Flash wait states in line with new frequency and current voltage range.">
<polygon fill="white" stroke="black" points="422.5,-101.5 422.5,-120.5 535.5,-120.5 535.5,-101.5 422.5,-101.5"/>
<text text-anchor="middle" x="479" y="-108.5" font-family="Helvetica,sans-Serif" font-size="10.00">LL_SetFlashLatency</text>
</a>
</g>
</g>
<!-- Node2&#45;&gt;Node3 -->
<g id="edge2" class="edge">
<title>Node2&#45;&gt;Node3</title>
<path fill="none" stroke="midnightblue" d="M368.01,-99.67C382.58,-101.17 397.76,-102.74 412.02,-104.21"/>
<polygon fill="midnightblue" stroke="midnightblue" points="411.92,-107.71 422.23,-105.26 412.64,-100.75 411.92,-107.71"/>
</g>
<!-- Node4 -->
<g id="node4" class="node">
<title>Node4</title>
<g id="a_node4"><a xlink:href="group__UTILS__EF__SYSTEM.html#ga5af902d59c4c2d9dc5e189df0bc71ecd" target="_top" xlink:title="This function sets directly SystemCoreClock CMSIS variable.">
<polygon fill="white" stroke="black" points="412,-63.5 412,-82.5 546,-82.5 546,-63.5 412,-63.5"/>
<text text-anchor="middle" x="479" y="-70.5" font-family="Helvetica,sans-Serif" font-size="10.00">LL_SetSystemCoreClock</text>
</a>
</g>
</g>
<!-- Node2&#45;&gt;Node4 -->
<g id="edge3" class="edge">
<title>Node2&#45;&gt;Node4</title>
<path fill="none" stroke="midnightblue" d="M368.01,-84.33C379.11,-83.18 390.57,-82 401.71,-80.86"/>
<polygon fill="midnightblue" stroke="midnightblue" points="402.24,-84.32 411.83,-79.81 401.53,-77.36 402.24,-84.32"/>
</g>
</g>
</svg>
        <g id="navigator" transform="translate(0 0)" fill="#404254">
                <rect fill="#f2f5e9" fill-opacity="0.5" stroke="#606060" stroke-width=".5" x="0" y="0" width="60" height="60"/>
                <use id="zoomplus" xlink:href="#zoomPlus" x="17" y="9" onmousedown="handleZoom(evt,'in')"/>
                <use id="zoomminus" xlink:href="#zoomMin" x="42" y="9" onmousedown="handleZoom(evt,'out')"/>
                <use id="reset" xlink:href="#resetDef" x="30" y="36" onmousedown="handleReset()"/>
                <g id="arrowUp" xlink:href="#dirArrow" transform="translate(30 24)" onmousedown="handlePan(0,-1)">
                  <use xlink:href="#rim" fill="#404040">
                        <set attributeName="fill" to="#808080" begin="arrowUp.mouseover" end="arrowUp.mouseout"/>
                  </use>
                  <path fill="none" stroke="white" stroke-width="1.5" d="M0,-3.0v7 M-2.5,-0.5L0,-3.0L2.5,-0.5"/>
                </g>
                <g id="arrowRight" xlink:href="#dirArrow" transform="rotate(90) translate(36 -43)" onmousedown="handlePan(1,0)">
                  <use xlink:href="#rim" fill="#404040">
                        <set attributeName="fill" to="#808080" begin="arrowRight.mouseover" end="arrowRight.mouseout"/>
                  </use>
                  <path fill="none" stroke="white" stroke-width="1.5" d="M0,-3.0v7 M-2.5,-0.5L0,-3.0L2.5,-0.5"/>
                </g>
                <g id="arrowDown" xlink:href="#dirArrow" transform="rotate(180) translate(-30 -48)" onmousedown="handlePan(0,1)">
                  <use xlink:href="#rim" fill="#404040">
                        <set attributeName="fill" to="#808080" begin="arrowDown.mouseover" end="arrowDown.mouseout"/>
                  </use>
                  <path fill="none" stroke="white" stroke-width="1.5" d="M0,-3.0v7 M-2.5,-0.5L0,-3.0L2.5,-0.5"/>
                </g>
                <g id="arrowLeft" xlink:href="#dirArrow" transform="rotate(270) translate(-36 17)" onmousedown="handlePan(-1,0)">
                  <use xlink:href="#rim" fill="#404040">
                        <set attributeName="fill" to="#808080" begin="arrowLeft.mouseover" end="arrowLeft.mouseout"/>
                  </use>
                  <path fill="none" stroke="white" stroke-width="1.5" d="M0,-3.0v7 M-2.5,-0.5L0,-3.0L2.5,-0.5"/>
                </g>
        </g>
        <svg viewBox="0 0 15 15" width="100%" height="30px" preserveAspectRatio="xMaxYMin meet">
         <g id="arrow_out" transform="scale(0.3 0.3)">
          <a xlink:href="group__UTILS__EF__SYSTEM_gaf6c8553d03464d4646b63321b97d25e2_cgraph_org.svg" target="_base">
           <rect id="button" ry="5" rx="5" y="6" x="6" height="38" width="38"
                fill="#f2f5e9" fill-opacity="0.5" stroke="#606060" stroke-width="1.0"/>
           <path id="arrow"
             d="M 11.500037,31.436501 C 11.940474,20.09759 22.043105,11.32322 32.158766,21.979434 L 37.068811,17.246167 C 37.068811,17.246167 37.088388,32 37.088388,32 L 22.160133,31.978069 C 22.160133,31.978069 26.997745,27.140456 26.997745,27.140456 C 18.528582,18.264221 13.291696,25.230495 11.500037,31.436501 z"
             style="fill:#404040;"/>
          </a>
         </g>
        </svg>
</svg>
