<?xml version="1.0" encoding="UTF-8" standalone="no"?>
<!DOCTYPE svg PUBLIC "-//W3C//DTD SVG 1.1//EN"
 "http://www.w3.org/Graphics/SVG/1.1/DTD/svg11.dtd">
<!-- Generated by graphviz version 2.43.0 (0)
 -->
<!-- Title: LL_PLL_ConfigSystemClock_HSI Pages: 1 -->
<svg width="551pt" height="129pt"
 viewBox="0.00 0.00 551.00 129.00" xmlns="http://www.w3.org/2000/svg" xmlns:xlink="http://www.w3.org/1999/xlink">
<g id="graph0" class="graph" transform="scale(1 1) rotate(0) translate(4 125)">
<title>LL_PLL_ConfigSystemClock_HSI</title>
<polygon fill="white" stroke="transparent" points="-4,4 -4,-125 547,-125 547,4 -4,4"/>
<!-- Node1 -->
<g id="node1" class="node">
<title>Node1</title>
<g id="a_node1"><a xlink:title="This function configures system clock at maximum frequency with HSI as clock source of the PLL.">
<polygon fill="#bfbfbf" stroke="black" points="0,-38.5 0,-57.5 170,-57.5 170,-38.5 0,-38.5"/>
<text text-anchor="middle" x="85" y="-45.5" font-family="Helvetica,sans-Serif" font-size="10.00">LL_PLL_ConfigSystemClock_HSI</text>
</a>
</g>
</g>
<!-- Node2 -->
<g id="node2" class="node">
<title>Node2</title>
<g id="a_node2"><a xlink:href="group__UTILS__LL__Private__Functions.html#ga320bd51e9a0bfdf2fa1da4a24bb05fc0" target="_top" xlink:title="Function to enable PLL and switch system clock to PLL.">
<polygon fill="white" stroke="black" points="214,-77 214,-107 365,-107 365,-77 214,-77"/>
<text text-anchor="start" x="222" y="-95" font-family="Helvetica,sans-Serif" font-size="10.00">UTILS_EnablePLLAndSwitch</text>
<text text-anchor="middle" x="289.5" y="-84" font-family="Helvetica,sans-Serif" font-size="10.00">System</text>
</a>
</g>
</g>
<!-- Node1&#45;&gt;Node2 -->
<g id="edge1" class="edge">
<title>Node1&#45;&gt;Node2</title>
<path fill="none" stroke="midnightblue" d="M129.94,-57.55C153.15,-62.59 182.34,-68.93 209.33,-74.8"/>
<polygon fill="midnightblue" stroke="midnightblue" points="208.65,-78.23 219.17,-76.93 210.14,-71.39 208.65,-78.23"/>
</g>
<!-- Node5 -->
<g id="node5" class="node">
<title>Node5</title>
<g id="a_node5"><a xlink:href="group__UTILS__LL__Private__Functions.html#gae40ed31572a8b64837e7f6d8eda0f4e2" target="_top" xlink:title="Function to check that PLL can be modified.">
<polygon fill="white" stroke="black" points="206,-38.5 206,-57.5 373,-57.5 373,-38.5 206,-38.5"/>
<text text-anchor="middle" x="289.5" y="-45.5" font-family="Helvetica,sans-Serif" font-size="10.00">UTILS_GetPLLOutputFrequency</text>
</a>
</g>
</g>
<!-- Node1&#45;&gt;Node5 -->
<g id="edge4" class="edge">
<title>Node1&#45;&gt;Node5</title>
<path fill="none" stroke="midnightblue" d="M170.12,-48C178.63,-48 187.31,-48 195.91,-48"/>
<polygon fill="midnightblue" stroke="midnightblue" points="195.95,-51.5 205.94,-48 195.94,-44.5 195.95,-51.5"/>
</g>
<!-- Node6 -->
<g id="node6" class="node">
<title>Node6</title>
<g id="a_node6"><a xlink:href="group__UTILS__LL__Private__Functions.html#ga4242342336a76627fc39a7e145dbf3c7" target="_top" xlink:title="Function to check that PLL can be modified.">
<polygon fill="white" stroke="black" points="237.5,-0.5 237.5,-19.5 341.5,-19.5 341.5,-0.5 237.5,-0.5"/>
<text text-anchor="middle" x="289.5" y="-7.5" font-family="Helvetica,sans-Serif" font-size="10.00">UTILS_PLL_IsBusy</text>
</a>
</g>
</g>
<!-- Node1&#45;&gt;Node6 -->
<g id="edge5" class="edge">
<title>Node1&#45;&gt;Node6</title>
<path fill="none" stroke="midnightblue" d="M136.84,-38.46C164.4,-33.29 198.65,-26.86 227.63,-21.42"/>
<polygon fill="midnightblue" stroke="midnightblue" points="228.46,-24.83 237.64,-19.54 227.17,-17.95 228.46,-24.83"/>
</g>
<!-- Node3 -->
<g id="node3" class="node">
<title>Node3</title>
<g id="a_node3"><a xlink:href="group__UTILS__EF__SYSTEM.html#ga74f71dc4b93a3b99e5f9e042e85e2ce5" target="_top" xlink:title="Update number of Flash wait states in line with new frequency and current voltage range.">
<polygon fill="white" stroke="black" points="419.5,-101.5 419.5,-120.5 532.5,-120.5 532.5,-101.5 419.5,-101.5"/>
<text text-anchor="middle" x="476" y="-108.5" font-family="Helvetica,sans-Serif" font-size="10.00">LL_SetFlashLatency</text>
</a>
</g>
</g>
<!-- Node2&#45;&gt;Node3 -->
<g id="edge2" class="edge">
<title>Node2&#45;&gt;Node3</title>
<path fill="none" stroke="midnightblue" d="M365.01,-99.67C379.58,-101.17 394.76,-102.74 409.02,-104.21"/>
<polygon fill="midnightblue" stroke="midnightblue" points="408.92,-107.71 419.23,-105.26 409.64,-100.75 408.92,-107.71"/>
</g>
<!-- Node4 -->
<g id="node4" class="node">
<title>Node4</title>
<g id="a_node4"><a xlink:href="group__UTILS__EF__SYSTEM.html#ga5af902d59c4c2d9dc5e189df0bc71ecd" target="_top" xlink:title="This function sets directly SystemCoreClock CMSIS variable.">
<polygon fill="white" stroke="black" points="409,-63.5 409,-82.5 543,-82.5 543,-63.5 409,-63.5"/>
<text text-anchor="middle" x="476" y="-70.5" font-family="Helvetica,sans-Serif" font-size="10.00">LL_SetSystemCoreClock</text>
</a>
</g>
</g>
<!-- Node2&#45;&gt;Node4 -->
<g id="edge3" class="edge">
<title>Node2&#45;&gt;Node4</title>
<path fill="none" stroke="midnightblue" d="M365.01,-84.33C376.11,-83.18 387.57,-82 398.71,-80.86"/>
<polygon fill="midnightblue" stroke="midnightblue" points="399.24,-84.32 408.83,-79.81 398.53,-77.36 399.24,-84.32"/>
</g>
</g>
</svg>
