<?xml version="1.0" encoding="UTF-8" standalone="no"?>
<!DOCTYPE svg PUBLIC "-//W3C//DTD SVG 1.1//EN"
 "http://www.w3.org/Graphics/SVG/1.1/DTD/svg11.dtd">
<!-- Generated by graphviz version 2.43.0 (0)
 -->
<!-- Title: RTCEx Private Macros Pages: 1 -->
<svg width="383pt" height="38pt"
 viewBox="0.00 0.00 383.00 38.00" xmlns="http://www.w3.org/2000/svg" xmlns:xlink="http://www.w3.org/1999/xlink">
<g id="graph0" class="graph" transform="scale(1 1) rotate(0) translate(4 34)">
<title>RTCEx Private Macros</title>
<polygon fill="white" stroke="transparent" points="-4,4 -4,-34 379,-34 379,4 -4,4"/>
<!-- Node1 -->
<g id="node1" class="node">
<title>Node1</title>
<g id="a_node1"><a xlink:title=" ">
<polygon fill="#bfbfbf" stroke="black" points="205,-24.5 83,-24.5 83,-5.5 205,-5.5 205,-24.5"/>
<text text-anchor="middle" x="144" y="-12.5" font-family="Helvetica,sans-Serif" font-size="10.00">RTCEx Private Macros</text>
</a>
</g>
</g>
<!-- Node3 -->
<g id="node3" class="node">
<title>Node3</title>
<g id="a_node3"><a xlink:href="group__RTCEx__IS__RTC__Definitions.html" target="_top" xlink:title=" ">
<polygon fill="white" stroke="black" points="375,-30 241,-30 241,0 375,0 375,-30"/>
<text text-anchor="start" x="249" y="-18" font-family="Helvetica,sans-Serif" font-size="10.00">Private macros to check</text>
<text text-anchor="middle" x="308" y="-7" font-family="Helvetica,sans-Serif" font-size="10.00"> input parameters</text>
</a>
</g>
</g>
<!-- Node1&#45;&gt;Node3 -->
<g id="edge2" class="edge">
<title>Node1&#45;&gt;Node3</title>
<path fill="none" stroke="black" d="M215.51,-15C223.95,-15 232.54,-15 240.91,-15"/>
<polygon fill="black" stroke="black" points="215.32,-11.5 205.32,-15 215.32,-18.5 215.32,-11.5"/>
</g>
<!-- Node2 -->
<g id="node2" class="node">
<title>Node2</title>
<g id="a_node2"><a xlink:href="group__RTCEx.html" target="_top" xlink:title="RTC Extended HAL module driver.">
<polygon fill="white" stroke="black" points="47,-24.5 0,-24.5 0,-5.5 47,-5.5 47,-24.5"/>
<text text-anchor="middle" x="23.5" y="-12.5" font-family="Helvetica,sans-Serif" font-size="10.00">RTCEx</text>
</a>
</g>
</g>
<!-- Node2&#45;&gt;Node1 -->
<g id="edge1" class="edge">
<title>Node2&#45;&gt;Node1</title>
<path fill="none" stroke="black" d="M57.34,-15C65.29,-15 74.03,-15 82.8,-15"/>
<polygon fill="black" stroke="black" points="57.07,-11.5 47.07,-15 57.07,-18.5 57.07,-11.5"/>
</g>
</g>
</svg>
