<?xml version="1.0" encoding="UTF-8" standalone="no"?>
<!DOCTYPE svg PUBLIC "-//W3C//DTD SVG 1.1//EN"
 "http://www.w3.org/Graphics/SVG/1.1/DTD/svg11.dtd">
<!-- Generated by graphviz version 2.43.0 (0)
 -->
<!-- Title: PWR Private Constants Pages: 1 -->
<svg width="378pt" height="172pt"
 viewBox="0.00 0.00 378.00 172.00" xmlns="http://www.w3.org/2000/svg" xmlns:xlink="http://www.w3.org/1999/xlink">
<g id="graph0" class="graph" transform="scale(1 1) rotate(0) translate(4 168)">
<title>PWR Private Constants</title>
<polygon fill="white" stroke="transparent" points="-4,4 -4,-168 374,-168 374,4 -4,4"/>
<!-- Node4 -->
<g id="node1" class="node">
<title>Node4</title>
<g id="a_node1"><a xlink:href="group__PWR__register__alias__address.html" target="_top" xlink:title=" ">
<polygon fill="white" stroke="black" points="359,-164 250,-164 250,-134 359,-134 359,-164"/>
<text text-anchor="start" x="258" y="-152" font-family="Helvetica,sans-Serif" font-size="10.00">PWR Register alias</text>
<text text-anchor="middle" x="304.5" y="-141" font-family="Helvetica,sans-Serif" font-size="10.00"> address</text>
</a>
</g>
</g>
<!-- Node1 -->
<g id="node2" class="node">
<title>Node1</title>
<g id="a_node2"><a xlink:title=" ">
<polygon fill="#bfbfbf" stroke="black" points="203,-88.5 75,-88.5 75,-69.5 203,-69.5 203,-88.5"/>
<text text-anchor="middle" x="139" y="-76.5" font-family="Helvetica,sans-Serif" font-size="10.00">PWR Private Constants</text>
</a>
</g>
</g>
<!-- Node1&#45;&gt;Node4 -->
<g id="edge3" class="edge">
<title>Node1&#45;&gt;Node4</title>
<path fill="none" stroke="black" d="M168.54,-92.99C188.18,-102.43 214.95,-114.96 239,-125 246.28,-128.04 254.09,-131.11 261.68,-133.98"/>
<polygon fill="black" stroke="black" points="170.05,-89.83 159.52,-88.62 167,-96.13 170.05,-89.83"/>
</g>
<!-- Node5 -->
<g id="node3" class="node">
<title>Node5</title>
<g id="a_node3"><a xlink:href="group__PWR__CR__register__alias.html" target="_top" xlink:title=" ">
<polygon fill="white" stroke="black" points="367,-116 242,-116 242,-86 367,-86 367,-116"/>
<text text-anchor="start" x="250" y="-104" font-family="Helvetica,sans-Serif" font-size="10.00">PWR CR Register alias</text>
<text text-anchor="middle" x="304.5" y="-93" font-family="Helvetica,sans-Serif" font-size="10.00"> address</text>
</a>
</g>
</g>
<!-- Node1&#45;&gt;Node5 -->
<g id="edge4" class="edge">
<title>Node1&#45;&gt;Node5</title>
<path fill="none" stroke="black" d="M213.42,-88.88C222.9,-90.15 232.53,-91.45 241.8,-92.7"/>
<polygon fill="black" stroke="black" points="213.59,-85.37 203.21,-87.51 212.66,-92.31 213.59,-85.37"/>
</g>
<!-- Node3 -->
<g id="node4" class="node">
<title>Node3</title>
<g id="a_node4"><a xlink:href="group__PWR__PVD__EXTI__Line.html" target="_top" xlink:title=" ">
<polygon fill="white" stroke="black" points="359.5,-67.5 249.5,-67.5 249.5,-48.5 359.5,-48.5 359.5,-67.5"/>
<text text-anchor="middle" x="304.5" y="-55.5" font-family="Helvetica,sans-Serif" font-size="10.00">PWR PVD EXTI Line</text>
</a>
</g>
</g>
<!-- Node1&#45;&gt;Node3 -->
<g id="edge2" class="edge">
<title>Node1&#45;&gt;Node3</title>
<path fill="none" stroke="black" d="M213.35,-69.58C225.51,-68.02 237.92,-66.42 249.49,-64.94"/>
<polygon fill="black" stroke="black" points="212.69,-66.14 203.21,-70.88 213.58,-73.08 212.69,-66.14"/>
</g>
<!-- Node6 -->
<g id="node5" class="node">
<title>Node6</title>
<g id="a_node5"><a xlink:href="group__PWR__CSR__register__alias.html" target="_top" xlink:title=" ">
<polygon fill="white" stroke="black" points="370,-30 239,-30 239,0 370,0 370,-30"/>
<text text-anchor="start" x="247" y="-18" font-family="Helvetica,sans-Serif" font-size="10.00">PWR CSR Register alias</text>
<text text-anchor="middle" x="304.5" y="-7" font-family="Helvetica,sans-Serif" font-size="10.00"> address</text>
</a>
</g>
</g>
<!-- Node1&#45;&gt;Node6 -->
<g id="edge5" class="edge">
<title>Node1&#45;&gt;Node6</title>
<path fill="none" stroke="black" d="M172.65,-65.54C191.9,-57.67 216.78,-47.62 239,-39 246.57,-36.06 254.68,-32.99 262.49,-30.06"/>
<polygon fill="black" stroke="black" points="171.06,-62.41 163.13,-69.44 173.71,-68.89 171.06,-62.41"/>
</g>
<!-- Node2 -->
<g id="node6" class="node">
<title>Node2</title>
<g id="a_node6"><a xlink:href="group__PWR.html" target="_top" xlink:title="PWR HAL module driver.">
<polygon fill="white" stroke="black" points="39,-88.5 0,-88.5 0,-69.5 39,-69.5 39,-88.5"/>
<text text-anchor="middle" x="19.5" y="-76.5" font-family="Helvetica,sans-Serif" font-size="10.00">PWR</text>
</a>
</g>
</g>
<!-- Node2&#45;&gt;Node1 -->
<g id="edge1" class="edge">
<title>Node2&#45;&gt;Node1</title>
<path fill="none" stroke="black" d="M49.17,-79C57.06,-79 65.93,-79 74.93,-79"/>
<polygon fill="black" stroke="black" points="49.12,-75.5 39.12,-79 49.12,-82.5 49.12,-75.5"/>
</g>
</g>
</svg>
