<?xml version="1.0" encoding="UTF-8" standalone="no"?>
<!DOCTYPE svg PUBLIC "-//W3C//DTD SVG 1.1//EN"
 "http://www.w3.org/Graphics/SVG/1.1/DTD/svg11.dtd">
<!-- Generated by graphviz version 2.43.0 (0)
 -->
<!-- Title: SMARTCARD_Exported_Functions Pages: 1 -->
<svg width="409pt" height="134pt"
 viewBox="0.00 0.00 409.00 134.00" xmlns="http://www.w3.org/2000/svg" xmlns:xlink="http://www.w3.org/1999/xlink">
<g id="graph0" class="graph" transform="scale(1 1) rotate(0) translate(4 130)">
<title>SMARTCARD_Exported_Functions</title>
<polygon fill="white" stroke="transparent" points="-4,4 -4,-130 405,-130 405,4 -4,4"/>
<!-- Node1 -->
<g id="node1" class="node">
<title>Node1</title>
<g id="a_node1"><a xlink:title=" ">
<polygon fill="#bfbfbf" stroke="black" points="239,-78 113,-78 113,-48 239,-48 239,-78"/>
<text text-anchor="start" x="121" y="-66" font-family="Helvetica,sans-Serif" font-size="10.00">SMARTCARD_Exported</text>
<text text-anchor="middle" x="176" y="-55" font-family="Helvetica,sans-Serif" font-size="10.00">_Functions</text>
</a>
</g>
</g>
<!-- Node3 -->
<g id="node3" class="node">
<title>Node3</title>
<g id="a_node3"><a xlink:href="group__SMARTCARD__Exported__Functions__Group1.html" target="_top" xlink:title=" ">
<polygon fill="white" stroke="black" points="401,-126 275,-126 275,-96 401,-96 401,-126"/>
<text text-anchor="start" x="283" y="-114" font-family="Helvetica,sans-Serif" font-size="10.00">SMARTCARD_Exported</text>
<text text-anchor="middle" x="338" y="-103" font-family="Helvetica,sans-Serif" font-size="10.00">_Functions_Group1</text>
</a>
</g>
</g>
<!-- Node1&#45;&gt;Node3 -->
<g id="edge2" class="edge">
<title>Node1&#45;&gt;Node3</title>
<path fill="none" stroke="black" d="M237.22,-81.07C253.63,-85.99 271.22,-91.27 286.99,-96"/>
<polygon fill="black" stroke="black" points="237.77,-77.58 227.19,-78.06 235.76,-84.28 237.77,-77.58"/>
</g>
<!-- Node4 -->
<g id="node4" class="node">
<title>Node4</title>
<g id="a_node4"><a xlink:href="group__SMARTCARD__Exported__Functions__Group2.html" target="_top" xlink:title=" ">
<polygon fill="white" stroke="black" points="401,-78 275,-78 275,-48 401,-48 401,-78"/>
<text text-anchor="start" x="283" y="-66" font-family="Helvetica,sans-Serif" font-size="10.00">SMARTCARD_Exported</text>
<text text-anchor="middle" x="338" y="-55" font-family="Helvetica,sans-Serif" font-size="10.00">_Functions_Group2</text>
</a>
</g>
</g>
<!-- Node1&#45;&gt;Node4 -->
<g id="edge3" class="edge">
<title>Node1&#45;&gt;Node4</title>
<path fill="none" stroke="black" d="M249.55,-63C258,-63 266.56,-63 274.85,-63"/>
<polygon fill="black" stroke="black" points="249.32,-59.5 239.32,-63 249.32,-66.5 249.32,-59.5"/>
</g>
<!-- Node5 -->
<g id="node5" class="node">
<title>Node5</title>
<g id="a_node5"><a xlink:href="group__SMARTCARD__Exported__Functions__Group3.html" target="_top" xlink:title=" ">
<polygon fill="white" stroke="black" points="401,-30 275,-30 275,0 401,0 401,-30"/>
<text text-anchor="start" x="283" y="-18" font-family="Helvetica,sans-Serif" font-size="10.00">SMARTCARD_Exported</text>
<text text-anchor="middle" x="338" y="-7" font-family="Helvetica,sans-Serif" font-size="10.00">_Functions_Group3</text>
</a>
</g>
</g>
<!-- Node1&#45;&gt;Node5 -->
<g id="edge4" class="edge">
<title>Node1&#45;&gt;Node5</title>
<path fill="none" stroke="black" d="M237.22,-44.93C253.63,-40.01 271.22,-34.73 286.99,-30"/>
<polygon fill="black" stroke="black" points="235.76,-41.72 227.19,-47.94 237.77,-48.42 235.76,-41.72"/>
</g>
<!-- Node2 -->
<g id="node2" class="node">
<title>Node2</title>
<g id="a_node2"><a xlink:href="group__SMARTCARD.html" target="_top" xlink:title="HAL SMARTCARD module driver.">
<polygon fill="white" stroke="black" points="77,-72.5 0,-72.5 0,-53.5 77,-53.5 77,-72.5"/>
<text text-anchor="middle" x="38.5" y="-60.5" font-family="Helvetica,sans-Serif" font-size="10.00">SMARTCARD</text>
</a>
</g>
</g>
<!-- Node2&#45;&gt;Node1 -->
<g id="edge1" class="edge">
<title>Node2&#45;&gt;Node1</title>
<path fill="none" stroke="black" d="M87.39,-63C95.61,-63 104.26,-63 112.79,-63"/>
<polygon fill="black" stroke="black" points="87.24,-59.5 77.24,-63 87.24,-66.5 87.24,-59.5"/>
</g>
</g>
</svg>
