<?xml version="1.0" encoding="UTF-8" standalone="no"?>
<!DOCTYPE svg PUBLIC "-//W3C//DTD SVG 1.1//EN"
 "http://www.w3.org/Graphics/SVG/1.1/DTD/svg11.dtd">
<!-- Generated by graphviz version 2.43.0 (0)
 -->
<!-- Title: DMA Exported Constants Pages: 1 -->
<svg width="446pt" height="569pt"
 viewBox="0.00 0.00 446.00 569.00" xmlns="http://www.w3.org/2000/svg" xmlns:xlink="http://www.w3.org/1999/xlink">
<g id="graph0" class="graph" transform="scale(1 1) rotate(0) translate(4 565)">
<title>DMA Exported Constants</title>
<polygon fill="white" stroke="transparent" points="-4,4 -4,-565 442,-565 442,4 -4,4"/>
<!-- Node14 -->
<g id="node1" class="node">
<title>Node14</title>
<g id="a_node1"><a xlink:href="group__DMA__Memory__burst.html" target="_top" xlink:title="DMA memory burst.">
<polygon fill="white" stroke="black" points="399.5,-561 288.5,-561 288.5,-542 399.5,-542 399.5,-561"/>
<text text-anchor="middle" x="344" y="-549" font-family="Helvetica,sans-Serif" font-size="10.00">DMA Memory burst</text>
</a>
</g>
</g>
<!-- Node1 -->
<g id="node2" class="node">
<title>Node1</title>
<g id="a_node2"><a xlink:title="DMA Exported constants.">
<polygon fill="#bfbfbf" stroke="black" points="214,-290 76,-290 76,-271 214,-271 214,-290"/>
<text text-anchor="middle" x="145" y="-278" font-family="Helvetica,sans-Serif" font-size="10.00">DMA Exported Constants</text>
</a>
</g>
</g>
<!-- Node1&#45;&gt;Node14 -->
<g id="edge13" class="edge">
<title>Node1&#45;&gt;Node14</title>
<path fill="none" stroke="black" d="M147.94,-300.09C153.79,-347.89 175.68,-471.11 250,-532.5 260.8,-541.42 274.68,-546.51 288.4,-549.33"/>
<polygon fill="black" stroke="black" points="151.42,-299.66 146.83,-290.11 144.46,-300.44 151.42,-299.66"/>
</g>
<!-- Node13 -->
<g id="node3" class="node">
<title>Node13</title>
<g id="a_node3"><a xlink:href="group__DMA__FIFO__threshold__level.html" target="_top" xlink:title="DMA FIFO level.">
<polygon fill="white" stroke="black" points="401,-523.5 287,-523.5 287,-493.5 401,-493.5 401,-523.5"/>
<text text-anchor="start" x="295" y="-511.5" font-family="Helvetica,sans-Serif" font-size="10.00">DMA FIFO threshold</text>
<text text-anchor="middle" x="344" y="-500.5" font-family="Helvetica,sans-Serif" font-size="10.00"> level</text>
</a>
</g>
</g>
<!-- Node1&#45;&gt;Node13 -->
<g id="edge12" class="edge">
<title>Node1&#45;&gt;Node13</title>
<path fill="none" stroke="black" d="M150.3,-300.24C160.27,-341.17 188.92,-435.52 250,-484.5 260.54,-492.95 273.72,-498.46 286.81,-502.03"/>
<polygon fill="black" stroke="black" points="153.69,-299.36 148.02,-290.41 146.87,-300.94 153.69,-299.36"/>
</g>
<!-- Node7 -->
<g id="node4" class="node">
<title>Node7</title>
<g id="a_node4"><a xlink:href="group__DMA__Memory__incremented__mode.html" target="_top" xlink:title="DMA memory incremented mode.">
<polygon fill="white" stroke="black" points="433.5,-475 254.5,-475 254.5,-456 433.5,-456 433.5,-475"/>
<text text-anchor="middle" x="344" y="-463" font-family="Helvetica,sans-Serif" font-size="10.00">DMA Memory incremented mode</text>
</a>
</g>
</g>
<!-- Node1&#45;&gt;Node7 -->
<g id="edge6" class="edge">
<title>Node1&#45;&gt;Node7</title>
<path fill="none" stroke="black" d="M152.27,-300.06C164.74,-335.59 196.19,-410.49 250,-447.5 254.88,-450.86 260.22,-453.62 265.81,-455.9"/>
<polygon fill="black" stroke="black" points="155.52,-298.74 149.01,-290.38 148.89,-300.97 155.52,-298.74"/>
</g>
<!-- Node9 -->
<g id="node5" class="node">
<title>Node9</title>
<g id="a_node5"><a xlink:href="group__DMA__Memory__data__size.html" target="_top" xlink:title="DMA memory data size.">
<polygon fill="white" stroke="black" points="409.5,-438 278.5,-438 278.5,-419 409.5,-419 409.5,-438"/>
<text text-anchor="middle" x="344" y="-426" font-family="Helvetica,sans-Serif" font-size="10.00">DMA Memory data size</text>
</a>
</g>
</g>
<!-- Node1&#45;&gt;Node9 -->
<g id="edge8" class="edge">
<title>Node1&#45;&gt;Node9</title>
<path fill="none" stroke="black" d="M155.41,-299.33C170.9,-328.24 204.64,-383.09 250,-410.5 258.59,-415.69 268.36,-419.43 278.27,-422.11"/>
<polygon fill="black" stroke="black" points="158.42,-297.53 150.7,-290.27 152.21,-300.76 158.42,-297.53"/>
</g>
<!-- Node15 -->
<g id="node6" class="node">
<title>Node15</title>
<g id="a_node6"><a xlink:href="group__DMA__Peripheral__burst.html" target="_top" xlink:title="DMA peripheral burst.">
<polygon fill="white" stroke="black" points="404,-401 284,-401 284,-382 404,-382 404,-401"/>
<text text-anchor="middle" x="344" y="-389" font-family="Helvetica,sans-Serif" font-size="10.00">DMA Peripheral burst</text>
</a>
</g>
</g>
<!-- Node1&#45;&gt;Node15 -->
<g id="edge14" class="edge">
<title>Node1&#45;&gt;Node15</title>
<path fill="none" stroke="black" d="M160.14,-297.93C178.5,-319.31 212.64,-354.97 250,-373.5 260.46,-378.69 272.27,-382.38 283.88,-385.01"/>
<polygon fill="black" stroke="black" points="162.8,-295.66 153.69,-290.25 157.44,-300.16 162.8,-295.66"/>
</g>
<!-- Node17 -->
<g id="node7" class="node">
<title>Node17</title>
<g id="a_node7"><a xlink:href="group__DMA__flag__definitions.html" target="_top" xlink:title="DMA flag definitions.">
<polygon fill="white" stroke="black" points="401.5,-364 286.5,-364 286.5,-345 401.5,-345 401.5,-364"/>
<text text-anchor="middle" x="344" y="-352" font-family="Helvetica,sans-Serif" font-size="10.00">DMA flag definitions</text>
</a>
</g>
</g>
<!-- Node1&#45;&gt;Node17 -->
<g id="edge16" class="edge">
<title>Node1&#45;&gt;Node17</title>
<path fill="none" stroke="black" d="M169.11,-295.59C189.58,-308.31 220.69,-326.05 250,-336.5 261.46,-340.59 274.07,-343.82 286.2,-346.34"/>
<polygon fill="black" stroke="black" points="170.82,-292.53 160.49,-290.15 167.08,-298.45 170.82,-292.53"/>
</g>
<!-- Node10 -->
<g id="node8" class="node">
<title>Node10</title>
<g id="a_node8"><a xlink:href="group__DMA__mode.html" target="_top" xlink:title="DMA mode.">
<polygon fill="white" stroke="black" points="379.5,-327 308.5,-327 308.5,-308 379.5,-308 379.5,-327"/>
<text text-anchor="middle" x="344" y="-315" font-family="Helvetica,sans-Serif" font-size="10.00">DMA mode</text>
</a>
</g>
</g>
<!-- Node1&#45;&gt;Node10 -->
<g id="edge9" class="edge">
<title>Node1&#45;&gt;Node10</title>
<path fill="none" stroke="black" d="M206.83,-291.93C240.16,-298.18 280.25,-305.71 308.26,-310.98"/>
<polygon fill="black" stroke="black" points="207.21,-288.43 196.73,-290.03 205.91,-295.31 207.21,-288.43"/>
</g>
<!-- Node12 -->
<g id="node9" class="node">
<title>Node12</title>
<g id="a_node9"><a xlink:href="group__DMA__FIFO__direct__mode.html" target="_top" xlink:title="DMA FIFO direct mode.">
<polygon fill="white" stroke="black" points="407.5,-290 280.5,-290 280.5,-271 407.5,-271 407.5,-290"/>
<text text-anchor="middle" x="344" y="-278" font-family="Helvetica,sans-Serif" font-size="10.00">DMA FIFO direct mode</text>
</a>
</g>
</g>
<!-- Node1&#45;&gt;Node12 -->
<g id="edge11" class="edge">
<title>Node1&#45;&gt;Node12</title>
<path fill="none" stroke="black" d="M224.27,-280.5C242.85,-280.5 262.43,-280.5 280.22,-280.5"/>
<polygon fill="black" stroke="black" points="224.07,-277 214.07,-280.5 224.07,-284 224.07,-277"/>
</g>
<!-- Node16 -->
<g id="node10" class="node">
<title>Node16</title>
<g id="a_node10"><a xlink:href="group__DMA__interrupt__enable__definitions.html" target="_top" xlink:title="DMA interrupts definition.">
<polygon fill="white" stroke="black" points="404.5,-252.5 283.5,-252.5 283.5,-222.5 404.5,-222.5 404.5,-252.5"/>
<text text-anchor="start" x="291.5" y="-240.5" font-family="Helvetica,sans-Serif" font-size="10.00">DMA interrupt enable</text>
<text text-anchor="middle" x="344" y="-229.5" font-family="Helvetica,sans-Serif" font-size="10.00"> definitions</text>
</a>
</g>
</g>
<!-- Node1&#45;&gt;Node16 -->
<g id="edge15" class="edge">
<title>Node1&#45;&gt;Node16</title>
<path fill="none" stroke="black" d="M199.73,-268.77C225.61,-263.12 256.72,-256.33 283.34,-250.52"/>
<polygon fill="black" stroke="black" points="198.74,-265.4 189.72,-270.96 200.24,-272.24 198.74,-265.4"/>
</g>
<!-- Node5 -->
<g id="node12" class="node">
<title>Node5</title>
<g id="a_node12"><a xlink:href="group__DMA__Data__transfer__direction.html" target="_top" xlink:title="DMA data transfer direction.">
<polygon fill="white" stroke="black" points="420.5,-204 267.5,-204 267.5,-185 420.5,-185 420.5,-204"/>
<text text-anchor="middle" x="344" y="-192" font-family="Helvetica,sans-Serif" font-size="10.00">DMA Data transfer direction</text>
</a>
</g>
</g>
<!-- Node1&#45;&gt;Node5 -->
<g id="edge4" class="edge">
<title>Node1&#45;&gt;Node5</title>
<path fill="none" stroke="black" d="M165.7,-264.6C185.75,-249.23 218.29,-226.42 250,-213.5 259.46,-209.64 269.8,-206.54 280.02,-204.05"/>
<polygon fill="black" stroke="black" points="163.39,-261.97 157.67,-270.88 167.7,-267.48 163.39,-261.97"/>
</g>
<!-- Node8 -->
<g id="node13" class="node">
<title>Node8</title>
<g id="a_node13"><a xlink:href="group__DMA__Peripheral__data__size.html" target="_top" xlink:title="DMA peripheral data size.">
<polygon fill="white" stroke="black" points="414,-167 274,-167 274,-148 414,-148 414,-167"/>
<text text-anchor="middle" x="344" y="-155" font-family="Helvetica,sans-Serif" font-size="10.00">DMA Peripheral data size</text>
</a>
</g>
</g>
<!-- Node1&#45;&gt;Node8 -->
<g id="edge7" class="edge">
<title>Node1&#45;&gt;Node8</title>
<path fill="none" stroke="black" d="M158.32,-262.57C175.77,-238.64 210.07,-196.83 250,-175.5 257.4,-171.55 265.54,-168.46 273.83,-166.04"/>
<polygon fill="black" stroke="black" points="155.42,-260.6 152.47,-270.78 161.12,-264.66 155.42,-260.6"/>
</g>
<!-- Node3 -->
<g id="node14" class="node">
<title>Node3</title>
<g id="a_node14"><a xlink:href="group__DMA__Error__Code.html" target="_top" xlink:title="DMA Error Code.">
<polygon fill="white" stroke="black" points="391,-130 297,-130 297,-111 391,-111 391,-130"/>
<text text-anchor="middle" x="344" y="-118" font-family="Helvetica,sans-Serif" font-size="10.00">DMA Error Code</text>
</a>
</g>
</g>
<!-- Node1&#45;&gt;Node3 -->
<g id="edge2" class="edge">
<title>Node1&#45;&gt;Node3</title>
<path fill="none" stroke="black" d="M154.1,-261.72C168.53,-230.68 201.77,-169.07 250,-138.5 263.89,-129.7 281.12,-125.02 296.96,-122.6"/>
<polygon fill="black" stroke="black" points="150.85,-260.43 149.94,-270.98 157.23,-263.3 150.85,-260.43"/>
</g>
<!-- Node11 -->
<g id="node15" class="node">
<title>Node11</title>
<g id="a_node15"><a xlink:href="group__DMA__Priority__level.html" target="_top" xlink:title="DMA priority levels.">
<polygon fill="white" stroke="black" points="396.5,-93 291.5,-93 291.5,-74 396.5,-74 396.5,-93"/>
<text text-anchor="middle" x="344" y="-81" font-family="Helvetica,sans-Serif" font-size="10.00">DMA Priority level</text>
</a>
</g>
</g>
<!-- Node1&#45;&gt;Node11 -->
<g id="edge10" class="edge">
<title>Node1&#45;&gt;Node11</title>
<path fill="none" stroke="black" d="M151.37,-261.12C162.79,-223.74 193.2,-141.86 250,-101.5 261.93,-93.02 276.81,-88.26 291.14,-85.66"/>
<polygon fill="black" stroke="black" points="147.98,-260.22 148.54,-270.8 154.7,-262.18 147.98,-260.22"/>
</g>
<!-- Node6 -->
<g id="node16" class="node">
<title>Node6</title>
<g id="a_node16"><a xlink:href="group__DMA__Peripheral__incremented__mode.html" target="_top" xlink:title="DMA peripheral incremented mode.">
<polygon fill="white" stroke="black" points="438,-56 250,-56 250,-37 438,-37 438,-56"/>
<text text-anchor="middle" x="344" y="-44" font-family="Helvetica,sans-Serif" font-size="10.00">DMA Peripheral incremented mode</text>
</a>
</g>
</g>
<!-- Node1&#45;&gt;Node6 -->
<g id="edge5" class="edge">
<title>Node1&#45;&gt;Node6</title>
<path fill="none" stroke="black" d="M149.39,-260.79C157.89,-217.74 184.33,-115.11 250,-64.5 254.3,-61.19 259.03,-58.43 264.02,-56.14"/>
<polygon fill="black" stroke="black" points="145.91,-260.36 147.52,-270.83 152.79,-261.63 145.91,-260.36"/>
</g>
<!-- Node4 -->
<g id="node17" class="node">
<title>Node4</title>
<g id="a_node17"><a xlink:href="group__DMA__Channel__selection.html" target="_top" xlink:title="DMA channel selection.">
<polygon fill="white" stroke="black" points="409,-19 279,-19 279,0 409,0 409,-19"/>
<text text-anchor="middle" x="344" y="-7" font-family="Helvetica,sans-Serif" font-size="10.00">DMA Channel selection</text>
</a>
</g>
</g>
<!-- Node1&#45;&gt;Node4 -->
<g id="edge3" class="edge">
<title>Node1&#45;&gt;Node4</title>
<path fill="none" stroke="black" d="M147.88,-260.79C153.57,-212.69 175.16,-88.77 250,-27.5 258.27,-20.73 268.34,-16.24 278.76,-13.3"/>
<polygon fill="black" stroke="black" points="144.39,-260.51 146.8,-270.82 151.35,-261.26 144.39,-260.51"/>
</g>
<!-- Node2 -->
<g id="node11" class="node">
<title>Node2</title>
<g id="a_node11"><a xlink:href="group__DMA.html" target="_top" xlink:title="DMA HAL module driver.">
<polygon fill="white" stroke="black" points="40,-290 0,-290 0,-271 40,-271 40,-290"/>
<text text-anchor="middle" x="20" y="-278" font-family="Helvetica,sans-Serif" font-size="10.00">DMA</text>
</a>
</g>
</g>
<!-- Node2&#45;&gt;Node1 -->
<g id="edge1" class="edge">
<title>Node2&#45;&gt;Node1</title>
<path fill="none" stroke="black" d="M50.48,-280.5C58.25,-280.5 66.95,-280.5 75.85,-280.5"/>
<polygon fill="black" stroke="black" points="50.22,-277 40.22,-280.5 50.22,-284 50.22,-277"/>
</g>
</g>
</svg>
