<?xml version="1.0" encoding="UTF-8" standalone="no"?>
<!DOCTYPE svg PUBLIC "-//W3C//DTD SVG 1.1//EN"
 "http://www.w3.org/Graphics/SVG/1.1/DTD/svg11.dtd">
<!-- Generated by graphviz version 2.43.0 (0)
 -->
<!-- Title: HAL Exported Constants Pages: 1 -->
<svg width="340pt" height="27pt"
 viewBox="0.00 0.00 340.00 27.00" xmlns="http://www.w3.org/2000/svg" xmlns:xlink="http://www.w3.org/1999/xlink">
<g id="graph0" class="graph" transform="scale(1 1) rotate(0) translate(4 23)">
<title>HAL Exported Constants</title>
<polygon fill="white" stroke="transparent" points="-4,4 -4,-23 336,-23 336,4 -4,4"/>
<!-- Node1 -->
<g id="node1" class="node">
<title>Node1</title>
<g id="a_node1"><a xlink:title=" ">
<polygon fill="#bfbfbf" stroke="black" points="206,-19 72,-19 72,0 206,0 206,-19"/>
<text text-anchor="middle" x="139" y="-7" font-family="Helvetica,sans-Serif" font-size="10.00">HAL Exported Constants</text>
</a>
</g>
</g>
<!-- Node3 -->
<g id="node3" class="node">
<title>Node3</title>
<g id="a_node3"><a xlink:href="group__HAL__TICK__FREQ.html" target="_top" xlink:title=" ">
<polygon fill="white" stroke="black" points="332,-19 242,-19 242,0 332,0 332,-19"/>
<text text-anchor="middle" x="287" y="-7" font-family="Helvetica,sans-Serif" font-size="10.00">Tick Frequency</text>
</a>
</g>
</g>
<!-- Node1&#45;&gt;Node3 -->
<g id="edge2" class="edge">
<title>Node1&#45;&gt;Node3</title>
<path fill="none" stroke="black" d="M216.38,-9.5C225.08,-9.5 233.72,-9.5 241.8,-9.5"/>
<polygon fill="black" stroke="black" points="216.17,-6 206.17,-9.5 216.17,-13 216.17,-6"/>
</g>
<!-- Node2 -->
<g id="node2" class="node">
<title>Node2</title>
<g id="a_node2"><a xlink:href="group__HAL.html" target="_top" xlink:title="HAL module driver.">
<polygon fill="white" stroke="black" points="36,-19 0,-19 0,0 36,0 36,-19"/>
<text text-anchor="middle" x="18" y="-7" font-family="Helvetica,sans-Serif" font-size="10.00">HAL</text>
</a>
</g>
</g>
<!-- Node2&#45;&gt;Node1 -->
<g id="edge1" class="edge">
<title>Node2&#45;&gt;Node1</title>
<path fill="none" stroke="black" d="M46.25,-9.5C54.03,-9.5 62.86,-9.5 71.89,-9.5"/>
<polygon fill="black" stroke="black" points="46.05,-6 36.05,-9.5 46.05,-13 46.05,-6"/>
</g>
</g>
</svg>
