<?xml version="1.0" encoding="UTF-8" standalone="no"?>
<!DOCTYPE svg PUBLIC "-//W3C//DTD SVG 1.1//EN"
 "http://www.w3.org/Graphics/SVG/1.1/DTD/svg11.dtd">
<!-- Generated by graphviz version 2.43.0 (0)
 -->
<!-- Title: DMA Exported Functions Pages: 1 -->
<svg width="400pt" height="113pt"
 viewBox="0.00 0.00 400.00 112.50" xmlns="http://www.w3.org/2000/svg" xmlns:xlink="http://www.w3.org/1999/xlink">
<g id="graph0" class="graph" transform="scale(1 1) rotate(0) translate(4 108.5)">
<title>DMA Exported Functions</title>
<polygon fill="white" stroke="transparent" points="-4,4 -4,-108.5 396,-108.5 396,4 -4,4"/>
<!-- Node3 -->
<g id="node1" class="node">
<title>Node3</title>
<g id="a_node1"><a xlink:href="group__DMA__Exported__Functions__Group1.html" target="_top" xlink:title="Initialization and de&#45;initialization functions.">
<polygon fill="white" stroke="black" points="392,-104.5 248,-104.5 248,-74.5 392,-74.5 392,-104.5"/>
<text text-anchor="start" x="256" y="-92.5" font-family="Helvetica,sans-Serif" font-size="10.00">Initialization and</text>
<text text-anchor="middle" x="320" y="-81.5" font-family="Helvetica,sans-Serif" font-size="10.00"> de&#45;initialization functions</text>
</a>
</g>
</g>
<!-- Node4 -->
<g id="node2" class="node">
<title>Node4</title>
<g id="a_node2"><a xlink:href="group__DMA__Exported__Functions__Group2.html" target="_top" xlink:title="I/O operation functions">
<polygon fill="white" stroke="black" points="384,-56 256,-56 256,-37 384,-37 384,-56"/>
<text text-anchor="middle" x="320" y="-44" font-family="Helvetica,sans-Serif" font-size="10.00">I/O operation functions</text>
</a>
</g>
</g>
<!-- Node5 -->
<g id="node3" class="node">
<title>Node5</title>
<g id="a_node3"><a xlink:href="group__DMA__Exported__Functions__Group3.html" target="_top" xlink:title="Peripheral State functions.">
<polygon fill="white" stroke="black" points="391.5,-19 248.5,-19 248.5,0 391.5,0 391.5,-19"/>
<text text-anchor="middle" x="320" y="-7" font-family="Helvetica,sans-Serif" font-size="10.00">Peripheral State functions</text>
</a>
</g>
</g>
<!-- Node2 -->
<g id="node4" class="node">
<title>Node2</title>
<g id="a_node4"><a xlink:href="group__DMA.html" target="_top" xlink:title="DMA HAL module driver.">
<polygon fill="white" stroke="black" points="40,-56 0,-56 0,-37 40,-37 40,-56"/>
<text text-anchor="middle" x="20" y="-44" font-family="Helvetica,sans-Serif" font-size="10.00">DMA</text>
</a>
</g>
</g>
<!-- Node1 -->
<g id="node5" class="node">
<title>Node1</title>
<g id="a_node5"><a xlink:title="DMA Exported functions.">
<polygon fill="#bfbfbf" stroke="black" points="212,-56 76,-56 76,-37 212,-37 212,-56"/>
<text text-anchor="middle" x="144" y="-44" font-family="Helvetica,sans-Serif" font-size="10.00">DMA Exported Functions</text>
</a>
</g>
</g>
<!-- Node2&#45;&gt;Node1 -->
<g id="edge1" class="edge">
<title>Node2&#45;&gt;Node1</title>
<path fill="none" stroke="black" d="M50.13,-46.5C58.01,-46.5 66.88,-46.5 75.93,-46.5"/>
<polygon fill="black" stroke="black" points="50.06,-43 40.06,-46.5 50.06,-50 50.06,-43"/>
</g>
<!-- Node1&#45;&gt;Node3 -->
<g id="edge2" class="edge">
<title>Node1&#45;&gt;Node3</title>
<path fill="none" stroke="black" d="M193.47,-58.48C213.55,-63.44 237.06,-69.25 258.28,-74.49"/>
<polygon fill="black" stroke="black" points="194.16,-55.04 183.62,-56.04 192.48,-61.84 194.16,-55.04"/>
</g>
<!-- Node1&#45;&gt;Node4 -->
<g id="edge3" class="edge">
<title>Node1&#45;&gt;Node4</title>
<path fill="none" stroke="black" d="M222.46,-46.5C233.65,-46.5 245.04,-46.5 255.9,-46.5"/>
<polygon fill="black" stroke="black" points="222.27,-43 212.27,-46.5 222.27,-50 222.27,-43"/>
</g>
<!-- Node1&#45;&gt;Node5 -->
<g id="edge4" class="edge">
<title>Node1&#45;&gt;Node5</title>
<path fill="none" stroke="black" d="M199.8,-34.85C223.7,-29.77 251.37,-23.88 274.04,-19.06"/>
<polygon fill="black" stroke="black" points="198.86,-31.47 189.81,-36.97 200.32,-38.32 198.86,-31.47"/>
</g>
</g>
</svg>
