<?xml version="1.0" encoding="UTF-8" standalone="no"?>
<!DOCTYPE svg PUBLIC "-//W3C//DTD SVG 1.1//EN"
 "http://www.w3.org/Graphics/SVG/1.1/DTD/svg11.dtd">
<!-- Generated by graphviz version 2.43.0 (0)
 -->
<!-- Title: RCC Exported Constants Pages: 1 -->
<svg width="389pt" height="705pt"
 viewBox="0.00 0.00 389.00 705.00" xmlns="http://www.w3.org/2000/svg" xmlns:xlink="http://www.w3.org/1999/xlink">
<g id="graph0" class="graph" transform="scale(1 1) rotate(0) translate(4 701)">
<title>RCC Exported Constants</title>
<polygon fill="white" stroke="transparent" points="-4,4 -4,-701 385,-701 385,4 -4,4"/>
<!-- Node8 -->
<g id="node1" class="node">
<title>Node8</title>
<g id="a_node1"><a xlink:href="group__RCC__PLL__Config.html" target="_top" xlink:title=" ">
<polygon fill="white" stroke="black" points="346,-697 279,-697 279,-678 346,-678 346,-697"/>
<text text-anchor="middle" x="312.5" y="-685" font-family="Helvetica,sans-Serif" font-size="10.00">PLL Config</text>
</a>
</g>
</g>
<!-- Node20 -->
<g id="node2" class="node">
<title>Node20</title>
<g id="a_node2"><a xlink:href="group__RCC__Interrupt.html" target="_top" xlink:title=" ">
<polygon fill="white" stroke="black" points="344.5,-660 280.5,-660 280.5,-641 344.5,-641 344.5,-660"/>
<text text-anchor="middle" x="312.5" y="-648" font-family="Helvetica,sans-Serif" font-size="10.00">Interrupts</text>
</a>
</g>
</g>
<!-- Node4 -->
<g id="node3" class="node">
<title>Node4</title>
<g id="a_node3"><a xlink:href="group__RCC__HSE__Config.html" target="_top" xlink:title=" ">
<polygon fill="white" stroke="black" points="347.5,-623 277.5,-623 277.5,-604 347.5,-604 347.5,-623"/>
<text text-anchor="middle" x="312.5" y="-611" font-family="Helvetica,sans-Serif" font-size="10.00">HSE Config</text>
</a>
</g>
</g>
<!-- Node5 -->
<g id="node4" class="node">
<title>Node5</title>
<g id="a_node4"><a xlink:href="group__RCC__LSE__Config.html" target="_top" xlink:title=" ">
<polygon fill="white" stroke="black" points="346.5,-586 278.5,-586 278.5,-567 346.5,-567 346.5,-586"/>
<text text-anchor="middle" x="312.5" y="-574" font-family="Helvetica,sans-Serif" font-size="10.00">LSE Config</text>
</a>
</g>
</g>
<!-- Node17 -->
<g id="node5" class="node">
<title>Node17</title>
<g id="a_node5"><a xlink:href="group__RCC__MCO__Index.html" target="_top" xlink:title=" ">
<polygon fill="white" stroke="black" points="347.5,-549 277.5,-549 277.5,-530 347.5,-530 347.5,-549"/>
<text text-anchor="middle" x="312.5" y="-537" font-family="Helvetica,sans-Serif" font-size="10.00">MCO Index</text>
</a>
</g>
</g>
<!-- Node6 -->
<g id="node6" class="node">
<title>Node6</title>
<g id="a_node6"><a xlink:href="group__RCC__HSI__Config.html" target="_top" xlink:title=" ">
<polygon fill="white" stroke="black" points="346,-512 279,-512 279,-493 346,-493 346,-512"/>
<text text-anchor="middle" x="312.5" y="-500" font-family="Helvetica,sans-Serif" font-size="10.00">HSI Config</text>
</a>
</g>
</g>
<!-- Node7 -->
<g id="node7" class="node">
<title>Node7</title>
<g id="a_node7"><a xlink:href="group__RCC__LSI__Config.html" target="_top" xlink:title=" ">
<polygon fill="white" stroke="black" points="345,-475 280,-475 280,-456 345,-456 345,-475"/>
<text text-anchor="middle" x="312.5" y="-463" font-family="Helvetica,sans-Serif" font-size="10.00">LSI Config</text>
</a>
</g>
</g>
<!-- Node21 -->
<g id="node8" class="node">
<title>Node21</title>
<g id="a_node8"><a xlink:href="group__RCC__Flag.html" target="_top" xlink:title=" ">
<polygon fill="white" stroke="black" points="334,-438 291,-438 291,-419 334,-419 334,-438"/>
<text text-anchor="middle" x="312.5" y="-426" font-family="Helvetica,sans-Serif" font-size="10.00">Flags</text>
</a>
</g>
</g>
<!-- Node3 -->
<g id="node9" class="node">
<title>Node3</title>
<g id="a_node9"><a xlink:href="group__RCC__Oscillator__Type.html" target="_top" xlink:title=" ">
<polygon fill="white" stroke="black" points="357,-401 268,-401 268,-382 357,-382 357,-401"/>
<text text-anchor="middle" x="312.5" y="-389" font-family="Helvetica,sans-Serif" font-size="10.00">Oscillator Type</text>
</a>
</g>
</g>
<!-- Node16 -->
<g id="node10" class="node">
<title>Node16</title>
<g id="a_node10"><a xlink:href="group__RCC__RTC__Clock__Source.html" target="_top" xlink:title=" ">
<polygon fill="white" stroke="black" points="363,-364 262,-364 262,-345 363,-345 363,-364"/>
<text text-anchor="middle" x="312.5" y="-352" font-family="Helvetica,sans-Serif" font-size="10.00">RTC Clock Source</text>
</a>
</g>
</g>
<!-- Node19 -->
<g id="node11" class="node">
<title>Node19</title>
<g id="a_node11"><a xlink:href="group__RCC__MCOx__Clock__Prescaler.html" target="_top" xlink:title=" ">
<polygon fill="white" stroke="black" points="374.5,-327 250.5,-327 250.5,-308 374.5,-308 374.5,-327"/>
<text text-anchor="middle" x="312.5" y="-315" font-family="Helvetica,sans-Serif" font-size="10.00">MCOx Clock Prescaler</text>
</a>
</g>
</g>
<!-- Node12 -->
<g id="node12" class="node">
<title>Node12</title>
<g id="a_node12"><a xlink:href="group__RCC__System__Clock__Source.html" target="_top" xlink:title=" ">
<polygon fill="white" stroke="black" points="372,-290 253,-290 253,-271 372,-271 372,-290"/>
<text text-anchor="middle" x="312.5" y="-278" font-family="Helvetica,sans-Serif" font-size="10.00">System Clock Source</text>
</a>
</g>
</g>
<!-- Node9 -->
<g id="node13" class="node">
<title>Node9</title>
<g id="a_node13"><a xlink:href="group__RCC__PLLP__Clock__Divider.html" target="_top" xlink:title=" ">
<polygon fill="white" stroke="black" points="366,-253 259,-253 259,-234 366,-234 366,-253"/>
<text text-anchor="middle" x="312.5" y="-241" font-family="Helvetica,sans-Serif" font-size="10.00">PLLP Clock Divider</text>
</a>
</g>
</g>
<!-- Node1 -->
<g id="node14" class="node">
<title>Node1</title>
<g id="a_node14"><a xlink:title=" ">
<polygon fill="#bfbfbf" stroke="black" points="208,-364 73,-364 73,-345 208,-345 208,-364"/>
<text text-anchor="middle" x="140.5" y="-352" font-family="Helvetica,sans-Serif" font-size="10.00">RCC Exported Constants</text>
</a>
</g>
</g>
<!-- Node1&#45;&gt;Node8 -->
<g id="edge7" class="edge">
<title>Node1&#45;&gt;Node8</title>
<path fill="none" stroke="black" d="M141.78,-374.37C143.69,-429.71 156.89,-586.97 244,-669.5 253.33,-678.34 266.51,-682.95 278.75,-685.31"/>
<polygon fill="black" stroke="black" points="145.28,-374.08 141.53,-364.17 138.28,-374.25 145.28,-374.08"/>
</g>
<!-- Node1&#45;&gt;Node20 -->
<g id="edge19" class="edge">
<title>Node1&#45;&gt;Node20</title>
<path fill="none" stroke="black" d="M142.77,-374.38C147.13,-425.28 165.87,-561.3 244,-632.5 253.86,-641.49 267.71,-646.07 280.3,-648.38"/>
<polygon fill="black" stroke="black" points="146.24,-373.81 141.99,-364.1 139.26,-374.34 146.24,-373.81"/>
</g>
<!-- Node1&#45;&gt;Node4 -->
<g id="edge3" class="edge">
<title>Node1&#45;&gt;Node4</title>
<path fill="none" stroke="black" d="M144.01,-374.19C150.94,-420.18 174.66,-535.34 244,-595.5 253.25,-603.53 265.71,-608.02 277.41,-610.52"/>
<polygon fill="black" stroke="black" points="147.44,-373.48 142.59,-364.06 140.51,-374.45 147.44,-373.48"/>
</g>
<!-- Node1&#45;&gt;Node5 -->
<g id="edge4" class="edge">
<title>Node1&#45;&gt;Node5</title>
<path fill="none" stroke="black" d="M145.68,-374.2C155.4,-415.04 183.44,-509.24 244,-558.5 253.69,-566.38 266.51,-570.84 278.37,-573.34"/>
<polygon fill="black" stroke="black" points="149.08,-373.36 143.46,-364.38 142.25,-374.91 149.08,-373.36"/>
</g>
<!-- Node1&#45;&gt;Node17 -->
<g id="edge16" class="edge">
<title>Node1&#45;&gt;Node17</title>
<path fill="none" stroke="black" d="M147.85,-373.7C160.41,-408.65 191.84,-482.63 244,-521.5 253.63,-528.67 265.9,-532.99 277.34,-535.59"/>
<polygon fill="black" stroke="black" points="151.13,-372.49 144.55,-364.19 144.52,-374.79 151.13,-372.49"/>
</g>
<!-- Node1&#45;&gt;Node6 -->
<g id="edge5" class="edge">
<title>Node1&#45;&gt;Node6</title>
<path fill="none" stroke="black" d="M150.94,-372.96C166.42,-401.36 199.97,-455.53 244,-484.5 254.34,-491.3 267.15,-495.54 278.83,-498.18"/>
<polygon fill="black" stroke="black" points="154,-371.26 146.22,-364.07 147.81,-374.54 154,-371.26"/>
</g>
<!-- Node1&#45;&gt;Node7 -->
<g id="edge6" class="edge">
<title>Node1&#45;&gt;Node7</title>
<path fill="none" stroke="black" d="M155.84,-371.81C174.15,-392.8 207.83,-427.8 244,-447.5 254.97,-453.48 268.04,-457.56 279.74,-460.3"/>
<polygon fill="black" stroke="black" points="158.33,-369.34 149.18,-364.01 153.01,-373.88 158.33,-369.34"/>
</g>
<!-- Node1&#45;&gt;Node21 -->
<g id="edge20" class="edge">
<title>Node1&#45;&gt;Node21</title>
<path fill="none" stroke="black" d="M164.78,-369.32C185.06,-381.72 215.59,-399.14 244,-410.5 259.2,-416.58 277.14,-421.25 290.71,-424.31"/>
<polygon fill="black" stroke="black" points="166.57,-366.32 156.23,-364.02 162.88,-372.27 166.57,-366.32"/>
</g>
<!-- Node1&#45;&gt;Node3 -->
<g id="edge2" class="edge">
<title>Node1&#45;&gt;Node3</title>
<path fill="none" stroke="black" d="M195.08,-366.16C218.52,-371.26 245.68,-377.17 267.87,-382"/>
<polygon fill="black" stroke="black" points="195.79,-362.74 185.28,-364.03 194.31,-369.58 195.79,-362.74"/>
</g>
<!-- Node1&#45;&gt;Node16 -->
<g id="edge15" class="edge">
<title>Node1&#45;&gt;Node16</title>
<path fill="none" stroke="black" d="M218.34,-354.5C233.1,-354.5 248.19,-354.5 261.81,-354.5"/>
<polygon fill="black" stroke="black" points="218.2,-351 208.2,-354.5 218.2,-358 218.2,-351"/>
</g>
<!-- Node1&#45;&gt;Node19 -->
<g id="edge18" class="edge">
<title>Node1&#45;&gt;Node19</title>
<path fill="none" stroke="black" d="M195.35,-342.78C218.63,-337.71 245.53,-331.86 267.57,-327.06"/>
<polygon fill="black" stroke="black" points="194.31,-339.42 185.28,-344.97 195.79,-346.26 194.31,-339.42"/>
</g>
<!-- Node1&#45;&gt;Node12 -->
<g id="edge11" class="edge">
<title>Node1&#45;&gt;Node12</title>
<path fill="none" stroke="black" d="M164.78,-339.68C185.06,-327.28 215.59,-309.86 244,-298.5 252.11,-295.26 261,-292.42 269.58,-290.01"/>
<polygon fill="black" stroke="black" points="162.88,-336.73 156.23,-344.98 166.57,-342.68 162.88,-336.73"/>
</g>
<!-- Node1&#45;&gt;Node9 -->
<g id="edge8" class="edge">
<title>Node1&#45;&gt;Node9</title>
<path fill="none" stroke="black" d="M155.84,-337.19C174.15,-316.2 207.83,-281.2 244,-261.5 250.18,-258.14 257.02,-255.37 263.91,-253.11"/>
<polygon fill="black" stroke="black" points="153.01,-335.12 149.18,-344.99 158.33,-339.66 153.01,-335.12"/>
</g>
<!-- Node15 -->
<g id="node15" class="node">
<title>Node15</title>
<g id="a_node15"><a xlink:href="group__RCC__APB1__APB2__Clock__Source.html" target="_top" xlink:title=" ">
<polygon fill="white" stroke="black" points="381,-216 244,-216 244,-197 381,-197 381,-216"/>
<text text-anchor="middle" x="312.5" y="-204" font-family="Helvetica,sans-Serif" font-size="10.00">APB1/APB2 Clock Source</text>
</a>
</g>
</g>
<!-- Node1&#45;&gt;Node15 -->
<g id="edge14" class="edge">
<title>Node1&#45;&gt;Node15</title>
<path fill="none" stroke="black" d="M150.94,-336.04C166.42,-307.64 199.97,-253.47 244,-224.5 249.17,-221.1 254.96,-218.34 260.91,-216.1"/>
<polygon fill="black" stroke="black" points="147.81,-334.46 146.22,-344.93 154,-337.74 147.81,-334.46"/>
</g>
<!-- Node10 -->
<g id="node16" class="node">
<title>Node10</title>
<g id="a_node16"><a xlink:href="group__RCC__PLL__Clock__Source.html" target="_top" xlink:title=" ">
<polygon fill="white" stroke="black" points="362,-179 263,-179 263,-160 362,-160 362,-179"/>
<text text-anchor="middle" x="312.5" y="-167" font-family="Helvetica,sans-Serif" font-size="10.00">PLL Clock Source</text>
</a>
</g>
</g>
<!-- Node1&#45;&gt;Node10 -->
<g id="edge9" class="edge">
<title>Node1&#45;&gt;Node10</title>
<path fill="none" stroke="black" d="M147.85,-335.3C160.41,-300.35 191.84,-226.37 244,-187.5 249.64,-183.3 256.19,-180.07 262.95,-177.6"/>
<polygon fill="black" stroke="black" points="144.52,-334.21 144.55,-344.81 151.13,-336.51 144.52,-334.21"/>
</g>
<!-- Node11 -->
<g id="node17" class="node">
<title>Node11</title>
<g id="a_node17"><a xlink:href="group__RCC__System__Clock__Type.html" target="_top" xlink:title=" ">
<polygon fill="white" stroke="black" points="367,-142 258,-142 258,-123 367,-123 367,-142"/>
<text text-anchor="middle" x="312.5" y="-130" font-family="Helvetica,sans-Serif" font-size="10.00">System Clock Type</text>
</a>
</g>
</g>
<!-- Node1&#45;&gt;Node11 -->
<g id="edge10" class="edge">
<title>Node1&#45;&gt;Node11</title>
<path fill="none" stroke="black" d="M145.68,-334.8C155.4,-293.96 183.44,-199.76 244,-150.5 248.23,-147.06 253.06,-144.27 258.15,-142.01"/>
<polygon fill="black" stroke="black" points="142.25,-334.09 143.46,-344.62 149.08,-335.64 142.25,-334.09"/>
</g>
<!-- Node18 -->
<g id="node18" class="node">
<title>Node18</title>
<g id="a_node18"><a xlink:href="group__RCC__MCO1__Clock__Source.html" target="_top" xlink:title=" ">
<polygon fill="white" stroke="black" points="368.5,-105 256.5,-105 256.5,-86 368.5,-86 368.5,-105"/>
<text text-anchor="middle" x="312.5" y="-93" font-family="Helvetica,sans-Serif" font-size="10.00">MCO1 Clock Source</text>
</a>
</g>
</g>
<!-- Node1&#45;&gt;Node18 -->
<g id="edge17" class="edge">
<title>Node1&#45;&gt;Node18</title>
<path fill="none" stroke="black" d="M144.01,-334.81C150.94,-288.82 174.66,-173.66 244,-113.5 247.94,-110.08 252.46,-107.3 257.25,-105.05"/>
<polygon fill="black" stroke="black" points="140.51,-334.55 142.59,-344.94 147.44,-335.52 140.51,-334.55"/>
</g>
<!-- Node13 -->
<g id="node19" class="node">
<title>Node13</title>
<g id="a_node19"><a xlink:href="group__RCC__System__Clock__Source__Status.html" target="_top" xlink:title=" ">
<polygon fill="white" stroke="black" points="372,-67.5 253,-67.5 253,-37.5 372,-37.5 372,-67.5"/>
<text text-anchor="start" x="261" y="-55.5" font-family="Helvetica,sans-Serif" font-size="10.00">System Clock Source</text>
<text text-anchor="middle" x="312.5" y="-44.5" font-family="Helvetica,sans-Serif" font-size="10.00"> Status</text>
</a>
</g>
</g>
<!-- Node1&#45;&gt;Node13 -->
<g id="edge12" class="edge">
<title>Node1&#45;&gt;Node13</title>
<path fill="none" stroke="black" d="M143.15,-334.64C148.38,-284.34 168.99,-150.64 244,-76.5 247.45,-73.09 251.42,-70.16 255.66,-67.65"/>
<polygon fill="black" stroke="black" points="139.65,-334.53 142.19,-344.81 146.62,-335.19 139.65,-334.53"/>
</g>
<!-- Node14 -->
<g id="node21" class="node">
<title>Node14</title>
<g id="a_node21"><a xlink:href="group__RCC__AHB__Clock__Source.html" target="_top" xlink:title=" ">
<polygon fill="white" stroke="black" points="364.5,-19 260.5,-19 260.5,0 364.5,0 364.5,-19"/>
<text text-anchor="middle" x="312.5" y="-7" font-family="Helvetica,sans-Serif" font-size="10.00">AHB Clock Source</text>
</a>
</g>
</g>
<!-- Node1&#45;&gt;Node14 -->
<g id="edge13" class="edge">
<title>Node1&#45;&gt;Node14</title>
<path fill="none" stroke="black" d="M141.59,-334.76C142.94,-278.37 154.77,-115.08 244,-28.5 248.63,-24.01 254.24,-20.56 260.22,-17.92"/>
<polygon fill="black" stroke="black" points="138.09,-334.78 141.43,-344.83 145.08,-334.88 138.09,-334.78"/>
</g>
<!-- Node2 -->
<g id="node20" class="node">
<title>Node2</title>
<g id="a_node20"><a xlink:href="group__RCC.html" target="_top" xlink:title="RCC HAL module driver.">
<polygon fill="white" stroke="black" points="37,-364 0,-364 0,-345 37,-345 37,-364"/>
<text text-anchor="middle" x="18.5" y="-352" font-family="Helvetica,sans-Serif" font-size="10.00">RCC</text>
</a>
</g>
</g>
<!-- Node2&#45;&gt;Node1 -->
<g id="edge1" class="edge">
<title>Node2&#45;&gt;Node1</title>
<path fill="none" stroke="black" d="M47.38,-354.5C55.12,-354.5 63.86,-354.5 72.8,-354.5"/>
<polygon fill="black" stroke="black" points="47.21,-351 37.21,-354.5 47.21,-358 47.21,-351"/>
</g>
</g>
</svg>
