<?xml version="1.0" encoding="UTF-8" standalone="no"?>
<!DOCTYPE svg PUBLIC "-//W3C//DTD SVG 1.1//EN"
 "http://www.w3.org/Graphics/SVG/1.1/DTD/svg11.dtd">
<!-- Generated by graphviz version 2.43.0 (0)
 -->
<!-- Title: RCC Private Constants Pages: 1 -->
<svg width="396pt" height="27pt"
 viewBox="0.00 0.00 396.00 27.00" xmlns="http://www.w3.org/2000/svg" xmlns:xlink="http://www.w3.org/1999/xlink">
<g id="graph0" class="graph" transform="scale(1 1) rotate(0) translate(4 23)">
<title>RCC Private Constants</title>
<polygon fill="white" stroke="transparent" points="-4,4 -4,-23 392,-23 392,4 -4,4"/>
<!-- Node3 -->
<g id="node1" class="node">
<title>Node3</title>
<g id="a_node1"><a xlink:href="group__RCC__BitAddress__AliasRegion.html" target="_top" xlink:title="RCC registers bit address in the alias region.">
<polygon fill="white" stroke="black" points="388,-19 235,-19 235,0 388,0 388,-19"/>
<text text-anchor="middle" x="311.5" y="-7" font-family="Helvetica,sans-Serif" font-size="10.00">RCC BitAddress AliasRegion</text>
</a>
</g>
</g>
<!-- Node1 -->
<g id="node2" class="node">
<title>Node1</title>
<g id="a_node2"><a xlink:title=" ">
<polygon fill="#bfbfbf" stroke="black" points="199,-19 73,-19 73,0 199,0 199,-19"/>
<text text-anchor="middle" x="136" y="-7" font-family="Helvetica,sans-Serif" font-size="10.00">RCC Private Constants</text>
</a>
</g>
</g>
<!-- Node1&#45;&gt;Node3 -->
<g id="edge2" class="edge">
<title>Node1&#45;&gt;Node3</title>
<path fill="none" stroke="black" d="M209.32,-9.5C217.75,-9.5 226.37,-9.5 234.85,-9.5"/>
<polygon fill="black" stroke="black" points="209.15,-6 199.15,-9.5 209.15,-13 209.15,-6"/>
</g>
<!-- Node2 -->
<g id="node3" class="node">
<title>Node2</title>
<g id="a_node3"><a xlink:href="group__RCC.html" target="_top" xlink:title="RCC HAL module driver.">
<polygon fill="white" stroke="black" points="37,-19 0,-19 0,0 37,0 37,-19"/>
<text text-anchor="middle" x="18.5" y="-7" font-family="Helvetica,sans-Serif" font-size="10.00">RCC</text>
</a>
</g>
</g>
<!-- Node2&#45;&gt;Node1 -->
<g id="edge1" class="edge">
<title>Node2&#45;&gt;Node1</title>
<path fill="none" stroke="black" d="M47.29,-9.5C55.08,-9.5 63.87,-9.5 72.81,-9.5"/>
<polygon fill="black" stroke="black" points="47.04,-6 37.04,-9.5 47.04,-13 47.04,-6"/>
</g>
</g>
</svg>
