<?xml version="1.0" encoding="UTF-8" standalone="no"?>
<!DOCTYPE svg PUBLIC "-//W3C//DTD SVG 1.1//EN"
 "http://www.w3.org/Graphics/SVG/1.1/DTD/svg11.dtd">
<!-- Generated by graphviz version 2.43.0 (0)
 -->
<!-- Title: FLASH Exported Constants Pages: 1 -->
<!--zoomable 727 -->
<svg id="main" version="1.1" xmlns="http://www.w3.org/2000/svg" xmlns:xlink="http://www.w3.org/1999/xlink" xml:space="preserve" onload="init(evt)">
<style type="text/css"><![CDATA[
.edge:hover path { stroke: red; }
.edge:hover polygon { stroke: red; fill: red; }
]]></style>
<script type="text/javascript"><![CDATA[
var edges = document.getElementsByTagName('g');
if (edges && edges.length) {
  for (var i=0;i<edges.length;i++) {
    if (edges[i].id.substr(0,4)=='edge') {
      edges[i].setAttribute('class','edge');
    }
  }
}
]]></script>
        <defs>
                <circle id="rim" cx="0" cy="0" r="7"/>
                <circle id="rim2" cx="0" cy="0" r="3.5"/>
                <g id="zoomPlus">
                        <use xlink:href="#rim" fill="#404040">
                                <set attributeName="fill" to="#808080" begin="zoomplus.mouseover" end="zoomplus.mouseout"/>
                        </use>
                        <path d="M-4,0h8M0,-4v8" fill="none" stroke="white" stroke-width="1.5" pointer-events="none"/>
                </g>
                <g id="zoomMin">
                        <use xlink:href="#rim" fill="#404040">
                                <set attributeName="fill" to="#808080" begin="zoomminus.mouseover" end="zoomminus.mouseout"/>
                        </use>
                        <path d="M-4,0h8" fill="none" stroke="white" stroke-width="1.5" pointer-events="none"/>
                </g>
                <g id="dirArrow">
                        <path fill="none" stroke="white" stroke-width="1.5" d="M0,-3.0v7 M-2.5,-0.5L0,-3.0L2.5,-0.5"/>
                </g>
               <g id="resetDef">
                       <use xlink:href="#rim2" fill="#404040">
                               <set attributeName="fill" to="#808080" begin="reset.mouseover" end="reset.mouseout"/>
                       </use>
               </g>
        </defs>

<script type="text/javascript">
var viewWidth = 467;
var viewHeight = 727;
var sectionId = 'dynsection-0';
</script>
<script xlink:href="svgpan.js"/>
<svg id="graph" class="graph">
<g id="viewport">
<title>FLASH Exported Constants</title>
<polygon fill="white" stroke="transparent" points="-4,4 -4,-722.5 463,-722.5 463,4 -4,4"/>
<!-- Node19 -->
<g id="node1" class="node">
<title>Node19</title>
<g id="a_node1"><a xlink:href="group__FLASHEx__Dual__Boot.html" target="_top" xlink:title=" ">
<polygon fill="white" stroke="black" points="419.5,-718.5 319.5,-718.5 319.5,-699.5 419.5,-699.5 419.5,-718.5"/>
<text text-anchor="middle" x="369.5" y="-706.5" font-family="Helvetica,sans-Serif" font-size="10.00">FLASH Dual Boot</text>
</a>
</g>
</g>
<!-- Node18 -->
<g id="node2" class="node">
<title>Node18</title>
<g id="a_node2"><a xlink:href="group__FLASHEx__Option__Bytes__PC__ReadWrite__Protection.html" target="_top" xlink:title=" ">
<polygon fill="white" stroke="black" points="439,-681 300,-681 300,-651 439,-651 439,-681"/>
<text text-anchor="start" x="308" y="-669" font-family="Helvetica,sans-Serif" font-size="10.00">FLASH Option Bytes</text>
<text text-anchor="middle" x="369.5" y="-658" font-family="Helvetica,sans-Serif" font-size="10.00"> PC ReadWrite Protection</text>
</a>
</g>
</g>
<!-- Node5 -->
<g id="node3" class="node">
<title>Node5</title>
<g id="a_node3"><a xlink:href="group__FLASHEx__WRP__State.html" target="_top" xlink:title=" ">
<polygon fill="white" stroke="black" points="421,-632.5 318,-632.5 318,-613.5 421,-613.5 421,-632.5"/>
<text text-anchor="middle" x="369.5" y="-620.5" font-family="Helvetica,sans-Serif" font-size="10.00">FLASH WRP State</text>
</a>
</g>
</g>
<!-- Node17 -->
<g id="node4" class="node">
<title>Node17</title>
<g id="a_node4"><a xlink:href="group__FLASHEx__Option__Bytes__Write__Protection.html" target="_top" xlink:title=" ">
<polygon fill="white" stroke="black" points="427,-595 312,-595 312,-565 427,-565 427,-595"/>
<text text-anchor="start" x="320" y="-583" font-family="Helvetica,sans-Serif" font-size="10.00">FLASH Option Bytes</text>
<text text-anchor="middle" x="369.5" y="-572" font-family="Helvetica,sans-Serif" font-size="10.00"> Write Protection</text>
</a>
</g>
</g>
<!-- Node1 -->
<g id="node5" class="node">
<title>Node1</title>
<g id="a_node5"><a xlink:title=" ">
<polygon fill="#bfbfbf" stroke="black" points="244,-359.5 97,-359.5 97,-340.5 244,-340.5 244,-359.5"/>
<text text-anchor="middle" x="170.5" y="-347.5" font-family="Helvetica,sans-Serif" font-size="10.00">FLASH Exported Constants</text>
</a>
</g>
</g>
<!-- Node1&#45;&gt;Node19 -->
<g id="edge18" class="edge">
<title>Node1&#45;&gt;Node19</title>
<path fill="none" stroke="black" d="M171.4,-369.73C172.25,-428.25 183.19,-602.19 280,-690 290.71,-699.71 305.15,-704.9 319.26,-707.56"/>
<polygon fill="black" stroke="black" points="174.9,-369.61 171.35,-359.63 167.9,-369.65 174.9,-369.61"/>
</g>
<!-- Node1&#45;&gt;Node18 -->
<g id="edge17" class="edge">
<title>Node1&#45;&gt;Node18</title>
<path fill="none" stroke="black" d="M172.83,-369.81C177.44,-422.39 197.38,-566.57 280,-642 285.76,-647.26 292.56,-651.38 299.79,-654.62"/>
<polygon fill="black" stroke="black" points="176.29,-369.22 172.02,-359.52 169.31,-369.77 176.29,-369.22"/>
</g>
<!-- Node1&#45;&gt;Node5 -->
<g id="edge4" class="edge">
<title>Node1&#45;&gt;Node5</title>
<path fill="none" stroke="black" d="M173.8,-369.71C180.51,-417.83 204.63,-541.89 280,-604 290.67,-612.8 304.46,-617.79 317.97,-620.55"/>
<polygon fill="black" stroke="black" points="177.26,-369.15 172.5,-359.68 170.31,-370.04 177.26,-369.15"/>
</g>
<!-- Node1&#45;&gt;Node17 -->
<g id="edge16" class="edge">
<title>Node1&#45;&gt;Node17</title>
<path fill="none" stroke="black" d="M176.09,-369.31C186.84,-410.23 217.58,-506 280,-556 289.19,-563.37 300.47,-568.48 311.85,-572.02"/>
<polygon fill="black" stroke="black" points="179.46,-368.36 173.63,-359.52 172.67,-370.07 179.46,-368.36"/>
</g>
<!-- Node8 -->
<g id="node6" class="node">
<title>Node8</title>
<g id="a_node6"><a xlink:href="group__FLASHEx__Option__Bytes__IWatchdog.html" target="_top" xlink:title=" ">
<polygon fill="white" stroke="black" points="427,-547 312,-547 312,-517 427,-517 427,-547"/>
<text text-anchor="start" x="320" y="-535" font-family="Helvetica,sans-Serif" font-size="10.00">FLASH Option Bytes</text>
<text text-anchor="middle" x="369.5" y="-524" font-family="Helvetica,sans-Serif" font-size="10.00"> IWatchdog</text>
</a>
</g>
</g>
<!-- Node1&#45;&gt;Node8 -->
<g id="edge7" class="edge">
<title>Node1&#45;&gt;Node8</title>
<path fill="none" stroke="black" d="M179.25,-369.06C193.83,-402.48 228.57,-471.52 280,-508 289.35,-514.63 300.44,-519.43 311.55,-522.9"/>
<polygon fill="black" stroke="black" points="182.35,-367.4 175.23,-359.56 175.9,-370.13 182.35,-367.4"/>
</g>
<!-- Node12 -->
<g id="node7" class="node">
<title>Node12</title>
<g id="a_node7"><a xlink:href="group__FLASHEx__Advanced__Option__Type.html" target="_top" xlink:title=" ">
<polygon fill="white" stroke="black" points="450,-498.5 289,-498.5 289,-479.5 450,-479.5 450,-498.5"/>
<text text-anchor="middle" x="369.5" y="-486.5" font-family="Helvetica,sans-Serif" font-size="10.00">FLASH Advanced Option Type</text>
</a>
</g>
</g>
<!-- Node1&#45;&gt;Node12 -->
<g id="edge11" class="edge">
<title>Node1&#45;&gt;Node12</title>
<path fill="none" stroke="black" d="M182.4,-368.27C199.56,-395.31 235.54,-445.53 280,-471 285.99,-474.43 292.53,-477.21 299.26,-479.47"/>
<polygon fill="black" stroke="black" points="185.37,-366.42 177.14,-359.75 179.42,-370.1 185.37,-366.42"/>
</g>
<!-- Node3 -->
<g id="node8" class="node">
<title>Node3</title>
<g id="a_node8"><a xlink:href="group__FLASHEx__Type__Erase.html" target="_top" xlink:title=" ">
<polygon fill="white" stroke="black" points="421.5,-461.5 317.5,-461.5 317.5,-442.5 421.5,-442.5 421.5,-461.5"/>
<text text-anchor="middle" x="369.5" y="-449.5" font-family="Helvetica,sans-Serif" font-size="10.00">FLASH Type Erase</text>
</a>
</g>
</g>
<!-- Node1&#45;&gt;Node3 -->
<g id="edge2" class="edge">
<title>Node1&#45;&gt;Node3</title>
<path fill="none" stroke="black" d="M187.98,-366.78C207.94,-386.08 243.46,-417.25 280,-434 291.55,-439.29 304.64,-443.04 317.16,-445.68"/>
<polygon fill="black" stroke="black" points="190.23,-364.09 180.66,-359.55 185.31,-369.07 190.23,-364.09"/>
</g>
<!-- Node14 -->
<g id="node9" class="node">
<title>Node14</title>
<g id="a_node9"><a xlink:href="group__FLASHEx__Banks.html" target="_top" xlink:title=" ">
<polygon fill="white" stroke="black" points="410.5,-424.5 328.5,-424.5 328.5,-405.5 410.5,-405.5 410.5,-424.5"/>
<text text-anchor="middle" x="369.5" y="-412.5" font-family="Helvetica,sans-Serif" font-size="10.00">FLASH Banks</text>
</a>
</g>
</g>
<!-- Node1&#45;&gt;Node14 -->
<g id="edge13" class="edge">
<title>Node1&#45;&gt;Node14</title>
<path fill="none" stroke="black" d="M200.31,-363.98C221.85,-374.01 252.26,-387.23 280,-396 295.58,-400.93 313.11,-404.99 328.43,-408.07"/>
<polygon fill="black" stroke="black" points="201.61,-360.73 191.07,-359.63 198.63,-367.06 201.61,-360.73"/>
</g>
<!-- Node9 -->
<g id="node10" class="node">
<title>Node9</title>
<g id="a_node10"><a xlink:href="group__FLASHEx__Option__Bytes__nRST__STOP.html" target="_top" xlink:title=" ">
<polygon fill="white" stroke="black" points="427,-387 312,-387 312,-357 427,-357 427,-387"/>
<text text-anchor="start" x="320" y="-375" font-family="Helvetica,sans-Serif" font-size="10.00">FLASH Option Bytes</text>
<text text-anchor="middle" x="369.5" y="-364" font-family="Helvetica,sans-Serif" font-size="10.00"> nRST_STOP</text>
</a>
</g>
</g>
<!-- Node1&#45;&gt;Node9 -->
<g id="edge8" class="edge">
<title>Node1&#45;&gt;Node9</title>
<path fill="none" stroke="black" d="M254.09,-359.22C273.54,-361.4 293.84,-363.66 311.85,-365.67"/>
<polygon fill="black" stroke="black" points="254.34,-355.73 244.02,-358.1 253.57,-362.69 254.34,-355.73"/>
</g>
<!-- Node16 -->
<g id="node11" class="node">
<title>Node16</title>
<g id="a_node11"><a xlink:href="group__FLASHEx__Sectors.html" target="_top" xlink:title=" ">
<polygon fill="white" stroke="black" points="413.5,-338.5 325.5,-338.5 325.5,-319.5 413.5,-319.5 413.5,-338.5"/>
<text text-anchor="middle" x="369.5" y="-326.5" font-family="Helvetica,sans-Serif" font-size="10.00">FLASH Sectors</text>
</a>
</g>
</g>
<!-- Node1&#45;&gt;Node16 -->
<g id="edge15" class="edge">
<title>Node1&#45;&gt;Node16</title>
<path fill="none" stroke="black" d="M254.05,-341.2C278.55,-338.59 304.41,-335.83 325.33,-333.6"/>
<polygon fill="black" stroke="black" points="253.59,-337.73 244.02,-342.27 254.33,-344.69 253.59,-337.73"/>
</g>
<!-- Node7 -->
<g id="node13" class="node">
<title>Node7</title>
<g id="a_node13"><a xlink:href="group__FLASHEx__Option__Bytes__Read__Protection.html" target="_top" xlink:title=" ">
<polygon fill="white" stroke="black" points="427,-301 312,-301 312,-271 427,-271 427,-301"/>
<text text-anchor="start" x="320" y="-289" font-family="Helvetica,sans-Serif" font-size="10.00">FLASH Option Bytes</text>
<text text-anchor="middle" x="369.5" y="-278" font-family="Helvetica,sans-Serif" font-size="10.00"> Read Protection</text>
</a>
</g>
</g>
<!-- Node1&#45;&gt;Node7 -->
<g id="edge6" class="edge">
<title>Node1&#45;&gt;Node7</title>
<path fill="none" stroke="black" d="M204.98,-336.78C226.29,-328.59 254.57,-318.12 280,-310 290.16,-306.76 301.07,-303.57 311.63,-300.62"/>
<polygon fill="black" stroke="black" points="203.48,-333.61 195.42,-340.49 206.01,-340.14 203.48,-333.61"/>
</g>
<!-- Node11 -->
<g id="node14" class="node">
<title>Node11</title>
<g id="a_node14"><a xlink:href="group__FLASHEx__BOR__Reset__Level.html" target="_top" xlink:title=" ">
<polygon fill="white" stroke="black" points="436,-252.5 303,-252.5 303,-233.5 436,-233.5 436,-252.5"/>
<text text-anchor="middle" x="369.5" y="-240.5" font-family="Helvetica,sans-Serif" font-size="10.00">FLASH BOR Reset Level</text>
</a>
</g>
</g>
<!-- Node1&#45;&gt;Node11 -->
<g id="edge10" class="edge">
<title>Node1&#45;&gt;Node11</title>
<path fill="none" stroke="black" d="M187.28,-333.04C207.01,-312.92 242.73,-279.84 280,-262 288.08,-258.13 296.95,-255.05 305.85,-252.58"/>
<polygon fill="black" stroke="black" points="184.71,-330.67 180.31,-340.31 189.76,-335.52 184.71,-330.67"/>
</g>
<!-- Node13 -->
<g id="node15" class="node">
<title>Node13</title>
<g id="a_node15"><a xlink:href="group__FLASH__Latency.html" target="_top" xlink:title=" ">
<polygon fill="white" stroke="black" points="414.5,-215.5 324.5,-215.5 324.5,-196.5 414.5,-196.5 414.5,-215.5"/>
<text text-anchor="middle" x="369.5" y="-203.5" font-family="Helvetica,sans-Serif" font-size="10.00">FLASH Latency</text>
</a>
</g>
</g>
<!-- Node1&#45;&gt;Node13 -->
<g id="edge12" class="edge">
<title>Node1&#45;&gt;Node13</title>
<path fill="none" stroke="black" d="M181.96,-331.39C198.77,-303.33 234.56,-250.64 280,-224 293.26,-216.23 309.33,-211.77 324.13,-209.23"/>
<polygon fill="black" stroke="black" points="178.83,-329.8 176.82,-340.2 184.88,-333.33 178.83,-329.8"/>
</g>
<!-- Node6 -->
<g id="node16" class="node">
<title>Node6</title>
<g id="a_node16"><a xlink:href="group__FLASHEx__Option__Type.html" target="_top" xlink:title=" ">
<polygon fill="white" stroke="black" points="424.5,-178.5 314.5,-178.5 314.5,-159.5 424.5,-159.5 424.5,-178.5"/>
<text text-anchor="middle" x="369.5" y="-166.5" font-family="Helvetica,sans-Serif" font-size="10.00">FLASH Option Type</text>
</a>
</g>
</g>
<!-- Node1&#45;&gt;Node6 -->
<g id="edge5" class="edge">
<title>Node1&#45;&gt;Node6</title>
<path fill="none" stroke="black" d="M178.47,-330.94C192.17,-296.3 226.06,-223.28 280,-187 290.15,-180.17 302.33,-175.84 314.36,-173.11"/>
<polygon fill="black" stroke="black" points="175.16,-329.78 174.86,-340.37 181.7,-332.28 175.16,-329.78"/>
</g>
<!-- Node4 -->
<g id="node17" class="node">
<title>Node4</title>
<g id="a_node17"><a xlink:href="group__FLASHEx__Voltage__Range.html" target="_top" xlink:title=" ">
<polygon fill="white" stroke="black" points="430.5,-141.5 308.5,-141.5 308.5,-122.5 430.5,-122.5 430.5,-141.5"/>
<text text-anchor="middle" x="369.5" y="-129.5" font-family="Helvetica,sans-Serif" font-size="10.00">FLASH Voltage Range</text>
</a>
</g>
</g>
<!-- Node1&#45;&gt;Node4 -->
<g id="edge3" class="edge">
<title>Node1&#45;&gt;Node4</title>
<path fill="none" stroke="black" d="M176.17,-330.37C186.93,-289.72 217.47,-196.29 280,-150 288.32,-143.84 298.23,-139.66 308.36,-136.85"/>
<polygon fill="black" stroke="black" points="172.76,-329.59 173.7,-340.14 179.55,-331.3 172.76,-329.59"/>
</g>
<!-- Node20 -->
<g id="node18" class="node">
<title>Node20</title>
<g id="a_node18"><a xlink:href="group__FLASHEx__Selection__Protection__Mode.html" target="_top" xlink:title=" ">
<polygon fill="white" stroke="black" points="459,-104.5 280,-104.5 280,-85.5 459,-85.5 459,-104.5"/>
<text text-anchor="middle" x="369.5" y="-92.5" font-family="Helvetica,sans-Serif" font-size="10.00">FLASH Selection Protection Mode</text>
</a>
</g>
</g>
<!-- Node1&#45;&gt;Node20 -->
<g id="edge19" class="edge">
<title>Node1&#45;&gt;Node20</title>
<path fill="none" stroke="black" d="M174.4,-330.33C182.27,-284.42 208.45,-169.81 280,-113 284.17,-109.69 288.8,-106.93 293.69,-104.65"/>
<polygon fill="black" stroke="black" points="170.91,-330.01 172.78,-340.44 177.82,-331.12 170.91,-330.01"/>
</g>
<!-- Node15 -->
<g id="node19" class="node">
<title>Node15</title>
<g id="a_node19"><a xlink:href="group__FLASHEx__MassErase__bit.html" target="_top" xlink:title=" ">
<polygon fill="white" stroke="black" points="431,-67.5 308,-67.5 308,-48.5 431,-48.5 431,-67.5"/>
<text text-anchor="middle" x="369.5" y="-55.5" font-family="Helvetica,sans-Serif" font-size="10.00">FLASH Mass Erase bit</text>
</a>
</g>
</g>
<!-- Node1&#45;&gt;Node15 -->
<g id="edge14" class="edge">
<title>Node1&#45;&gt;Node15</title>
<path fill="none" stroke="black" d="M173.06,-330.42C178.2,-279.76 199.23,-143.65 280,-76 287.93,-69.36 297.66,-64.94 307.72,-62.05"/>
<polygon fill="black" stroke="black" points="169.57,-330.1 172.15,-340.38 176.54,-330.74 169.57,-330.1"/>
</g>
<!-- Node10 -->
<g id="node20" class="node">
<title>Node10</title>
<g id="a_node20"><a xlink:href="group__FLASHEx__Option__Bytes__nRST__STDBY.html" target="_top" xlink:title=" ">
<polygon fill="white" stroke="black" points="427,-30 312,-30 312,0 427,0 427,-30"/>
<text text-anchor="start" x="320" y="-18" font-family="Helvetica,sans-Serif" font-size="10.00">FLASH Option Bytes</text>
<text text-anchor="middle" x="369.5" y="-7" font-family="Helvetica,sans-Serif" font-size="10.00"> nRST_STDBY</text>
</a>
</g>
</g>
<!-- Node1&#45;&gt;Node10 -->
<g id="edge9" class="edge">
<title>Node1&#45;&gt;Node10</title>
<path fill="none" stroke="black" d="M172.3,-330.37C175.63,-275.69 192.69,-120.33 280,-39 288.85,-30.75 300.25,-25.29 311.9,-21.68"/>
<polygon fill="black" stroke="black" points="168.8,-330.28 171.78,-340.45 175.79,-330.64 168.8,-330.28"/>
</g>
<!-- Node2 -->
<g id="node12" class="node">
<title>Node2</title>
<g id="a_node12"><a xlink:href="group__FLASHEx.html" target="_top" xlink:title="FLASH HAL Extension module driver.">
<polygon fill="white" stroke="black" points="61,-359.5 0,-359.5 0,-340.5 61,-340.5 61,-359.5"/>
<text text-anchor="middle" x="30.5" y="-347.5" font-family="Helvetica,sans-Serif" font-size="10.00">FLASHEx</text>
</a>
</g>
</g>
<!-- Node2&#45;&gt;Node1 -->
<g id="edge1" class="edge">
<title>Node2&#45;&gt;Node1</title>
<path fill="none" stroke="black" d="M71.28,-350C79.34,-350 88.05,-350 96.85,-350"/>
<polygon fill="black" stroke="black" points="71.1,-346.5 61.1,-350 71.1,-353.5 71.1,-346.5"/>
</g>
</g>
</svg>
        <g id="navigator" transform="translate(0 0)" fill="#404254">
                <rect fill="#f2f5e9" fill-opacity="0.5" stroke="#606060" stroke-width=".5" x="0" y="0" width="60" height="60"/>
                <use id="zoomplus" xlink:href="#zoomPlus" x="17" y="9" onmousedown="handleZoom(evt,'in')"/>
                <use id="zoomminus" xlink:href="#zoomMin" x="42" y="9" onmousedown="handleZoom(evt,'out')"/>
                <use id="reset" xlink:href="#resetDef" x="30" y="36" onmousedown="handleReset()"/>
                <g id="arrowUp" xlink:href="#dirArrow" transform="translate(30 24)" onmousedown="handlePan(0,-1)">
                  <use xlink:href="#rim" fill="#404040">
                        <set attributeName="fill" to="#808080" begin="arrowUp.mouseover" end="arrowUp.mouseout"/>
                  </use>
                  <path fill="none" stroke="white" stroke-width="1.5" d="M0,-3.0v7 M-2.5,-0.5L0,-3.0L2.5,-0.5"/>
                </g>
                <g id="arrowRight" xlink:href="#dirArrow" transform="rotate(90) translate(36 -43)" onmousedown="handlePan(1,0)">
                  <use xlink:href="#rim" fill="#404040">
                        <set attributeName="fill" to="#808080" begin="arrowRight.mouseover" end="arrowRight.mouseout"/>
                  </use>
                  <path fill="none" stroke="white" stroke-width="1.5" d="M0,-3.0v7 M-2.5,-0.5L0,-3.0L2.5,-0.5"/>
                </g>
                <g id="arrowDown" xlink:href="#dirArrow" transform="rotate(180) translate(-30 -48)" onmousedown="handlePan(0,1)">
                  <use xlink:href="#rim" fill="#404040">
                        <set attributeName="fill" to="#808080" begin="arrowDown.mouseover" end="arrowDown.mouseout"/>
                  </use>
                  <path fill="none" stroke="white" stroke-width="1.5" d="M0,-3.0v7 M-2.5,-0.5L0,-3.0L2.5,-0.5"/>
                </g>
                <g id="arrowLeft" xlink:href="#dirArrow" transform="rotate(270) translate(-36 17)" onmousedown="handlePan(-1,0)">
                  <use xlink:href="#rim" fill="#404040">
                        <set attributeName="fill" to="#808080" begin="arrowLeft.mouseover" end="arrowLeft.mouseout"/>
                  </use>
                  <path fill="none" stroke="white" stroke-width="1.5" d="M0,-3.0v7 M-2.5,-0.5L0,-3.0L2.5,-0.5"/>
                </g>
        </g>
        <svg viewBox="0 0 15 15" width="100%" height="30px" preserveAspectRatio="xMaxYMin meet">
         <g id="arrow_out" transform="scale(0.3 0.3)">
          <a xlink:href="group__FLASHEx__Exported__Constants_org.svg" target="_base">
           <rect id="button" ry="5" rx="5" y="6" x="6" height="38" width="38"
                fill="#f2f5e9" fill-opacity="0.5" stroke="#606060" stroke-width="1.0"/>
           <path id="arrow"
             d="M 11.500037,31.436501 C 11.940474,20.09759 22.043105,11.32322 32.158766,21.979434 L 37.068811,17.246167 C 37.068811,17.246167 37.088388,32 37.088388,32 L 22.160133,31.978069 C 22.160133,31.978069 26.997745,27.140456 26.997745,27.140456 C 18.528582,18.264221 13.291696,25.230495 11.500037,31.436501 z"
             style="fill:#404040;"/>
          </a>
         </g>
        </svg>
</svg>
