<?xml version="1.0" encoding="UTF-8" standalone="no"?>
<!DOCTYPE svg PUBLIC "-//W3C//DTD SVG 1.1//EN"
 "http://www.w3.org/Graphics/SVG/1.1/DTD/svg11.dtd">
<!-- Generated by graphviz version 2.43.0 (0)
 -->
<!-- Title: GPIO Pages: 1 -->
<svg width="396pt" height="249pt"
 viewBox="0.00 0.00 396.00 249.00" xmlns="http://www.w3.org/2000/svg" xmlns:xlink="http://www.w3.org/1999/xlink">
<g id="graph0" class="graph" transform="scale(1 1) rotate(0) translate(4 245)">
<title>GPIO</title>
<polygon fill="white" stroke="transparent" points="-4,4 -4,-245 392,-245 392,4 -4,4"/>
<!-- Node4 -->
<g id="node1" class="node">
<title>Node4</title>
<g id="a_node1"><a xlink:href="group__GPIO__Exported__Constants.html" target="_top" xlink:title=" ">
<polygon fill="white" stroke="black" points="387,-241 248,-241 248,-222 387,-222 387,-241"/>
<text text-anchor="middle" x="317.5" y="-229" font-family="Helvetica,sans-Serif" font-size="10.00">GPIO Exported Constants</text>
</a>
</g>
</g>
<!-- Node8 -->
<g id="node2" class="node">
<title>Node8</title>
<g id="a_node2"><a xlink:href="group__GPIO__Private__Functions.html" target="_top" xlink:title=" ">
<polygon fill="white" stroke="black" points="381.5,-204 253.5,-204 253.5,-185 381.5,-185 381.5,-204"/>
<text text-anchor="middle" x="317.5" y="-192" font-family="Helvetica,sans-Serif" font-size="10.00">GPIO Private Functions</text>
</a>
</g>
</g>
<!-- Node3 -->
<g id="node3" class="node">
<title>Node3</title>
<g id="a_node3"><a xlink:href="group__GPIO__Exported__Types.html" target="_top" xlink:title=" ">
<polygon fill="white" stroke="black" points="376.5,-167 258.5,-167 258.5,-148 376.5,-148 376.5,-167"/>
<text text-anchor="middle" x="317.5" y="-155" font-family="Helvetica,sans-Serif" font-size="10.00">GPIO Exported Types</text>
</a>
</g>
</g>
<!-- Node6 -->
<g id="node4" class="node">
<title>Node6</title>
<g id="a_node4"><a xlink:href="group__GPIO__Private__Constants.html" target="_top" xlink:title=" ">
<polygon fill="white" stroke="black" points="382.5,-130 252.5,-130 252.5,-111 382.5,-111 382.5,-130"/>
<text text-anchor="middle" x="317.5" y="-118" font-family="Helvetica,sans-Serif" font-size="10.00">GPIO Private Constants</text>
</a>
</g>
</g>
<!-- Node2 -->
<g id="node5" class="node">
<title>Node2</title>
<g id="a_node5"><a xlink:href="group__STM32F4xx__HAL__Driver.html" target="_top" xlink:title=" ">
<polygon fill="white" stroke="black" points="134,-130 0,-130 0,-111 134,-111 134,-130"/>
<text text-anchor="middle" x="67" y="-118" font-family="Helvetica,sans-Serif" font-size="10.00">STM32F4xx_HAL_Driver</text>
</a>
</g>
</g>
<!-- Node1 -->
<g id="node8" class="node">
<title>Node1</title>
<g id="a_node8"><a xlink:title="GPIO HAL module driver.">
<polygon fill="#bfbfbf" stroke="black" points="211,-130 170,-130 170,-111 211,-111 211,-130"/>
<text text-anchor="middle" x="190.5" y="-118" font-family="Helvetica,sans-Serif" font-size="10.00">GPIO</text>
</a>
</g>
</g>
<!-- Node2&#45;&gt;Node1 -->
<g id="edge1" class="edge">
<title>Node2&#45;&gt;Node1</title>
<path fill="none" stroke="black" d="M144.35,-120.5C153.66,-120.5 162.44,-120.5 169.75,-120.5"/>
<polygon fill="black" stroke="black" points="144.08,-117 134.08,-120.5 144.08,-124 144.08,-117"/>
</g>
<!-- Node7 -->
<g id="node6" class="node">
<title>Node7</title>
<g id="a_node6"><a xlink:href="group__GPIO__Private__Macros.html" target="_top" xlink:title=" ">
<polygon fill="white" stroke="black" points="375.5,-93 259.5,-93 259.5,-74 375.5,-74 375.5,-93"/>
<text text-anchor="middle" x="317.5" y="-81" font-family="Helvetica,sans-Serif" font-size="10.00">GPIO Private Macros</text>
</a>
</g>
</g>
<!-- Node9 -->
<g id="node7" class="node">
<title>Node9</title>
<g id="a_node7"><a xlink:href="group__GPIO__Exported__Functions.html" target="_top" xlink:title=" ">
<polygon fill="white" stroke="black" points="388,-56 247,-56 247,-37 388,-37 388,-56"/>
<text text-anchor="middle" x="317.5" y="-44" font-family="Helvetica,sans-Serif" font-size="10.00">GPIO_Exported_Functions</text>
</a>
</g>
</g>
<!-- Node1&#45;&gt;Node4 -->
<g id="edge3" class="edge">
<title>Node1&#45;&gt;Node4</title>
<path fill="none" stroke="black" d="M197.88,-139.65C205.95,-160.91 221.9,-194.69 247,-213.5 251.59,-216.94 256.77,-219.72 262.19,-221.98"/>
<polygon fill="black" stroke="black" points="201.12,-138.32 194.45,-130.08 194.53,-140.67 201.12,-138.32"/>
</g>
<!-- Node1&#45;&gt;Node8 -->
<g id="edge7" class="edge">
<title>Node1&#45;&gt;Node8</title>
<path fill="none" stroke="black" d="M204.83,-138.33C215.05,-150.79 230.22,-166.86 247,-176.5 252.94,-179.92 259.54,-182.7 266.24,-184.95"/>
<polygon fill="black" stroke="black" points="207.52,-136.09 198.58,-130.4 202.02,-140.42 207.52,-136.09"/>
</g>
<!-- Node1&#45;&gt;Node3 -->
<g id="edge2" class="edge">
<title>Node1&#45;&gt;Node3</title>
<path fill="none" stroke="black" d="M220.63,-130.94C229.09,-133.84 238.38,-136.91 247,-139.5 256.79,-142.44 267.44,-145.34 277.39,-147.93"/>
<polygon fill="black" stroke="black" points="221.75,-127.63 211.16,-127.64 219.45,-134.24 221.75,-127.63"/>
</g>
<!-- Node1&#45;&gt;Node6 -->
<g id="edge5" class="edge">
<title>Node1&#45;&gt;Node6</title>
<path fill="none" stroke="black" d="M221.07,-120.5C230.56,-120.5 241.47,-120.5 252.44,-120.5"/>
<polygon fill="black" stroke="black" points="221.03,-117 211.03,-120.5 221.03,-124 221.03,-117"/>
</g>
<!-- Node1&#45;&gt;Node7 -->
<g id="edge6" class="edge">
<title>Node1&#45;&gt;Node7</title>
<path fill="none" stroke="black" d="M220.63,-110.06C229.09,-107.16 238.38,-104.09 247,-101.5 256.79,-98.56 267.44,-95.66 277.39,-93.07"/>
<polygon fill="black" stroke="black" points="219.45,-106.76 211.16,-113.36 221.75,-113.37 219.45,-106.76"/>
</g>
<!-- Node1&#45;&gt;Node9 -->
<g id="edge8" class="edge">
<title>Node1&#45;&gt;Node9</title>
<path fill="none" stroke="black" d="M204.83,-102.67C215.05,-90.21 230.22,-74.14 247,-64.5 252.94,-61.08 259.54,-58.3 266.24,-56.05"/>
<polygon fill="black" stroke="black" points="202.02,-100.58 198.58,-110.6 207.52,-104.91 202.02,-100.58"/>
</g>
<!-- Node5 -->
<g id="node9" class="node">
<title>Node5</title>
<g id="a_node9"><a xlink:href="group__GPIO__Exported__Macros.html" target="_top" xlink:title=" ">
<polygon fill="white" stroke="black" points="380,-19 255,-19 255,0 380,0 380,-19"/>
<text text-anchor="middle" x="317.5" y="-7" font-family="Helvetica,sans-Serif" font-size="10.00">GPIO Exported Macros</text>
</a>
</g>
</g>
<!-- Node1&#45;&gt;Node5 -->
<g id="edge4" class="edge">
<title>Node1&#45;&gt;Node5</title>
<path fill="none" stroke="black" d="M197.88,-101.35C205.95,-80.09 221.9,-46.31 247,-27.5 251.59,-24.06 256.77,-21.28 262.19,-19.02"/>
<polygon fill="black" stroke="black" points="194.53,-100.33 194.45,-110.92 201.12,-102.68 194.53,-100.33"/>
</g>
</g>
</svg>
