<?xml version="1.0" encoding="UTF-8" standalone="no"?>
<!DOCTYPE svg PUBLIC "-//W3C//DTD SVG 1.1//EN"
 "http://www.w3.org/Graphics/SVG/1.1/DTD/svg11.dtd">
<!-- Generated by graphviz version 2.43.0 (0)
 -->
<!-- Title: CORTEX Exported Functions Pages: 1 -->
<svg width="399pt" height="138pt"
 viewBox="0.00 0.00 399.00 138.00" xmlns="http://www.w3.org/2000/svg" xmlns:xlink="http://www.w3.org/1999/xlink">
<g id="graph0" class="graph" transform="scale(1 1) rotate(0) translate(4 134)">
<title>CORTEX Exported Functions</title>
<polygon fill="white" stroke="transparent" points="-4,4 -4,-134 395,-134 395,4 -4,4"/>
<!-- Node6 -->
<g id="node1" class="node">
<title>Node6</title>
<g id="a_node1"><a xlink:href="group__CORTEX__LL__EF__MCU__INFO.html" target="_top" xlink:title=" ">
<polygon fill="white" stroke="black" points="369,-130 302,-130 302,-111 369,-111 369,-130"/>
<text text-anchor="middle" x="335.5" y="-118" font-family="Helvetica,sans-Serif" font-size="10.00">MCU INFO</text>
</a>
</g>
</g>
<!-- Node1 -->
<g id="node2" class="node">
<title>Node1</title>
<g id="a_node2"><a xlink:title=" ">
<polygon fill="#bfbfbf" stroke="black" points="244,-74 92,-74 92,-55 244,-55 244,-74"/>
<text text-anchor="middle" x="168" y="-62" font-family="Helvetica,sans-Serif" font-size="10.00">CORTEX Exported Functions</text>
</a>
</g>
</g>
<!-- Node1&#45;&gt;Node6 -->
<g id="edge5" class="edge">
<title>Node1&#45;&gt;Node6</title>
<path fill="none" stroke="black" d="M206.52,-77.46C228.01,-84.85 255.5,-94.26 280,-102.5 288.22,-105.26 297.14,-108.23 305.35,-110.94"/>
<polygon fill="black" stroke="black" points="207.39,-74.06 196.8,-74.11 205.11,-80.68 207.39,-74.06"/>
</g>
<!-- Node5 -->
<g id="node3" class="node">
<title>Node5</title>
<g id="a_node3"><a xlink:href="group__CORTEX__LL__EF__HANDLER.html" target="_top" xlink:title=" ">
<polygon fill="white" stroke="black" points="367.5,-93 303.5,-93 303.5,-74 367.5,-74 367.5,-93"/>
<text text-anchor="middle" x="335.5" y="-81" font-family="Helvetica,sans-Serif" font-size="10.00">HANDLER</text>
</a>
</g>
</g>
<!-- Node1&#45;&gt;Node5 -->
<g id="edge4" class="edge">
<title>Node1&#45;&gt;Node5</title>
<path fill="none" stroke="black" d="M254.3,-74.29C271.81,-76.3 289.16,-78.3 303.22,-79.91"/>
<polygon fill="black" stroke="black" points="254.34,-70.77 244,-73.11 253.54,-77.73 254.34,-70.77"/>
</g>
<!-- Node4 -->
<g id="node4" class="node">
<title>Node4</title>
<g id="a_node4"><a xlink:href="group__CORTEX__LL__EF__LOW__POWER__MODE.html" target="_top" xlink:title=" ">
<polygon fill="white" stroke="black" points="391,-56 280,-56 280,-37 391,-37 391,-56"/>
<text text-anchor="middle" x="335.5" y="-44" font-family="Helvetica,sans-Serif" font-size="10.00">LOW POWER MODE</text>
</a>
</g>
</g>
<!-- Node1&#45;&gt;Node4 -->
<g id="edge3" class="edge">
<title>Node1&#45;&gt;Node4</title>
<path fill="none" stroke="black" d="M254.13,-55.24C262.77,-54.3 271.37,-53.37 279.56,-52.47"/>
<polygon fill="black" stroke="black" points="253.57,-51.78 244,-56.34 254.32,-58.74 253.57,-51.78"/>
</g>
<!-- Node3 -->
<g id="node5" class="node">
<title>Node3</title>
<g id="a_node5"><a xlink:href="group__CORTEX__LL__EF__SYSTICK.html" target="_top" xlink:title=" ">
<polygon fill="white" stroke="black" points="364,-19 307,-19 307,0 364,0 364,-19"/>
<text text-anchor="middle" x="335.5" y="-7" font-family="Helvetica,sans-Serif" font-size="10.00">SYSTICK</text>
</a>
</g>
</g>
<!-- Node1&#45;&gt;Node3 -->
<g id="edge2" class="edge">
<title>Node1&#45;&gt;Node3</title>
<path fill="none" stroke="black" d="M207.43,-51.66C228.8,-44.53 255.87,-35.51 280,-27.5 288.7,-24.61 298.19,-21.48 306.77,-18.64"/>
<polygon fill="black" stroke="black" points="206.12,-48.41 197.74,-54.9 208.33,-55.05 206.12,-48.41"/>
</g>
<!-- Node2 -->
<g id="node6" class="node">
<title>Node2</title>
<g id="a_node6"><a xlink:href="group__CORTEX__LL.html" target="_top" xlink:title=" ">
<polygon fill="white" stroke="black" points="56,-74 0,-74 0,-55 56,-55 56,-74"/>
<text text-anchor="middle" x="28" y="-62" font-family="Helvetica,sans-Serif" font-size="10.00">CORTEX</text>
</a>
</g>
</g>
<!-- Node2&#45;&gt;Node1 -->
<g id="edge1" class="edge">
<title>Node2&#45;&gt;Node1</title>
<path fill="none" stroke="black" d="M66.33,-64.5C74.35,-64.5 83.09,-64.5 91.97,-64.5"/>
<polygon fill="black" stroke="black" points="66.26,-61 56.26,-64.5 66.26,-68 66.26,-61"/>
</g>
</g>
</svg>
