<?xml version="1.0" encoding="UTF-8" standalone="no"?>
<!DOCTYPE svg PUBLIC "-//W3C//DTD SVG 1.1//EN"
 "http://www.w3.org/Graphics/SVG/1.1/DTD/svg11.dtd">
<!-- Generated by graphviz version 2.43.0 (0)
 -->
<!-- Title: I2C Exported Constants Pages: 1 -->
<svg width="422pt" height="372pt"
 viewBox="0.00 0.00 422.00 372.00" xmlns="http://www.w3.org/2000/svg" xmlns:xlink="http://www.w3.org/1999/xlink">
<g id="graph0" class="graph" transform="scale(1 1) rotate(0) translate(4 368)">
<title>I2C Exported Constants</title>
<polygon fill="white" stroke="transparent" points="-4,4 -4,-368 418,-368 418,4 -4,4"/>
<!-- Node4 -->
<g id="node1" class="node">
<title>Node4</title>
<g id="a_node1"><a xlink:href="group__I2C__addressing__mode.html" target="_top" xlink:title=" ">
<polygon fill="white" stroke="black" points="384,-364 265,-364 265,-345 384,-345 384,-364"/>
<text text-anchor="middle" x="324.5" y="-352" font-family="Helvetica,sans-Serif" font-size="10.00">I2C addressing mode</text>
</a>
</g>
</g>
<!-- Node10 -->
<g id="node2" class="node">
<title>Node10</title>
<g id="a_node2"><a xlink:href="group__I2C__XferOptions__definition.html" target="_top" xlink:title=" ">
<polygon fill="white" stroke="black" points="395.5,-327 253.5,-327 253.5,-308 395.5,-308 395.5,-327"/>
<text text-anchor="middle" x="324.5" y="-315" font-family="Helvetica,sans-Serif" font-size="10.00">I2C XferOptions definition</text>
</a>
</g>
</g>
<!-- Node1 -->
<g id="node3" class="node">
<title>Node1</title>
<g id="a_node3"><a xlink:title=" ">
<polygon fill="#bfbfbf" stroke="black" points="199,-185 68,-185 68,-166 199,-166 199,-185"/>
<text text-anchor="middle" x="133.5" y="-173" font-family="Helvetica,sans-Serif" font-size="10.00">I2C Exported Constants</text>
</a>
</g>
</g>
<!-- Node1&#45;&gt;Node4 -->
<g id="edge3" class="edge">
<title>Node1&#45;&gt;Node4</title>
<path fill="none" stroke="black" d="M140.76,-194.75C152.99,-229.11 183.46,-300.73 235,-336.5 243.76,-342.58 254.11,-346.7 264.59,-349.47"/>
<polygon fill="black" stroke="black" points="143.98,-193.33 137.43,-185 137.35,-195.6 143.98,-193.33"/>
</g>
<!-- Node1&#45;&gt;Node10 -->
<g id="edge9" class="edge">
<title>Node1&#45;&gt;Node10</title>
<path fill="none" stroke="black" d="M144.18,-193.97C159.56,-221.38 192.25,-272.37 235,-298.5 241.3,-302.35 248.27,-305.43 255.46,-307.89"/>
<polygon fill="black" stroke="black" points="147.17,-192.14 139.31,-185.03 141.02,-195.49 147.17,-192.14"/>
</g>
<!-- Node11 -->
<g id="node5" class="node">
<title>Node11</title>
<g id="a_node5"><a xlink:href="group__I2C__Interrupt__configuration__definition.html" target="_top" xlink:title="I2C Interrupt definition Elements values convention: 0xXXXXXXXX.">
<polygon fill="white" stroke="black" points="396.5,-289.5 252.5,-289.5 252.5,-259.5 396.5,-259.5 396.5,-289.5"/>
<text text-anchor="start" x="260.5" y="-277.5" font-family="Helvetica,sans-Serif" font-size="10.00">I2C Interrupt configuration</text>
<text text-anchor="middle" x="324.5" y="-266.5" font-family="Helvetica,sans-Serif" font-size="10.00"> definition</text>
</a>
</g>
</g>
<!-- Node1&#45;&gt;Node11 -->
<g id="edge10" class="edge">
<title>Node1&#45;&gt;Node11</title>
<path fill="none" stroke="black" d="M152.06,-191.89C171.11,-208.84 203.11,-234.98 235,-250.5 242.01,-253.91 249.59,-256.9 257.24,-259.5"/>
<polygon fill="black" stroke="black" points="154.25,-189.15 144.49,-185.03 149.55,-194.34 154.25,-189.15"/>
</g>
<!-- Node3 -->
<g id="node6" class="node">
<title>Node3</title>
<g id="a_node6"><a xlink:href="group__I2C__duty__cycle__in__fast__mode.html" target="_top" xlink:title=" ">
<polygon fill="white" stroke="black" points="399.5,-241 249.5,-241 249.5,-222 399.5,-222 399.5,-241"/>
<text text-anchor="middle" x="324.5" y="-229" font-family="Helvetica,sans-Serif" font-size="10.00">I2C duty cycle in fast mode</text>
</a>
</g>
</g>
<!-- Node1&#45;&gt;Node3 -->
<g id="edge2" class="edge">
<title>Node1&#45;&gt;Node3</title>
<path fill="none" stroke="black" d="M166.24,-189C185.8,-196.95 211.54,-206.73 235,-213.5 246,-216.67 257.92,-219.5 269.34,-221.92"/>
<polygon fill="black" stroke="black" points="167.48,-185.73 156.9,-185.16 164.81,-192.2 167.48,-185.73"/>
</g>
<!-- Node7 -->
<g id="node7" class="node">
<title>Node7</title>
<g id="a_node7"><a xlink:href="group__I2C__nostretch__mode.html" target="_top" xlink:title=" ">
<polygon fill="white" stroke="black" points="380.5,-204 268.5,-204 268.5,-185 380.5,-185 380.5,-204"/>
<text text-anchor="middle" x="324.5" y="-192" font-family="Helvetica,sans-Serif" font-size="10.00">I2C nostretch mode</text>
</a>
</g>
</g>
<!-- Node1&#45;&gt;Node7 -->
<g id="edge6" class="edge">
<title>Node1&#45;&gt;Node7</title>
<path fill="none" stroke="black" d="M209.21,-183.01C228.96,-185 249.91,-187.1 268.41,-188.96"/>
<polygon fill="black" stroke="black" points="209.31,-179.5 199.01,-181.99 208.61,-186.47 209.31,-179.5"/>
</g>
<!-- Node6 -->
<g id="node8" class="node">
<title>Node6</title>
<g id="a_node8"><a xlink:href="group__I2C__general__call__addressing__mode.html" target="_top" xlink:title=" ">
<polygon fill="white" stroke="black" points="414,-167 235,-167 235,-148 414,-148 414,-167"/>
<text text-anchor="middle" x="324.5" y="-155" font-family="Helvetica,sans-Serif" font-size="10.00">I2C general call addressing mode</text>
</a>
</g>
</g>
<!-- Node1&#45;&gt;Node6 -->
<g id="edge5" class="edge">
<title>Node1&#45;&gt;Node6</title>
<path fill="none" stroke="black" d="M209.18,-168.39C217.62,-167.58 226.27,-166.76 234.87,-165.94"/>
<polygon fill="black" stroke="black" points="208.64,-164.92 199.01,-169.36 209.3,-171.89 208.64,-164.92"/>
</g>
<!-- Node8 -->
<g id="node9" class="node">
<title>Node8</title>
<g id="a_node9"><a xlink:href="group__I2C__Memory__Address__Size.html" target="_top" xlink:title=" ">
<polygon fill="white" stroke="black" points="395,-130 254,-130 254,-111 395,-111 395,-130"/>
<text text-anchor="middle" x="324.5" y="-118" font-family="Helvetica,sans-Serif" font-size="10.00">I2C Memory Address Size</text>
</a>
</g>
</g>
<!-- Node1&#45;&gt;Node8 -->
<g id="edge7" class="edge">
<title>Node1&#45;&gt;Node8</title>
<path fill="none" stroke="black" d="M166.66,-162.24C186.18,-154.55 211.74,-145.1 235,-138.5 246.16,-135.33 258.26,-132.49 269.83,-130.05"/>
<polygon fill="black" stroke="black" points="165.31,-159.01 157.32,-165.96 167.91,-165.51 165.31,-159.01"/>
</g>
<!-- Node12 -->
<g id="node10" class="node">
<title>Node12</title>
<g id="a_node10"><a xlink:href="group__I2C__Flag__definition.html" target="_top" xlink:title=" ">
<polygon fill="white" stroke="black" points="377,-93 272,-93 272,-74 377,-74 377,-93"/>
<text text-anchor="middle" x="324.5" y="-81" font-family="Helvetica,sans-Serif" font-size="10.00">I2C Flag definition</text>
</a>
</g>
</g>
<!-- Node1&#45;&gt;Node12 -->
<g id="edge11" class="edge">
<title>Node1&#45;&gt;Node12</title>
<path fill="none" stroke="black" d="M151.91,-158.94C170.84,-141.88 202.74,-115.82 235,-101.5 246.47,-96.41 259.41,-92.75 271.78,-90.11"/>
<polygon fill="black" stroke="black" points="149.38,-156.5 144.4,-165.85 154.12,-161.65 149.38,-156.5"/>
</g>
<!-- Node9 -->
<g id="node11" class="node">
<title>Node9</title>
<g id="a_node11"><a xlink:href="group__I2C__XferDirection__definition.html" target="_top" xlink:title=" ">
<polygon fill="white" stroke="black" points="399,-56 250,-56 250,-37 399,-37 399,-56"/>
<text text-anchor="middle" x="324.5" y="-44" font-family="Helvetica,sans-Serif" font-size="10.00">I2C XferDirection definition</text>
</a>
</g>
</g>
<!-- Node1&#45;&gt;Node9 -->
<g id="edge8" class="edge">
<title>Node1&#45;&gt;Node9</title>
<path fill="none" stroke="black" d="M145.54,-157.34C161.83,-132.24 194.74,-87.43 235,-64.5 240.99,-61.09 247.54,-58.31 254.28,-56.06"/>
<polygon fill="black" stroke="black" points="142.51,-155.59 140.14,-165.91 148.43,-159.32 142.51,-155.59"/>
</g>
<!-- Node5 -->
<g id="node12" class="node">
<title>Node5</title>
<g id="a_node12"><a xlink:href="group__I2C__dual__addressing__mode.html" target="_top" xlink:title=" ">
<polygon fill="white" stroke="black" points="396,-19 253,-19 253,0 396,0 396,-19"/>
<text text-anchor="middle" x="324.5" y="-7" font-family="Helvetica,sans-Serif" font-size="10.00">I2C dual addressing mode</text>
</a>
</g>
</g>
<!-- Node1&#45;&gt;Node5 -->
<g id="edge4" class="edge">
<title>Node1&#45;&gt;Node5</title>
<path fill="none" stroke="black" d="M141.96,-155.99C155.36,-123.74 186.69,-59.67 235,-27.5 240.48,-23.85 246.55,-20.91 252.86,-18.55"/>
<polygon fill="black" stroke="black" points="138.57,-155.03 138.1,-165.62 145.07,-157.64 138.57,-155.03"/>
</g>
<!-- Node2 -->
<g id="node4" class="node">
<title>Node2</title>
<g id="a_node4"><a xlink:href="group__I2C.html" target="_top" xlink:title="I2C HAL module driver.">
<polygon fill="white" stroke="black" points="32,-185 0,-185 0,-166 32,-166 32,-185"/>
<text text-anchor="middle" x="16" y="-173" font-family="Helvetica,sans-Serif" font-size="10.00">I2C</text>
</a>
</g>
</g>
<!-- Node2&#45;&gt;Node1 -->
<g id="edge1" class="edge">
<title>Node2&#45;&gt;Node1</title>
<path fill="none" stroke="black" d="M42.18,-175.5C49.92,-175.5 58.82,-175.5 67.96,-175.5"/>
<polygon fill="black" stroke="black" points="42.1,-172 32.1,-175.5 42.1,-179 42.1,-172"/>
</g>
</g>
</svg>
