<?xml version="1.0" encoding="UTF-8" standalone="no"?>
<!DOCTYPE svg PUBLIC "-//W3C//DTD SVG 1.1//EN"
 "http://www.w3.org/Graphics/SVG/1.1/DTD/svg11.dtd">
<!-- Generated by graphviz version 2.43.0 (0)
 -->
<!-- Title: TIM Exported Constants Pages: 1 -->
<!--zoomable 1971 -->
<svg id="main" version="1.1" xmlns="http://www.w3.org/2000/svg" xmlns:xlink="http://www.w3.org/1999/xlink" xml:space="preserve" onload="init(evt)">
<style type="text/css"><![CDATA[
.edge:hover path { stroke: red; }
.edge:hover polygon { stroke: red; fill: red; }
]]></style>
<script type="text/javascript"><![CDATA[
var edges = document.getElementsByTagName('g');
if (edges && edges.length) {
  for (var i=0;i<edges.length;i++) {
    if (edges[i].id.substr(0,4)=='edge') {
      edges[i].setAttribute('class','edge');
    }
  }
}
]]></script>
        <defs>
                <circle id="rim" cx="0" cy="0" r="7"/>
                <circle id="rim2" cx="0" cy="0" r="3.5"/>
                <g id="zoomPlus">
                        <use xlink:href="#rim" fill="#404040">
                                <set attributeName="fill" to="#808080" begin="zoomplus.mouseover" end="zoomplus.mouseout"/>
                        </use>
                        <path d="M-4,0h8M0,-4v8" fill="none" stroke="white" stroke-width="1.5" pointer-events="none"/>
                </g>
                <g id="zoomMin">
                        <use xlink:href="#rim" fill="#404040">
                                <set attributeName="fill" to="#808080" begin="zoomminus.mouseover" end="zoomminus.mouseout"/>
                        </use>
                        <path d="M-4,0h8" fill="none" stroke="white" stroke-width="1.5" pointer-events="none"/>
                </g>
                <g id="dirArrow">
                        <path fill="none" stroke="white" stroke-width="1.5" d="M0,-3.0v7 M-2.5,-0.5L0,-3.0L2.5,-0.5"/>
                </g>
               <g id="resetDef">
                       <use xlink:href="#rim2" fill="#404040">
                               <set attributeName="fill" to="#808080" begin="reset.mouseover" end="reset.mouseout"/>
                       </use>
               </g>
        </defs>

<script type="text/javascript">
var viewWidth = 403;
var viewHeight = 1971;
var sectionId = 'dynsection-0';
</script>
<script xlink:href="svgpan.js"/>
<svg id="graph" class="graph">
<g id="viewport">
<title>TIM Exported Constants</title>
<polygon fill="white" stroke="transparent" points="-4,4 -4,-1966.5 399,-1966.5 399,4 -4,4"/>
<!-- Node25 -->
<g id="node1" class="node">
<title>Node25</title>
<g id="a_node1"><a xlink:href="group__TIM__Interrupt__definition.html" target="_top" xlink:title=" ">
<polygon fill="white" stroke="black" points="382.5,-1962.5 252.5,-1962.5 252.5,-1943.5 382.5,-1943.5 382.5,-1962.5"/>
<text text-anchor="middle" x="317.5" y="-1950.5" font-family="Helvetica,sans-Serif" font-size="10.00">TIM interrupt Definition</text>
</a>
</g>
</g>
<!-- Node42 -->
<g id="node2" class="node">
<title>Node42</title>
<g id="a_node2"><a xlink:href="group__TIM__Master__Mode__Selection.html" target="_top" xlink:title=" ">
<polygon fill="white" stroke="black" points="392,-1925.5 243,-1925.5 243,-1906.5 392,-1906.5 392,-1925.5"/>
<text text-anchor="middle" x="317.5" y="-1913.5" font-family="Helvetica,sans-Serif" font-size="10.00">TIM Master Mode Selection</text>
</a>
</g>
</g>
<!-- Node29 -->
<g id="node3" class="node">
<title>Node29</title>
<g id="a_node3"><a xlink:href="group__TIM__Flag__definition.html" target="_top" xlink:title=" ">
<polygon fill="white" stroke="black" points="372,-1888.5 263,-1888.5 263,-1869.5 372,-1869.5 372,-1888.5"/>
<text text-anchor="middle" x="317.5" y="-1876.5" font-family="Helvetica,sans-Serif" font-size="10.00">TIM Flag Definition</text>
</a>
</g>
</g>
<!-- Node46 -->
<g id="node4" class="node">
<title>Node46</title>
<g id="a_node4"><a xlink:href="group__TIM__Trigger__Selection.html" target="_top" xlink:title=" ">
<polygon fill="white" stroke="black" points="377,-1851.5 258,-1851.5 258,-1832.5 377,-1832.5 377,-1851.5"/>
<text text-anchor="middle" x="317.5" y="-1839.5" font-family="Helvetica,sans-Serif" font-size="10.00">TIM Trigger Selection</text>
</a>
</g>
</g>
<!-- Node19 -->
<g id="node5" class="node">
<title>Node19</title>
<g id="a_node5"><a xlink:href="group__TIM__Input__Capture__Polarity.html" target="_top" xlink:title=" ">
<polygon fill="white" stroke="black" points="389.5,-1814.5 245.5,-1814.5 245.5,-1795.5 389.5,-1795.5 389.5,-1814.5"/>
<text text-anchor="middle" x="317.5" y="-1802.5" font-family="Helvetica,sans-Serif" font-size="10.00">TIM Input Capture Polarity</text>
</a>
</g>
</g>
<!-- Node26 -->
<g id="node6" class="node">
<title>Node26</title>
<g id="a_node6"><a xlink:href="group__TIM__Commutation__Source.html" target="_top" xlink:title=" ">
<polygon fill="white" stroke="black" points="387.5,-1777.5 247.5,-1777.5 247.5,-1758.5 387.5,-1758.5 387.5,-1777.5"/>
<text text-anchor="middle" x="317.5" y="-1765.5" font-family="Helvetica,sans-Serif" font-size="10.00">TIM Commutation Source</text>
</a>
</g>
</g>
<!-- Node4 -->
<g id="node7" class="node">
<title>Node4</title>
<g id="a_node7"><a xlink:href="group__TIM__DMA__Base__address.html" target="_top" xlink:title=" ">
<polygon fill="white" stroke="black" points="382.5,-1740.5 252.5,-1740.5 252.5,-1721.5 382.5,-1721.5 382.5,-1740.5"/>
<text text-anchor="middle" x="317.5" y="-1728.5" font-family="Helvetica,sans-Serif" font-size="10.00">TIM DMA Base Address</text>
</a>
</g>
</g>
<!-- Node37 -->
<g id="node8" class="node">
<title>Node37</title>
<g id="a_node8"><a xlink:href="group__TIM__OSSI__Off__State__Selection__for__Idle__mode__state.html" target="_top" xlink:title=" ">
<polygon fill="white" stroke="black" points="393,-1703 242,-1703 242,-1673 393,-1673 393,-1703"/>
<text text-anchor="start" x="250" y="-1691" font-family="Helvetica,sans-Serif" font-size="10.00">TIM OSSI OffState Selection</text>
<text text-anchor="middle" x="317.5" y="-1680" font-family="Helvetica,sans-Serif" font-size="10.00"> for Idle mode state</text>
</a>
</g>
</g>
<!-- Node22 -->
<g id="node9" class="node">
<title>Node22</title>
<g id="a_node9"><a xlink:href="group__TIM__Input__Capture__Prescaler.html" target="_top" xlink:title=" ">
<polygon fill="white" stroke="black" points="393.5,-1654.5 241.5,-1654.5 241.5,-1635.5 393.5,-1635.5 393.5,-1654.5"/>
<text text-anchor="middle" x="317.5" y="-1642.5" font-family="Helvetica,sans-Serif" font-size="10.00">TIM Input Capture Prescaler</text>
</a>
</g>
</g>
<!-- Node36 -->
<g id="node10" class="node">
<title>Node36</title>
<g id="a_node10"><a xlink:href="group__TIM__OSSR__Off__State__Selection__for__Run__mode__state.html" target="_top" xlink:title=" ">
<polygon fill="white" stroke="black" points="395,-1617 240,-1617 240,-1587 395,-1587 395,-1617"/>
<text text-anchor="start" x="248" y="-1605" font-family="Helvetica,sans-Serif" font-size="10.00">TIM OSSR OffState Selection</text>
<text text-anchor="middle" x="317.5" y="-1594" font-family="Helvetica,sans-Serif" font-size="10.00"> for Run mode state</text>
</a>
</g>
</g>
<!-- Node3 -->
<g id="node11" class="node">
<title>Node3</title>
<g id="a_node11"><a xlink:href="group__TIM__ClearInput__Source.html" target="_top" xlink:title=" ">
<polygon fill="white" stroke="black" points="381,-1568.5 254,-1568.5 254,-1549.5 381,-1549.5 381,-1568.5"/>
<text text-anchor="middle" x="317.5" y="-1556.5" font-family="Helvetica,sans-Serif" font-size="10.00">TIM Clear Input Source</text>
</a>
</g>
</g>
<!-- Node12 -->
<g id="node12" class="node">
<title>Node12</title>
<g id="a_node12"><a xlink:href="group__TIM__AutoReloadPreload.html" target="_top" xlink:title=" ">
<polygon fill="white" stroke="black" points="386,-1531.5 249,-1531.5 249,-1512.5 386,-1512.5 386,-1531.5"/>
<text text-anchor="middle" x="317.5" y="-1519.5" font-family="Helvetica,sans-Serif" font-size="10.00">TIM Auto&#45;Reload Preload</text>
</a>
</g>
</g>
<!-- Node15 -->
<g id="node13" class="node">
<title>Node15</title>
<g id="a_node13"><a xlink:href="group__TIM__Output__Compare__Polarity.html" target="_top" xlink:title=" ">
<polygon fill="white" stroke="black" points="376.5,-1494 258.5,-1494 258.5,-1464 376.5,-1464 376.5,-1494"/>
<text text-anchor="start" x="266.5" y="-1482" font-family="Helvetica,sans-Serif" font-size="10.00">TIM Output Compare</text>
<text text-anchor="middle" x="317.5" y="-1471" font-family="Helvetica,sans-Serif" font-size="10.00"> Polarity</text>
</a>
</g>
</g>
<!-- Node23 -->
<g id="node14" class="node">
<title>Node23</title>
<g id="a_node14"><a xlink:href="group__TIM__One__Pulse__Mode.html" target="_top" xlink:title=" ">
<polygon fill="white" stroke="black" points="375.5,-1445.5 259.5,-1445.5 259.5,-1426.5 375.5,-1426.5 375.5,-1445.5"/>
<text text-anchor="middle" x="317.5" y="-1433.5" font-family="Helvetica,sans-Serif" font-size="10.00">TIM One Pulse Mode</text>
</a>
</g>
</g>
<!-- Node33 -->
<g id="node15" class="node">
<title>Node33</title>
<g id="a_node15"><a xlink:href="group__TIM__Clock__Prescaler.html" target="_top" xlink:title=" ">
<polygon fill="white" stroke="black" points="374,-1408.5 261,-1408.5 261,-1389.5 374,-1389.5 374,-1408.5"/>
<text text-anchor="middle" x="317.5" y="-1396.5" font-family="Helvetica,sans-Serif" font-size="10.00">TIM Clock Prescaler</text>
</a>
</g>
</g>
<!-- Node52 -->
<g id="node16" class="node">
<title>Node52</title>
<g id="a_node16"><a xlink:href="group__Channel__CC__State.html" target="_top" xlink:title=" ">
<polygon fill="white" stroke="black" points="379,-1371 256,-1371 256,-1341 379,-1341 379,-1371"/>
<text text-anchor="start" x="264" y="-1359" font-family="Helvetica,sans-Serif" font-size="10.00">TIM Capture/Compare</text>
<text text-anchor="middle" x="317.5" y="-1348" font-family="Helvetica,sans-Serif" font-size="10.00"> Channel State</text>
</a>
</g>
</g>
<!-- Node40 -->
<g id="node17" class="node">
<title>Node40</title>
<g id="a_node17"><a xlink:href="group__TIM__Break__Polarity.html" target="_top" xlink:title=" ">
<polygon fill="white" stroke="black" points="384.5,-1322.5 250.5,-1322.5 250.5,-1303.5 384.5,-1303.5 384.5,-1322.5"/>
<text text-anchor="middle" x="317.5" y="-1310.5" font-family="Helvetica,sans-Serif" font-size="10.00">TIM Break Input Polarity</text>
</a>
</g>
</g>
<!-- Node44 -->
<g id="node18" class="node">
<title>Node44</title>
<g id="a_node18"><a xlink:href="group__TIM__Slave__Mode.html" target="_top" xlink:title=" ">
<polygon fill="white" stroke="black" points="365,-1285.5 270,-1285.5 270,-1266.5 365,-1266.5 365,-1285.5"/>
<text text-anchor="middle" x="317.5" y="-1273.5" font-family="Helvetica,sans-Serif" font-size="10.00">TIM Slave mode</text>
</a>
</g>
</g>
<!-- Node49 -->
<g id="node19" class="node">
<title>Node49</title>
<g id="a_node19"><a xlink:href="group__TIM__TI1__Selection.html" target="_top" xlink:title=" ">
<polygon fill="white" stroke="black" points="381.5,-1248.5 253.5,-1248.5 253.5,-1229.5 381.5,-1229.5 381.5,-1248.5"/>
<text text-anchor="middle" x="317.5" y="-1236.5" font-family="Helvetica,sans-Serif" font-size="10.00">TIM TI1 Input Selection</text>
</a>
</g>
</g>
<!-- Node10 -->
<g id="node20" class="node">
<title>Node10</title>
<g id="a_node20"><a xlink:href="group__TIM__ClockDivision.html" target="_top" xlink:title=" ">
<polygon fill="white" stroke="black" points="371,-1211.5 264,-1211.5 264,-1192.5 371,-1192.5 371,-1211.5"/>
<text text-anchor="middle" x="317.5" y="-1199.5" font-family="Helvetica,sans-Serif" font-size="10.00">TIM Clock Division</text>
</a>
</g>
</g>
<!-- Node13 -->
<g id="node21" class="node">
<title>Node13</title>
<g id="a_node21"><a xlink:href="group__TIM__Output__Fast__State.html" target="_top" xlink:title=" ">
<polygon fill="white" stroke="black" points="378.5,-1174.5 256.5,-1174.5 256.5,-1155.5 378.5,-1155.5 378.5,-1174.5"/>
<text text-anchor="middle" x="317.5" y="-1162.5" font-family="Helvetica,sans-Serif" font-size="10.00">TIM Output Fast State</text>
</a>
</g>
</g>
<!-- Node21 -->
<g id="node22" class="node">
<title>Node21</title>
<g id="a_node22"><a xlink:href="group__TIM__Input__Capture__Selection.html" target="_top" xlink:title=" ">
<polygon fill="white" stroke="black" points="393.5,-1137.5 241.5,-1137.5 241.5,-1118.5 393.5,-1118.5 393.5,-1137.5"/>
<text text-anchor="middle" x="317.5" y="-1125.5" font-family="Helvetica,sans-Serif" font-size="10.00">TIM Input Capture Selection</text>
</a>
</g>
</g>
<!-- Node8 -->
<g id="node23" class="node">
<title>Node8</title>
<g id="a_node23"><a xlink:href="group__TIM__ETR__Prescaler.html" target="_top" xlink:title=" ">
<polygon fill="white" stroke="black" points="369.5,-1100.5 265.5,-1100.5 265.5,-1081.5 369.5,-1081.5 369.5,-1100.5"/>
<text text-anchor="middle" x="317.5" y="-1088.5" font-family="Helvetica,sans-Serif" font-size="10.00">TIM ETR Prescaler</text>
</a>
</g>
</g>
<!-- Node30 -->
<g id="node24" class="node">
<title>Node30</title>
<g id="a_node24"><a xlink:href="group__TIM__Channel.html" target="_top" xlink:title=" ">
<polygon fill="white" stroke="black" points="356,-1063.5 279,-1063.5 279,-1044.5 356,-1044.5 356,-1063.5"/>
<text text-anchor="middle" x="317.5" y="-1051.5" font-family="Helvetica,sans-Serif" font-size="10.00">TIM Channel</text>
</a>
</g>
</g>
<!-- Node39 -->
<g id="node25" class="node">
<title>Node39</title>
<g id="a_node25"><a xlink:href="group__TIM__Break__Input__enable__disable.html" target="_top" xlink:title=" ">
<polygon fill="white" stroke="black" points="382.5,-1026.5 252.5,-1026.5 252.5,-1007.5 382.5,-1007.5 382.5,-1026.5"/>
<text text-anchor="middle" x="317.5" y="-1014.5" font-family="Helvetica,sans-Serif" font-size="10.00">TIM Break Input Enable</text>
</a>
</g>
</g>
<!-- Node17 -->
<g id="node26" class="node">
<title>Node17</title>
<g id="a_node26"><a xlink:href="group__TIM__Output__Compare__Idle__State.html" target="_top" xlink:title=" ">
<polygon fill="white" stroke="black" points="376.5,-989 258.5,-989 258.5,-959 376.5,-959 376.5,-989"/>
<text text-anchor="start" x="266.5" y="-977" font-family="Helvetica,sans-Serif" font-size="10.00">TIM Output Compare</text>
<text text-anchor="middle" x="317.5" y="-966" font-family="Helvetica,sans-Serif" font-size="10.00"> Idle State</text>
</a>
</g>
</g>
<!-- Node20 -->
<g id="node27" class="node">
<title>Node20</title>
<g id="a_node27"><a xlink:href="group__TIM__Encoder__Input__Polarity.html" target="_top" xlink:title=" ">
<polygon fill="white" stroke="black" points="390,-940.5 245,-940.5 245,-921.5 390,-921.5 390,-940.5"/>
<text text-anchor="middle" x="317.5" y="-928.5" font-family="Helvetica,sans-Serif" font-size="10.00">TIM Encoder Input Polarity</text>
</a>
</g>
</g>
<!-- Node27 -->
<g id="node28" class="node">
<title>Node27</title>
<g id="a_node28"><a xlink:href="group__TIM__DMA__sources.html" target="_top" xlink:title=" ">
<polygon fill="white" stroke="black" points="368.5,-903.5 266.5,-903.5 266.5,-884.5 368.5,-884.5 368.5,-903.5"/>
<text text-anchor="middle" x="317.5" y="-891.5" font-family="Helvetica,sans-Serif" font-size="10.00">TIM DMA Sources</text>
</a>
</g>
</g>
<!-- Node34 -->
<g id="node29" class="node">
<title>Node34</title>
<g id="a_node29"><a xlink:href="group__TIM__ClearInput__Polarity.html" target="_top" xlink:title=" ">
<polygon fill="white" stroke="black" points="383,-866.5 252,-866.5 252,-847.5 383,-847.5 383,-866.5"/>
<text text-anchor="middle" x="317.5" y="-854.5" font-family="Helvetica,sans-Serif" font-size="10.00">TIM Clear Input Polarity</text>
</a>
</g>
</g>
<!-- Node47 -->
<g id="node30" class="node">
<title>Node47</title>
<g id="a_node30"><a xlink:href="group__TIM__Trigger__Polarity.html" target="_top" xlink:title=" ">
<polygon fill="white" stroke="black" points="373,-829.5 262,-829.5 262,-810.5 373,-810.5 373,-829.5"/>
<text text-anchor="middle" x="317.5" y="-817.5" font-family="Helvetica,sans-Serif" font-size="10.00">TIM Trigger Polarity</text>
</a>
</g>
</g>
<!-- Node1 -->
<g id="node31" class="node">
<title>Node1</title>
<g id="a_node31"><a xlink:title=" ">
<polygon fill="#bfbfbf" stroke="black" points="204,-1004.5 71,-1004.5 71,-985.5 204,-985.5 204,-1004.5"/>
<text text-anchor="middle" x="137.5" y="-992.5" font-family="Helvetica,sans-Serif" font-size="10.00">TIM Exported Constants</text>
</a>
</g>
</g>
<!-- Node1&#45;&gt;Node25 -->
<g id="edge24" class="edge">
<title>Node1&#45;&gt;Node25</title>
<path fill="none" stroke="black" d="M139.28,-1014.72C144.55,-1143.64 176.7,-1863.36 240,-1935 243.52,-1938.99 247.75,-1942.18 252.38,-1944.72"/>
<polygon fill="black" stroke="black" points="142.78,-1014.54 138.88,-1004.69 135.78,-1014.82 142.78,-1014.54"/>
</g>
<!-- Node1&#45;&gt;Node42 -->
<g id="edge41" class="edge">
<title>Node1&#45;&gt;Node42</title>
<path fill="none" stroke="black" d="M139.37,-1014.71C145.11,-1140.63 179.14,-1829.42 240,-1898 242.99,-1901.37 246.48,-1904.17 250.29,-1906.49"/>
<polygon fill="black" stroke="black" points="142.86,-1014.43 138.92,-1004.6 135.87,-1014.75 142.86,-1014.43"/>
</g>
<!-- Node1&#45;&gt;Node29 -->
<g id="edge28" class="edge">
<title>Node1&#45;&gt;Node29</title>
<path fill="none" stroke="black" d="M139.49,-1015.04C145.75,-1138.76 181.63,-1795.53 240,-1861 246.08,-1867.82 254.22,-1872.31 262.93,-1875.21"/>
<polygon fill="black" stroke="black" points="142.97,-1014.58 138.97,-1004.77 135.98,-1014.93 142.97,-1014.58"/>
</g>
<!-- Node1&#45;&gt;Node46 -->
<g id="edge45" class="edge">
<title>Node1&#45;&gt;Node46</title>
<path fill="none" stroke="black" d="M139.59,-1014.92C146.34,-1135.22 184.04,-1761.56 240,-1824 244.92,-1829.49 251.16,-1833.46 257.96,-1836.31"/>
<polygon fill="black" stroke="black" points="143.07,-1014.42 139.02,-1004.63 136.08,-1014.81 143.07,-1014.42"/>
</g>
<!-- Node1&#45;&gt;Node19 -->
<g id="edge18" class="edge">
<title>Node1&#45;&gt;Node19</title>
<path fill="none" stroke="black" d="M138.12,-1014.73C136.38,-1125.43 133.44,-1668.78 240,-1787 243.01,-1790.34 246.52,-1793.13 250.35,-1795.43"/>
<polygon fill="black" stroke="black" points="141.62,-1014.69 138.29,-1004.64 134.62,-1014.57 141.62,-1014.69"/>
</g>
<!-- Node1&#45;&gt;Node26 -->
<g id="edge25" class="edge">
<title>Node1&#45;&gt;Node26</title>
<path fill="none" stroke="black" d="M138.25,-1014.81C137.32,-1122.61 138.3,-1637.88 240,-1750 243.02,-1753.34 246.54,-1756.11 250.37,-1758.41"/>
<polygon fill="black" stroke="black" points="141.75,-1014.72 138.36,-1004.69 134.75,-1014.65 141.75,-1014.72"/>
</g>
<!-- Node1&#45;&gt;Node4 -->
<g id="edge3" class="edge">
<title>Node1&#45;&gt;Node4</title>
<path fill="none" stroke="black" d="M138.43,-1015.1C138.49,-1120.18 144.02,-1605.6 240,-1712 243.57,-1715.96 247.84,-1719.16 252.49,-1721.73"/>
<polygon fill="black" stroke="black" points="141.93,-1014.93 138.44,-1004.93 134.93,-1014.92 141.93,-1014.93"/>
</g>
<!-- Node1&#45;&gt;Node37 -->
<g id="edge36" class="edge">
<title>Node1&#45;&gt;Node37</title>
<path fill="none" stroke="black" d="M138.77,-1014.9C140.53,-1115 153.22,-1562.76 240,-1664 242.9,-1667.38 246.27,-1670.29 249.95,-1672.8"/>
<polygon fill="black" stroke="black" points="142.27,-1014.63 138.61,-1004.68 135.27,-1014.74 142.27,-1014.63"/>
</g>
<!-- Node1&#45;&gt;Node22 -->
<g id="edge21" class="edge">
<title>Node1&#45;&gt;Node22</title>
<path fill="none" stroke="black" d="M138.85,-1014.78C140.97,-1111.47 155.03,-1533.58 240,-1626 243.52,-1629.83 247.68,-1632.94 252.21,-1635.46"/>
<polygon fill="black" stroke="black" points="142.35,-1014.57 138.65,-1004.64 135.35,-1014.71 142.35,-1014.57"/>
</g>
<!-- Node1&#45;&gt;Node36 -->
<g id="edge35" class="edge">
<title>Node1&#45;&gt;Node36</title>
<path fill="none" stroke="black" d="M139.26,-1014.9C143.17,-1107 163.86,-1491.12 240,-1578 243.03,-1581.45 246.55,-1584.42 250.38,-1586.96"/>
<polygon fill="black" stroke="black" points="142.75,-1014.58 138.85,-1004.73 135.76,-1014.86 142.75,-1014.58"/>
</g>
<!-- Node1&#45;&gt;Node3 -->
<g id="edge2" class="edge">
<title>Node1&#45;&gt;Node3</title>
<path fill="none" stroke="black" d="M139.36,-1014.59C143.62,-1102.88 165.41,-1462.8 240,-1541 243.96,-1545.15 248.67,-1548.42 253.79,-1550.99"/>
<polygon fill="black" stroke="black" points="142.85,-1014.42 138.89,-1004.6 135.86,-1014.75 142.85,-1014.42"/>
</g>
<!-- Node1&#45;&gt;Node12 -->
<g id="edge11" class="edge">
<title>Node1&#45;&gt;Node12</title>
<path fill="none" stroke="black" d="M139.69,-1014.8C145.18,-1099.54 170.82,-1430.55 240,-1503 243.59,-1506.76 247.8,-1509.82 252.37,-1512.31"/>
<polygon fill="black" stroke="black" points="143.18,-1014.49 139.06,-1004.73 136.19,-1014.93 143.18,-1014.49"/>
</g>
<!-- Node1&#45;&gt;Node15 -->
<g id="edge14" class="edge">
<title>Node1&#45;&gt;Node15</title>
<path fill="none" stroke="black" d="M140.24,-1014.57C147.62,-1093.64 178.9,-1388.35 240,-1455 245.08,-1460.54 251.42,-1464.81 258.26,-1468.1"/>
<polygon fill="black" stroke="black" points="143.71,-1014.17 139.32,-1004.53 136.74,-1014.8 143.71,-1014.17"/>
</g>
<!-- Node1&#45;&gt;Node23 -->
<g id="edge22" class="edge">
<title>Node1&#45;&gt;Node23</title>
<path fill="none" stroke="black" d="M140.5,-1014.55C148.56,-1089.8 181.2,-1359.46 240,-1418 245.41,-1423.39 252.12,-1427.28 259.29,-1430.08"/>
<polygon fill="black" stroke="black" points="143.97,-1014.13 139.45,-1004.55 137.01,-1014.86 143.97,-1014.13"/>
</g>
<!-- Node1&#45;&gt;Node33 -->
<g id="edge32" class="edge">
<title>Node1&#45;&gt;Node33</title>
<path fill="none" stroke="black" d="M141.08,-1015.02C150.67,-1086.45 186.49,-1327.25 240,-1380 245.85,-1385.76 253.16,-1389.87 260.92,-1392.78"/>
<polygon fill="black" stroke="black" points="144.5,-1014.19 139.72,-1004.73 137.56,-1015.1 144.5,-1014.19"/>
</g>
<!-- Node1&#45;&gt;Node52 -->
<g id="edge51" class="edge">
<title>Node1&#45;&gt;Node52</title>
<path fill="none" stroke="black" d="M138.42,-1014.87C139.28,-1072.39 149.77,-1240.74 240,-1332 244.6,-1336.65 250.09,-1340.41 255.99,-1343.43"/>
<polygon fill="black" stroke="black" points="141.91,-1014.6 138.35,-1004.62 134.91,-1014.64 141.91,-1014.6"/>
</g>
<!-- Node1&#45;&gt;Node40 -->
<g id="edge39" class="edge">
<title>Node1&#45;&gt;Node40</title>
<path fill="none" stroke="black" d="M138.95,-1014.76C141.29,-1068.46 155.48,-1218.16 240,-1295 243.74,-1298.4 247.99,-1301.19 252.53,-1303.47"/>
<polygon fill="black" stroke="black" points="142.44,-1014.43 138.6,-1004.56 135.45,-1014.67 142.44,-1014.43"/>
</g>
<!-- Node1&#45;&gt;Node44 -->
<g id="edge43" class="edge">
<title>Node1&#45;&gt;Node44</title>
<path fill="none" stroke="black" d="M140.04,-1014.93C144.94,-1064.18 164.68,-1192.36 240,-1258 248.33,-1265.26 259.05,-1269.73 269.81,-1272.44"/>
<polygon fill="black" stroke="black" points="143.5,-1014.33 139.12,-1004.68 136.52,-1014.95 143.5,-1014.33"/>
</g>
<!-- Node1&#45;&gt;Node49 -->
<g id="edge48" class="edge">
<title>Node1&#45;&gt;Node49</title>
<path fill="none" stroke="black" d="M141.36,-1014.49C148.89,-1058.53 173.47,-1166.1 240,-1221 244.1,-1224.39 248.73,-1227.16 253.63,-1229.43"/>
<polygon fill="black" stroke="black" points="144.8,-1013.84 139.76,-1004.52 137.89,-1014.94 144.8,-1013.84"/>
</g>
<!-- Node1&#45;&gt;Node10 -->
<g id="edge9" class="edge">
<title>Node1&#45;&gt;Node10</title>
<path fill="none" stroke="black" d="M143.26,-1014.68C153.72,-1053.47 182.45,-1139.84 240,-1184 246.93,-1189.32 255.17,-1193.1 263.64,-1195.78"/>
<polygon fill="black" stroke="black" points="146.57,-1013.49 140.69,-1004.67 139.79,-1015.23 146.57,-1013.49"/>
</g>
<!-- Node1&#45;&gt;Node13 -->
<g id="edge12" class="edge">
<title>Node1&#45;&gt;Node13</title>
<path fill="none" stroke="black" d="M145.68,-1013.97C159.02,-1046.54 190.83,-1112.89 240,-1147 244.93,-1150.42 250.43,-1153.2 256.15,-1155.45"/>
<polygon fill="black" stroke="black" points="148.93,-1012.68 142,-1004.67 142.42,-1015.25 148.93,-1012.68"/>
</g>
<!-- Node1&#45;&gt;Node21 -->
<g id="edge20" class="edge">
<title>Node1&#45;&gt;Node21</title>
<path fill="none" stroke="black" d="M149.39,-1013.26C165.73,-1038.99 199.07,-1085.5 240,-1110 245.74,-1113.43 252.08,-1116.21 258.59,-1118.46"/>
<polygon fill="black" stroke="black" points="152.22,-1011.17 143.98,-1004.5 146.26,-1014.85 152.22,-1011.17"/>
</g>
<!-- Node1&#45;&gt;Node8 -->
<g id="edge7" class="edge">
<title>Node1&#45;&gt;Node8</title>
<path fill="none" stroke="black" d="M155.17,-1011.48C174.14,-1029.29 206.8,-1057.24 240,-1073 247.89,-1076.74 256.61,-1079.74 265.27,-1082.13"/>
<polygon fill="black" stroke="black" points="157.56,-1008.92 147.92,-1004.53 152.72,-1013.98 157.56,-1008.92"/>
</g>
<!-- Node1&#45;&gt;Node30 -->
<g id="edge29" class="edge">
<title>Node1&#45;&gt;Node30</title>
<path fill="none" stroke="black" d="M168.74,-1008.63C188.69,-1017.27 215.56,-1028.24 240,-1036 252.48,-1039.96 266.36,-1043.49 278.83,-1046.34"/>
<polygon fill="black" stroke="black" points="170.1,-1005.41 159.54,-1004.6 167.29,-1011.82 170.1,-1005.41"/>
</g>
<!-- Node1&#45;&gt;Node39 -->
<g id="edge38" class="edge">
<title>Node1&#45;&gt;Node39</title>
<path fill="none" stroke="black" d="M214.12,-1004.35C226.83,-1005.92 239.91,-1007.53 252.3,-1009.07"/>
<polygon fill="black" stroke="black" points="214.38,-1000.85 204.02,-1003.1 213.52,-1007.8 214.38,-1000.85"/>
</g>
<!-- Node1&#45;&gt;Node17 -->
<g id="edge16" class="edge">
<title>Node1&#45;&gt;Node17</title>
<path fill="none" stroke="black" d="M214.18,-986.07C229,-984.32 244.33,-982.51 258.46,-980.85"/>
<polygon fill="black" stroke="black" points="213.54,-982.62 204.02,-987.27 214.36,-989.57 213.54,-982.62"/>
</g>
<!-- Node1&#45;&gt;Node20 -->
<g id="edge19" class="edge">
<title>Node1&#45;&gt;Node20</title>
<path fill="none" stroke="black" d="M166.75,-980.89C186.82,-971.25 214.62,-958.71 240,-950 250.36,-946.45 261.71,-943.26 272.43,-940.56"/>
<polygon fill="black" stroke="black" points="165.02,-977.83 157.56,-985.35 168.08,-984.13 165.02,-977.83"/>
</g>
<!-- Node1&#45;&gt;Node27 -->
<g id="edge26" class="edge">
<title>Node1&#45;&gt;Node27</title>
<path fill="none" stroke="black" d="M154.37,-978.02C173.05,-959.06 205.88,-928.83 240,-912 248.2,-907.96 257.35,-904.8 266.38,-902.33"/>
<polygon fill="black" stroke="black" points="151.69,-975.76 147.27,-985.38 156.73,-980.62 151.69,-975.76"/>
</g>
<!-- Node1&#45;&gt;Node34 -->
<g id="edge33" class="edge">
<title>Node1&#45;&gt;Node34</title>
<path fill="none" stroke="black" d="M148.74,-976.69C164.66,-950 197.94,-900.78 240,-875 245.58,-871.58 251.76,-868.81 258.12,-866.56"/>
<polygon fill="black" stroke="black" points="145.67,-975.02 143.68,-985.42 151.72,-978.53 145.67,-975.02"/>
</g>
<!-- Node1&#45;&gt;Node47 -->
<g id="edge46" class="edge">
<title>Node1&#45;&gt;Node47</title>
<path fill="none" stroke="black" d="M145.31,-975.89C158.27,-942.43 189.73,-873.43 240,-838 246.47,-833.44 253.93,-830.02 261.61,-827.46"/>
<polygon fill="black" stroke="black" points="141.98,-974.83 141.76,-985.42 148.53,-977.27 141.98,-974.83"/>
</g>
<!-- Node6 -->
<g id="node32" class="node">
<title>Node6</title>
<g id="a_node32"><a xlink:href="group__TIM__Input__Channel__Polarity.html" target="_top" xlink:title=" ">
<polygon fill="white" stroke="black" points="390.5,-792.5 244.5,-792.5 244.5,-773.5 390.5,-773.5 390.5,-792.5"/>
<text text-anchor="middle" x="317.5" y="-780.5" font-family="Helvetica,sans-Serif" font-size="10.00">TIM Input Channel polarity</text>
</a>
</g>
</g>
<!-- Node1&#45;&gt;Node6 -->
<g id="edge5" class="edge">
<title>Node1&#45;&gt;Node6</title>
<path fill="none" stroke="black" d="M142.97,-975.32C153.02,-935.77 181.26,-846.58 240,-801 244.42,-797.57 249.39,-794.78 254.61,-792.51"/>
<polygon fill="black" stroke="black" points="139.56,-974.53 140.61,-985.07 146.37,-976.18 139.56,-974.53"/>
</g>
<!-- Node31 -->
<g id="node33" class="node">
<title>Node31</title>
<g id="a_node33"><a xlink:href="group__TIM__Clock__Source.html" target="_top" xlink:title=" ">
<polygon fill="white" stroke="black" points="368,-755.5 267,-755.5 267,-736.5 368,-736.5 368,-755.5"/>
<text text-anchor="middle" x="317.5" y="-743.5" font-family="Helvetica,sans-Serif" font-size="10.00">TIM Clock Source</text>
</a>
</g>
</g>
<!-- Node1&#45;&gt;Node31 -->
<g id="edge30" class="edge">
<title>Node1&#45;&gt;Node31</title>
<path fill="none" stroke="black" d="M141.17,-975.37C148.35,-930.57 172.33,-820.3 240,-764 247.66,-757.63 257.17,-753.43 266.85,-750.68"/>
<polygon fill="black" stroke="black" points="137.71,-974.87 139.69,-985.28 144.63,-975.91 137.71,-974.87"/>
</g>
<!-- Node28 -->
<g id="node34" class="node">
<title>Node28</title>
<g id="a_node34"><a xlink:href="group__TIM__CC__DMA__Request.html" target="_top" xlink:title=" ">
<polygon fill="white" stroke="black" points="392,-718.5 243,-718.5 243,-699.5 392,-699.5 392,-718.5"/>
<text text-anchor="middle" x="317.5" y="-706.5" font-family="Helvetica,sans-Serif" font-size="10.00">CCx DMA request selection</text>
</a>
</g>
</g>
<!-- Node1&#45;&gt;Node28 -->
<g id="edge27" class="edge">
<title>Node1&#45;&gt;Node28</title>
<path fill="none" stroke="black" d="M139.85,-975.36C144.35,-925.69 163.3,-794.26 240,-727 243.8,-723.67 248.09,-720.93 252.67,-718.67"/>
<polygon fill="black" stroke="black" points="136.35,-975.16 139.04,-985.41 143.33,-975.72 136.35,-975.16"/>
</g>
<!-- Node14 -->
<g id="node35" class="node">
<title>Node14</title>
<g id="a_node35"><a xlink:href="group__TIM__Output__Compare__N__State.html" target="_top" xlink:title=" ">
<polygon fill="white" stroke="black" points="393.5,-681 241.5,-681 241.5,-651 393.5,-651 393.5,-681"/>
<text text-anchor="start" x="249.5" y="-669" font-family="Helvetica,sans-Serif" font-size="10.00">TIM Complementary Output</text>
<text text-anchor="middle" x="317.5" y="-658" font-family="Helvetica,sans-Serif" font-size="10.00"> Compare State</text>
</a>
</g>
</g>
<!-- Node1&#45;&gt;Node14 -->
<g id="edge13" class="edge">
<title>Node1&#45;&gt;Node14</title>
<path fill="none" stroke="black" d="M139.15,-975.25C141.99,-921.51 157.31,-771.27 240,-690 243.47,-686.58 247.43,-683.66 251.67,-681.14"/>
<polygon fill="black" stroke="black" points="135.64,-975.31 138.7,-985.45 142.63,-975.61 135.64,-975.31"/>
</g>
<!-- Node50 -->
<g id="node36" class="node">
<title>Node50</title>
<g id="a_node36"><a xlink:href="group__TIM__DMA__Burst__Length.html" target="_top" xlink:title=" ">
<polygon fill="white" stroke="black" points="380,-632.5 255,-632.5 255,-613.5 380,-613.5 380,-632.5"/>
<text text-anchor="middle" x="317.5" y="-620.5" font-family="Helvetica,sans-Serif" font-size="10.00">TIM DMA Burst Length</text>
</a>
</g>
</g>
<!-- Node1&#45;&gt;Node50 -->
<g id="edge49" class="edge">
<title>Node1&#45;&gt;Node50</title>
<path fill="none" stroke="black" d="M137.83,-975.12C136.97,-915.33 142.95,-735.57 240,-642 244.33,-637.82 249.44,-634.52 254.92,-631.91"/>
<polygon fill="black" stroke="black" points="134.34,-975.5 138.07,-985.41 141.34,-975.33 134.34,-975.5"/>
</g>
<!-- Node16 -->
<g id="node37" class="node">
<title>Node16</title>
<g id="a_node37"><a xlink:href="group__TIM__Output__Compare__N__Polarity.html" target="_top" xlink:title=" ">
<polygon fill="white" stroke="black" points="393.5,-595 241.5,-595 241.5,-565 393.5,-565 393.5,-595"/>
<text text-anchor="start" x="249.5" y="-583" font-family="Helvetica,sans-Serif" font-size="10.00">TIM Complementary Output</text>
<text text-anchor="middle" x="317.5" y="-572" font-family="Helvetica,sans-Serif" font-size="10.00"> Compare Polarity</text>
</a>
</g>
</g>
<!-- Node1&#45;&gt;Node16 -->
<g id="edge15" class="edge">
<title>Node1&#45;&gt;Node16</title>
<path fill="none" stroke="black" d="M141.08,-975.22C150.81,-903.63 187.35,-659.35 240,-604 243.26,-600.57 247.01,-597.63 251.05,-595.11"/>
<polygon fill="black" stroke="black" points="137.61,-974.8 139.75,-985.17 144.55,-975.72 137.61,-974.8"/>
</g>
<!-- Node35 -->
<g id="node39" class="node">
<title>Node35</title>
<g id="a_node39"><a xlink:href="group__TIM__ClearInput__Prescaler.html" target="_top" xlink:title=" ">
<polygon fill="white" stroke="black" points="387,-546.5 248,-546.5 248,-527.5 387,-527.5 387,-546.5"/>
<text text-anchor="middle" x="317.5" y="-534.5" font-family="Helvetica,sans-Serif" font-size="10.00">TIM Clear Input Prescaler</text>
</a>
</g>
</g>
<!-- Node1&#45;&gt;Node35 -->
<g id="edge34" class="edge">
<title>Node1&#45;&gt;Node35</title>
<path fill="none" stroke="black" d="M140.36,-975.24C148.01,-897.96 179.6,-617.39 240,-556 243.74,-552.2 248.12,-549.11 252.85,-546.61"/>
<polygon fill="black" stroke="black" points="136.85,-975.19 139.37,-985.48 143.81,-975.86 136.85,-975.19"/>
</g>
<!-- Node43 -->
<g id="node40" class="node">
<title>Node43</title>
<g id="a_node40"><a xlink:href="group__TIM__Master__Slave__Mode.html" target="_top" xlink:title=" ">
<polygon fill="white" stroke="black" points="383,-509.5 252,-509.5 252,-490.5 383,-490.5 383,-509.5"/>
<text text-anchor="middle" x="317.5" y="-497.5" font-family="Helvetica,sans-Serif" font-size="10.00">TIM Master/Slave Mode</text>
</a>
</g>
</g>
<!-- Node1&#45;&gt;Node43 -->
<g id="edge42" class="edge">
<title>Node1&#45;&gt;Node43</title>
<path fill="none" stroke="black" d="M139.95,-975.11C146.31,-893.44 174.38,-585.04 240,-518 243.44,-514.49 247.42,-511.61 251.73,-509.26"/>
<polygon fill="black" stroke="black" points="136.43,-975.22 139.17,-985.46 143.41,-975.75 136.43,-975.22"/>
</g>
<!-- Node9 -->
<g id="node41" class="node">
<title>Node9</title>
<g id="a_node41"><a xlink:href="group__TIM__Counter__Mode.html" target="_top" xlink:title=" ">
<polygon fill="white" stroke="black" points="370.5,-472.5 264.5,-472.5 264.5,-453.5 370.5,-453.5 370.5,-472.5"/>
<text text-anchor="middle" x="317.5" y="-460.5" font-family="Helvetica,sans-Serif" font-size="10.00">TIM Counter Mode</text>
</a>
</g>
</g>
<!-- Node1&#45;&gt;Node9 -->
<g id="edge8" class="edge">
<title>Node1&#45;&gt;Node9</title>
<path fill="none" stroke="black" d="M139.63,-974.94C144.88,-889.12 169.67,-553.92 240,-481 246.54,-474.22 255.11,-469.79 264.14,-466.94"/>
<polygon fill="black" stroke="black" points="136.13,-974.96 139.03,-985.15 143.11,-975.37 136.13,-974.96"/>
</g>
<!-- Node48 -->
<g id="node42" class="node">
<title>Node48</title>
<g id="a_node42"><a xlink:href="group__TIM__Trigger__Prescaler.html" target="_top" xlink:title=" ">
<polygon fill="white" stroke="black" points="377,-435.5 258,-435.5 258,-416.5 377,-416.5 377,-435.5"/>
<text text-anchor="middle" x="317.5" y="-423.5" font-family="Helvetica,sans-Serif" font-size="10.00">TIM Trigger Prescaler</text>
</a>
</g>
</g>
<!-- Node1&#45;&gt;Node48 -->
<g id="edge47" class="edge">
<title>Node1&#45;&gt;Node48</title>
<path fill="none" stroke="black" d="M139.33,-975.23C143.47,-886.15 164.82,-522.96 240,-444 244.99,-438.76 251.19,-434.92 257.89,-432.13"/>
<polygon fill="black" stroke="black" points="135.83,-975.17 138.88,-985.32 142.82,-975.48 135.83,-975.17"/>
</g>
<!-- Node18 -->
<g id="node43" class="node">
<title>Node18</title>
<g id="a_node43"><a xlink:href="group__TIM__Output__Compare__N__Idle__State.html" target="_top" xlink:title=" ">
<polygon fill="white" stroke="black" points="393.5,-398 241.5,-398 241.5,-368 393.5,-368 393.5,-398"/>
<text text-anchor="start" x="249.5" y="-386" font-family="Helvetica,sans-Serif" font-size="10.00">TIM Complementary Output</text>
<text text-anchor="middle" x="317.5" y="-375" font-family="Helvetica,sans-Serif" font-size="10.00"> Compare Idle State</text>
</a>
</g>
</g>
<!-- Node1&#45;&gt;Node18 -->
<g id="edge17" class="edge">
<title>Node1&#45;&gt;Node18</title>
<path fill="none" stroke="black" d="M139.23,-974.93C143.03,-882.05 163.29,-494.66 240,-407 243.02,-403.54 246.54,-400.58 250.37,-398.04"/>
<polygon fill="black" stroke="black" points="135.73,-975.06 138.83,-985.19 142.72,-975.33 135.73,-975.06"/>
</g>
<!-- Node45 -->
<g id="node44" class="node">
<title>Node45</title>
<g id="a_node44"><a xlink:href="group__TIM__Output__Compare__and__PWM__modes.html" target="_top" xlink:title=" ">
<polygon fill="white" stroke="black" points="376.5,-350 258.5,-350 258.5,-320 376.5,-320 376.5,-350"/>
<text text-anchor="start" x="266.5" y="-338" font-family="Helvetica,sans-Serif" font-size="10.00">TIM Output Compare</text>
<text text-anchor="middle" x="317.5" y="-327" font-family="Helvetica,sans-Serif" font-size="10.00"> and PWM Modes</text>
</a>
</g>
</g>
<!-- Node1&#45;&gt;Node45 -->
<g id="edge44" class="edge">
<title>Node1&#45;&gt;Node45</title>
<path fill="none" stroke="black" d="M138.94,-975.17C141.49,-878.21 157.29,-454.74 240,-359 245,-353.21 251.39,-348.8 258.33,-345.44"/>
<polygon fill="black" stroke="black" points="135.44,-975.25 138.69,-985.33 142.44,-975.42 135.44,-975.25"/>
</g>
<!-- Node51 -->
<g id="node45" class="node">
<title>Node51</title>
<g id="a_node45"><a xlink:href="group__DMA__Handle__index.html" target="_top" xlink:title=" ">
<polygon fill="white" stroke="black" points="381.5,-301.5 253.5,-301.5 253.5,-282.5 381.5,-282.5 381.5,-301.5"/>
<text text-anchor="middle" x="317.5" y="-289.5" font-family="Helvetica,sans-Serif" font-size="10.00">TIM DMA Handle Index</text>
</a>
</g>
</g>
<!-- Node1&#45;&gt;Node51 -->
<g id="edge50" class="edge">
<title>Node1&#45;&gt;Node51</title>
<path fill="none" stroke="black" d="M138.58,-974.87C139.42,-872.64 148.29,-411.97 240,-311 243.77,-306.85 248.3,-303.54 253.24,-300.91"/>
<polygon fill="black" stroke="black" points="135.08,-975.03 138.52,-985.05 142.08,-975.07 135.08,-975.03"/>
</g>
<!-- Node24 -->
<g id="node46" class="node">
<title>Node24</title>
<g id="a_node46"><a xlink:href="group__TIM__Encoder__Mode.html" target="_top" xlink:title=" ">
<polygon fill="white" stroke="black" points="371,-264.5 264,-264.5 264,-245.5 371,-245.5 371,-264.5"/>
<text text-anchor="middle" x="317.5" y="-252.5" font-family="Helvetica,sans-Serif" font-size="10.00">TIM Encoder Mode</text>
</a>
</g>
</g>
<!-- Node1&#45;&gt;Node24 -->
<g id="edge23" class="edge">
<title>Node1&#45;&gt;Node24</title>
<path fill="none" stroke="black" d="M138.39,-975.41C138.19,-870.89 142.55,-379.8 240,-273 246.35,-266.05 254.83,-261.53 263.83,-258.65"/>
<polygon fill="black" stroke="black" points="134.89,-975.5 138.42,-985.49 141.89,-975.48 134.89,-975.5"/>
</g>
<!-- Node7 -->
<g id="node47" class="node">
<title>Node7</title>
<g id="a_node47"><a xlink:href="group__TIM__ETR__Polarity.html" target="_top" xlink:title=" ">
<polygon fill="white" stroke="black" points="366,-227.5 269,-227.5 269,-208.5 366,-208.5 366,-227.5"/>
<text text-anchor="middle" x="317.5" y="-215.5" font-family="Helvetica,sans-Serif" font-size="10.00">TIM ETR Polarity</text>
</a>
</g>
</g>
<!-- Node1&#45;&gt;Node7 -->
<g id="edge6" class="edge">
<title>Node1&#45;&gt;Node7</title>
<path fill="none" stroke="black" d="M138.24,-975.09C137.22,-866.72 137.81,-348.74 240,-236 247.51,-227.71 258.06,-222.88 268.93,-220.15"/>
<polygon fill="black" stroke="black" points="134.74,-975.3 138.35,-985.26 141.74,-975.22 134.74,-975.3"/>
</g>
<!-- Node41 -->
<g id="node48" class="node">
<title>Node41</title>
<g id="a_node48"><a xlink:href="group__TIM__AOE__Bit__Set__Reset.html" target="_top" xlink:title=" ">
<polygon fill="white" stroke="black" points="379.5,-190 255.5,-190 255.5,-160 379.5,-160 379.5,-190"/>
<text text-anchor="start" x="263.5" y="-178" font-family="Helvetica,sans-Serif" font-size="10.00">TIM Automatic Output</text>
<text text-anchor="middle" x="317.5" y="-167" font-family="Helvetica,sans-Serif" font-size="10.00"> Enable</text>
</a>
</g>
</g>
<!-- Node1&#45;&gt;Node41 -->
<g id="edge40" class="edge">
<title>Node1&#45;&gt;Node41</title>
<path fill="none" stroke="black" d="M138.24,-975.3C137.19,-864.7 137.35,-321.66 240,-199 244.2,-193.98 249.43,-190 255.18,-186.84"/>
<polygon fill="black" stroke="black" points="134.74,-975.42 138.35,-985.38 141.74,-975.34 134.74,-975.42"/>
</g>
<!-- Node5 -->
<g id="node49" class="node">
<title>Node5</title>
<g id="a_node49"><a xlink:href="group__TIM__Event__Source.html" target="_top" xlink:title=" ">
<polygon fill="white" stroke="black" points="368,-141.5 267,-141.5 267,-122.5 368,-122.5 368,-141.5"/>
<text text-anchor="middle" x="317.5" y="-129.5" font-family="Helvetica,sans-Serif" font-size="10.00">TIM Event Source</text>
</a>
</g>
</g>
<!-- Node1&#45;&gt;Node5 -->
<g id="edge4" class="edge">
<title>Node1&#45;&gt;Node5</title>
<path fill="none" stroke="black" d="M139.53,-975.48C146.09,-854.95 183.39,-215.09 240,-151 246.98,-143.1 256.68,-138.24 266.83,-135.29"/>
<polygon fill="black" stroke="black" points="136.04,-975.31 139,-985.48 143.03,-975.69 136.04,-975.31"/>
</g>
<!-- Node38 -->
<g id="node50" class="node">
<title>Node38</title>
<g id="a_node50"><a xlink:href="group__TIM__Lock__level.html" target="_top" xlink:title=" ">
<polygon fill="white" stroke="black" points="361,-104.5 274,-104.5 274,-85.5 361,-85.5 361,-104.5"/>
<text text-anchor="middle" x="317.5" y="-92.5" font-family="Helvetica,sans-Serif" font-size="10.00">TIM Lock level</text>
</a>
</g>
</g>
<!-- Node1&#45;&gt;Node38 -->
<g id="edge37" class="edge">
<title>Node1&#45;&gt;Node38</title>
<path fill="none" stroke="black" d="M139.44,-974.98C145.49,-849.99 180.57,-179.79 240,-113 248.53,-103.42 261.1,-98.45 273.61,-95.99"/>
<polygon fill="black" stroke="black" points="135.93,-975.18 138.95,-985.34 142.92,-975.52 135.93,-975.18"/>
</g>
<!-- Node32 -->
<g id="node51" class="node">
<title>Node32</title>
<g id="a_node51"><a xlink:href="group__TIM__Clock__Polarity.html" target="_top" xlink:title=" ">
<polygon fill="white" stroke="black" points="370,-67.5 265,-67.5 265,-48.5 370,-48.5 370,-67.5"/>
<text text-anchor="middle" x="317.5" y="-55.5" font-family="Helvetica,sans-Serif" font-size="10.00">TIM Clock Polarity</text>
</a>
</g>
</g>
<!-- Node1&#45;&gt;Node32 -->
<g id="edge31" class="edge">
<title>Node1&#45;&gt;Node32</title>
<path fill="none" stroke="black" d="M139.35,-974.94C144.92,-846.8 178.14,-145.84 240,-76 246.51,-68.65 255.41,-64 264.84,-61.13"/>
<polygon fill="black" stroke="black" points="135.84,-975.09 138.9,-985.23 142.83,-975.39 135.84,-975.09"/>
</g>
<!-- Node11 -->
<g id="node52" class="node">
<title>Node11</title>
<g id="a_node52"><a xlink:href="group__TIM__Output__Compare__State.html" target="_top" xlink:title=" ">
<polygon fill="white" stroke="black" points="376.5,-30 258.5,-30 258.5,0 376.5,0 376.5,-30"/>
<text text-anchor="start" x="266.5" y="-18" font-family="Helvetica,sans-Serif" font-size="10.00">TIM Output Compare</text>
<text text-anchor="middle" x="317.5" y="-7" font-family="Helvetica,sans-Serif" font-size="10.00"> State</text>
</a>
</g>
</g>
<!-- Node1&#45;&gt;Node11 -->
<g id="edge10" class="edge">
<title>Node1&#45;&gt;Node11</title>
<path fill="none" stroke="black" d="M139.3,-975.41C144.79,-845.78 178.34,-114.28 240,-39 244.94,-32.97 251.38,-28.43 258.42,-25.02"/>
<polygon fill="black" stroke="black" points="135.8,-975.33 138.88,-985.47 142.8,-975.62 135.8,-975.33"/>
</g>
<!-- Node2 -->
<g id="node38" class="node">
<title>Node2</title>
<g id="a_node38"><a xlink:href="group__TIM.html" target="_top" xlink:title="TIM HAL module driver.">
<polygon fill="white" stroke="black" points="35,-1004.5 0,-1004.5 0,-985.5 35,-985.5 35,-1004.5"/>
<text text-anchor="middle" x="17.5" y="-992.5" font-family="Helvetica,sans-Serif" font-size="10.00">TIM</text>
</a>
</g>
</g>
<!-- Node2&#45;&gt;Node1 -->
<g id="edge1" class="edge">
<title>Node2&#45;&gt;Node1</title>
<path fill="none" stroke="black" d="M45.33,-995C53.09,-995 61.93,-995 70.97,-995"/>
<polygon fill="black" stroke="black" points="45.16,-991.5 35.16,-995 45.16,-998.5 45.16,-991.5"/>
</g>
</g>
</svg>
        <g id="navigator" transform="translate(0 0)" fill="#404254">
                <rect fill="#f2f5e9" fill-opacity="0.5" stroke="#606060" stroke-width=".5" x="0" y="0" width="60" height="60"/>
                <use id="zoomplus" xlink:href="#zoomPlus" x="17" y="9" onmousedown="handleZoom(evt,'in')"/>
                <use id="zoomminus" xlink:href="#zoomMin" x="42" y="9" onmousedown="handleZoom(evt,'out')"/>
                <use id="reset" xlink:href="#resetDef" x="30" y="36" onmousedown="handleReset()"/>
                <g id="arrowUp" xlink:href="#dirArrow" transform="translate(30 24)" onmousedown="handlePan(0,-1)">
                  <use xlink:href="#rim" fill="#404040">
                        <set attributeName="fill" to="#808080" begin="arrowUp.mouseover" end="arrowUp.mouseout"/>
                  </use>
                  <path fill="none" stroke="white" stroke-width="1.5" d="M0,-3.0v7 M-2.5,-0.5L0,-3.0L2.5,-0.5"/>
                </g>
                <g id="arrowRight" xlink:href="#dirArrow" transform="rotate(90) translate(36 -43)" onmousedown="handlePan(1,0)">
                  <use xlink:href="#rim" fill="#404040">
                        <set attributeName="fill" to="#808080" begin="arrowRight.mouseover" end="arrowRight.mouseout"/>
                  </use>
                  <path fill="none" stroke="white" stroke-width="1.5" d="M0,-3.0v7 M-2.5,-0.5L0,-3.0L2.5,-0.5"/>
                </g>
                <g id="arrowDown" xlink:href="#dirArrow" transform="rotate(180) translate(-30 -48)" onmousedown="handlePan(0,1)">
                  <use xlink:href="#rim" fill="#404040">
                        <set attributeName="fill" to="#808080" begin="arrowDown.mouseover" end="arrowDown.mouseout"/>
                  </use>
                  <path fill="none" stroke="white" stroke-width="1.5" d="M0,-3.0v7 M-2.5,-0.5L0,-3.0L2.5,-0.5"/>
                </g>
                <g id="arrowLeft" xlink:href="#dirArrow" transform="rotate(270) translate(-36 17)" onmousedown="handlePan(-1,0)">
                  <use xlink:href="#rim" fill="#404040">
                        <set attributeName="fill" to="#808080" begin="arrowLeft.mouseover" end="arrowLeft.mouseout"/>
                  </use>
                  <path fill="none" stroke="white" stroke-width="1.5" d="M0,-3.0v7 M-2.5,-0.5L0,-3.0L2.5,-0.5"/>
                </g>
        </g>
        <svg viewBox="0 0 15 15" width="100%" height="30px" preserveAspectRatio="xMaxYMin meet">
         <g id="arrow_out" transform="scale(0.3 0.3)">
          <a xlink:href="group__TIM__Exported__Constants_org.svg" target="_base">
           <rect id="button" ry="5" rx="5" y="6" x="6" height="38" width="38"
                fill="#f2f5e9" fill-opacity="0.5" stroke="#606060" stroke-width="1.0"/>
           <path id="arrow"
             d="M 11.500037,31.436501 C 11.940474,20.09759 22.043105,11.32322 32.158766,21.979434 L 37.068811,17.246167 C 37.068811,17.246167 37.088388,32 37.088388,32 L 22.160133,31.978069 C 22.160133,31.978069 26.997745,27.140456 26.997745,27.140456 C 18.528582,18.264221 13.291696,25.230495 11.500037,31.436501 z"
             style="fill:#404040;"/>
          </a>
         </g>
        </svg>
</svg>
