<?xml version="1.0" encoding="UTF-8" standalone="no"?>
<!DOCTYPE svg PUBLIC "-//W3C//DTD SVG 1.1//EN"
 "http://www.w3.org/Graphics/SVG/1.1/DTD/svg11.dtd">
<!-- Generated by graphviz version 2.43.0 (0)
 -->
<!-- Title: RTCEx Exported Constants Pages: 1 -->
<!--zoomable 824 -->
<svg id="main" version="1.1" xmlns="http://www.w3.org/2000/svg" xmlns:xlink="http://www.w3.org/1999/xlink" xml:space="preserve" onload="init(evt)">
<style type="text/css"><![CDATA[
.edge:hover path { stroke: red; }
.edge:hover polygon { stroke: red; fill: red; }
]]></style>
<script type="text/javascript"><![CDATA[
var edges = document.getElementsByTagName('g');
if (edges && edges.length) {
  for (var i=0;i<edges.length;i++) {
    if (edges[i].id.substr(0,4)=='edge') {
      edges[i].setAttribute('class','edge');
    }
  }
}
]]></script>
        <defs>
                <circle id="rim" cx="0" cy="0" r="7"/>
                <circle id="rim2" cx="0" cy="0" r="3.5"/>
                <g id="zoomPlus">
                        <use xlink:href="#rim" fill="#404040">
                                <set attributeName="fill" to="#808080" begin="zoomplus.mouseover" end="zoomplus.mouseout"/>
                        </use>
                        <path d="M-4,0h8M0,-4v8" fill="none" stroke="white" stroke-width="1.5" pointer-events="none"/>
                </g>
                <g id="zoomMin">
                        <use xlink:href="#rim" fill="#404040">
                                <set attributeName="fill" to="#808080" begin="zoomminus.mouseover" end="zoomminus.mouseout"/>
                        </use>
                        <path d="M-4,0h8" fill="none" stroke="white" stroke-width="1.5" pointer-events="none"/>
                </g>
                <g id="dirArrow">
                        <path fill="none" stroke="white" stroke-width="1.5" d="M0,-3.0v7 M-2.5,-0.5L0,-3.0L2.5,-0.5"/>
                </g>
               <g id="resetDef">
                       <use xlink:href="#rim2" fill="#404040">
                               <set attributeName="fill" to="#808080" begin="reset.mouseover" end="reset.mouseout"/>
                       </use>
               </g>
        </defs>

<script type="text/javascript">
var viewWidth = 450;
var viewHeight = 824;
var sectionId = 'dynsection-0';
</script>
<script xlink:href="svgpan.js"/>
<svg id="graph" class="graph">
<g id="viewport">
<title>RTCEx Exported Constants</title>
<polygon fill="white" stroke="transparent" points="-4,4 -4,-820 446,-820 446,4 -4,4"/>
<!-- Node10 -->
<g id="node1" class="node">
<title>Node10</title>
<g id="a_node1"><a xlink:href="group__RTCEx__Tamper__Filter__Definitions.html" target="_top" xlink:title=" ">
<polygon fill="white" stroke="black" points="409.5,-816 296.5,-816 296.5,-786 409.5,-786 409.5,-816"/>
<text text-anchor="start" x="304.5" y="-804" font-family="Helvetica,sans-Serif" font-size="10.00">RTCEx Tamper Filter</text>
<text text-anchor="middle" x="353" y="-793" font-family="Helvetica,sans-Serif" font-size="10.00"> Definitions</text>
</a>
</g>
</g>
<!-- Node9 -->
<g id="node2" class="node">
<title>Node9</title>
<g id="a_node2"><a xlink:href="group__RTCEx__Tamper__Trigger__Definitions.html" target="_top" xlink:title=" ">
<polygon fill="white" stroke="black" points="416.5,-768 289.5,-768 289.5,-738 416.5,-738 416.5,-768"/>
<text text-anchor="start" x="297.5" y="-756" font-family="Helvetica,sans-Serif" font-size="10.00">RTCEx Tamper Triggers</text>
<text text-anchor="middle" x="353" y="-745" font-family="Helvetica,sans-Serif" font-size="10.00"> Definitions</text>
</a>
</g>
</g>
<!-- Node5 -->
<g id="node3" class="node">
<title>Node5</title>
<g id="a_node3"><a xlink:href="group__RTCEx__Timestamp__Pin__Selection.html" target="_top" xlink:title=" ">
<polygon fill="white" stroke="black" points="432.5,-719.5 273.5,-719.5 273.5,-700.5 432.5,-700.5 432.5,-719.5"/>
<text text-anchor="middle" x="353" y="-707.5" font-family="Helvetica,sans-Serif" font-size="10.00">RTC Timestamp Pin Selection</text>
</a>
</g>
</g>
<!-- Node16 -->
<g id="node4" class="node">
<title>Node16</title>
<g id="a_node4"><a xlink:href="group__RTCEx__Coarse__Calibration__Definitions.html" target="_top" xlink:title=" ">
<polygon fill="white" stroke="black" points="408.5,-682 297.5,-682 297.5,-652 408.5,-652 408.5,-682"/>
<text text-anchor="start" x="305.5" y="-670" font-family="Helvetica,sans-Serif" font-size="10.00">RTCEx Coarse Calib</text>
<text text-anchor="middle" x="353" y="-659" font-family="Helvetica,sans-Serif" font-size="10.00"> Definitions</text>
</a>
</g>
</g>
<!-- Node11 -->
<g id="node5" class="node">
<title>Node11</title>
<g id="a_node5"><a xlink:href="group__RTCEx__Tamper__Sampling__Frequencies__Definitions.html" target="_top" xlink:title=" ">
<polygon fill="white" stroke="black" points="420,-634 286,-634 286,-604 420,-604 420,-634"/>
<text text-anchor="start" x="294" y="-622" font-family="Helvetica,sans-Serif" font-size="10.00">RTCEx Tamper Sampling</text>
<text text-anchor="middle" x="353" y="-611" font-family="Helvetica,sans-Serif" font-size="10.00"> Frequencies Definitions</text>
</a>
</g>
</g>
<!-- Node2 -->
<g id="node6" class="node">
<title>Node2</title>
<g id="a_node6"><a xlink:href="group__RTCEx.html" target="_top" xlink:title="RTC Extended HAL module driver.">
<polygon fill="white" stroke="black" points="47,-414.5 0,-414.5 0,-395.5 47,-395.5 47,-414.5"/>
<text text-anchor="middle" x="23.5" y="-402.5" font-family="Helvetica,sans-Serif" font-size="10.00">RTCEx</text>
</a>
</g>
</g>
<!-- Node1 -->
<g id="node16" class="node">
<title>Node1</title>
<g id="a_node16"><a xlink:title=" ">
<polygon fill="#bfbfbf" stroke="black" points="228,-414.5 83,-414.5 83,-395.5 228,-395.5 228,-414.5"/>
<text text-anchor="middle" x="155.5" y="-402.5" font-family="Helvetica,sans-Serif" font-size="10.00">RTCEx Exported Constants</text>
</a>
</g>
</g>
<!-- Node2&#45;&gt;Node1 -->
<g id="edge1" class="edge">
<title>Node2&#45;&gt;Node1</title>
<path fill="none" stroke="black" d="M57.35,-405C65.26,-405 74.03,-405 82.96,-405"/>
<polygon fill="black" stroke="black" points="57.14,-401.5 47.14,-405 57.14,-408.5 57.14,-401.5"/>
</g>
<!-- Node18 -->
<g id="node7" class="node">
<title>Node18</title>
<g id="a_node7"><a xlink:href="group__RTCEx__Smooth__calib__Plus__pulses__Definitions.html" target="_top" xlink:title=" ">
<polygon fill="white" stroke="black" points="418,-586 288,-586 288,-556 418,-556 418,-586"/>
<text text-anchor="start" x="296" y="-574" font-family="Helvetica,sans-Serif" font-size="10.00">RTCEx Smooth Calib</text>
<text text-anchor="middle" x="353" y="-563" font-family="Helvetica,sans-Serif" font-size="10.00"> Plus Pulses Definitions</text>
</a>
</g>
</g>
<!-- Node19 -->
<g id="node8" class="node">
<title>Node19</title>
<g id="a_node8"><a xlink:href="group__RTCEx__Add__1__Second__Parameter__Definitions.html" target="_top" xlink:title=" ">
<polygon fill="white" stroke="black" points="415.5,-538 290.5,-538 290.5,-508 415.5,-508 415.5,-538"/>
<text text-anchor="start" x="298.5" y="-526" font-family="Helvetica,sans-Serif" font-size="10.00">RTCEx Add 1 Second</text>
<text text-anchor="middle" x="353" y="-515" font-family="Helvetica,sans-Serif" font-size="10.00"> Parameter Definitions</text>
</a>
</g>
</g>
<!-- Node13 -->
<g id="node9" class="node">
<title>Node13</title>
<g id="a_node9"><a xlink:href="group__RTCEx__Tamper__Pull__Up__Definitions.html" target="_top" xlink:title=" ">
<polygon fill="white" stroke="black" points="414.5,-490 291.5,-490 291.5,-460 414.5,-460 414.5,-490"/>
<text text-anchor="start" x="299.5" y="-478" font-family="Helvetica,sans-Serif" font-size="10.00">RTCEx Tamper Pull Up</text>
<text text-anchor="middle" x="353" y="-467" font-family="Helvetica,sans-Serif" font-size="10.00"> Definitions</text>
</a>
</g>
</g>
<!-- Node3 -->
<g id="node10" class="node">
<title>Node3</title>
<g id="a_node10"><a xlink:href="group__RTCEx__Backup__Registers__Definitions.html" target="_top" xlink:title=" ">
<polygon fill="white" stroke="black" points="420,-442 286,-442 286,-412 420,-412 420,-442"/>
<text text-anchor="start" x="294" y="-430" font-family="Helvetica,sans-Serif" font-size="10.00">RTCEx Backup Registers</text>
<text text-anchor="middle" x="353" y="-419" font-family="Helvetica,sans-Serif" font-size="10.00"> Definitions</text>
</a>
</g>
</g>
<!-- Node6 -->
<g id="node11" class="node">
<title>Node6</title>
<g id="a_node11"><a xlink:href="group__RTCEx__Tamper__Pin__Definitions.html" target="_top" xlink:title=" ">
<polygon fill="white" stroke="black" points="435,-393.5 271,-393.5 271,-374.5 435,-374.5 435,-393.5"/>
<text text-anchor="middle" x="353" y="-381.5" font-family="Helvetica,sans-Serif" font-size="10.00">RTCEx Tamper Pins Definitions</text>
</a>
</g>
</g>
<!-- Node4 -->
<g id="node12" class="node">
<title>Node4</title>
<g id="a_node12"><a xlink:href="group__RTCEx__Timestamp__Edges__Definitions.html" target="_top" xlink:title=" ">
<polygon fill="white" stroke="black" points="421.5,-356 284.5,-356 284.5,-326 421.5,-326 421.5,-356"/>
<text text-anchor="start" x="292.5" y="-344" font-family="Helvetica,sans-Serif" font-size="10.00">RTCEx Timestamp Edges</text>
<text text-anchor="middle" x="353" y="-333" font-family="Helvetica,sans-Serif" font-size="10.00"> Definitions</text>
</a>
</g>
</g>
<!-- Node15 -->
<g id="node13" class="node">
<title>Node15</title>
<g id="a_node13"><a xlink:href="group__RTCEx__Wakeup__Timer__Definitions.html" target="_top" xlink:title=" ">
<polygon fill="white" stroke="black" points="412.5,-308 293.5,-308 293.5,-278 412.5,-278 412.5,-308"/>
<text text-anchor="start" x="301.5" y="-296" font-family="Helvetica,sans-Serif" font-size="10.00">RTCEx Wakeup Timer</text>
<text text-anchor="middle" x="353" y="-285" font-family="Helvetica,sans-Serif" font-size="10.00"> Definitions</text>
</a>
</g>
</g>
<!-- Node20 -->
<g id="node14" class="node">
<title>Node20</title>
<g id="a_node14"><a xlink:href="group__RTCEx__Calib__Output__selection__Definitions.html" target="_top" xlink:title=" ">
<polygon fill="white" stroke="black" points="413,-260 293,-260 293,-230 413,-230 413,-260"/>
<text text-anchor="start" x="301" y="-248" font-family="Helvetica,sans-Serif" font-size="10.00">RTCEx Calib Output</text>
<text text-anchor="middle" x="353" y="-237" font-family="Helvetica,sans-Serif" font-size="10.00"> Selection Definitions</text>
</a>
</g>
</g>
<!-- Node8 -->
<g id="node15" class="node">
<title>Node8</title>
<g id="a_node15"><a xlink:href="group__RTCEx__Tamper__Interrupt__Definitions.html" target="_top" xlink:title=" ">
<polygon fill="white" stroke="black" points="418.5,-212 287.5,-212 287.5,-182 418.5,-182 418.5,-212"/>
<text text-anchor="start" x="295.5" y="-200" font-family="Helvetica,sans-Serif" font-size="10.00">RTCEx Tamper Interrupt</text>
<text text-anchor="middle" x="353" y="-189" font-family="Helvetica,sans-Serif" font-size="10.00"> Definitions</text>
</a>
</g>
</g>
<!-- Node1&#45;&gt;Node10 -->
<g id="edge9" class="edge">
<title>Node1&#45;&gt;Node10</title>
<path fill="none" stroke="black" d="M155.94,-425.05C155.35,-486.94 162.32,-676.84 264,-777 272.8,-785.67 284.41,-791.28 296.29,-794.9"/>
<polygon fill="black" stroke="black" points="159.44,-424.8 156.12,-414.74 152.45,-424.67 159.44,-424.8"/>
</g>
<!-- Node1&#45;&gt;Node9 -->
<g id="edge8" class="edge">
<title>Node1&#45;&gt;Node9</title>
<path fill="none" stroke="black" d="M156.93,-424.68C159.25,-480.9 173.84,-643.59 264,-729 271.13,-735.75 279.96,-740.64 289.26,-744.17"/>
<polygon fill="black" stroke="black" points="160.42,-424.52 156.6,-414.64 153.43,-424.75 160.42,-424.52"/>
</g>
<!-- Node1&#45;&gt;Node5 -->
<g id="edge4" class="edge">
<title>Node1&#45;&gt;Node5</title>
<path fill="none" stroke="black" d="M157.71,-425C162,-477.38 181.11,-619.48 264,-691 268.38,-694.78 273.33,-697.86 278.6,-700.37"/>
<polygon fill="black" stroke="black" points="161.18,-424.45 156.97,-414.72 154.2,-424.95 161.18,-424.45"/>
</g>
<!-- Node1&#45;&gt;Node16 -->
<g id="edge15" class="edge">
<title>Node1&#45;&gt;Node16</title>
<path fill="none" stroke="black" d="M159.66,-425.07C167.95,-470.9 194.69,-583.86 264,-643 273.4,-651.02 285.24,-656.38 297.16,-659.95"/>
<polygon fill="black" stroke="black" points="163.06,-424.2 157.93,-414.93 156.16,-425.38 163.06,-424.2"/>
</g>
<!-- Node1&#45;&gt;Node11 -->
<g id="edge10" class="edge">
<title>Node1&#45;&gt;Node11</title>
<path fill="none" stroke="black" d="M162.01,-424.63C173.9,-463.34 205.73,-549.68 264,-595 270.5,-600.06 277.99,-604.05 285.8,-607.2"/>
<polygon fill="black" stroke="black" points="165.25,-423.24 159.06,-414.64 158.53,-425.22 165.25,-423.24"/>
</g>
<!-- Node1&#45;&gt;Node18 -->
<g id="edge17" class="edge">
<title>Node1&#45;&gt;Node18</title>
<path fill="none" stroke="black" d="M165.54,-423.83C181.21,-454.44 216.36,-514.79 264,-547 271.22,-551.88 279.39,-555.77 287.78,-558.87"/>
<polygon fill="black" stroke="black" points="168.57,-422.07 160.98,-414.68 162.3,-425.19 168.57,-422.07"/>
</g>
<!-- Node1&#45;&gt;Node19 -->
<g id="edge18" class="edge">
<title>Node1&#45;&gt;Node19</title>
<path fill="none" stroke="black" d="M171.44,-422.15C190.75,-443.28 226.39,-478.82 264,-499 272.23,-503.42 281.35,-507.07 290.49,-510.08"/>
<polygon fill="black" stroke="black" points="173.93,-419.69 164.65,-414.58 168.71,-424.36 173.93,-419.69"/>
</g>
<!-- Node1&#45;&gt;Node13 -->
<g id="edge12" class="edge">
<title>Node1&#45;&gt;Node13</title>
<path fill="none" stroke="black" d="M185.96,-418.91C207.32,-428.68 237.07,-441.62 264,-451 273.12,-454.18 282.89,-457.2 292.49,-459.97"/>
<polygon fill="black" stroke="black" points="187.32,-415.69 176.78,-414.67 184.39,-422.04 187.32,-415.69"/>
</g>
<!-- Node1&#45;&gt;Node3 -->
<g id="edge2" class="edge">
<title>Node1&#45;&gt;Node3</title>
<path fill="none" stroke="black" d="M238.47,-414.22C254.26,-416 270.62,-417.84 285.84,-419.55"/>
<polygon fill="black" stroke="black" points="238.52,-410.71 228.19,-413.07 237.73,-417.66 238.52,-410.71"/>
</g>
<!-- Node1&#45;&gt;Node6 -->
<g id="edge5" class="edge">
<title>Node1&#45;&gt;Node6</title>
<path fill="none" stroke="black" d="M238.36,-396.21C249.07,-395.06 260.04,-393.88 270.74,-392.73"/>
<polygon fill="black" stroke="black" points="237.76,-392.75 228.19,-397.3 238.5,-399.71 237.76,-392.75"/>
</g>
<!-- Node1&#45;&gt;Node4 -->
<g id="edge3" class="edge">
<title>Node1&#45;&gt;Node4</title>
<path fill="none" stroke="black" d="M189.67,-391.78C210.78,-383.58 238.8,-373.11 264,-365 273.65,-361.9 283.97,-358.84 294.03,-356.01"/>
<polygon fill="black" stroke="black" points="188.23,-388.58 180.19,-395.48 190.78,-395.1 188.23,-388.58"/>
</g>
<!-- Node1&#45;&gt;Node15 -->
<g id="edge14" class="edge">
<title>Node1&#45;&gt;Node15</title>
<path fill="none" stroke="black" d="M172.58,-388.07C192.32,-368.24 227.67,-335.74 264,-317 273.15,-312.28 283.32,-308.41 293.42,-305.27"/>
<polygon fill="black" stroke="black" points="170.07,-385.63 165.58,-395.23 175.07,-390.52 170.07,-385.63"/>
</g>
<!-- Node1&#45;&gt;Node20 -->
<g id="edge19" class="edge">
<title>Node1&#45;&gt;Node20</title>
<path fill="none" stroke="black" d="M165.98,-386.54C182.07,-357.1 217.53,-299.72 264,-269 272.72,-263.24 282.79,-258.85 292.94,-255.51"/>
<polygon fill="black" stroke="black" points="162.89,-384.9 161.28,-395.38 169.07,-388.19 162.89,-384.9"/>
</g>
<!-- Node1&#45;&gt;Node8 -->
<g id="edge7" class="edge">
<title>Node1&#45;&gt;Node8</title>
<path fill="none" stroke="black" d="M162.37,-385.46C174.72,-347.7 207.08,-264.64 264,-221 270.91,-215.7 278.92,-211.57 287.22,-208.35"/>
<polygon fill="black" stroke="black" points="158.95,-384.64 159.29,-395.23 165.63,-386.74 158.95,-384.64"/>
</g>
<!-- Node14 -->
<g id="node17" class="node">
<title>Node14</title>
<g id="a_node17"><a xlink:href="group__RTCEx__Tamper__TimeStampOnTamperDetection__Definitions.html" target="_top" xlink:title=" ">
<polygon fill="white" stroke="black" points="442,-164 264,-164 264,-134 442,-134 442,-164"/>
<text text-anchor="start" x="272" y="-152" font-family="Helvetica,sans-Serif" font-size="10.00">RTCEx Tamper TimeStamp</text>
<text text-anchor="middle" x="353" y="-141" font-family="Helvetica,sans-Serif" font-size="10.00"> On Tamper Detection Definitions</text>
</a>
</g>
</g>
<!-- Node1&#45;&gt;Node14 -->
<g id="edge13" class="edge">
<title>Node1&#45;&gt;Node14</title>
<path fill="none" stroke="black" d="M159.82,-385.43C168.45,-340.73 195.86,-230.58 264,-173 268.11,-169.52 272.69,-166.55 277.52,-164"/>
<polygon fill="black" stroke="black" points="156.37,-384.84 158.02,-395.31 163.26,-386.1 156.37,-384.84"/>
</g>
<!-- Node7 -->
<g id="node18" class="node">
<title>Node7</title>
<g id="a_node18"><a xlink:href="group__RTCEx__Tamper__Pin__Selection.html" target="_top" xlink:title=" ">
<polygon fill="white" stroke="black" points="425,-115.5 281,-115.5 281,-96.5 425,-96.5 425,-115.5"/>
<text text-anchor="middle" x="353" y="-103.5" font-family="Helvetica,sans-Serif" font-size="10.00">RTC tamper Pins Selection</text>
</a>
</g>
</g>
<!-- Node1&#45;&gt;Node7 -->
<g id="edge6" class="edge">
<title>Node1&#45;&gt;Node7</title>
<path fill="none" stroke="black" d="M157.85,-385.41C162.5,-334.1 182.39,-194.92 264,-125 268.98,-120.73 274.7,-117.35 280.78,-114.68"/>
<polygon fill="black" stroke="black" points="154.36,-385.23 157.04,-395.48 161.33,-385.79 154.36,-385.23"/>
</g>
<!-- Node17 -->
<g id="node19" class="node">
<title>Node17</title>
<g id="a_node19"><a xlink:href="group__RTCEx__Smooth__calib__period__Definitions.html" target="_top" xlink:title=" ">
<polygon fill="white" stroke="black" points="410.5,-78 295.5,-78 295.5,-48 410.5,-48 410.5,-78"/>
<text text-anchor="start" x="303.5" y="-66" font-family="Helvetica,sans-Serif" font-size="10.00">RTCEx Smooth Calib</text>
<text text-anchor="middle" x="353" y="-55" font-family="Helvetica,sans-Serif" font-size="10.00"> Period Definitions</text>
</a>
</g>
</g>
<!-- Node1&#45;&gt;Node17 -->
<g id="edge16" class="edge">
<title>Node1&#45;&gt;Node17</title>
<path fill="none" stroke="black" d="M157.09,-384.95C159.85,-329.1 175.49,-170.38 264,-87 272.65,-78.86 283.78,-73.42 295.2,-69.81"/>
<polygon fill="black" stroke="black" points="153.58,-385.11 156.67,-395.24 160.57,-385.39 153.58,-385.11"/>
</g>
<!-- Node12 -->
<g id="node20" class="node">
<title>Node12</title>
<g id="a_node20"><a xlink:href="group__RTCEx__Tamper__Pin__Precharge__Duration__Definitions.html" target="_top" xlink:title=" ">
<polygon fill="white" stroke="black" points="430.5,-30 275.5,-30 275.5,0 430.5,0 430.5,-30"/>
<text text-anchor="start" x="283.5" y="-18" font-family="Helvetica,sans-Serif" font-size="10.00">RTCEx Tamper Pin Precharge</text>
<text text-anchor="middle" x="353" y="-7" font-family="Helvetica,sans-Serif" font-size="10.00"> Duration Definitions</text>
</a>
</g>
</g>
<!-- Node1&#45;&gt;Node12 -->
<g id="edge11" class="edge">
<title>Node1&#45;&gt;Node12</title>
<path fill="none" stroke="black" d="M156.05,-385.27C155.8,-324.35 163.61,-137.45 264,-39 267.5,-35.56 271.45,-32.61 275.68,-30.06"/>
<polygon fill="black" stroke="black" points="152.56,-385.46 156.18,-395.42 159.55,-385.37 152.56,-385.46"/>
</g>
</g>
</svg>
        <g id="navigator" transform="translate(0 0)" fill="#404254">
                <rect fill="#f2f5e9" fill-opacity="0.5" stroke="#606060" stroke-width=".5" x="0" y="0" width="60" height="60"/>
                <use id="zoomplus" xlink:href="#zoomPlus" x="17" y="9" onmousedown="handleZoom(evt,'in')"/>
                <use id="zoomminus" xlink:href="#zoomMin" x="42" y="9" onmousedown="handleZoom(evt,'out')"/>
                <use id="reset" xlink:href="#resetDef" x="30" y="36" onmousedown="handleReset()"/>
                <g id="arrowUp" xlink:href="#dirArrow" transform="translate(30 24)" onmousedown="handlePan(0,-1)">
                  <use xlink:href="#rim" fill="#404040">
                        <set attributeName="fill" to="#808080" begin="arrowUp.mouseover" end="arrowUp.mouseout"/>
                  </use>
                  <path fill="none" stroke="white" stroke-width="1.5" d="M0,-3.0v7 M-2.5,-0.5L0,-3.0L2.5,-0.5"/>
                </g>
                <g id="arrowRight" xlink:href="#dirArrow" transform="rotate(90) translate(36 -43)" onmousedown="handlePan(1,0)">
                  <use xlink:href="#rim" fill="#404040">
                        <set attributeName="fill" to="#808080" begin="arrowRight.mouseover" end="arrowRight.mouseout"/>
                  </use>
                  <path fill="none" stroke="white" stroke-width="1.5" d="M0,-3.0v7 M-2.5,-0.5L0,-3.0L2.5,-0.5"/>
                </g>
                <g id="arrowDown" xlink:href="#dirArrow" transform="rotate(180) translate(-30 -48)" onmousedown="handlePan(0,1)">
                  <use xlink:href="#rim" fill="#404040">
                        <set attributeName="fill" to="#808080" begin="arrowDown.mouseover" end="arrowDown.mouseout"/>
                  </use>
                  <path fill="none" stroke="white" stroke-width="1.5" d="M0,-3.0v7 M-2.5,-0.5L0,-3.0L2.5,-0.5"/>
                </g>
                <g id="arrowLeft" xlink:href="#dirArrow" transform="rotate(270) translate(-36 17)" onmousedown="handlePan(-1,0)">
                  <use xlink:href="#rim" fill="#404040">
                        <set attributeName="fill" to="#808080" begin="arrowLeft.mouseover" end="arrowLeft.mouseout"/>
                  </use>
                  <path fill="none" stroke="white" stroke-width="1.5" d="M0,-3.0v7 M-2.5,-0.5L0,-3.0L2.5,-0.5"/>
                </g>
        </g>
        <svg viewBox="0 0 15 15" width="100%" height="30px" preserveAspectRatio="xMaxYMin meet">
         <g id="arrow_out" transform="scale(0.3 0.3)">
          <a xlink:href="group__RTCEx__Exported__Constants_org.svg" target="_base">
           <rect id="button" ry="5" rx="5" y="6" x="6" height="38" width="38"
                fill="#f2f5e9" fill-opacity="0.5" stroke="#606060" stroke-width="1.0"/>
           <path id="arrow"
             d="M 11.500037,31.436501 C 11.940474,20.09759 22.043105,11.32322 32.158766,21.979434 L 37.068811,17.246167 C 37.068811,17.246167 37.088388,32 37.088388,32 L 22.160133,31.978069 C 22.160133,31.978069 26.997745,27.140456 26.997745,27.140456 C 18.528582,18.264221 13.291696,25.230495 11.500037,31.436501 z"
             style="fill:#404040;"/>
          </a>
         </g>
        </svg>
</svg>
