<?xml version="1.0" encoding="UTF-8" standalone="no"?>
<!DOCTYPE svg PUBLIC "-//W3C//DTD SVG 1.1//EN"
 "http://www.w3.org/Graphics/SVG/1.1/DTD/svg11.dtd">
<!-- Generated by graphviz version 2.43.0 (0)
 -->
<!-- Title: HAL_InitTick Pages: 1 -->
<svg width="279pt" height="180pt"
 viewBox="0.00 0.00 279.00 180.00" xmlns="http://www.w3.org/2000/svg" xmlns:xlink="http://www.w3.org/1999/xlink">
<g id="graph0" class="graph" transform="scale(1 1) rotate(0) translate(4 176)">
<title>HAL_InitTick</title>
<polygon fill="white" stroke="transparent" points="-4,4 -4,-176 275,-176 275,4 -4,4"/>
<!-- Node1 -->
<g id="node1" class="node">
<title>Node1</title>
<g id="a_node1"><a xlink:title="This function configures the RTC_WKUP as a time base source. The time source is configured to have 1m...">
<polygon fill="#bfbfbf" stroke="black" points="0,-76.5 0,-95.5 77,-95.5 77,-76.5 0,-76.5"/>
<text text-anchor="middle" x="38.5" y="-83.5" font-family="Helvetica,sans-Serif" font-size="10.00">HAL_InitTick</text>
</a>
</g>
</g>
<!-- Node2 -->
<g id="node2" class="node">
<title>Node2</title>
<g id="a_node2"><a xlink:href="group__CORTEX__Exported__Functions__Group1.html#gaaad4492c1b25e006d69948a15790352a" target="_top" xlink:title=" ">
<polygon fill="white" stroke="black" points="131.5,-152.5 131.5,-171.5 252.5,-171.5 252.5,-152.5 131.5,-152.5"/>
<text text-anchor="middle" x="192" y="-159.5" font-family="Helvetica,sans-Serif" font-size="10.00">HAL_NVIC_EnableIRQ</text>
</a>
</g>
</g>
<!-- Node1&#45;&gt;Node2 -->
<g id="edge1" class="edge">
<title>Node1&#45;&gt;Node2</title>
<path fill="none" stroke="midnightblue" d="M49.05,-95.6C62.26,-108.34 87.4,-130.66 113,-143 117.94,-145.38 123.21,-147.48 128.59,-149.33"/>
<polygon fill="midnightblue" stroke="midnightblue" points="127.74,-152.73 138.33,-152.39 129.84,-146.05 127.74,-152.73"/>
</g>
<!-- Node3 -->
<g id="node3" class="node">
<title>Node3</title>
<g id="a_node3"><a xlink:href="group__CORTEX__Exported__Functions__Group1.html#ga8581a82025a4780efd00876a66e3e91b" target="_top" xlink:title=" ">
<polygon fill="white" stroke="black" points="131,-114.5 131,-133.5 253,-133.5 253,-114.5 131,-114.5"/>
<text text-anchor="middle" x="192" y="-121.5" font-family="Helvetica,sans-Serif" font-size="10.00">HAL_NVIC_SetPriority</text>
</a>
</g>
</g>
<!-- Node1&#45;&gt;Node3 -->
<g id="edge2" class="edge">
<title>Node1&#45;&gt;Node3</title>
<path fill="none" stroke="midnightblue" d="M76.11,-95.57C87.88,-98.62 100.98,-101.98 113,-105 122.23,-107.32 132.09,-109.75 141.58,-112.07"/>
<polygon fill="midnightblue" stroke="midnightblue" points="140.75,-115.47 151.29,-114.44 142.41,-108.67 140.75,-115.47"/>
</g>
<!-- Node4 -->
<g id="node4" class="node">
<title>Node4</title>
<g id="a_node4"><a xlink:href="group__RCC__Exported__Functions__Group1.html#gaaf070da42c717e9d2d79e858b647b782" target="_top" xlink:title=" ">
<polygon fill="white" stroke="black" points="134,-76.5 134,-95.5 250,-95.5 250,-76.5 134,-76.5"/>
<text text-anchor="middle" x="192" y="-83.5" font-family="Helvetica,sans-Serif" font-size="10.00">HAL_RCC_OscConfig</text>
</a>
</g>
</g>
<!-- Node1&#45;&gt;Node4 -->
<g id="edge3" class="edge">
<title>Node1&#45;&gt;Node4</title>
<path fill="none" stroke="midnightblue" d="M77.34,-86C91.36,-86 107.71,-86 123.57,-86"/>
<polygon fill="midnightblue" stroke="midnightblue" points="123.9,-89.5 133.9,-86 123.9,-82.5 123.9,-89.5"/>
</g>
<!-- Node5 -->
<g id="node5" class="node">
<title>Node5</title>
<g id="a_node5"><a xlink:href="group__RCCEx__Exported__Functions__Group1.html#ga0c0f61a1e2f47cc81bc43d83ba3e0d95" target="_top" xlink:title=" ">
<polygon fill="white" stroke="black" points="113,-38.5 113,-57.5 271,-57.5 271,-38.5 113,-38.5"/>
<text text-anchor="middle" x="192" y="-45.5" font-family="Helvetica,sans-Serif" font-size="10.00">HAL_RCCEx_PeriphCLKConfig</text>
</a>
</g>
</g>
<!-- Node1&#45;&gt;Node5 -->
<g id="edge4" class="edge">
<title>Node1&#45;&gt;Node5</title>
<path fill="none" stroke="midnightblue" d="M76.11,-76.43C87.88,-73.38 100.98,-70.02 113,-67 122.23,-64.68 132.09,-62.25 141.58,-59.93"/>
<polygon fill="midnightblue" stroke="midnightblue" points="142.41,-63.33 151.29,-57.56 140.75,-56.53 142.41,-63.33"/>
</g>
<!-- Node6 -->
<g id="node6" class="node">
<title>Node6</title>
<g id="a_node6"><a xlink:href="group__RTC__Exported__Functions__Group1.html#gaa6b53830aa3e2efaf210c0b1d3e5f4a4" target="_top" xlink:title=" ">
<polygon fill="white" stroke="black" points="152,-0.5 152,-19.5 232,-19.5 232,-0.5 152,-0.5"/>
<text text-anchor="middle" x="192" y="-7.5" font-family="Helvetica,sans-Serif" font-size="10.00">HAL_RTC_Init</text>
</a>
</g>
</g>
<!-- Node1&#45;&gt;Node6 -->
<g id="edge5" class="edge">
<title>Node1&#45;&gt;Node6</title>
<path fill="none" stroke="midnightblue" d="M49.05,-76.4C62.26,-63.66 87.4,-41.34 113,-29 122.04,-24.64 132.16,-21.23 142.05,-18.58"/>
<polygon fill="midnightblue" stroke="midnightblue" points="142.93,-21.97 151.8,-16.18 141.26,-15.17 142.93,-21.97"/>
</g>
</g>
</svg>
