<?xml version="1.0" encoding="UTF-8" standalone="no"?>
<!DOCTYPE svg PUBLIC "-//W3C//DTD SVG 1.1//EN"
 "http://www.w3.org/Graphics/SVG/1.1/DTD/svg11.dtd">
<!-- Generated by graphviz version 2.43.0 (0)
 -->
<!-- Title: FSMC Low Layer Exported Constants Pages: 1 -->
<svg width="423pt" height="124pt"
 viewBox="0.00 0.00 423.00 123.50" xmlns="http://www.w3.org/2000/svg" xmlns:xlink="http://www.w3.org/1999/xlink">
<g id="graph0" class="graph" transform="scale(1 1) rotate(0) translate(4 119.5)">
<title>FSMC Low Layer Exported Constants</title>
<polygon fill="white" stroke="transparent" points="-4,4 -4,-119.5 419,-119.5 419,4 -4,4"/>
<!-- Node3 -->
<g id="node1" class="node">
<title>Node3</title>
<g id="a_node1"><a xlink:href="group__FSMC__LL__Interrupt__definition.html" target="_top" xlink:title=" ">
<polygon fill="white" stroke="black" points="415,-115.5 274,-115.5 274,-85.5 415,-85.5 415,-115.5"/>
<text text-anchor="start" x="282" y="-103.5" font-family="Helvetica,sans-Serif" font-size="10.00">FSMC Low Layer Interrupt</text>
<text text-anchor="middle" x="344.5" y="-92.5" font-family="Helvetica,sans-Serif" font-size="10.00"> definition</text>
</a>
</g>
</g>
<!-- Node4 -->
<g id="node2" class="node">
<title>Node4</title>
<g id="a_node2"><a xlink:href="group__FSMC__LL__Flag__definition.html" target="_top" xlink:title=" ">
<polygon fill="white" stroke="black" points="404.5,-67.5 284.5,-67.5 284.5,-37.5 404.5,-37.5 404.5,-67.5"/>
<text text-anchor="start" x="292.5" y="-55.5" font-family="Helvetica,sans-Serif" font-size="10.00">FSMC Low Layer Flag</text>
<text text-anchor="middle" x="344.5" y="-44.5" font-family="Helvetica,sans-Serif" font-size="10.00"> definition</text>
</a>
</g>
</g>
<!-- Node2 -->
<g id="node3" class="node">
<title>Node2</title>
<g id="a_node3"><a xlink:href="group__FSMC__LL.html" target="_top" xlink:title=" ">
<polygon fill="white" stroke="black" points="59,-62 0,-62 0,-43 59,-43 59,-62"/>
<text text-anchor="middle" x="29.5" y="-50" font-family="Helvetica,sans-Serif" font-size="10.00">FSMC_LL</text>
</a>
</g>
</g>
<!-- Node1 -->
<g id="node4" class="node">
<title>Node1</title>
<g id="a_node4"><a xlink:title=" ">
<polygon fill="#bfbfbf" stroke="black" points="238,-67.5 95,-67.5 95,-37.5 238,-37.5 238,-67.5"/>
<text text-anchor="start" x="103" y="-55.5" font-family="Helvetica,sans-Serif" font-size="10.00">FSMC Low Layer Exported</text>
<text text-anchor="middle" x="166.5" y="-44.5" font-family="Helvetica,sans-Serif" font-size="10.00"> Constants</text>
</a>
</g>
</g>
<!-- Node2&#45;&gt;Node1 -->
<g id="edge1" class="edge">
<title>Node2&#45;&gt;Node1</title>
<path fill="none" stroke="black" d="M69.31,-52.5C77.39,-52.5 86.14,-52.5 94.97,-52.5"/>
<polygon fill="black" stroke="black" points="69.13,-49 59.13,-52.5 69.13,-56 69.13,-49"/>
</g>
<!-- Node1&#45;&gt;Node3 -->
<g id="edge2" class="edge">
<title>Node1&#45;&gt;Node3</title>
<path fill="none" stroke="black" d="M232.47,-70.22C250.88,-75.24 270.73,-80.65 288.49,-85.5"/>
<polygon fill="black" stroke="black" points="233.27,-66.81 222.7,-67.56 231.43,-73.56 233.27,-66.81"/>
</g>
<!-- Node1&#45;&gt;Node4 -->
<g id="edge3" class="edge">
<title>Node1&#45;&gt;Node4</title>
<path fill="none" stroke="black" d="M248.26,-52.5C260.47,-52.5 272.86,-52.5 284.5,-52.5"/>
<polygon fill="black" stroke="black" points="248.07,-49 238.07,-52.5 248.07,-56 248.07,-49"/>
</g>
<!-- Node5 -->
<g id="node5" class="node">
<title>Node5</title>
<g id="a_node5"><a xlink:href="group__FSMC__LL__Alias__definition.html" target="_top" xlink:title=" ">
<polygon fill="white" stroke="black" points="404,-19 285,-19 285,0 404,0 404,-19"/>
<text text-anchor="middle" x="344.5" y="-7" font-family="Helvetica,sans-Serif" font-size="10.00">FSMC Alias definition</text>
</a>
</g>
</g>
<!-- Node1&#45;&gt;Node5 -->
<g id="edge4" class="edge">
<title>Node1&#45;&gt;Node5</title>
<path fill="none" stroke="black" d="M238.89,-35.06C261.31,-29.58 285.23,-23.74 304.53,-19.02"/>
<polygon fill="black" stroke="black" points="237.94,-31.69 229.06,-37.46 239.6,-38.49 237.94,-31.69"/>
</g>
</g>
</svg>
