<?xml version="1.0" encoding="UTF-8" standalone="no"?>
<!DOCTYPE svg PUBLIC "-//W3C//DTD SVG 1.1//EN"
 "http://www.w3.org/Graphics/SVG/1.1/DTD/svg11.dtd">
<!-- Generated by graphviz version 2.43.0 (0)
 -->
<!-- Title: Input and Output operation functions Pages: 1 -->
<svg width="537pt" height="101pt"
 viewBox="0.00 0.00 537.00 101.00" xmlns="http://www.w3.org/2000/svg" xmlns:xlink="http://www.w3.org/1999/xlink">
<g id="graph0" class="graph" transform="scale(1 1) rotate(0) translate(4 97)">
<title>Input and Output operation functions</title>
<polygon fill="white" stroke="transparent" points="-4,4 -4,-97 533,-97 533,4 -4,4"/>
<!-- Node1 -->
<g id="node1" class="node">
<title>Node1</title>
<g id="a_node1"><a xlink:title=" ">
<polygon fill="#bfbfbf" stroke="black" points="336,-61.5 188,-61.5 188,-31.5 336,-31.5 336,-61.5"/>
<text text-anchor="start" x="196" y="-49.5" font-family="Helvetica,sans-Serif" font-size="10.00">Input and Output operation</text>
<text text-anchor="middle" x="262" y="-38.5" font-family="Helvetica,sans-Serif" font-size="10.00"> functions</text>
</a>
</g>
</g>
<!-- Node4 -->
<g id="node2" class="node">
<title>Node4</title>
<g id="a_node2"><a xlink:href="group__Non-Blocking__mode__Interrupt.html" target="_top" xlink:title=" ">
<polygon fill="white" stroke="black" points="529,-93 372,-93 372,-74 529,-74 529,-93"/>
<text text-anchor="middle" x="450.5" y="-81" font-family="Helvetica,sans-Serif" font-size="10.00">Non&#45;Blocking mode Interrupt</text>
</a>
</g>
</g>
<!-- Node1&#45;&gt;Node4 -->
<g id="edge3" class="edge">
<title>Node1&#45;&gt;Node4</title>
<path fill="none" stroke="black" d="M346.03,-62.97C365.01,-66.74 384.56,-70.62 401.49,-73.98"/>
<polygon fill="black" stroke="black" points="346.66,-59.53 336.17,-61.02 345.3,-66.4 346.66,-59.53"/>
</g>
<!-- Node3 -->
<g id="node3" class="node">
<title>Node3</title>
<g id="a_node3"><a xlink:href="group__Blocking__mode__Polling.html" target="_top" xlink:title=" ">
<polygon fill="white" stroke="black" points="513,-56 388,-56 388,-37 513,-37 513,-56"/>
<text text-anchor="middle" x="450.5" y="-44" font-family="Helvetica,sans-Serif" font-size="10.00">Blocking mode Polling</text>
</a>
</g>
</g>
<!-- Node1&#45;&gt;Node3 -->
<g id="edge2" class="edge">
<title>Node1&#45;&gt;Node3</title>
<path fill="none" stroke="black" d="M346.31,-46.5C360.33,-46.5 374.65,-46.5 387.99,-46.5"/>
<polygon fill="black" stroke="black" points="346.17,-43 336.17,-46.5 346.17,-50 346.17,-43"/>
</g>
<!-- Node5 -->
<g id="node4" class="node">
<title>Node5</title>
<g id="a_node4"><a xlink:href="group__SMBUS__IRQ__Handler__and__Callbacks.html" target="_top" xlink:title=" ">
<polygon fill="white" stroke="black" points="523.5,-19 377.5,-19 377.5,0 523.5,0 523.5,-19"/>
<text text-anchor="middle" x="450.5" y="-7" font-family="Helvetica,sans-Serif" font-size="10.00">IRQ Handler and Callbacks</text>
</a>
</g>
</g>
<!-- Node1&#45;&gt;Node5 -->
<g id="edge4" class="edge">
<title>Node1&#45;&gt;Node5</title>
<path fill="none" stroke="black" d="M346.03,-30.03C365.01,-26.26 384.56,-22.38 401.49,-19.02"/>
<polygon fill="black" stroke="black" points="345.3,-26.6 336.17,-31.98 346.66,-33.47 345.3,-26.6"/>
</g>
<!-- Node2 -->
<g id="node5" class="node">
<title>Node2</title>
<g id="a_node5"><a xlink:href="group__SMBUS__Exported__Functions.html" target="_top" xlink:title=" ">
<polygon fill="white" stroke="black" points="152,-56 0,-56 0,-37 152,-37 152,-56"/>
<text text-anchor="middle" x="76" y="-44" font-family="Helvetica,sans-Serif" font-size="10.00">SMBUS_Exported_Functions</text>
</a>
</g>
</g>
<!-- Node2&#45;&gt;Node1 -->
<g id="edge1" class="edge">
<title>Node2&#45;&gt;Node1</title>
<path fill="none" stroke="black" d="M162.16,-46.5C170.76,-46.5 179.45,-46.5 187.92,-46.5"/>
<polygon fill="black" stroke="black" points="162.11,-43 152.11,-46.5 162.11,-50 162.11,-43"/>
</g>
</g>
</svg>
