<?xml version="1.0" encoding="UTF-8" standalone="no"?>
<!DOCTYPE svg PUBLIC "-//W3C//DTD SVG 1.1//EN"
 "http://www.w3.org/Graphics/SVG/1.1/DTD/svg11.dtd">
<!-- Generated by graphviz version 2.43.0 (0)
 -->
<!-- Title: IRDA Exported constants Pages: 1 -->
<svg width="399pt" height="249pt"
 viewBox="0.00 0.00 399.00 249.00" xmlns="http://www.w3.org/2000/svg" xmlns:xlink="http://www.w3.org/1999/xlink">
<g id="graph0" class="graph" transform="scale(1 1) rotate(0) translate(4 245)">
<title>IRDA Exported constants</title>
<polygon fill="white" stroke="transparent" points="-4,4 -4,-245 395,-245 395,4 -4,4"/>
<!-- Node8 -->
<g id="node1" class="node">
<title>Node8</title>
<g id="a_node1"><a xlink:href="group__IRDA__Flags.html" target="_top" xlink:title=" ">
<polygon fill="white" stroke="black" points="355.5,-241 285.5,-241 285.5,-222 355.5,-222 355.5,-241"/>
<text text-anchor="middle" x="320.5" y="-229" font-family="Helvetica,sans-Serif" font-size="10.00">IRDA Flags</text>
</a>
</g>
</g>
<!-- Node2 -->
<g id="node2" class="node">
<title>Node2</title>
<g id="a_node2"><a xlink:href="group__IRDA.html" target="_top" xlink:title="HAL IRDA module driver.">
<polygon fill="white" stroke="black" points="41,-130 0,-130 0,-111 41,-111 41,-130"/>
<text text-anchor="middle" x="20.5" y="-118" font-family="Helvetica,sans-Serif" font-size="10.00">IRDA</text>
</a>
</g>
</g>
<!-- Node1 -->
<g id="node4" class="node">
<title>Node1</title>
<g id="a_node4"><a xlink:title=" ">
<polygon fill="#bfbfbf" stroke="black" points="214,-130 77,-130 77,-111 214,-111 214,-130"/>
<text text-anchor="middle" x="145.5" y="-118" font-family="Helvetica,sans-Serif" font-size="10.00">IRDA Exported constants</text>
</a>
</g>
</g>
<!-- Node2&#45;&gt;Node1 -->
<g id="edge1" class="edge">
<title>Node2&#45;&gt;Node1</title>
<path fill="none" stroke="black" d="M51.29,-120.5C59.12,-120.5 67.9,-120.5 76.86,-120.5"/>
<polygon fill="black" stroke="black" points="51.26,-117 41.26,-120.5 51.26,-124 51.26,-117"/>
</g>
<!-- Node6 -->
<g id="node3" class="node">
<title>Node6</title>
<g id="a_node3"><a xlink:href="group__IRDA__Mode.html" target="_top" xlink:title=" ">
<polygon fill="white" stroke="black" points="377,-204 264,-204 264,-185 377,-185 377,-204"/>
<text text-anchor="middle" x="320.5" y="-192" font-family="Helvetica,sans-Serif" font-size="10.00">IRDA Transfer Mode</text>
</a>
</g>
</g>
<!-- Node1&#45;&gt;Node8 -->
<g id="edge7" class="edge">
<title>Node1&#45;&gt;Node8</title>
<path fill="none" stroke="black" d="M160.99,-137.84C179.5,-158.87 213.52,-193.92 250,-213.5 260.87,-219.34 273.73,-223.35 285.41,-226.08"/>
<polygon fill="black" stroke="black" points="163.44,-135.32 154.26,-130.03 158.13,-139.89 163.44,-135.32"/>
</g>
<!-- Node1&#45;&gt;Node6 -->
<g id="edge5" class="edge">
<title>Node1&#45;&gt;Node6</title>
<path fill="none" stroke="black" d="M170.01,-135.36C190.48,-147.78 221.31,-165.22 250,-176.5 258.24,-179.74 267.25,-182.57 275.97,-184.96"/>
<polygon fill="black" stroke="black" points="171.72,-132.31 161.37,-130.05 168.06,-138.27 171.72,-132.31"/>
</g>
<!-- Node7 -->
<g id="node5" class="node">
<title>Node7</title>
<g id="a_node5"><a xlink:href="group__IRDA__Low__Power.html" target="_top" xlink:title=" ">
<polygon fill="white" stroke="black" points="368.5,-167 272.5,-167 272.5,-148 368.5,-148 368.5,-167"/>
<text text-anchor="middle" x="320.5" y="-155" font-family="Helvetica,sans-Serif" font-size="10.00">IRDA Low Power</text>
</a>
</g>
</g>
<!-- Node1&#45;&gt;Node7 -->
<g id="edge6" class="edge">
<title>Node1&#45;&gt;Node7</title>
<path fill="none" stroke="black" d="M200.98,-132.15C224.75,-137.23 252.26,-143.12 274.8,-147.94"/>
<polygon fill="black" stroke="black" points="201.56,-128.7 191.05,-130.03 200.1,-135.54 201.56,-128.7"/>
</g>
<!-- Node5 -->
<g id="node6" class="node">
<title>Node5</title>
<g id="a_node6"><a xlink:href="group__IRDA__Parity.html" target="_top" xlink:title=" ">
<polygon fill="white" stroke="black" points="356,-130 285,-130 285,-111 356,-111 356,-130"/>
<text text-anchor="middle" x="320.5" y="-118" font-family="Helvetica,sans-Serif" font-size="10.00">IRDA Parity</text>
</a>
</g>
</g>
<!-- Node1&#45;&gt;Node5 -->
<g id="edge4" class="edge">
<title>Node1&#45;&gt;Node5</title>
<path fill="none" stroke="black" d="M224.62,-120.5C245.63,-120.5 267.32,-120.5 284.64,-120.5"/>
<polygon fill="black" stroke="black" points="224.38,-117 214.38,-120.5 224.38,-124 224.38,-117"/>
</g>
<!-- Node9 -->
<g id="node7" class="node">
<title>Node9</title>
<g id="a_node7"><a xlink:href="group__IRDA__Interrupt__definition.html" target="_top" xlink:title=" ">
<polygon fill="white" stroke="black" points="391,-93 250,-93 250,-74 391,-74 391,-93"/>
<text text-anchor="middle" x="320.5" y="-81" font-family="Helvetica,sans-Serif" font-size="10.00">IRDA Interrupt Definitions</text>
</a>
</g>
</g>
<!-- Node1&#45;&gt;Node9 -->
<g id="edge8" class="edge">
<title>Node1&#45;&gt;Node9</title>
<path fill="none" stroke="black" d="M200.98,-108.85C224.75,-103.77 252.26,-97.88 274.8,-93.06"/>
<polygon fill="black" stroke="black" points="200.1,-105.46 191.05,-110.97 201.56,-112.3 200.1,-105.46"/>
</g>
<!-- Node3 -->
<g id="node8" class="node">
<title>Node3</title>
<g id="a_node8"><a xlink:href="group__IRDA__Error__Code.html" target="_top" xlink:title=" ">
<polygon fill="white" stroke="black" points="368,-56 273,-56 273,-37 368,-37 368,-56"/>
<text text-anchor="middle" x="320.5" y="-44" font-family="Helvetica,sans-Serif" font-size="10.00">IRDA Error Code</text>
</a>
</g>
</g>
<!-- Node1&#45;&gt;Node3 -->
<g id="edge2" class="edge">
<title>Node1&#45;&gt;Node3</title>
<path fill="none" stroke="black" d="M170.01,-105.64C190.48,-93.22 221.31,-75.78 250,-64.5 258.24,-61.26 267.25,-58.43 275.97,-56.04"/>
<polygon fill="black" stroke="black" points="168.06,-102.73 161.37,-110.95 171.72,-108.69 168.06,-102.73"/>
</g>
<!-- Node4 -->
<g id="node9" class="node">
<title>Node4</title>
<g id="a_node9"><a xlink:href="group__IRDA__Word__Length.html" target="_top" xlink:title=" ">
<polygon fill="white" stroke="black" points="372.5,-19 268.5,-19 268.5,0 372.5,0 372.5,-19"/>
<text text-anchor="middle" x="320.5" y="-7" font-family="Helvetica,sans-Serif" font-size="10.00">IRDA Word Length</text>
</a>
</g>
</g>
<!-- Node1&#45;&gt;Node4 -->
<g id="edge3" class="edge">
<title>Node1&#45;&gt;Node4</title>
<path fill="none" stroke="black" d="M160.99,-103.16C179.5,-82.13 213.52,-47.08 250,-27.5 256.37,-24.08 263.42,-21.29 270.52,-19.01"/>
<polygon fill="black" stroke="black" points="158.13,-101.11 154.26,-110.97 163.44,-105.68 158.13,-101.11"/>
</g>
</g>
</svg>
