<?xml version="1.0" encoding="UTF-8" standalone="no"?>
<!DOCTYPE svg PUBLIC "-//W3C//DTD SVG 1.1//EN"
 "http://www.w3.org/Graphics/SVG/1.1/DTD/svg11.dtd">
<!-- Generated by graphviz version 2.43.0 (0)
 -->
<!-- Title: EXTI Pages: 1 -->
<svg width="389pt" height="212pt"
 viewBox="0.00 0.00 389.00 212.00" xmlns="http://www.w3.org/2000/svg" xmlns:xlink="http://www.w3.org/1999/xlink">
<g id="graph0" class="graph" transform="scale(1 1) rotate(0) translate(4 208)">
<title>EXTI</title>
<polygon fill="white" stroke="transparent" points="-4,4 -4,-208 385,-208 385,4 -4,4"/>
<!-- Node8 -->
<g id="node1" class="node">
<title>Node8</title>
<g id="a_node1"><a xlink:href="group__EXTI__Exported__Functions.html" target="_top" xlink:title="EXTI Exported Functions.">
<polygon fill="white" stroke="black" points="379.5,-204 245.5,-204 245.5,-185 379.5,-185 379.5,-204"/>
<text text-anchor="middle" x="312.5" y="-192" font-family="Helvetica,sans-Serif" font-size="10.00">EXTI Exported Functions</text>
</a>
</g>
</g>
<!-- Node5 -->
<g id="node2" class="node">
<title>Node5</title>
<g id="a_node2"><a xlink:href="group__EXTI__Exported__Macros.html" target="_top" xlink:title=" ">
<polygon fill="white" stroke="black" points="374,-167 251,-167 251,-148 374,-148 374,-167"/>
<text text-anchor="middle" x="312.5" y="-155" font-family="Helvetica,sans-Serif" font-size="10.00">EXTI Exported Macros</text>
</a>
</g>
</g>
<!-- Node3 -->
<g id="node3" class="node">
<title>Node3</title>
<g id="a_node3"><a xlink:href="group__EXTI__Exported__Types.html" target="_top" xlink:title=" ">
<polygon fill="white" stroke="black" points="370.5,-130 254.5,-130 254.5,-111 370.5,-111 370.5,-130"/>
<text text-anchor="middle" x="312.5" y="-118" font-family="Helvetica,sans-Serif" font-size="10.00">EXTI Exported Types</text>
</a>
</g>
</g>
<!-- Node7 -->
<g id="node4" class="node">
<title>Node7</title>
<g id="a_node4"><a xlink:href="group__EXTI__Private__Macros.html" target="_top" xlink:title=" ">
<polygon fill="white" stroke="black" points="369.5,-93 255.5,-93 255.5,-74 369.5,-74 369.5,-93"/>
<text text-anchor="middle" x="312.5" y="-81" font-family="Helvetica,sans-Serif" font-size="10.00">EXTI Private Macros</text>
</a>
</g>
</g>
<!-- Node4 -->
<g id="node5" class="node">
<title>Node4</title>
<g id="a_node5"><a xlink:href="group__EXTI__Exported__Constants.html" target="_top" xlink:title=" ">
<polygon fill="white" stroke="black" points="381,-56 244,-56 244,-37 381,-37 381,-56"/>
<text text-anchor="middle" x="312.5" y="-44" font-family="Helvetica,sans-Serif" font-size="10.00">EXTI Exported Constants</text>
</a>
</g>
</g>
<!-- Node2 -->
<g id="node6" class="node">
<title>Node2</title>
<g id="a_node6"><a xlink:href="group__STM32F4xx__HAL__Driver.html" target="_top" xlink:title=" ">
<polygon fill="white" stroke="black" points="134,-111 0,-111 0,-92 134,-92 134,-111"/>
<text text-anchor="middle" x="67" y="-99" font-family="Helvetica,sans-Serif" font-size="10.00">STM32F4xx_HAL_Driver</text>
</a>
</g>
</g>
<!-- Node1 -->
<g id="node8" class="node">
<title>Node1</title>
<g id="a_node8"><a xlink:title="EXTI HAL module driver.">
<polygon fill="#bfbfbf" stroke="black" points="208,-111 170,-111 170,-92 208,-92 208,-111"/>
<text text-anchor="middle" x="189" y="-99" font-family="Helvetica,sans-Serif" font-size="10.00">EXTI</text>
</a>
</g>
</g>
<!-- Node2&#45;&gt;Node1 -->
<g id="edge1" class="edge">
<title>Node2&#45;&gt;Node1</title>
<path fill="none" stroke="black" d="M144.55,-101.5C153.82,-101.5 162.52,-101.5 169.66,-101.5"/>
<polygon fill="black" stroke="black" points="144.32,-98 134.32,-101.5 144.32,-105 144.32,-98"/>
</g>
<!-- Node6 -->
<g id="node7" class="node">
<title>Node6</title>
<g id="a_node7"><a xlink:href="group__EXTI__Private__Constants.html" target="_top" xlink:title=" ">
<polygon fill="white" stroke="black" points="376.5,-19 248.5,-19 248.5,0 376.5,0 376.5,-19"/>
<text text-anchor="middle" x="312.5" y="-7" font-family="Helvetica,sans-Serif" font-size="10.00">EXTI Private Constants</text>
</a>
</g>
</g>
<!-- Node1&#45;&gt;Node8 -->
<g id="edge7" class="edge">
<title>Node1&#45;&gt;Node8</title>
<path fill="none" stroke="black" d="M198.79,-120.28C207.79,-137.45 223.35,-162.26 244,-176.5 248.99,-179.94 254.61,-182.73 260.42,-184.98"/>
<polygon fill="black" stroke="black" points="201.86,-118.59 194.27,-111.2 195.59,-121.71 201.86,-118.59"/>
</g>
<!-- Node1&#45;&gt;Node5 -->
<g id="edge4" class="edge">
<title>Node1&#45;&gt;Node5</title>
<path fill="none" stroke="black" d="M209.2,-117.52C219.08,-125.09 231.63,-133.72 244,-139.5 251.14,-142.84 259.01,-145.64 266.77,-147.96"/>
<polygon fill="black" stroke="black" points="211.28,-114.7 201.27,-111.23 206.93,-120.19 211.28,-114.7"/>
</g>
<!-- Node1&#45;&gt;Node3 -->
<g id="edge2" class="edge">
<title>Node1&#45;&gt;Node3</title>
<path fill="none" stroke="black" d="M218.28,-105.92C229.1,-107.62 241.87,-109.61 254.43,-111.58"/>
<polygon fill="black" stroke="black" points="218.61,-102.43 208.19,-104.34 217.53,-109.35 218.61,-102.43"/>
</g>
<!-- Node1&#45;&gt;Node7 -->
<g id="edge6" class="edge">
<title>Node1&#45;&gt;Node7</title>
<path fill="none" stroke="black" d="M218.11,-97.34C229.2,-95.69 242.35,-93.74 255.24,-91.84"/>
<polygon fill="black" stroke="black" points="217.57,-93.88 208.19,-98.81 218.59,-100.8 217.57,-93.88"/>
</g>
<!-- Node1&#45;&gt;Node4 -->
<g id="edge3" class="edge">
<title>Node1&#45;&gt;Node4</title>
<path fill="none" stroke="black" d="M209.94,-85.41C219.73,-78.17 231.98,-70.02 244,-64.5 251.27,-61.16 259.28,-58.34 267.17,-56.01"/>
<polygon fill="black" stroke="black" points="207.53,-82.85 201.72,-91.71 211.79,-88.41 207.53,-82.85"/>
</g>
<!-- Node1&#45;&gt;Node6 -->
<g id="edge5" class="edge">
<title>Node1&#45;&gt;Node6</title>
<path fill="none" stroke="black" d="M198.86,-82.97C207.89,-66.03 223.49,-41.55 244,-27.5 249,-24.07 254.63,-21.3 260.44,-19.05"/>
<polygon fill="black" stroke="black" points="195.71,-81.43 194.31,-91.93 201.95,-84.6 195.71,-81.43"/>
</g>
</g>
</svg>
