<?xml version="1.0" encoding="UTF-8" standalone="no"?>
<!DOCTYPE svg PUBLIC "-//W3C//DTD SVG 1.1//EN"
 "http://www.w3.org/Graphics/SVG/1.1/DTD/svg11.dtd">
<!-- Generated by graphviz version 2.43.0 (0)
 -->
<!-- Title: PWR Pages: 1 -->
<svg width="390pt" height="212pt"
 viewBox="0.00 0.00 390.00 212.00" xmlns="http://www.w3.org/2000/svg" xmlns:xlink="http://www.w3.org/1999/xlink">
<g id="graph0" class="graph" transform="scale(1 1) rotate(0) translate(4 208)">
<title>PWR</title>
<polygon fill="white" stroke="transparent" points="-4,4 -4,-208 386,-208 386,4 -4,4"/>
<!-- Node8 -->
<g id="node1" class="node">
<title>Node8</title>
<g id="a_node1"><a xlink:href="group__PWR__Exported__Functions.html" target="_top" xlink:title=" ">
<polygon fill="white" stroke="black" points="381,-204 246,-204 246,-185 381,-185 381,-204"/>
<text text-anchor="middle" x="313.5" y="-192" font-family="Helvetica,sans-Serif" font-size="10.00">PWR Exported Functions</text>
</a>
</g>
</g>
<!-- Node3 -->
<g id="node2" class="node">
<title>Node3</title>
<g id="a_node2"><a xlink:href="group__PWR__Exported__Types.html" target="_top" xlink:title=" ">
<polygon fill="white" stroke="black" points="371.5,-167 255.5,-167 255.5,-148 371.5,-148 371.5,-167"/>
<text text-anchor="middle" x="313.5" y="-155" font-family="Helvetica,sans-Serif" font-size="10.00">PWR Exported Types</text>
</a>
</g>
</g>
<!-- Node6 -->
<g id="node3" class="node">
<title>Node6</title>
<g id="a_node3"><a xlink:href="group__PWR__Private__Constants.html" target="_top" xlink:title=" ">
<polygon fill="white" stroke="black" points="377.5,-130 249.5,-130 249.5,-111 377.5,-111 377.5,-130"/>
<text text-anchor="middle" x="313.5" y="-118" font-family="Helvetica,sans-Serif" font-size="10.00">PWR Private Constants</text>
</a>
</g>
</g>
<!-- Node7 -->
<g id="node4" class="node">
<title>Node7</title>
<g id="a_node4"><a xlink:href="group__PWR__Private__Macros.html" target="_top" xlink:title=" ">
<polygon fill="white" stroke="black" points="371,-93 256,-93 256,-74 371,-74 371,-93"/>
<text text-anchor="middle" x="313.5" y="-81" font-family="Helvetica,sans-Serif" font-size="10.00">PWR Private Macros</text>
</a>
</g>
</g>
<!-- Node4 -->
<g id="node5" class="node">
<title>Node4</title>
<g id="a_node5"><a xlink:href="group__PWR__Exported__Constants.html" target="_top" xlink:title=" ">
<polygon fill="white" stroke="black" points="382,-56 245,-56 245,-37 382,-37 382,-56"/>
<text text-anchor="middle" x="313.5" y="-44" font-family="Helvetica,sans-Serif" font-size="10.00">PWR Exported Constants</text>
</a>
</g>
</g>
<!-- Node2 -->
<g id="node6" class="node">
<title>Node2</title>
<g id="a_node6"><a xlink:href="group__STM32F4xx__HAL__Driver.html" target="_top" xlink:title=" ">
<polygon fill="white" stroke="black" points="134,-111 0,-111 0,-92 134,-92 134,-111"/>
<text text-anchor="middle" x="67" y="-99" font-family="Helvetica,sans-Serif" font-size="10.00">STM32F4xx_HAL_Driver</text>
</a>
</g>
</g>
<!-- Node1 -->
<g id="node7" class="node">
<title>Node1</title>
<g id="a_node7"><a xlink:title="PWR HAL module driver.">
<polygon fill="#bfbfbf" stroke="black" points="209,-111 170,-111 170,-92 209,-92 209,-111"/>
<text text-anchor="middle" x="189.5" y="-99" font-family="Helvetica,sans-Serif" font-size="10.00">PWR</text>
</a>
</g>
</g>
<!-- Node2&#45;&gt;Node1 -->
<g id="edge1" class="edge">
<title>Node2&#45;&gt;Node1</title>
<path fill="none" stroke="black" d="M144.27,-101.5C153.74,-101.5 162.65,-101.5 169.94,-101.5"/>
<polygon fill="black" stroke="black" points="144.24,-98 134.24,-101.5 144.24,-105 144.24,-98"/>
</g>
<!-- Node1&#45;&gt;Node8 -->
<g id="edge7" class="edge">
<title>Node1&#45;&gt;Node8</title>
<path fill="none" stroke="black" d="M199.42,-120.28C208.52,-137.45 224.26,-162.26 245,-176.5 250,-179.93 255.62,-182.71 261.43,-184.96"/>
<polygon fill="black" stroke="black" points="202.46,-118.55 194.84,-111.2 196.21,-121.7 202.46,-118.55"/>
</g>
<!-- Node1&#45;&gt;Node3 -->
<g id="edge2" class="edge">
<title>Node1&#45;&gt;Node3</title>
<path fill="none" stroke="black" d="M209.9,-117.51C219.88,-125.09 232.54,-133.71 245,-139.5 252.15,-142.82 260.02,-145.61 267.79,-147.94"/>
<polygon fill="black" stroke="black" points="211.92,-114.65 201.89,-111.23 207.59,-120.16 211.92,-114.65"/>
</g>
<!-- Node1&#45;&gt;Node6 -->
<g id="edge5" class="edge">
<title>Node1&#45;&gt;Node6</title>
<path fill="none" stroke="black" d="M218.93,-105.93C228.7,-107.45 240.04,-109.21 251.38,-110.98"/>
<polygon fill="black" stroke="black" points="219.45,-102.47 209.03,-104.39 218.37,-109.38 219.45,-102.47"/>
</g>
<!-- Node1&#45;&gt;Node7 -->
<g id="edge6" class="edge">
<title>Node1&#45;&gt;Node7</title>
<path fill="none" stroke="black" d="M218.95,-97.3C230.03,-95.67 243.13,-93.74 255.96,-91.84"/>
<polygon fill="black" stroke="black" points="218.41,-93.84 209.03,-98.77 219.43,-100.77 218.41,-93.84"/>
</g>
<!-- Node1&#45;&gt;Node4 -->
<g id="edge3" class="edge">
<title>Node1&#45;&gt;Node4</title>
<path fill="none" stroke="black" d="M210.35,-85.64C220.28,-78.35 232.77,-70.09 245,-64.5 252.28,-61.17 260.29,-58.37 268.18,-56.03"/>
<polygon fill="black" stroke="black" points="208.19,-82.88 202.35,-91.72 212.43,-88.46 208.19,-82.88"/>
</g>
<!-- Node5 -->
<g id="node8" class="node">
<title>Node5</title>
<g id="a_node8"><a xlink:href="group__PWR__Exported__Macro.html" target="_top" xlink:title=" ">
<polygon fill="white" stroke="black" points="373,-19 254,-19 254,0 373,0 373,-19"/>
<text text-anchor="middle" x="313.5" y="-7" font-family="Helvetica,sans-Serif" font-size="10.00">PWR Exported Macro</text>
</a>
</g>
</g>
<!-- Node1&#45;&gt;Node5 -->
<g id="edge4" class="edge">
<title>Node1&#45;&gt;Node5</title>
<path fill="none" stroke="black" d="M199.48,-82.97C208.63,-66.03 224.39,-41.55 245,-27.5 250.01,-24.08 255.64,-21.32 261.45,-19.07"/>
<polygon fill="black" stroke="black" points="196.33,-81.44 194.87,-91.93 202.56,-84.64 196.33,-81.44"/>
</g>
</g>
</svg>
