<?xml version="1.0" encoding="UTF-8" standalone="no"?>
<!DOCTYPE svg PUBLIC "-//W3C//DTD SVG 1.1//EN"
 "http://www.w3.org/Graphics/SVG/1.1/DTD/svg11.dtd">
<!-- Generated by graphviz version 2.43.0 (0)
 -->
<!-- Title: UART Pages: 1 -->
<svg width="400pt" height="249pt"
 viewBox="0.00 0.00 400.00 249.00" xmlns="http://www.w3.org/2000/svg" xmlns:xlink="http://www.w3.org/1999/xlink">
<g id="graph0" class="graph" transform="scale(1 1) rotate(0) translate(4 245)">
<title>UART</title>
<polygon fill="white" stroke="transparent" points="-4,4 -4,-245 396,-245 396,4 -4,4"/>
<!-- Node7 -->
<g id="node1" class="node">
<title>Node7</title>
<g id="a_node1"><a xlink:href="group__UART__Private__Macros.html" target="_top" xlink:title=" ">
<polygon fill="white" stroke="black" points="380,-241 261,-241 261,-222 380,-222 380,-241"/>
<text text-anchor="middle" x="320.5" y="-229" font-family="Helvetica,sans-Serif" font-size="10.00">UART Private Macros</text>
</a>
</g>
</g>
<!-- Node5 -->
<g id="node2" class="node">
<title>Node5</title>
<g id="a_node2"><a xlink:href="group__UART__Exported__Macros.html" target="_top" xlink:title=" ">
<polygon fill="white" stroke="black" points="384.5,-204 256.5,-204 256.5,-185 384.5,-185 384.5,-204"/>
<text text-anchor="middle" x="320.5" y="-192" font-family="Helvetica,sans-Serif" font-size="10.00">UART Exported Macros</text>
</a>
</g>
</g>
<!-- Node6 -->
<g id="node3" class="node">
<title>Node6</title>
<g id="a_node3"><a xlink:href="group__UART__Private__Constants.html" target="_top" xlink:title=" ">
<polygon fill="white" stroke="black" points="386.5,-167 254.5,-167 254.5,-148 386.5,-148 386.5,-167"/>
<text text-anchor="middle" x="320.5" y="-155" font-family="Helvetica,sans-Serif" font-size="10.00">UART Private Constants</text>
</a>
</g>
</g>
<!-- Node9 -->
<g id="node4" class="node">
<title>Node9</title>
<g id="a_node4"><a xlink:href="group__UART__Exported__Functions.html" target="_top" xlink:title=" ">
<polygon fill="white" stroke="black" points="392,-130 249,-130 249,-111 392,-111 392,-130"/>
<text text-anchor="middle" x="320.5" y="-118" font-family="Helvetica,sans-Serif" font-size="10.00">UART_Exported_Functions</text>
</a>
</g>
</g>
<!-- Node2 -->
<g id="node5" class="node">
<title>Node2</title>
<g id="a_node5"><a xlink:href="group__STM32F4xx__HAL__Driver.html" target="_top" xlink:title=" ">
<polygon fill="white" stroke="black" points="134,-130 0,-130 0,-111 134,-111 134,-130"/>
<text text-anchor="middle" x="67" y="-118" font-family="Helvetica,sans-Serif" font-size="10.00">STM32F4xx_HAL_Driver</text>
</a>
</g>
</g>
<!-- Node1 -->
<g id="node8" class="node">
<title>Node1</title>
<g id="a_node8"><a xlink:title="HAL UART module driver.">
<polygon fill="#bfbfbf" stroke="black" points="213,-130 170,-130 170,-111 213,-111 213,-130"/>
<text text-anchor="middle" x="191.5" y="-118" font-family="Helvetica,sans-Serif" font-size="10.00">UART</text>
</a>
</g>
</g>
<!-- Node2&#45;&gt;Node1 -->
<g id="edge1" class="edge">
<title>Node2&#45;&gt;Node1</title>
<path fill="none" stroke="black" d="M144.49,-120.5C153.78,-120.5 162.56,-120.5 169.92,-120.5"/>
<polygon fill="black" stroke="black" points="144.27,-117 134.27,-120.5 144.27,-124 144.27,-117"/>
</g>
<!-- Node3 -->
<g id="node6" class="node">
<title>Node3</title>
<g id="a_node6"><a xlink:href="group__UART__Exported__Types.html" target="_top" xlink:title=" ">
<polygon fill="white" stroke="black" points="380.5,-93 260.5,-93 260.5,-74 380.5,-74 380.5,-93"/>
<text text-anchor="middle" x="320.5" y="-81" font-family="Helvetica,sans-Serif" font-size="10.00">UART Exported Types</text>
</a>
</g>
</g>
<!-- Node8 -->
<g id="node7" class="node">
<title>Node8</title>
<g id="a_node7"><a xlink:href="group__UART__Private__Functions.html" target="_top" xlink:title=" ">
<polygon fill="white" stroke="black" points="385.5,-56 255.5,-56 255.5,-37 385.5,-37 385.5,-56"/>
<text text-anchor="middle" x="320.5" y="-44" font-family="Helvetica,sans-Serif" font-size="10.00">UART Private Functions</text>
</a>
</g>
</g>
<!-- Node1&#45;&gt;Node7 -->
<g id="edge6" class="edge">
<title>Node1&#45;&gt;Node7</title>
<path fill="none" stroke="black" d="M199.07,-139.67C207.36,-160.94 223.67,-194.74 249,-213.5 253.57,-216.88 258.71,-219.63 264.08,-221.87"/>
<polygon fill="black" stroke="black" points="202.29,-138.27 195.55,-130.09 195.72,-140.68 202.29,-138.27"/>
</g>
<!-- Node1&#45;&gt;Node5 -->
<g id="edge4" class="edge">
<title>Node1&#45;&gt;Node5</title>
<path fill="none" stroke="black" d="M206.12,-138.34C216.56,-150.8 232.01,-166.88 249,-176.5 255.04,-179.92 261.75,-182.71 268.54,-184.97"/>
<polygon fill="black" stroke="black" points="208.74,-136.01 199.74,-130.41 203.28,-140.4 208.74,-136.01"/>
</g>
<!-- Node1&#45;&gt;Node6 -->
<g id="edge5" class="edge">
<title>Node1&#45;&gt;Node6</title>
<path fill="none" stroke="black" d="M222.58,-131.08C231.08,-133.94 240.37,-136.95 249,-139.5 258.93,-142.43 269.74,-145.34 279.83,-147.92"/>
<polygon fill="black" stroke="black" points="223.64,-127.74 213.05,-127.82 221.38,-134.37 223.64,-127.74"/>
</g>
<!-- Node1&#45;&gt;Node9 -->
<g id="edge8" class="edge">
<title>Node1&#45;&gt;Node9</title>
<path fill="none" stroke="black" d="M223.25,-120.5C231.1,-120.5 239.86,-120.5 248.82,-120.5"/>
<polygon fill="black" stroke="black" points="223.19,-117 213.19,-120.5 223.19,-124 223.19,-117"/>
</g>
<!-- Node1&#45;&gt;Node3 -->
<g id="edge2" class="edge">
<title>Node1&#45;&gt;Node3</title>
<path fill="none" stroke="black" d="M222.58,-109.92C231.08,-107.06 240.37,-104.05 249,-101.5 258.93,-98.57 269.74,-95.66 279.83,-93.08"/>
<polygon fill="black" stroke="black" points="221.38,-106.63 213.05,-113.18 223.64,-113.26 221.38,-106.63"/>
</g>
<!-- Node1&#45;&gt;Node8 -->
<g id="edge7" class="edge">
<title>Node1&#45;&gt;Node8</title>
<path fill="none" stroke="black" d="M206.12,-102.66C216.56,-90.2 232.01,-74.12 249,-64.5 255.04,-61.08 261.75,-58.29 268.54,-56.03"/>
<polygon fill="black" stroke="black" points="203.28,-100.6 199.74,-110.59 208.74,-104.99 203.28,-100.6"/>
</g>
<!-- Node4 -->
<g id="node9" class="node">
<title>Node4</title>
<g id="a_node9"><a xlink:href="group__UART__Exported__Constants.html" target="_top" xlink:title=" ">
<polygon fill="white" stroke="black" points="391,-19 250,-19 250,0 391,0 391,-19"/>
<text text-anchor="middle" x="320.5" y="-7" font-family="Helvetica,sans-Serif" font-size="10.00">UART Exported Constants</text>
</a>
</g>
</g>
<!-- Node1&#45;&gt;Node4 -->
<g id="edge3" class="edge">
<title>Node1&#45;&gt;Node4</title>
<path fill="none" stroke="black" d="M199.07,-101.33C207.36,-80.06 223.67,-46.26 249,-27.5 253.57,-24.12 258.71,-21.37 264.08,-19.13"/>
<polygon fill="black" stroke="black" points="195.72,-100.32 195.55,-110.91 202.29,-102.73 195.72,-100.32"/>
</g>
</g>
</svg>
