<?xml version="1.0" encoding="UTF-8" standalone="no"?>
<!DOCTYPE svg PUBLIC "-//W3C//DTD SVG 1.1//EN"
 "http://www.w3.org/Graphics/SVG/1.1/DTD/svg11.dtd">
<!-- Generated by graphviz version 2.43.0 (0)
 -->
<!-- Title: RCC Exported Macros Pages: 1 -->
<svg width="400pt" height="915pt"
 viewBox="0.00 0.00 400.00 914.50" xmlns="http://www.w3.org/2000/svg" xmlns:xlink="http://www.w3.org/1999/xlink">
<g id="graph0" class="graph" transform="scale(1 1) rotate(0) translate(4 910.5)">
<title>RCC Exported Macros</title>
<polygon fill="white" stroke="transparent" points="-4,4 -4,-910.5 396,-910.5 396,4 -4,4"/>
<!-- Node16 -->
<g id="node1" class="node">
<title>Node16</title>
<g id="a_node1"><a xlink:href="group__RCC__LSI__Configuration.html" target="_top" xlink:title=" ">
<polygon fill="white" stroke="black" points="361,-906.5 262,-906.5 262,-887.5 361,-887.5 361,-906.5"/>
<text text-anchor="middle" x="311.5" y="-894.5" font-family="Helvetica,sans-Serif" font-size="10.00">LSI Configuration</text>
</a>
</g>
</g>
<!-- Node18 -->
<g id="node2" class="node">
<title>Node18</title>
<g id="a_node2"><a xlink:href="group__RCC__LSE__Configuration.html" target="_top" xlink:title=" ">
<polygon fill="white" stroke="black" points="362.5,-869.5 260.5,-869.5 260.5,-850.5 362.5,-850.5 362.5,-869.5"/>
<text text-anchor="middle" x="311.5" y="-857.5" font-family="Helvetica,sans-Serif" font-size="10.00">LSE Configuration</text>
</a>
</g>
</g>
<!-- Node9 -->
<g id="node3" class="node">
<title>Node9</title>
<g id="a_node3"><a xlink:href="group__RCC__AHB1__Force__Release__Reset.html" target="_top" xlink:title="Force or release AHB1 peripheral reset.">
<polygon fill="white" stroke="black" points="369,-832 254,-832 254,-802 369,-802 369,-832"/>
<text text-anchor="start" x="262" y="-820" font-family="Helvetica,sans-Serif" font-size="10.00">AHB1 Force Release</text>
<text text-anchor="middle" x="311.5" y="-809" font-family="Helvetica,sans-Serif" font-size="10.00"> Reset</text>
</a>
</g>
</g>
<!-- Node6 -->
<g id="node4" class="node">
<title>Node6</title>
<g id="a_node4"><a xlink:href="group__RCC__APB1__Peripheral__Clock__Enable__Disable__Status.html" target="_top" xlink:title="Get the enable or disable status of the APB1 peripheral clock.">
<polygon fill="white" stroke="black" points="374.5,-784 248.5,-784 248.5,-754 374.5,-754 374.5,-784"/>
<text text-anchor="start" x="256.5" y="-772" font-family="Helvetica,sans-Serif" font-size="10.00">APB1 Peripheral Clock</text>
<text text-anchor="middle" x="311.5" y="-761" font-family="Helvetica,sans-Serif" font-size="10.00"> Enable Disable Status</text>
</a>
</g>
</g>
<!-- Node1 -->
<g id="node5" class="node">
<title>Node1</title>
<g id="a_node5"><a xlink:title=" ">
<polygon fill="#bfbfbf" stroke="black" points="195,-452.5 73,-452.5 73,-433.5 195,-433.5 195,-452.5"/>
<text text-anchor="middle" x="134" y="-440.5" font-family="Helvetica,sans-Serif" font-size="10.00">RCC Exported Macros</text>
</a>
</g>
</g>
<!-- Node1&#45;&gt;Node16 -->
<g id="edge15" class="edge">
<title>Node1&#45;&gt;Node16</title>
<path fill="none" stroke="black" d="M136.62,-463.15C143.27,-540.7 170.97,-818.61 231,-879 239.28,-887.33 250.55,-892.15 262,-894.86"/>
<polygon fill="black" stroke="black" points="140.08,-462.52 135.76,-452.85 133.1,-463.1 140.08,-462.52"/>
</g>
<!-- Node1&#45;&gt;Node18 -->
<g id="edge17" class="edge">
<title>Node1&#45;&gt;Node18</title>
<path fill="none" stroke="black" d="M137.06,-462.77C145.01,-535.4 176.08,-786.19 231,-841 238.94,-848.92 249.54,-853.76 260.42,-856.67"/>
<polygon fill="black" stroke="black" points="140.52,-462.27 135.98,-452.7 133.56,-463.01 140.52,-462.27"/>
</g>
<!-- Node1&#45;&gt;Node9 -->
<g id="edge8" class="edge">
<title>Node1&#45;&gt;Node9</title>
<path fill="none" stroke="black" d="M134.25,-462.87C133.16,-521.87 138.23,-697.83 231,-793 237.34,-799.5 245.37,-804.26 253.89,-807.74"/>
<polygon fill="black" stroke="black" points="137.76,-462.78 134.53,-452.69 130.76,-462.59 137.76,-462.78"/>
</g>
<!-- Node1&#45;&gt;Node6 -->
<g id="edge5" class="edge">
<title>Node1&#45;&gt;Node6</title>
<path fill="none" stroke="black" d="M135.28,-462.95C137.15,-516.53 149.77,-664.95 231,-745 236.03,-749.96 242.05,-753.9 248.49,-757.03"/>
<polygon fill="black" stroke="black" points="138.78,-462.65 135.02,-452.75 131.78,-462.83 138.78,-462.65"/>
</g>
<!-- Node10 -->
<g id="node6" class="node">
<title>Node10</title>
<g id="a_node6"><a xlink:href="group__RCC__APB1__Force__Release__Reset.html" target="_top" xlink:title="Force or release APB1 peripheral reset.">
<polygon fill="white" stroke="black" points="368,-736 255,-736 255,-706 368,-706 368,-736"/>
<text text-anchor="start" x="263" y="-724" font-family="Helvetica,sans-Serif" font-size="10.00">APB1 Force Release</text>
<text text-anchor="middle" x="311.5" y="-713" font-family="Helvetica,sans-Serif" font-size="10.00"> Reset</text>
</a>
</g>
</g>
<!-- Node1&#45;&gt;Node10 -->
<g id="edge9" class="edge">
<title>Node1&#45;&gt;Node10</title>
<path fill="none" stroke="black" d="M136.66,-462.91C141.72,-510.5 161.14,-631.75 231,-697 237.74,-703.3 246.08,-707.95 254.8,-711.38"/>
<polygon fill="black" stroke="black" points="140.12,-462.33 135.69,-452.71 133.16,-463 140.12,-462.33"/>
</g>
<!-- Node13 -->
<g id="node7" class="node">
<title>Node13</title>
<g id="a_node7"><a xlink:href="group__RCC__APB1__LowPower__Enable__Disable.html" target="_top" xlink:title="Enable or disable the APB1 peripheral clock during Low Power (Sleep) mode.">
<polygon fill="white" stroke="black" points="374,-688 249,-688 249,-658 374,-658 374,-688"/>
<text text-anchor="start" x="257" y="-676" font-family="Helvetica,sans-Serif" font-size="10.00">APB1 Peripheral Low</text>
<text text-anchor="middle" x="311.5" y="-665" font-family="Helvetica,sans-Serif" font-size="10.00"> Power Enable Disable</text>
</a>
</g>
</g>
<!-- Node1&#45;&gt;Node13 -->
<g id="edge12" class="edge">
<title>Node1&#45;&gt;Node13</title>
<path fill="none" stroke="black" d="M138.59,-462.71C147.09,-503.6 172.27,-598.12 231,-649 236.23,-653.53 242.29,-657.21 248.7,-660.19"/>
<polygon fill="black" stroke="black" points="142.03,-462.02 136.66,-452.88 135.16,-463.37 142.03,-462.02"/>
</g>
<!-- Node21 -->
<g id="node8" class="node">
<title>Node21</title>
<g id="a_node8"><a xlink:href="group__RCC__Get__Clock__source.html" target="_top" xlink:title=" ">
<polygon fill="white" stroke="black" points="361,-639.5 262,-639.5 262,-620.5 361,-620.5 361,-639.5"/>
<text text-anchor="middle" x="311.5" y="-627.5" font-family="Helvetica,sans-Serif" font-size="10.00">Get Clock source</text>
</a>
</g>
</g>
<!-- Node1&#45;&gt;Node21 -->
<g id="edge20" class="edge">
<title>Node1&#45;&gt;Node21</title>
<path fill="none" stroke="black" d="M140.46,-462.43C151.42,-497.77 179.6,-572.48 231,-611 239.97,-617.72 250.98,-622.11 261.91,-624.95"/>
<polygon fill="black" stroke="black" points="143.8,-461.4 137.6,-452.81 137.09,-463.39 143.8,-461.4"/>
</g>
<!-- Node3 -->
<g id="node9" class="node">
<title>Node3</title>
<g id="a_node9"><a xlink:href="group__RCC__AHB1__Clock__Enable__Disable.html" target="_top" xlink:title="Enable or disable the AHB1 peripheral clock.">
<polygon fill="white" stroke="black" points="374.5,-602 248.5,-602 248.5,-572 374.5,-572 374.5,-602"/>
<text text-anchor="start" x="256.5" y="-590" font-family="Helvetica,sans-Serif" font-size="10.00">AHB1 Peripheral Clock</text>
<text text-anchor="middle" x="311.5" y="-579" font-family="Helvetica,sans-Serif" font-size="10.00"> Enable Disable</text>
</a>
</g>
</g>
<!-- Node1&#45;&gt;Node3 -->
<g id="edge2" class="edge">
<title>Node1&#45;&gt;Node3</title>
<path fill="none" stroke="black" d="M145.06,-461.73C160.23,-488.17 191.41,-536.23 231,-563 236.37,-566.63 242.32,-569.73 248.46,-572.37"/>
<polygon fill="black" stroke="black" points="147.98,-459.77 140.05,-452.74 141.86,-463.17 147.98,-459.77"/>
</g>
<!-- Node5 -->
<g id="node10" class="node">
<title>Node5</title>
<g id="a_node10"><a xlink:href="group__RCC__APB1__Clock__Enable__Disable.html" target="_top" xlink:title="Enable or disable the Low Speed APB (APB1) peripheral clock.">
<polygon fill="white" stroke="black" points="374,-554 249,-554 249,-524 374,-524 374,-554"/>
<text text-anchor="start" x="257" y="-542" font-family="Helvetica,sans-Serif" font-size="10.00">APB1 Peripheral Clock</text>
<text text-anchor="middle" x="311.5" y="-531" font-family="Helvetica,sans-Serif" font-size="10.00"> Enable Disable</text>
</a>
</g>
</g>
<!-- Node1&#45;&gt;Node5 -->
<g id="edge4" class="edge">
<title>Node1&#45;&gt;Node5</title>
<path fill="none" stroke="black" d="M152.68,-459.3C171.03,-475.46 201.18,-499.91 231,-515 237.56,-518.32 244.66,-521.27 251.83,-523.86"/>
<polygon fill="black" stroke="black" points="154.9,-456.6 145.12,-452.53 150.23,-461.81 154.9,-456.6"/>
</g>
<!-- Node12 -->
<g id="node11" class="node">
<title>Node12</title>
<g id="a_node11"><a xlink:href="group__RCC__AHB1__LowPower__Enable__Disable.html" target="_top" xlink:title="Enable or disable the AHB1 peripheral clock during Low Power (Sleep) mode.">
<polygon fill="white" stroke="black" points="374,-506 249,-506 249,-476 374,-476 374,-506"/>
<text text-anchor="start" x="257" y="-494" font-family="Helvetica,sans-Serif" font-size="10.00">AHB1 Peripheral Low</text>
<text text-anchor="middle" x="311.5" y="-483" font-family="Helvetica,sans-Serif" font-size="10.00"> Power Enable Disable</text>
</a>
</g>
</g>
<!-- Node1&#45;&gt;Node12 -->
<g id="edge11" class="edge">
<title>Node1&#45;&gt;Node12</title>
<path fill="none" stroke="black" d="M179.93,-455.29C202.93,-461.58 231.13,-469.29 255.43,-475.94"/>
<polygon fill="black" stroke="black" points="180.66,-451.86 170.09,-452.6 178.82,-458.61 180.66,-451.86"/>
</g>
<!-- Node7 -->
<g id="node12" class="node">
<title>Node7</title>
<g id="a_node12"><a xlink:href="group__RCC__APB2__Clock__Enable__Disable.html" target="_top" xlink:title="Enable or disable the High Speed APB (APB2) peripheral clock.">
<polygon fill="white" stroke="black" points="374,-458 249,-458 249,-428 374,-428 374,-458"/>
<text text-anchor="start" x="257" y="-446" font-family="Helvetica,sans-Serif" font-size="10.00">APB2 Peripheral Clock</text>
<text text-anchor="middle" x="311.5" y="-435" font-family="Helvetica,sans-Serif" font-size="10.00"> Enable Disable</text>
</a>
</g>
</g>
<!-- Node1&#45;&gt;Node7 -->
<g id="edge6" class="edge">
<title>Node1&#45;&gt;Node7</title>
<path fill="none" stroke="black" d="M205.66,-443C219.94,-443 234.85,-443 248.8,-443"/>
<polygon fill="black" stroke="black" points="205.4,-439.5 195.4,-443 205.4,-446.5 205.4,-439.5"/>
</g>
<!-- Node11 -->
<g id="node13" class="node">
<title>Node11</title>
<g id="a_node13"><a xlink:href="group__RCC__APB2__Force__Release__Reset.html" target="_top" xlink:title="Force or release APB2 peripheral reset.">
<polygon fill="white" stroke="black" points="368,-410 255,-410 255,-380 368,-380 368,-410"/>
<text text-anchor="start" x="263" y="-398" font-family="Helvetica,sans-Serif" font-size="10.00">APB2 Force Release</text>
<text text-anchor="middle" x="311.5" y="-387" font-family="Helvetica,sans-Serif" font-size="10.00"> Reset</text>
</a>
</g>
</g>
<!-- Node1&#45;&gt;Node11 -->
<g id="edge10" class="edge">
<title>Node1&#45;&gt;Node11</title>
<path fill="none" stroke="black" d="M179.93,-430.71C202.93,-424.42 231.13,-416.71 255.43,-410.06"/>
<polygon fill="black" stroke="black" points="178.82,-427.39 170.09,-433.4 180.66,-434.14 178.82,-427.39"/>
</g>
<!-- Node15 -->
<g id="node14" class="node">
<title>Node15</title>
<g id="a_node14"><a xlink:href="group__RCC__HSI__Configuration.html" target="_top" xlink:title=" ">
<polygon fill="white" stroke="black" points="362,-361.5 261,-361.5 261,-342.5 362,-342.5 362,-361.5"/>
<text text-anchor="middle" x="311.5" y="-349.5" font-family="Helvetica,sans-Serif" font-size="10.00">HSI Configuration</text>
</a>
</g>
</g>
<!-- Node1&#45;&gt;Node15 -->
<g id="edge14" class="edge">
<title>Node1&#45;&gt;Node15</title>
<path fill="none" stroke="black" d="M152.21,-426.59C170.39,-410.15 200.58,-385.28 231,-371 240.25,-366.66 250.58,-363.25 260.66,-360.61"/>
<polygon fill="black" stroke="black" points="149.71,-424.13 144.74,-433.49 154.46,-429.28 149.71,-424.13"/>
</g>
<!-- Node20 -->
<g id="node15" class="node">
<title>Node20</title>
<g id="a_node15"><a xlink:href="group__RCC__PLL__Configuration.html" target="_top" xlink:title=" ">
<polygon fill="white" stroke="black" points="362,-324.5 261,-324.5 261,-305.5 362,-305.5 362,-324.5"/>
<text text-anchor="middle" x="311.5" y="-312.5" font-family="Helvetica,sans-Serif" font-size="10.00">PLL Configuration</text>
</a>
</g>
</g>
<!-- Node1&#45;&gt;Node20 -->
<g id="edge19" class="edge">
<title>Node1&#45;&gt;Node20</title>
<path fill="none" stroke="black" d="M145.89,-424.42C161.48,-399.56 192.57,-355.93 231,-333 239.99,-327.63 250.43,-323.87 260.72,-321.22"/>
<polygon fill="black" stroke="black" points="142.73,-422.88 140.52,-433.24 148.71,-426.52 142.73,-422.88"/>
</g>
<!-- Node17 -->
<g id="node16" class="node">
<title>Node17</title>
<g id="a_node16"><a xlink:href="group__RCC__HSE__Configuration.html" target="_top" xlink:title=" ">
<polygon fill="white" stroke="black" points="363.5,-287.5 259.5,-287.5 259.5,-268.5 363.5,-268.5 363.5,-287.5"/>
<text text-anchor="middle" x="311.5" y="-275.5" font-family="Helvetica,sans-Serif" font-size="10.00">HSE Configuration</text>
</a>
</g>
</g>
<!-- Node1&#45;&gt;Node17 -->
<g id="edge16" class="edge">
<title>Node1&#45;&gt;Node17</title>
<path fill="none" stroke="black" d="M141.99,-423.75C154.59,-391.89 184.23,-328.51 231,-296 239.37,-290.18 249.31,-286.22 259.29,-283.52"/>
<polygon fill="black" stroke="black" points="138.66,-422.66 138.37,-433.25 145.2,-425.15 138.66,-422.66"/>
</g>
<!-- Node22 -->
<g id="node17" class="node">
<title>Node22</title>
<g id="a_node17"><a xlink:href="group__RCCEx__MCOx__Clock__Config.html" target="_top" xlink:title=" ">
<polygon fill="white" stroke="black" points="385.5,-250 237.5,-250 237.5,-220 385.5,-220 385.5,-250"/>
<text text-anchor="start" x="245.5" y="-238" font-family="Helvetica,sans-Serif" font-size="10.00">RCC Extended MCOx Clock</text>
<text text-anchor="middle" x="311.5" y="-227" font-family="Helvetica,sans-Serif" font-size="10.00"> Config</text>
</a>
</g>
</g>
<!-- Node1&#45;&gt;Node22 -->
<g id="edge21" class="edge">
<title>Node1&#45;&gt;Node22</title>
<path fill="none" stroke="black" d="M139.71,-423.61C149.83,-386.14 177.2,-303.55 231,-259 235.11,-255.6 239.69,-252.68 244.52,-250.17"/>
<polygon fill="black" stroke="black" points="136.32,-422.76 137.21,-433.31 143.1,-424.5 136.32,-422.76"/>
</g>
<!-- Node14 -->
<g id="node18" class="node">
<title>Node14</title>
<g id="a_node18"><a xlink:href="group__RCC__APB2__LowPower__Enable__Disable.html" target="_top" xlink:title="Enable or disable the APB2 peripheral clock during Low Power (Sleep) mode.">
<polygon fill="white" stroke="black" points="374,-202 249,-202 249,-172 374,-172 374,-202"/>
<text text-anchor="start" x="257" y="-190" font-family="Helvetica,sans-Serif" font-size="10.00">APB2 Peripheral Low</text>
<text text-anchor="middle" x="311.5" y="-179" font-family="Helvetica,sans-Serif" font-size="10.00"> Power Enable Disable</text>
</a>
</g>
</g>
<!-- Node1&#45;&gt;Node14 -->
<g id="edge13" class="edge">
<title>Node1&#45;&gt;Node14</title>
<path fill="none" stroke="black" d="M137.44,-423.32C144.01,-378.79 166.2,-269.67 231,-211 236.24,-206.26 242.38,-202.45 248.89,-199.4"/>
<polygon fill="black" stroke="black" points="133.95,-423.02 136.06,-433.4 140.88,-423.96 133.95,-423.02"/>
</g>
<!-- Node23 -->
<g id="node19" class="node">
<title>Node23</title>
<g id="a_node19"><a xlink:href="group__RCC__Flags__Interrupts__Management.html" target="_top" xlink:title="macros to manage the specified RCC Flags and interrupts.">
<polygon fill="white" stroke="black" points="392,-153.5 231,-153.5 231,-134.5 392,-134.5 392,-153.5"/>
<text text-anchor="middle" x="311.5" y="-141.5" font-family="Helvetica,sans-Serif" font-size="10.00">Flags Interrupts Management</text>
</a>
</g>
</g>
<!-- Node1&#45;&gt;Node23 -->
<g id="edge22" class="edge">
<title>Node1&#45;&gt;Node23</title>
<path fill="none" stroke="black" d="M135.59,-423.22C138.24,-372.01 152.68,-234.16 231,-163 235.2,-159.18 240.03,-156.09 245.19,-153.6"/>
<polygon fill="black" stroke="black" points="132.09,-423.15 135.17,-433.29 139.09,-423.44 132.09,-423.15"/>
</g>
<!-- Node8 -->
<g id="node21" class="node">
<title>Node8</title>
<g id="a_node21"><a xlink:href="group__RCC__APB2__Peripheral__Clock__Enable__Disable__Status.html" target="_top" xlink:title="Get the enable or disable status of the APB2 peripheral clock.">
<polygon fill="white" stroke="black" points="374.5,-116 248.5,-116 248.5,-86 374.5,-86 374.5,-116"/>
<text text-anchor="start" x="256.5" y="-104" font-family="Helvetica,sans-Serif" font-size="10.00">APB2 Peripheral Clock</text>
<text text-anchor="middle" x="311.5" y="-93" font-family="Helvetica,sans-Serif" font-size="10.00"> Enable Disable Status</text>
</a>
</g>
</g>
<!-- Node1&#45;&gt;Node8 -->
<g id="edge7" class="edge">
<title>Node1&#45;&gt;Node8</title>
<path fill="none" stroke="black" d="M134.91,-423.13C135.75,-367.73 145.91,-210.09 231,-125 236,-120 241.99,-116.04 248.42,-112.9"/>
<polygon fill="black" stroke="black" points="131.4,-423.31 134.84,-433.33 138.4,-423.35 131.4,-423.31"/>
</g>
<!-- Node19 -->
<g id="node22" class="node">
<title>Node19</title>
<g id="a_node22"><a xlink:href="group__RCC__Internal__RTC__Clock__Configuration.html" target="_top" xlink:title=" ">
<polygon fill="white" stroke="black" points="378,-67.5 245,-67.5 245,-48.5 378,-48.5 378,-67.5"/>
<text text-anchor="middle" x="311.5" y="-55.5" font-family="Helvetica,sans-Serif" font-size="10.00">RTC Clock Configuration</text>
</a>
</g>
</g>
<!-- Node1&#45;&gt;Node19 -->
<g id="edge18" class="edge">
<title>Node1&#45;&gt;Node19</title>
<path fill="none" stroke="black" d="M137.52,-423.08C146.66,-354.06 180.17,-126.72 231,-77 235.06,-73.03 239.79,-69.84 244.88,-67.28"/>
<polygon fill="black" stroke="black" points="134,-423.03 136.18,-433.4 140.94,-423.93 134,-423.03"/>
</g>
<!-- Node4 -->
<g id="node23" class="node">
<title>Node4</title>
<g id="a_node23"><a xlink:href="group__RCC__AHB1__Peripheral__Clock__Enable__Disable__Status.html" target="_top" xlink:title="Get the enable or disable status of the AHB1 peripheral clock.">
<polygon fill="white" stroke="black" points="374.5,-30 248.5,-30 248.5,0 374.5,0 374.5,-30"/>
<text text-anchor="start" x="256.5" y="-18" font-family="Helvetica,sans-Serif" font-size="10.00">AHB1 Peripheral Clock</text>
<text text-anchor="middle" x="311.5" y="-7" font-family="Helvetica,sans-Serif" font-size="10.00"> Enable Disable Status</text>
</a>
</g>
</g>
<!-- Node1&#45;&gt;Node4 -->
<g id="edge3" class="edge">
<title>Node1&#45;&gt;Node4</title>
<path fill="none" stroke="black" d="M137.12,-423.04C145.3,-349.69 177.04,-96.29 231,-39 235.84,-33.86 241.75,-29.8 248.12,-26.61"/>
<polygon fill="black" stroke="black" points="133.62,-422.89 136.01,-433.21 140.57,-423.65 133.62,-422.89"/>
</g>
<!-- Node2 -->
<g id="node20" class="node">
<title>Node2</title>
<g id="a_node20"><a xlink:href="group__RCC.html" target="_top" xlink:title="RCC HAL module driver.">
<polygon fill="white" stroke="black" points="37,-452.5 0,-452.5 0,-433.5 37,-433.5 37,-452.5"/>
<text text-anchor="middle" x="18.5" y="-440.5" font-family="Helvetica,sans-Serif" font-size="10.00">RCC</text>
</a>
</g>
</g>
<!-- Node2&#45;&gt;Node1 -->
<g id="edge1" class="edge">
<title>Node2&#45;&gt;Node1</title>
<path fill="none" stroke="black" d="M47.4,-443C55.12,-443 63.8,-443 72.59,-443"/>
<polygon fill="black" stroke="black" points="47.23,-439.5 37.23,-443 47.23,-446.5 47.23,-439.5"/>
</g>
</g>
</svg>
