<?xml version="1.0" encoding="UTF-8" standalone="no"?>
<!DOCTYPE svg PUBLIC "-//W3C//DTD SVG 1.1//EN"
 "http://www.w3.org/Graphics/SVG/1.1/DTD/svg11.dtd">
<!-- Generated by graphviz version 2.43.0 (0)
 -->
<!-- Title: TIM Pages: 1 -->
<svg width="382pt" height="249pt"
 viewBox="0.00 0.00 382.00 249.00" xmlns="http://www.w3.org/2000/svg" xmlns:xlink="http://www.w3.org/1999/xlink">
<g id="graph0" class="graph" transform="scale(1 1) rotate(0) translate(4 245)">
<title>TIM</title>
<polygon fill="white" stroke="transparent" points="-4,4 -4,-245 378,-245 378,4 -4,4"/>
<!-- Node3 -->
<g id="node1" class="node">
<title>Node3</title>
<g id="a_node1"><a xlink:href="group__TIM__Exported__Types.html" target="_top" xlink:title=" ">
<polygon fill="white" stroke="black" points="363.5,-241 251.5,-241 251.5,-222 363.5,-222 363.5,-241"/>
<text text-anchor="middle" x="307.5" y="-229" font-family="Helvetica,sans-Serif" font-size="10.00">TIM Exported Types</text>
</a>
</g>
</g>
<!-- Node7 -->
<g id="node2" class="node">
<title>Node7</title>
<g id="a_node2"><a xlink:href="group__TIM__Private__Macros.html" target="_top" xlink:title=" ">
<polygon fill="white" stroke="black" points="362.5,-204 252.5,-204 252.5,-185 362.5,-185 362.5,-204"/>
<text text-anchor="middle" x="307.5" y="-192" font-family="Helvetica,sans-Serif" font-size="10.00">TIM Private Macros</text>
</a>
</g>
</g>
<!-- Node6 -->
<g id="node3" class="node">
<title>Node6</title>
<g id="a_node3"><a xlink:href="group__TIM__Private__Constants.html" target="_top" xlink:title=" ">
<polygon fill="white" stroke="black" points="369.5,-167 245.5,-167 245.5,-148 369.5,-148 369.5,-167"/>
<text text-anchor="middle" x="307.5" y="-155" font-family="Helvetica,sans-Serif" font-size="10.00">TIM Private Constants</text>
</a>
</g>
</g>
<!-- Node9 -->
<g id="node4" class="node">
<title>Node9</title>
<g id="a_node4"><a xlink:href="group__TIM__Exported__Functions.html" target="_top" xlink:title=" ">
<polygon fill="white" stroke="black" points="373,-130 242,-130 242,-111 373,-111 373,-130"/>
<text text-anchor="middle" x="307.5" y="-118" font-family="Helvetica,sans-Serif" font-size="10.00">TIM Exported Functions</text>
</a>
</g>
</g>
<!-- Node4 -->
<g id="node5" class="node">
<title>Node4</title>
<g id="a_node5"><a xlink:href="group__TIM__Exported__Constants.html" target="_top" xlink:title=" ">
<polygon fill="white" stroke="black" points="374,-93 241,-93 241,-74 374,-74 374,-93"/>
<text text-anchor="middle" x="307.5" y="-81" font-family="Helvetica,sans-Serif" font-size="10.00">TIM Exported Constants</text>
</a>
</g>
</g>
<!-- Node5 -->
<g id="node6" class="node">
<title>Node5</title>
<g id="a_node6"><a xlink:href="group__TIM__Exported__Macros.html" target="_top" xlink:title=" ">
<polygon fill="white" stroke="black" points="367,-56 248,-56 248,-37 367,-37 367,-56"/>
<text text-anchor="middle" x="307.5" y="-44" font-family="Helvetica,sans-Serif" font-size="10.00">TIM Exported Macros</text>
</a>
</g>
</g>
<!-- Node1 -->
<g id="node7" class="node">
<title>Node1</title>
<g id="a_node7"><a xlink:title="TIM HAL module driver.">
<polygon fill="#bfbfbf" stroke="black" points="205,-130 170,-130 170,-111 205,-111 205,-130"/>
<text text-anchor="middle" x="187.5" y="-118" font-family="Helvetica,sans-Serif" font-size="10.00">TIM</text>
</a>
</g>
</g>
<!-- Node1&#45;&gt;Node3 -->
<g id="edge2" class="edge">
<title>Node1&#45;&gt;Node3</title>
<path fill="none" stroke="black" d="M194.3,-139.57C201.72,-160.75 216.61,-194.47 241,-213.5 245.37,-216.91 250.34,-219.67 255.55,-221.91"/>
<polygon fill="black" stroke="black" points="197.61,-138.45 191.17,-130.04 190.96,-140.63 197.61,-138.45"/>
</g>
<!-- Node1&#45;&gt;Node7 -->
<g id="edge6" class="edge">
<title>Node1&#45;&gt;Node7</title>
<path fill="none" stroke="black" d="M201.23,-138.63C210.82,-151.01 225.02,-166.86 241,-176.5 246.65,-179.91 252.97,-182.69 259.39,-184.95"/>
<polygon fill="black" stroke="black" points="203.87,-136.32 195.1,-130.37 198.24,-140.49 203.87,-136.32"/>
</g>
<!-- Node1&#45;&gt;Node6 -->
<g id="edge5" class="edge">
<title>Node1&#45;&gt;Node6</title>
<path fill="none" stroke="black" d="M214.95,-130.54C223.25,-133.56 232.46,-136.79 241,-139.5 250.22,-142.43 260.25,-145.33 269.63,-147.92"/>
<polygon fill="black" stroke="black" points="216,-127.19 205.41,-127 213.57,-133.76 216,-127.19"/>
</g>
<!-- Node1&#45;&gt;Node9 -->
<g id="edge8" class="edge">
<title>Node1&#45;&gt;Node9</title>
<path fill="none" stroke="black" d="M215.27,-120.5C223.28,-120.5 232.42,-120.5 241.76,-120.5"/>
<polygon fill="black" stroke="black" points="215.16,-117 205.16,-120.5 215.16,-124 215.16,-117"/>
</g>
<!-- Node1&#45;&gt;Node4 -->
<g id="edge3" class="edge">
<title>Node1&#45;&gt;Node4</title>
<path fill="none" stroke="black" d="M214.95,-110.46C223.25,-107.44 232.46,-104.21 241,-101.5 250.22,-98.57 260.25,-95.67 269.63,-93.08"/>
<polygon fill="black" stroke="black" points="213.57,-107.24 205.41,-114 216,-113.81 213.57,-107.24"/>
</g>
<!-- Node1&#45;&gt;Node5 -->
<g id="edge4" class="edge">
<title>Node1&#45;&gt;Node5</title>
<path fill="none" stroke="black" d="M201.23,-102.37C210.82,-89.99 225.02,-74.14 241,-64.5 246.65,-61.09 252.97,-58.31 259.39,-56.05"/>
<polygon fill="black" stroke="black" points="198.24,-100.51 195.1,-110.63 203.87,-104.68 198.24,-100.51"/>
</g>
<!-- Node8 -->
<g id="node9" class="node">
<title>Node8</title>
<g id="a_node9"><a xlink:href="group__TIM__Private__Functions.html" target="_top" xlink:title=" ">
<polygon fill="white" stroke="black" points="368.5,-19 246.5,-19 246.5,0 368.5,0 368.5,-19"/>
<text text-anchor="middle" x="307.5" y="-7" font-family="Helvetica,sans-Serif" font-size="10.00">TIM Private Functions</text>
</a>
</g>
</g>
<!-- Node1&#45;&gt;Node8 -->
<g id="edge7" class="edge">
<title>Node1&#45;&gt;Node8</title>
<path fill="none" stroke="black" d="M194.3,-101.43C201.72,-80.25 216.61,-46.53 241,-27.5 245.37,-24.09 250.34,-21.33 255.55,-19.09"/>
<polygon fill="black" stroke="black" points="190.96,-100.37 191.17,-110.96 197.61,-102.55 190.96,-100.37"/>
</g>
<!-- Node2 -->
<g id="node8" class="node">
<title>Node2</title>
<g id="a_node8"><a xlink:href="group__STM32F4xx__HAL__Driver.html" target="_top" xlink:title=" ">
<polygon fill="white" stroke="black" points="134,-130 0,-130 0,-111 134,-111 134,-130"/>
<text text-anchor="middle" x="67" y="-118" font-family="Helvetica,sans-Serif" font-size="10.00">STM32F4xx_HAL_Driver</text>
</a>
</g>
</g>
<!-- Node2&#45;&gt;Node1 -->
<g id="edge1" class="edge">
<title>Node2&#45;&gt;Node1</title>
<path fill="none" stroke="black" d="M144.21,-120.5C153.66,-120.5 162.49,-120.5 169.6,-120.5"/>
<polygon fill="black" stroke="black" points="144.18,-117 134.18,-120.5 144.18,-124 144.18,-117"/>
</g>
</g>
</svg>
