<?xml version="1.0" encoding="UTF-8" standalone="no"?>
<!DOCTYPE svg PUBLIC "-//W3C//DTD SVG 1.1//EN"
 "http://www.w3.org/Graphics/SVG/1.1/DTD/svg11.dtd">
<!-- Generated by graphviz version 2.43.0 (0)
 -->
<!-- Title: GPIO Private Macros Pages: 1 -->
<svg width="371pt" height="76pt"
 viewBox="0.00 0.00 371.00 75.50" xmlns="http://www.w3.org/2000/svg" xmlns:xlink="http://www.w3.org/1999/xlink">
<g id="graph0" class="graph" transform="scale(1 1) rotate(0) translate(4 71.5)">
<title>GPIO Private Macros</title>
<polygon fill="white" stroke="transparent" points="-4,4 -4,-71.5 367,-71.5 367,4 -4,4"/>
<!-- Node2 -->
<g id="node1" class="node">
<title>Node2</title>
<g id="a_node1"><a xlink:href="group__GPIOEx.html" target="_top" xlink:title=" ">
<polygon fill="white" stroke="black" points="53,-40 0,-40 0,-21 53,-21 53,-40"/>
<text text-anchor="middle" x="26.5" y="-28" font-family="Helvetica,sans-Serif" font-size="10.00">GPIOEx</text>
</a>
</g>
</g>
<!-- Node1 -->
<g id="node4" class="node">
<title>Node1</title>
<g id="a_node4"><a xlink:title=" ">
<polygon fill="#bfbfbf" stroke="black" points="205,-40 89,-40 89,-21 205,-21 205,-40"/>
<text text-anchor="middle" x="147" y="-28" font-family="Helvetica,sans-Serif" font-size="10.00">GPIO Private Macros</text>
</a>
</g>
</g>
<!-- Node2&#45;&gt;Node1 -->
<g id="edge1" class="edge">
<title>Node2&#45;&gt;Node1</title>
<path fill="none" stroke="black" d="M63.31,-30.5C71.35,-30.5 80.06,-30.5 88.72,-30.5"/>
<polygon fill="black" stroke="black" points="63.21,-27 53.21,-30.5 63.21,-34 63.21,-27"/>
</g>
<!-- Node4 -->
<g id="node2" class="node">
<title>Node4</title>
<g id="a_node2"><a xlink:href="group__GPIOEx__IS__Alternat__function__selection.html" target="_top" xlink:title=" ">
<polygon fill="white" stroke="black" points="363,-67.5 241,-67.5 241,-37.5 363,-37.5 363,-67.5"/>
<text text-anchor="start" x="249" y="-55.5" font-family="Helvetica,sans-Serif" font-size="10.00">GPIO Check Alternate</text>
<text text-anchor="middle" x="302" y="-44.5" font-family="Helvetica,sans-Serif" font-size="10.00"> Function</text>
</a>
</g>
</g>
<!-- Node3 -->
<g id="node3" class="node">
<title>Node3</title>
<g id="a_node3"><a xlink:href="group__GPIOEx__Get__Port__Index.html" target="_top" xlink:title=" ">
<polygon fill="white" stroke="black" points="358.5,-19 245.5,-19 245.5,0 358.5,0 358.5,-19"/>
<text text-anchor="middle" x="302" y="-7" font-family="Helvetica,sans-Serif" font-size="10.00">GPIO Get Port Index</text>
</a>
</g>
</g>
<!-- Node1&#45;&gt;Node4 -->
<g id="edge3" class="edge">
<title>Node1&#45;&gt;Node4</title>
<path fill="none" stroke="black" d="M215.33,-40.18C223.87,-41.41 232.56,-42.66 240.97,-43.87"/>
<polygon fill="black" stroke="black" points="215.8,-36.71 205.41,-38.75 214.81,-43.64 215.8,-36.71"/>
</g>
<!-- Node1&#45;&gt;Node3 -->
<g id="edge2" class="edge">
<title>Node1&#45;&gt;Node3</title>
<path fill="none" stroke="black" d="M215.32,-21.26C225.34,-19.89 235.56,-18.48 245.3,-17.14"/>
<polygon fill="black" stroke="black" points="214.84,-17.79 205.41,-22.62 215.79,-24.73 214.84,-17.79"/>
</g>
</g>
</svg>
