<?xml version="1.0" encoding="UTF-8" standalone="no"?>
<!DOCTYPE svg PUBLIC "-//W3C//DTD SVG 1.1//EN"
 "http://www.w3.org/Graphics/SVG/1.1/DTD/svg11.dtd">
<!-- Generated by graphviz version 2.43.0 (0)
 -->
<!-- Title: hal&#45;driver/Inc/stm32f4xx_hal_i2c.h Pages: 1 -->
<svg width="392pt" height="151pt"
 viewBox="0.00 0.00 391.50 151.00" xmlns="http://www.w3.org/2000/svg" xmlns:xlink="http://www.w3.org/1999/xlink">
<g id="graph0" class="graph" transform="scale(1 1) rotate(0) translate(4 147)">
<title>hal&#45;driver/Inc/stm32f4xx_hal_i2c.h</title>
<polygon fill="white" stroke="transparent" points="-4,4 -4,-147 387.5,-147 387.5,4 -4,4"/>
<!-- Node1 -->
<g id="node1" class="node">
<title>Node1</title>
<g id="a_node1"><a xlink:title="Header file of I2C HAL module.">
<polygon fill="#bfbfbf" stroke="black" points="174.5,-112.5 174.5,-142.5 311.5,-142.5 311.5,-112.5 174.5,-112.5"/>
<text text-anchor="start" x="182.5" y="-130.5" font-family="Helvetica,sans-Serif" font-size="10.00">hal&#45;driver/Inc/stm32f4xx</text>
<text text-anchor="middle" x="243" y="-119.5" font-family="Helvetica,sans-Serif" font-size="10.00">_hal_i2c.h</text>
</a>
</g>
</g>
<!-- Node2 -->
<g id="node2" class="node">
<title>Node2</title>
<g id="a_node2"><a xlink:href="stm32f4xx__hal__def_8h.html" target="_top" xlink:title="This file contains HAL common defines, enumeration, macros and structures definitions.">
<polygon fill="white" stroke="black" points="111.5,-56.5 111.5,-75.5 230.5,-75.5 230.5,-56.5 111.5,-56.5"/>
<text text-anchor="middle" x="171" y="-63.5" font-family="Helvetica,sans-Serif" font-size="10.00">stm32f4xx_hal_def.h</text>
</a>
</g>
</g>
<!-- Node1&#45;&gt;Node2 -->
<g id="edge1" class="edge">
<title>Node1&#45;&gt;Node2</title>
<path fill="none" stroke="midnightblue" d="M225.94,-112.4C214.94,-103.31 200.63,-91.49 189.38,-82.19"/>
<polygon fill="midnightblue" stroke="midnightblue" points="191.41,-79.33 181.48,-75.66 186.96,-84.73 191.41,-79.33"/>
</g>
<!-- Node6 -->
<g id="node6" class="node">
<title>Node6</title>
<g id="a_node6"><a xlink:href="stm32f4xx__hal__i2c__ex_8h.html" target="_top" xlink:title="Header file of I2C HAL Extension module.">
<polygon fill="white" stroke="black" points="248.5,-56.5 248.5,-75.5 383.5,-75.5 383.5,-56.5 248.5,-56.5"/>
<text text-anchor="middle" x="316" y="-63.5" font-family="Helvetica,sans-Serif" font-size="10.00">stm32f4xx_hal_i2c_ex.h</text>
</a>
</g>
</g>
<!-- Node1&#45;&gt;Node6 -->
<g id="edge5" class="edge">
<title>Node1&#45;&gt;Node6</title>
<path fill="none" stroke="midnightblue" d="M260.3,-112.4C271.45,-103.31 285.95,-91.49 297.36,-82.19"/>
<polygon fill="midnightblue" stroke="midnightblue" points="299.84,-84.69 305.38,-75.66 295.42,-79.26 299.84,-84.69"/>
</g>
<!-- Node3 -->
<g id="node3" class="node">
<title>Node3</title>
<g id="a_node3"><a xlink:title=" ">
<polygon fill="white" stroke="#bfbfbf" points="0,-0.5 0,-19.5 78,-19.5 78,-0.5 0,-0.5"/>
<text text-anchor="middle" x="39" y="-7.5" font-family="Helvetica,sans-Serif" font-size="10.00">stm32f4xx.h</text>
</a>
</g>
</g>
<!-- Node2&#45;&gt;Node3 -->
<g id="edge2" class="edge">
<title>Node2&#45;&gt;Node3</title>
<path fill="none" stroke="midnightblue" d="M150.08,-56.44C128.26,-47.52 93.85,-33.44 69.11,-23.32"/>
<polygon fill="midnightblue" stroke="midnightblue" points="70.4,-20.06 59.82,-19.52 67.75,-26.54 70.4,-20.06"/>
</g>
<!-- Node4 -->
<g id="node4" class="node">
<title>Node4</title>
<g id="a_node4"><a xlink:title=" ">
<polygon fill="white" stroke="#bfbfbf" points="96,-0.5 96,-19.5 246,-19.5 246,-0.5 96,-0.5"/>
<text text-anchor="middle" x="171" y="-7.5" font-family="Helvetica,sans-Serif" font-size="10.00">Legacy/stm32_hal_legacy.h</text>
</a>
</g>
</g>
<!-- Node2&#45;&gt;Node4 -->
<g id="edge3" class="edge">
<title>Node2&#45;&gt;Node4</title>
<path fill="none" stroke="midnightblue" d="M171,-56.08C171,-49.01 171,-38.86 171,-29.99"/>
<polygon fill="midnightblue" stroke="midnightblue" points="174.5,-29.75 171,-19.75 167.5,-29.75 174.5,-29.75"/>
</g>
<!-- Node5 -->
<g id="node5" class="node">
<title>Node5</title>
<g id="a_node5"><a xlink:title=" ">
<polygon fill="white" stroke="#bfbfbf" points="264,-0.5 264,-19.5 320,-19.5 320,-0.5 264,-0.5"/>
<text text-anchor="middle" x="292" y="-7.5" font-family="Helvetica,sans-Serif" font-size="10.00">stddef.h</text>
</a>
</g>
</g>
<!-- Node2&#45;&gt;Node5 -->
<g id="edge4" class="edge">
<title>Node2&#45;&gt;Node5</title>
<path fill="none" stroke="midnightblue" d="M190.17,-56.44C209.91,-47.64 240.89,-33.81 263.49,-23.72"/>
<polygon fill="midnightblue" stroke="midnightblue" points="265.21,-26.79 272.92,-19.52 262.36,-20.4 265.21,-26.79"/>
</g>
</g>
</svg>
