<?xml version="1.0" encoding="UTF-8" standalone="no"?>
<!DOCTYPE svg PUBLIC "-//W3C//DTD SVG 1.1//EN"
 "http://www.w3.org/Graphics/SVG/1.1/DTD/svg11.dtd">
<!-- Generated by graphviz version 2.43.0 (0)
 -->
<!-- Title: hal&#45;driver/Inc/stm32f4xx_hal_rtc.h Pages: 1 -->
<svg width="328pt" height="207pt"
 viewBox="0.00 0.00 328.00 207.00" xmlns="http://www.w3.org/2000/svg" xmlns:xlink="http://www.w3.org/1999/xlink">
<g id="graph0" class="graph" transform="scale(1 1) rotate(0) translate(4 203)">
<title>hal&#45;driver/Inc/stm32f4xx_hal_rtc.h</title>
<polygon fill="white" stroke="transparent" points="-4,4 -4,-203 324,-203 324,4 -4,4"/>
<!-- Node1 -->
<g id="node1" class="node">
<title>Node1</title>
<g id="a_node1"><a xlink:title="Header file of RTC HAL module.">
<polygon fill="#bfbfbf" stroke="black" points="102.5,-168.5 102.5,-198.5 239.5,-198.5 239.5,-168.5 102.5,-168.5"/>
<text text-anchor="start" x="110.5" y="-186.5" font-family="Helvetica,sans-Serif" font-size="10.00">hal&#45;driver/Inc/stm32f4xx</text>
<text text-anchor="middle" x="171" y="-175.5" font-family="Helvetica,sans-Serif" font-size="10.00">_hal_rtc.h</text>
</a>
</g>
</g>
<!-- Node2 -->
<g id="node2" class="node">
<title>Node2</title>
<g id="a_node2"><a xlink:href="stm32f4xx__hal__def_8h.html" target="_top" xlink:title="This file contains HAL common defines, enumeration, macros and structures definitions.">
<polygon fill="white" stroke="black" points="111.5,-56.5 111.5,-75.5 230.5,-75.5 230.5,-56.5 111.5,-56.5"/>
<text text-anchor="middle" x="171" y="-63.5" font-family="Helvetica,sans-Serif" font-size="10.00">stm32f4xx_hal_def.h</text>
</a>
</g>
</g>
<!-- Node1&#45;&gt;Node2 -->
<g id="edge1" class="edge">
<title>Node1&#45;&gt;Node2</title>
<path fill="none" stroke="midnightblue" d="M159.51,-168.48C149.44,-154.45 137.25,-132.13 143,-112 145.9,-101.84 151.83,-91.75 157.49,-83.7"/>
<polygon fill="midnightblue" stroke="midnightblue" points="160.38,-85.69 163.59,-75.59 154.78,-81.48 160.38,-85.69"/>
</g>
<!-- Node6 -->
<g id="node6" class="node">
<title>Node6</title>
<g id="a_node6"><a xlink:href="stm32f4xx__hal__rtc__ex_8h.html" target="_top" xlink:title="Header file of RTC HAL Extended module.">
<polygon fill="white" stroke="black" points="152,-112.5 152,-131.5 286,-131.5 286,-112.5 152,-112.5"/>
<text text-anchor="middle" x="219" y="-119.5" font-family="Helvetica,sans-Serif" font-size="10.00">stm32f4xx_hal_rtc_ex.h</text>
</a>
</g>
</g>
<!-- Node1&#45;&gt;Node6 -->
<g id="edge5" class="edge">
<title>Node1&#45;&gt;Node6</title>
<path fill="none" stroke="midnightblue" d="M182.38,-168.4C189.35,-159.75 198.31,-148.64 205.63,-139.58"/>
<polygon fill="midnightblue" stroke="midnightblue" points="208.46,-141.64 212.02,-131.66 203.01,-137.24 208.46,-141.64"/>
</g>
<!-- Node3 -->
<g id="node3" class="node">
<title>Node3</title>
<g id="a_node3"><a xlink:title=" ">
<polygon fill="white" stroke="#bfbfbf" points="0,-0.5 0,-19.5 78,-19.5 78,-0.5 0,-0.5"/>
<text text-anchor="middle" x="39" y="-7.5" font-family="Helvetica,sans-Serif" font-size="10.00">stm32f4xx.h</text>
</a>
</g>
</g>
<!-- Node2&#45;&gt;Node3 -->
<g id="edge2" class="edge">
<title>Node2&#45;&gt;Node3</title>
<path fill="none" stroke="midnightblue" d="M150.08,-56.44C128.26,-47.52 93.85,-33.44 69.11,-23.32"/>
<polygon fill="midnightblue" stroke="midnightblue" points="70.4,-20.06 59.82,-19.52 67.75,-26.54 70.4,-20.06"/>
</g>
<!-- Node4 -->
<g id="node4" class="node">
<title>Node4</title>
<g id="a_node4"><a xlink:title=" ">
<polygon fill="white" stroke="#bfbfbf" points="96,-0.5 96,-19.5 246,-19.5 246,-0.5 96,-0.5"/>
<text text-anchor="middle" x="171" y="-7.5" font-family="Helvetica,sans-Serif" font-size="10.00">Legacy/stm32_hal_legacy.h</text>
</a>
</g>
</g>
<!-- Node2&#45;&gt;Node4 -->
<g id="edge3" class="edge">
<title>Node2&#45;&gt;Node4</title>
<path fill="none" stroke="midnightblue" d="M171,-56.08C171,-49.01 171,-38.86 171,-29.99"/>
<polygon fill="midnightblue" stroke="midnightblue" points="174.5,-29.75 171,-19.75 167.5,-29.75 174.5,-29.75"/>
</g>
<!-- Node5 -->
<g id="node5" class="node">
<title>Node5</title>
<g id="a_node5"><a xlink:title=" ">
<polygon fill="white" stroke="#bfbfbf" points="264,-0.5 264,-19.5 320,-19.5 320,-0.5 264,-0.5"/>
<text text-anchor="middle" x="292" y="-7.5" font-family="Helvetica,sans-Serif" font-size="10.00">stddef.h</text>
</a>
</g>
</g>
<!-- Node2&#45;&gt;Node5 -->
<g id="edge4" class="edge">
<title>Node2&#45;&gt;Node5</title>
<path fill="none" stroke="midnightblue" d="M190.17,-56.44C209.91,-47.64 240.89,-33.81 263.49,-23.72"/>
<polygon fill="midnightblue" stroke="midnightblue" points="265.21,-26.79 272.92,-19.52 262.36,-20.4 265.21,-26.79"/>
</g>
<!-- Node6&#45;&gt;Node2 -->
<g id="edge6" class="edge">
<title>Node6&#45;&gt;Node2</title>
<path fill="none" stroke="midnightblue" d="M211.07,-112.08C204.15,-104.3 193.93,-92.8 185.55,-83.37"/>
<polygon fill="midnightblue" stroke="midnightblue" points="188.04,-80.9 178.78,-75.75 182.81,-85.55 188.04,-80.9"/>
</g>
</g>
</svg>
