<?xml version="1.0" encoding="UTF-8" standalone="no"?>
<!DOCTYPE svg PUBLIC "-//W3C//DTD SVG 1.1//EN"
 "http://www.w3.org/Graphics/SVG/1.1/DTD/svg11.dtd">
<!-- Generated by graphviz version 2.43.0 (0)
 -->
<!-- Title: hal&#45;driver/Inc/stm32f4xx_hal_adc.h Pages: 1 -->
<svg width="381pt" height="207pt"
 viewBox="0.00 0.00 381.00 207.00" xmlns="http://www.w3.org/2000/svg" xmlns:xlink="http://www.w3.org/1999/xlink">
<g id="graph0" class="graph" transform="scale(1 1) rotate(0) translate(4 203)">
<title>hal&#45;driver/Inc/stm32f4xx_hal_adc.h</title>
<polygon fill="white" stroke="transparent" points="-4,4 -4,-203 377,-203 377,4 -4,4"/>
<!-- Node1 -->
<g id="node1" class="node">
<title>Node1</title>
<g id="a_node1"><a xlink:title="Header file containing functions prototypes of ADC HAL library.">
<polygon fill="#bfbfbf" stroke="black" points="151.5,-168.5 151.5,-198.5 288.5,-198.5 288.5,-168.5 151.5,-168.5"/>
<text text-anchor="start" x="159.5" y="-186.5" font-family="Helvetica,sans-Serif" font-size="10.00">hal&#45;driver/Inc/stm32f4xx</text>
<text text-anchor="middle" x="220" y="-175.5" font-family="Helvetica,sans-Serif" font-size="10.00">_hal_adc.h</text>
</a>
</g>
</g>
<!-- Node2 -->
<g id="node2" class="node">
<title>Node2</title>
<g id="a_node2"><a xlink:href="stm32f4xx__hal__def_8h.html" target="_top" xlink:title="This file contains HAL common defines, enumeration, macros and structures definitions.">
<polygon fill="white" stroke="black" points="123.5,-56.5 123.5,-75.5 242.5,-75.5 242.5,-56.5 123.5,-56.5"/>
<text text-anchor="middle" x="183" y="-63.5" font-family="Helvetica,sans-Serif" font-size="10.00">stm32f4xx_hal_def.h</text>
</a>
</g>
</g>
<!-- Node1&#45;&gt;Node2 -->
<g id="edge1" class="edge">
<title>Node1&#45;&gt;Node2</title>
<path fill="none" stroke="midnightblue" d="M183.55,-168.46C167.79,-160.35 150.94,-148.44 142,-132 132.43,-114.4 148.2,-95.08 162.87,-82.11"/>
<polygon fill="midnightblue" stroke="midnightblue" points="165.26,-84.68 170.74,-75.62 160.8,-79.28 165.26,-84.68"/>
</g>
<!-- Node6 -->
<g id="node6" class="node">
<title>Node6</title>
<g id="a_node6"><a xlink:href="stm32f4xx__ll__adc_8h.html" target="_top" xlink:title="Header file of ADC LL module.">
<polygon fill="white" stroke="black" points="261,-56.5 261,-75.5 373,-75.5 373,-56.5 261,-56.5"/>
<text text-anchor="middle" x="317" y="-63.5" font-family="Helvetica,sans-Serif" font-size="10.00">stm32f4xx_ll_adc.h</text>
</a>
</g>
</g>
<!-- Node1&#45;&gt;Node6 -->
<g id="edge5" class="edge">
<title>Node1&#45;&gt;Node6</title>
<path fill="none" stroke="midnightblue" d="M252.08,-168.45C267.98,-159.99 286.24,-147.78 298,-132 307.99,-118.59 312.74,-100.03 315,-86.17"/>
<polygon fill="midnightblue" stroke="midnightblue" points="318.52,-86.23 316.36,-75.85 311.58,-85.31 318.52,-86.23"/>
</g>
<!-- Node7 -->
<g id="node7" class="node">
<title>Node7</title>
<g id="a_node7"><a xlink:href="stm32f4xx__hal__adc__ex_8h.html" target="_top" xlink:title="Header file of ADC HAL module.">
<polygon fill="white" stroke="black" points="151,-112.5 151,-131.5 289,-131.5 289,-112.5 151,-112.5"/>
<text text-anchor="middle" x="220" y="-119.5" font-family="Helvetica,sans-Serif" font-size="10.00">stm32f4xx_hal_adc_ex.h</text>
</a>
</g>
</g>
<!-- Node1&#45;&gt;Node7 -->
<g id="edge7" class="edge">
<title>Node1&#45;&gt;Node7</title>
<path fill="none" stroke="midnightblue" d="M220,-168.4C220,-160.47 220,-150.46 220,-141.86"/>
<polygon fill="midnightblue" stroke="midnightblue" points="223.5,-141.66 220,-131.66 216.5,-141.66 223.5,-141.66"/>
</g>
<!-- Node3 -->
<g id="node3" class="node">
<title>Node3</title>
<g id="a_node3"><a xlink:title=" ">
<polygon fill="white" stroke="#bfbfbf" points="266,-0.5 266,-19.5 344,-19.5 344,-0.5 266,-0.5"/>
<text text-anchor="middle" x="305" y="-7.5" font-family="Helvetica,sans-Serif" font-size="10.00">stm32f4xx.h</text>
</a>
</g>
</g>
<!-- Node2&#45;&gt;Node3 -->
<g id="edge2" class="edge">
<title>Node2&#45;&gt;Node3</title>
<path fill="none" stroke="midnightblue" d="M202.33,-56.44C222.32,-47.6 253.74,-33.69 276.56,-23.59"/>
<polygon fill="midnightblue" stroke="midnightblue" points="278.03,-26.76 285.76,-19.52 275.2,-20.36 278.03,-26.76"/>
</g>
<!-- Node4 -->
<g id="node4" class="node">
<title>Node4</title>
<g id="a_node4"><a xlink:title=" ">
<polygon fill="white" stroke="#bfbfbf" points="0,-0.5 0,-19.5 150,-19.5 150,-0.5 0,-0.5"/>
<text text-anchor="middle" x="75" y="-7.5" font-family="Helvetica,sans-Serif" font-size="10.00">Legacy/stm32_hal_legacy.h</text>
</a>
</g>
</g>
<!-- Node2&#45;&gt;Node4 -->
<g id="edge3" class="edge">
<title>Node2&#45;&gt;Node4</title>
<path fill="none" stroke="midnightblue" d="M165.65,-56.32C148.33,-47.66 121.48,-34.24 101.5,-24.25"/>
<polygon fill="midnightblue" stroke="midnightblue" points="102.82,-21 92.31,-19.65 99.69,-27.26 102.82,-21"/>
</g>
<!-- Node5 -->
<g id="node5" class="node">
<title>Node5</title>
<g id="a_node5"><a xlink:title=" ">
<polygon fill="white" stroke="#bfbfbf" points="168,-0.5 168,-19.5 224,-19.5 224,-0.5 168,-0.5"/>
<text text-anchor="middle" x="196" y="-7.5" font-family="Helvetica,sans-Serif" font-size="10.00">stddef.h</text>
</a>
</g>
</g>
<!-- Node2&#45;&gt;Node5 -->
<g id="edge4" class="edge">
<title>Node2&#45;&gt;Node5</title>
<path fill="none" stroke="midnightblue" d="M185.15,-56.08C186.87,-48.93 189.35,-38.64 191.5,-29.69"/>
<polygon fill="midnightblue" stroke="midnightblue" points="194.96,-30.29 193.89,-19.75 188.15,-28.65 194.96,-30.29"/>
</g>
<!-- Node6&#45;&gt;Node3 -->
<g id="edge6" class="edge">
<title>Node6&#45;&gt;Node3</title>
<path fill="none" stroke="midnightblue" d="M315.02,-56.08C313.43,-48.93 311.14,-38.64 309.15,-29.69"/>
<polygon fill="midnightblue" stroke="midnightblue" points="312.53,-28.75 306.94,-19.75 305.7,-30.27 312.53,-28.75"/>
</g>
<!-- Node7&#45;&gt;Node2 -->
<g id="edge8" class="edge">
<title>Node7&#45;&gt;Node2</title>
<path fill="none" stroke="midnightblue" d="M213.89,-112.08C208.72,-104.53 201.15,-93.49 194.81,-84.23"/>
<polygon fill="midnightblue" stroke="midnightblue" points="197.54,-82.02 189,-75.75 191.76,-85.98 197.54,-82.02"/>
</g>
</g>
</svg>
