<?xml version="1.0" encoding="UTF-8" standalone="no"?>
<!DOCTYPE svg PUBLIC "-//W3C//DTD SVG 1.1//EN"
 "http://www.w3.org/Graphics/SVG/1.1/DTD/svg11.dtd">
<!-- Generated by graphviz version 2.43.0 (0)
 -->
<!-- Title: IRDA_HandleTypeDef Pages: 1 -->
<svg width="258pt" height="173pt"
 viewBox="0.00 0.00 257.50 173.00" xmlns="http://www.w3.org/2000/svg" xmlns:xlink="http://www.w3.org/1999/xlink">
<g id="graph0" class="graph" transform="scale(1 1) rotate(0) translate(4 169)">
<title>IRDA_HandleTypeDef</title>
<polygon fill="white" stroke="transparent" points="-4,4 -4,-169 253.5,-169 253.5,4 -4,4"/>
<!-- Node1 -->
<g id="node1" class="node">
<title>Node1</title>
<g id="a_node1"><a xlink:title="IRDA handle Structure definition.">
<polygon fill="#bfbfbf" stroke="black" points="72,-0.5 72,-19.5 192,-19.5 192,-0.5 72,-0.5"/>
<text text-anchor="middle" x="132" y="-7.5" font-family="Helvetica,sans-Serif" font-size="10.00">IRDA_HandleTypeDef</text>
</a>
</g>
</g>
<!-- Node2 -->
<g id="node2" class="node">
<title>Node2</title>
<g id="a_node2"><a xlink:href="struct____DMA__HandleTypeDef.html" target="_top" xlink:title="DMA handle Structure definition.">
<polygon fill="white" stroke="black" points="0,-78.5 0,-97.5 130,-97.5 130,-78.5 0,-78.5"/>
<text text-anchor="middle" x="65" y="-85.5" font-family="Helvetica,sans-Serif" font-size="10.00">__DMA_HandleTypeDef</text>
</a>
</g>
</g>
<!-- Node2&#45;&gt;Node1 -->
<g id="edge1" class="edge">
<title>Node2&#45;&gt;Node1</title>
<path fill="none" stroke="#9a32cd" stroke-dasharray="5,2" d="M79.6,-70.44C93.39,-54.79 113.55,-31.93 124.4,-19.62"/>
<polygon fill="#9a32cd" stroke="#9a32cd" points="76.67,-68.47 72.69,-78.28 81.92,-73.1 76.67,-68.47"/>
<text text-anchor="middle" x="127.5" y="-52" font-family="Helvetica,sans-Serif" font-size="10.00"> hdmarx</text>
<text text-anchor="middle" x="127.5" y="-41" font-family="Helvetica,sans-Serif" font-size="10.00">hdmatx</text>
</g>
<!-- Node3 -->
<g id="node3" class="node">
<title>Node3</title>
<g id="a_node3"><a xlink:href="structDMA__InitTypeDef.html" target="_top" xlink:title="DMA Configuration Structure definition.">
<polygon fill="white" stroke="black" points="14.5,-145.5 14.5,-164.5 115.5,-164.5 115.5,-145.5 14.5,-145.5"/>
<text text-anchor="middle" x="65" y="-152.5" font-family="Helvetica,sans-Serif" font-size="10.00">DMA_InitTypeDef</text>
</a>
</g>
</g>
<!-- Node3&#45;&gt;Node2 -->
<g id="edge2" class="edge">
<title>Node3&#45;&gt;Node2</title>
<path fill="none" stroke="#9a32cd" stroke-dasharray="5,2" d="M65,-135.04C65,-122.67 65,-107.12 65,-97.63"/>
<polygon fill="#9a32cd" stroke="#9a32cd" points="61.5,-135.23 65,-145.23 68.5,-135.23 61.5,-135.23"/>
<text text-anchor="middle" x="74.5" y="-119" font-family="Helvetica,sans-Serif" font-size="10.00"> Init</text>
</g>
<!-- Node4 -->
<g id="node4" class="node">
<title>Node4</title>
<g id="a_node4"><a xlink:href="structIRDA__InitTypeDef.html" target="_top" xlink:title="IRDA Init Structure definition.">
<polygon fill="white" stroke="black" points="148.5,-78.5 148.5,-97.5 249.5,-97.5 249.5,-78.5 148.5,-78.5"/>
<text text-anchor="middle" x="199" y="-85.5" font-family="Helvetica,sans-Serif" font-size="10.00">IRDA_InitTypeDef</text>
</a>
</g>
</g>
<!-- Node4&#45;&gt;Node1 -->
<g id="edge3" class="edge">
<title>Node4&#45;&gt;Node1</title>
<path fill="none" stroke="#9a32cd" stroke-dasharray="5,2" d="M184.4,-70.44C170.61,-54.79 150.45,-31.93 139.6,-19.62"/>
<polygon fill="#9a32cd" stroke="#9a32cd" points="182.08,-73.1 191.31,-78.28 187.33,-68.47 182.08,-73.1"/>
<text text-anchor="middle" x="182.5" y="-46.5" font-family="Helvetica,sans-Serif" font-size="10.00"> Init</text>
</g>
</g>
</svg>
