<?xml version="1.0" encoding="UTF-8" standalone="no"?>
<!-- Uploaded to: SVG Repo, www.svgrepo.com, Generator: SVG Repo Mixer Tools -->

<svg
   fill="#000000"
   height="800px"
   width="800px"
   version="1.1"
   id="Layer_1"
   viewBox="0 0 512 512"
   xml:space="preserve"
   sodipodi:docname="microchip-svgrepo-com.svg"
   inkscape:version="1.4.2 (f4327f4, 2025-05-13)"
   xmlns:inkscape="http://www.inkscape.org/namespaces/inkscape"
   xmlns:sodipodi="http://sodipodi.sourceforge.net/DTD/sodipodi-0.dtd"
   xmlns="http://www.w3.org/2000/svg"
   xmlns:svg="http://www.w3.org/2000/svg"><defs
   id="defs14">
	
</defs><sodipodi:namedview
   id="namedview14"
   pagecolor="#ffffff"
   bordercolor="#000000"
   borderopacity="0.25"
   inkscape:showpageshadow="2"
   inkscape:pageopacity="0.0"
   inkscape:pagecheckerboard="0"
   inkscape:deskcolor="#d1d1d1"
   inkscape:zoom="1.00875"
   inkscape:cx="399.50434"
   inkscape:cy="400"
   inkscape:window-width="1920"
   inkscape:window-height="1009"
   inkscape:window-x="3832"
   inkscape:window-y="-8"
   inkscape:window-maximized="1"
   inkscape:current-layer="g13" />
<g
   id="g13"
   style="fill:#000080;fill-opacity:1">
		<g
   id="g12"
   style="fill:#0366d6;fill-opacity:1">
			<path
   d="M 411.546,92.369 H 100.453 c -4.466,0 -8.084,3.618 -8.084,8.084 v 311.092 c 0,4.466 3.618,8.084 8.084,8.084 h 228.114 c 4.466,0 8.084,-3.619 8.084,-8.084 0,-4.465 -3.618,-8.084 -8.084,-8.084 H 108.537 V 108.538 h 294.924 v 294.924 h -45.792 c -4.466,0 -8.084,3.619 -8.084,8.084 0,4.465 3.618,8.084 8.084,8.084 h 53.876 c 4.466,0 8.084,-3.619 8.084,-8.084 V 100.453 c 10e-4,-4.464 -3.618,-8.084 -8.083,-8.084 z"
   id="path1"
   style="fill:#0366d6;fill-opacity:1" />
			<path
   d="m 503.915,295.084 c 4.466,0 8.084,-3.618 8.084,-8.084 0,-4.466 -3.618,-8.084 -8.084,-8.084 h -46.557 v -45.83 h 46.557 c 4.466,0 8.084,-3.618 8.084,-8.084 0,-4.466 -3.618,-8.084 -8.084,-8.084 h -46.557 v -45.832 h 46.556 v 10e-4 c 4.466,0 8.084,-3.619 8.084,-8.084 0,-4.466 -3.618,-8.084 -8.084,-8.084 h -46.557 v -45.83 h 46.557 c 4.466,0 8.084,-3.619 8.084,-8.084 0,-4.465 -3.618,-8.084 -8.084,-8.084 H 457.351 C 457.247,71.862 440.138,54.752 419.079,54.649 V 8.084 C 419.079,3.618 415.46,0 410.995,0 406.53,0 402.911,3.619 402.911,8.084 V 54.643 H 357.082 V 8.084 c 0,-4.466 -3.62,-8.084 -8.084,-8.084 -4.466,0 -8.084,3.619 -8.084,8.084 V 54.643 H 295.083 V 8.084 C 295.083,3.618 291.464,0 286.999,0 c -4.465,0 -8.084,3.619 -8.084,8.084 v 46.559 h -45.83 V 8.084 C 233.084,3.619 229.466,0 225,0 c -4.466,0 -8.084,3.619 -8.084,8.084 v 46.559 h -45.83 V 8.084 C 171.086,3.618 167.467,0 163.002,0 c -4.465,0 -8.084,3.619 -8.084,8.084 v 46.559 h -45.83 V 8.084 C 109.088,3.618 105.469,0 101.004,0 96.539,0 92.92,3.619 92.92,8.084 V 54.648 C 71.86,54.75 54.75,71.861 54.647,92.92 H 8.085 c -4.466,0 -8.084,3.619 -8.084,8.084 0,4.465 3.618,8.084 8.084,8.084 h 46.557 v 45.83 H 8.085 c -4.466,0 -8.084,3.618 -8.084,8.084 0,4.466 3.618,8.084 8.084,8.084 h 46.557 v 45.832 H 8.085 c -4.466,0 -8.084,3.619 -8.084,8.084 0,4.466 3.618,8.084 8.084,8.084 h 46.557 v 45.83 H 8.085 c -4.466,0 -8.084,3.619 -8.084,8.084 0,4.466 3.618,8.084 8.084,8.084 h 46.557 v 45.83 H 8.085 c -4.466,0 -8.084,3.619 -8.084,8.084 0,4.466 3.618,8.084 8.084,8.084 h 46.557 v 45.83 H 8.085 c -4.466,0 -8.084,3.619 -8.084,8.084 0,4.466 3.618,8.084 8.084,8.084 h 46.563 c 0.103,21.06 17.214,38.169 38.273,38.272 v 46.562 c 0,4.466 3.618,8.084 8.084,8.084 4.466,0 8.084,-3.618 8.084,-8.084 v -46.559 h 45.83 v 46.559 c 0,4.466 3.618,8.084 8.084,8.084 4.466,0 8.084,-3.618 8.084,-8.084 v -46.559 h 45.83 v 46.559 c 0,4.466 3.618,8.084 8.084,8.084 4.466,0 8.084,-3.618 8.084,-8.084 v -46.559 h 45.83 v 46.559 c 0,4.466 3.618,8.084 8.084,8.084 4.466,0 8.084,-3.618 8.084,-8.084 v -46.559 h 45.831 v 46.559 c 0,4.466 3.619,8.084 8.084,8.084 4.465,0 8.084,-3.618 8.084,-8.084 v -46.559 h 45.829 v 46.559 c 0,4.466 3.62,8.084 8.084,8.084 4.466,0 8.084,-3.618 8.084,-8.084 V 457.35 c 21.059,-0.104 38.169,-17.213 38.272,-38.272 h 46.563 c 4.466,0 8.084,-3.619 8.084,-8.084 0,-4.465 -3.618,-8.084 -8.084,-8.084 h -46.557 v -45.83 h 46.557 c 4.466,0 8.084,-3.619 8.084,-8.084 0,-4.465 -3.618,-8.084 -8.084,-8.084 h -46.557 v -45.829 h 46.558 z m -85.026,146.105 h -69.873 c -0.006,0 -0.012,-0.001 -0.018,-0.001 -0.007,0 -0.012,0.001 -0.018,0.001 h -61.963 c -0.007,0 -0.012,-0.001 -0.018,-0.001 -0.006,0 -0.012,0.001 -0.018,0.001 h -61.962 c -0.006,0 -0.012,-0.001 -0.018,-0.001 -0.006,0 -0.012,0.001 -0.018,0.001 h -61.962 c -0.006,0 -0.012,-0.001 -0.018,-0.001 -0.006,0 -0.012,0.001 -0.018,0.001 h -61.96 c -0.006,0 -0.012,-0.001 -0.018,-0.001 -0.006,0 -0.012,0.001 -0.018,0.001 H 93.11 c -12.296,0 -22.299,-10.003 -22.299,-22.299 V 93.111 c 0,-12.296 10.003,-22.299 22.299,-22.299 h 7.874 c 0.008,0 0.014,0.001 0.02,0.001 0.006,0 0.014,-0.001 0.021,-0.001 h 61.956 c 0.008,0 0.014,0.001 0.021,0.001 0.006,0 0.014,-0.001 0.02,-0.001 h 61.956 c 0.008,0 0.014,0.001 0.021,0.001 0.007,0 0.014,-0.001 0.02,-0.001 h 61.956 c 0.008,0 0.014,0.001 0.021,0.001 0.007,0 0.014,-0.001 0.021,-0.001 h 61.957 c 0.008,0 0.014,0.001 0.021,0.001 0.006,0 0.014,-0.001 0.02,-0.001 h 69.87 c 12.296,0 22.299,10.003 22.299,22.299 V 418.89 h 0.003 c 10e-4,12.295 -10.002,22.299 -22.298,22.299 z"
   id="path2"
   style="fill:#0366d6;fill-opacity:1" />
			<path
   d="m 354.241,162.817 c 4.466,0 8.084,-3.618 8.084,-8.084 0,-4.466 -3.618,-8.084 -8.084,-8.084 h -4.654 c -4.466,0 -8.084,3.618 -8.084,8.084 0,4.466 3.618,8.084 8.084,8.084 z"
   id="path3"
   style="fill:#0366d6;fill-opacity:1" />
			<path
   d="M 322.099,146.649 H 157.758 c -4.466,0 -8.084,3.618 -8.084,8.084 0,4.466 3.618,8.084 8.084,8.084 h 164.341 c 4.466,0 8.084,-3.618 8.084,-8.084 0,-4.466 -3.618,-8.084 -8.084,-8.084 z"
   id="path4"
   style="fill:#0366d6;fill-opacity:1" />
			<path
   d="m 354.241,232.161 h -4.654 c -4.466,0 -8.084,3.618 -8.084,8.084 0,4.466 3.618,8.084 8.084,8.084 h 4.654 c 4.466,0 8.084,-3.618 8.084,-8.084 0,-4.465 -3.619,-8.084 -8.084,-8.084 z"
   id="path5"
   style="fill:#0366d6;fill-opacity:1" />
			<path
   d="m 330.183,240.245 c 0,-4.466 -3.618,-8.084 -8.084,-8.084 H 157.758 c -4.466,0 -8.084,3.618 -8.084,8.084 0,4.466 3.618,8.084 8.084,8.084 h 164.341 c 4.466,0.001 8.084,-3.619 8.084,-8.084 z"
   id="path6"
   style="fill:#0366d6;fill-opacity:1" />
			<path
   d="m 157.758,205.574 h 4.654 c 4.466,0 8.084,-3.618 8.084,-8.084 0,-4.466 -3.618,-8.084 -8.084,-8.084 h -4.654 c -4.466,0 -8.084,3.618 -8.084,8.084 0,4.465 3.619,8.084 8.084,8.084 z"
   id="path7"
   style="fill:#0366d6;fill-opacity:1" />
			<path
   d="m 181.815,197.49 c 0,4.466 3.619,8.084 8.084,8.084 H 354.24 c 4.466,0 8.084,-3.618 8.084,-8.084 0,-4.466 -3.618,-8.084 -8.084,-8.084 H 189.9 c -4.466,0 -8.085,3.618 -8.085,8.084 z"
   id="path8"
   style="fill:#0366d6;fill-opacity:1" />
			<path
   d="m 157.758,314.637 c -4.466,0 -8.084,3.619 -8.084,8.084 0,4.465 3.618,8.084 8.084,8.084 h 5.244 c 4.466,0 8.084,-3.619 8.084,-8.084 0,-4.465 -3.619,-8.084 -8.084,-8.084 z"
   id="path9"
   style="fill:#0366d6;fill-opacity:1" />
			<path
   d="m 196.615,314.637 c -4.466,0 -8.084,3.619 -8.084,8.084 0,4.465 3.619,8.084 8.084,8.084 h 5.244 c 4.466,0 8.084,-3.619 8.084,-8.084 0,-4.465 -3.618,-8.084 -8.084,-8.084 z"
   id="path10"
   style="fill:#0366d6;fill-opacity:1" />
			<path
   d="m 235.473,314.637 c -4.466,0 -8.084,3.619 -8.084,8.084 0,4.465 3.618,8.084 8.084,8.084 h 5.245 c 4.466,0 8.084,-3.619 8.084,-8.084 0,-4.465 -3.619,-8.084 -8.084,-8.084 z"
   id="path11"
   style="fill:#0366d6;fill-opacity:1" />
			<path
   d="m 362.325,344.332 v -43.221 c 0,-11.59 -9.429,-21.019 -21.019,-21.019 h -43.221 c -11.59,0 -21.019,9.429 -21.019,21.019 v 43.221 c 0,11.59 9.429,21.019 21.019,21.019 h 43.221 c 11.59,0 21.019,-9.429 21.019,-21.019 z m -16.168,0 c 0,2.674 -2.175,4.851 -4.851,4.851 h -43.221 c -2.674,0 -4.851,-2.176 -4.851,-4.851 v -43.221 c 0,-2.674 2.176,-4.851 4.851,-4.851 h 43.221 c 2.675,0 4.851,2.176 4.851,4.851 z"
   id="path12"
   style="fill:#0366d6;fill-opacity:1" />
		</g>
	</g>
</svg>
